<svg width="52" height="52" viewBox="0 0 52 52" fill="none" xmlns="http://www.w3.org/2000/svg">
<rect width="52" height="52" rx="5" fill="#AFFFCF" fill-opacity="0.2"/>
<path d="M39.3591 7.70361C39.8208 7.91366 39.9641 8.23638 39.963 8.67557C39.9531 19.2538 39.9505 29.8317 39.955 40.4093C39.955 41.1397 39.6821 41.3641 38.8075 41.3689H36.5931C36.5487 41.3767 36.5052 41.3882 36.4635 41.4032C36.4635 42.0515 36.4635 42.7141 36.4635 43.3768C36.4635 44.0594 36.178 44.2962 35.358 44.2962C34.0797 44.2962 32.8025 44.2962 31.5253 44.2962C30.8224 44.2962 30.5074 44.0336 30.5017 43.4493C30.5017 42.7714 30.5017 42.0935 30.5017 41.3899H21.9798C21.9798 42.0525 21.9798 42.7154 21.9798 43.3787C21.9798 44.0594 21.6921 44.2962 20.8721 44.2962C19.5938 44.2962 18.3166 44.2962 17.0394 44.2962C16.3365 44.2962 16.0237 44.0327 16.0158 43.4484C16.0158 42.7705 16.0158 42.0926 16.0158 41.3641H15.5483C14.8523 41.3641 14.1574 41.3698 13.4625 41.3641C12.8734 41.3565 12.5459 41.0777 12.5277 40.585C12.5277 40.5258 12.5277 40.4666 12.5277 40.4065C12.5277 29.8301 12.5246 19.2532 12.5186 8.67557C12.5186 8.23638 12.6607 7.91366 13.1236 7.70361H39.3591ZM38.2218 33.514V9.15105H14.2632V33.5092H15.9305V11.623C15.9305 10.8372 16.1784 10.629 17.1167 10.629H35.3432C36.302 10.629 36.5431 10.8334 36.5431 11.6468V33.5111L38.2218 33.514ZM38.2218 39.9214V34.9919H14.2518V39.9214H38.2218ZM34.8201 29.2652H17.6603V33.5101H34.8201V29.2652ZM17.6569 22.0538H34.8098V17.8041H17.6569V22.0538ZM34.8189 23.5366H17.6717V27.7863H34.8189V23.5366ZM17.6706 12.0726V16.3357H34.8098V12.0726H17.6706ZM17.7536 41.3841V42.8392H20.2523V41.3841H17.7536ZM34.7223 42.8583V41.3861H32.2202V42.8583H34.7223Z" fill="#71B626"/>
<path d="M23.3531 37.442C23.3616 37.5848 23.3616 37.7279 23.3531 37.8707C23.3348 38.0385 23.2446 38.1951 23.0993 38.3114C22.9539 38.4276 22.7632 38.4956 22.5627 38.5028C22.1748 38.5209 21.7756 38.3051 21.7211 37.971C21.6659 37.6183 21.6659 37.261 21.7211 36.9083C21.7745 36.555 22.176 36.3421 22.5911 36.3669C22.7902 36.3788 22.9773 36.4511 23.1173 36.5705C23.2574 36.6898 23.3408 36.848 23.352 37.0152C23.3679 37.1575 23.352 37.3017 23.352 37.4439L23.3531 37.442Z" fill="#71B626"/>
<path d="M34.5084 37.4457C34.5169 37.5882 34.5169 37.731 34.5084 37.8735C34.4898 38.0351 34.4047 38.1861 34.2677 38.3007C34.1306 38.4152 33.9503 38.4859 33.7577 38.5008C33.3745 38.5351 32.9434 38.3289 32.8888 38.0024C32.8274 37.627 32.8274 37.2463 32.8888 36.871C32.9423 36.5387 33.3438 36.342 33.7498 36.3668C33.9427 36.3769 34.1251 36.4443 34.2643 36.557C34.4035 36.6696 34.4904 36.8202 34.5095 36.9817C34.5188 37.1363 34.5184 37.2912 34.5084 37.4457Z" fill="#71B626"/>
<path d="M17.9665 37.4245C17.9579 37.282 17.9579 37.1392 17.9665 36.9967C17.9826 36.8351 18.0662 36.6835 18.2024 36.5686C18.3387 36.4536 18.519 36.3828 18.7114 36.3685C19.1288 36.3351 19.5359 36.5423 19.5985 36.8917C19.657 37.2324 19.6628 37.5781 19.6156 37.92C19.5866 38.0937 19.4789 38.2512 19.3148 38.3597C19.1508 38.4683 18.9432 38.5194 18.7353 38.5024C18.5279 38.4892 18.3338 38.4119 18.1905 38.2854C18.0472 38.159 17.9649 37.9923 17.9596 37.8178C17.9494 37.687 17.9596 37.5562 17.9596 37.4245H17.9665Z" fill="#71B626"/>
<path d="M30.8298 37.4854C30.8228 37.6481 30.8019 37.8102 30.7673 37.9704C30.7246 38.1343 30.6131 38.2799 30.4531 38.3804C30.2931 38.481 30.0953 38.53 29.8959 38.5183C29.6966 38.5066 29.5088 38.435 29.3671 38.3167C29.2253 38.1984 29.139 38.0413 29.1239 37.8739C29.1006 37.6007 29.0983 37.3264 29.117 37.0528C29.1184 36.8783 29.1987 36.7107 29.3416 36.584C29.4845 36.4573 29.6795 36.3808 29.887 36.3702C30.1018 36.3549 30.3154 36.4098 30.4832 36.5235C30.651 36.6371 30.7601 36.8008 30.7878 36.9803C30.8119 37.1479 30.826 37.3165 30.8298 37.4854Z" fill="#71B626"/>
<path d="M27.0864 37.467C27.0864 37.5854 27.0966 37.7048 27.0864 37.8222C27.0751 38.004 26.9812 38.1752 26.824 38.3005C26.6667 38.4259 26.4582 38.4957 26.2414 38.4957C26.0245 38.4957 25.816 38.4259 25.6587 38.3005C25.5015 38.1752 25.4076 38.004 25.3963 37.8222C25.377 37.5621 25.377 37.3013 25.3963 37.0412C25.4076 36.8594 25.5015 36.6882 25.6587 36.5629C25.816 36.4376 26.0245 36.3677 26.2414 36.3677C26.4582 36.3677 26.6667 36.4376 26.824 36.5629C26.9812 36.6882 27.0751 36.8594 27.0864 37.0412C27.0978 37.1825 27.0864 37.3248 27.0864 37.467Z" fill="#71B626"/>
<path d="M27.9864 32.102C26.6102 32.102 25.2341 32.102 23.8579 32.102C23.2893 32.102 22.9481 31.8681 22.8969 31.4709C22.8672 31.2976 22.9185 31.1214 23.0399 30.9791C23.1613 30.8368 23.3436 30.7393 23.5486 30.7071C23.7158 30.6815 23.8858 30.6706 24.0558 30.6747C26.6807 30.6747 29.3053 30.6747 31.9294 30.6747C32.0712 30.6716 32.213 30.6776 32.3536 30.6928C32.5682 30.7116 32.7654 30.8006 32.9024 30.9405C33.0395 31.0804 33.1055 31.26 33.0861 31.4404C33.0813 31.615 32.9953 31.7811 32.8465 31.9031C32.6978 32.0252 32.498 32.0935 32.2899 32.0935C31.3801 32.1106 30.4702 32.102 29.5661 32.103C29.0315 32.103 28.5061 32.102 27.9864 32.102Z" fill="#71B626"/>
<path d="M21.1621 31.3995C21.1565 31.5848 21.0656 31.761 20.9084 31.8912C20.7513 32.0213 20.5401 32.0953 20.3194 32.0974C20.2065 32.0978 20.0947 32.0789 19.9907 32.042C19.8867 32.005 19.7927 31.9508 19.7144 31.8826C19.6361 31.8143 19.575 31.7334 19.5349 31.6448C19.4948 31.5562 19.4766 31.4617 19.4812 31.367C19.4863 31.1799 19.5798 31.0021 19.741 30.8729C19.9023 30.7436 20.1181 30.6734 20.341 30.6777C20.5639 30.682 20.7756 30.7604 20.9296 30.8958C21.0836 31.0312 21.1672 31.2124 21.1621 31.3995Z" fill="#71B626"/>
<path d="M27.962 20.6461C26.5722 20.6461 25.1813 20.6519 23.7903 20.6461C23.1557 20.6461 22.7668 20.2346 22.9123 19.7506C23.0056 19.4364 23.3252 19.2235 23.7687 19.2226C26.5787 19.2175 29.3886 19.2175 32.1985 19.2226C32.7273 19.2226 33.0765 19.5214 33.0822 19.9262C33.0879 20.3473 32.7307 20.6433 32.1723 20.6452C30.7723 20.6509 29.3677 20.6461 27.962 20.6461Z" fill="#71B626"/>
<path d="M20.3025 20.6423C20.0809 20.6388 19.8699 20.5618 19.7156 20.4282C19.5614 20.2946 19.4763 20.1152 19.4791 19.9291C19.4819 19.7433 19.5703 19.5655 19.7257 19.4331C19.881 19.3007 20.0914 19.2239 20.3127 19.2188C20.5419 19.2228 20.7598 19.3027 20.919 19.4412C21.0782 19.5796 21.1656 19.7653 21.1623 19.9577C21.1557 20.1441 21.0616 20.3206 20.9005 20.4489C20.7395 20.5771 20.5244 20.6467 20.3025 20.6423Z" fill="#71B626"/>
<path d="M27.9619 26.3724C26.5709 26.3724 25.18 26.3782 23.7902 26.3724C23.1374 26.3724 22.7416 25.9323 22.9213 25.4444C23.035 25.1331 23.3637 24.9508 23.855 24.9479C24.8627 24.9431 25.8704 24.9479 26.878 24.9479C28.5942 24.9479 30.3116 24.9412 32.0278 24.9565C32.2935 24.9578 32.5538 25.0198 32.7807 25.136C33.0991 25.3098 33.1537 25.6134 33.0343 25.9046C32.9818 26.049 32.8726 26.1742 32.7245 26.2598C32.5765 26.3455 32.3982 26.3865 32.2188 26.3763H28.4304L27.9619 26.3724Z" fill="#71B626"/>
<path d="M20.3136 26.3693C20.0922 26.3666 19.8809 26.2912 19.7249 26.1594C19.5689 26.0275 19.4806 25.8496 19.4788 25.6638C19.4758 25.5689 19.4955 25.4745 19.5369 25.3862C19.5783 25.2978 19.6404 25.2174 19.7197 25.1497C19.7989 25.082 19.8935 25.0284 19.998 24.9921C20.1024 24.9557 20.2145 24.9374 20.3275 24.9383C20.4406 24.9391 20.5523 24.959 20.6559 24.9969C20.7596 25.0348 20.8531 25.0898 20.9309 25.1587C21.0087 25.2275 21.0691 25.3088 21.1086 25.3978C21.1482 25.4867 21.1659 25.5814 21.1609 25.6762C21.157 25.8622 21.0658 26.0393 20.9071 26.1691C20.7485 26.2989 20.5352 26.3709 20.3136 26.3693Z" fill="#71B626"/>
<path d="M27.963 14.923H23.7913C23.399 14.923 23.093 14.7846 22.9463 14.4771C22.8178 14.205 22.8451 13.9148 23.1249 13.7219C23.3068 13.5941 23.532 13.5176 23.7686 13.5033C26.5778 13.4889 29.388 13.4918 32.1972 13.4966C32.7249 13.4966 33.0763 13.7906 33.082 14.1974C33.0877 14.6041 32.7306 14.9173 32.1779 14.9201C30.7733 14.9278 29.3676 14.923 27.963 14.923Z" fill="#71B626"/>
<path d="M21.1628 14.1963C21.1648 14.3359 21.1175 14.4728 21.0267 14.5899C20.9359 14.7069 20.8059 14.7986 20.6529 14.8535C20.5 14.9084 20.3311 14.924 20.1677 14.8983C20.0042 14.8726 19.8535 14.8068 19.7346 14.7091C19.6157 14.6115 19.534 14.4864 19.4999 14.3497C19.4657 14.2131 19.4806 14.071 19.5427 13.9415C19.6048 13.8119 19.7112 13.7008 19.8486 13.622C19.986 13.5433 20.1481 13.5006 20.3144 13.4993C20.5357 13.5009 20.7476 13.5744 20.9058 13.7043C21.064 13.8343 21.1561 14.0106 21.1628 14.1963Z" fill="#71B626"/>
</svg>
