<svg width="52" height="52" viewBox="0 0 52 52" fill="none" xmlns="http://www.w3.org/2000/svg">
<rect width="52" height="52" rx="5" fill="#AFFFCF" fill-opacity="0.2"/>
<path d="M26.0006 16.5557V20.3334H20.3339V31.6668H24.1117V35.4446H16.5562V16.5557H26.0006ZM31.6673 31.6668H27.8895V35.4446H35.445V16.5557H26.0006V20.3334H31.6673V31.6668Z" fill="#71B626"/>
<path fill-rule="evenodd" clip-rule="evenodd" d="M9 14.6667C9 13.1638 9.59702 11.7224 10.6597 10.6597C11.7224 9.59702 13.1638 9 14.6667 9H37.3333C38.8362 9 40.2776 9.59702 41.3403 10.6597C42.403 11.7224 43 13.1638 43 14.6667V37.3333C43 38.8362 42.403 40.2776 41.3403 41.3403C40.2776 42.403 38.8362 43 37.3333 43H14.6667C13.1638 43 11.7224 42.403 10.6597 41.3403C9.59702 40.2776 9 38.8362 9 37.3333V14.6667ZM14.6667 12.7778H37.3333C37.8343 12.7778 38.3147 12.9768 38.669 13.331C39.0232 13.6853 39.2222 14.1657 39.2222 14.6667V37.3333C39.2222 37.8343 39.0232 38.3147 38.669 38.669C38.3147 39.0232 37.8343 39.2222 37.3333 39.2222H14.6667C14.1657 39.2222 13.6853 39.0232 13.331 38.669C12.9768 38.3147 12.7778 37.8343 12.7778 37.3333V14.6667C12.7778 14.1657 12.9768 13.6853 13.331 13.331C13.6853 12.9768 14.1657 12.7778 14.6667 12.7778Z" fill="#71B626"/>
</svg>
