<svg width="37" height="37" viewBox="0 0 37 37" fill="none" xmlns="http://www.w3.org/2000/svg">
<rect x="0.878906" y="0.5" width="36" height="36" rx="5" fill="#AFFFCF" fill-opacity="0.2"/>
<path d="M19.0156 29.967H9.00729C7.18151 29.966 6.24916 29.0347 6.24816 27.2179C6.24816 26.6649 6.27811 26.1108 6.24816 25.5598C6.07148 22.6959 6.55462 19.8988 7.04675 17.0968C7.54387 14.1999 8.00306 11.292 8.47024 8.38916C8.65591 7.22522 9.41557 6.50749 10.5865 6.50549C16.1766 6.49817 21.7644 6.49817 27.3499 6.50549C28.5038 6.50549 29.2745 7.1763 29.4801 8.38916C29.9862 11.3699 30.4654 14.3556 30.9545 17.3393C31.1232 18.3665 31.3268 19.3917 31.4446 20.4249C31.5714 21.5389 31.6513 22.6599 31.6882 23.78C31.7291 25.0068 31.7022 26.2356 31.6962 27.4634C31.6892 28.9858 30.7269 29.959 29.2096 29.965C25.8116 29.9723 22.4136 29.973 19.0156 29.967ZM29.9523 20.2462C29.8225 19.3827 29.7057 18.5951 29.5869 17.8085C29.1128 14.679 28.6336 11.5496 28.1694 8.41711C28.1125 8.03279 27.9917 7.86109 27.5565 7.86209C21.8686 7.87673 16.1806 7.87673 10.4927 7.86209C10.1143 7.86209 9.97058 7.95193 9.91668 8.36121C9.53935 11.2172 9.12608 14.0681 8.72878 16.9211C8.57605 18.0191 8.4363 19.1262 8.28756 20.2472L29.9523 20.2462ZM18.9837 28.262C22.5254 28.262 26.0711 28.2541 29.6099 28.27C30.1389 28.27 30.3376 28.0973 30.3306 27.5593C30.3073 25.8603 30.3073 24.1613 30.3306 22.4623C30.3386 21.8963 30.11 21.7046 29.566 21.7056C22.4825 21.7149 15.3987 21.7149 8.31451 21.7056C7.79144 21.7056 7.59079 21.8943 7.59977 22.4323C7.62473 24.1104 7.60676 25.7894 7.60976 27.4684C7.60976 28.2191 7.65468 28.26 8.41933 28.261L18.9837 28.262Z" fill="#71B626"/>
<path d="M14.4033 9.51892L14.4662 10.4403C15.2069 10.4403 15.9376 10.4722 16.6623 10.4293C17.1614 10.3994 17.4739 10.5551 17.7604 10.9843C18.8584 12.6125 20.0134 14.2006 21.1205 15.8228C21.358 16.1712 21.6146 16.3009 22.0249 16.284C22.7236 16.254 23.4164 16.264 24.1122 16.284C24.7281 16.2989 24.9367 16.5405 24.9337 17.1684C24.9337 17.7194 24.6562 18.0079 24.1072 18.0119C23.1089 18.0189 22.0987 18.0488 21.0985 17.9919C20.835 17.977 20.5075 17.7374 20.3458 17.5058C19.2238 15.8947 18.1307 14.2635 17.0457 12.6274C16.834 12.307 16.6164 12.1403 16.2091 12.1702C15.6421 12.2122 15.0691 12.1812 14.4692 12.1812C14.4383 12.5645 14.4123 12.8989 14.3804 13.3102L12.1992 11.6711L14.4033 9.51892Z" fill="#71B626"/>
<path d="M23.8067 13.3466V12.2036C22.509 12.1976 21.1404 11.7723 20.3598 13.4464L19.3047 12.1018C20.268 10.5605 21.8472 10.1302 23.7668 10.5195C23.7938 10.0953 23.8127 9.77985 23.8287 9.5293L25.9659 11.7254L23.8067 13.3466Z" fill="#71B626"/>
<path d="M17.3662 14.5455L18.4643 15.7983C18.053 16.3973 17.5998 17.096 17.1007 17.7668C16.9919 17.9126 16.7174 17.9944 16.5167 18.0004C15.6982 18.0264 14.8786 17.9944 14.0601 18.0164C13.4112 18.0344 13.3234 17.5902 13.3094 17.125C13.2954 16.6598 13.4572 16.2735 14.0381 16.2775C14.6191 16.2815 15.1871 16.3114 15.7561 16.2595C16.0199 16.2252 16.2628 16.0978 16.4409 15.9001C16.7743 15.4959 17.0398 15.0317 17.3662 14.5455Z" fill="#71B626"/>
<path d="M22.043 25.3672H24.5296V26.63H22.043V25.3672Z" fill="#71B626"/>
<path d="M26.3359 25.3562H28.8136V26.6339H26.3359V25.3562Z" fill="#71B626"/>
<path d="M13.293 25.3672H15.7526V26.627H13.293V25.3672Z" fill="#71B626"/>
<path d="M20.0439 26.6358H17.5742V25.373H20.0439V26.6358Z" fill="#71B626"/>
<path d="M15.7696 23.3835V24.5565H13.293V23.3835H15.7696Z" fill="#71B626"/>
<path d="M17.5625 24.5584V23.3815H20.0491V24.5584H17.5625Z" fill="#71B626"/>
<path d="M24.5399 23.392V24.5689H22.0273V23.392H24.5399Z" fill="#71B626"/>
<path d="M26.332 23.3555H28.8186V24.5534H26.332V23.3555Z" fill="#71B626"/>
<path d="M10.5042 25.6836C10.3918 25.6855 10.2802 25.6646 10.1762 25.6219C10.0722 25.5792 9.97798 25.5157 9.89937 25.4353C9.82077 25.355 9.75941 25.2594 9.71906 25.1544C9.67871 25.0495 9.66022 24.9374 9.66473 24.8251C9.66473 24.3619 10.079 23.9267 10.5202 23.9766C10.9954 24.0305 11.3088 24.298 11.3288 24.8111C11.3364 24.9236 11.3206 25.0364 11.2825 25.1425C11.2443 25.2486 11.1847 25.3457 11.1073 25.4276C11.0298 25.5095 10.9363 25.5746 10.8325 25.6186C10.7287 25.6627 10.617 25.6848 10.5042 25.6836Z" fill="#71B626"/>
</svg>
