<svg width="23" height="24" viewBox="0 0 23 24" fill="none" xmlns="http://www.w3.org/2000/svg">
<path fill-rule="evenodd" clip-rule="evenodd" d="M0.636962 13.0434C0.636962 10.3863 2.79871 8.22459 5.45581 8.22459L6.46824 8.22459C6.91797 8.22459 7.28297 8.58959 7.28297 9.03932C7.28297 9.48905 6.91797 9.85405 6.46824 9.85405L5.45581 9.85405C3.69599 9.85405 2.26642 11.2847 2.26642 13.0434L2.26642 18.3392C2.26642 20.0957 3.69599 21.5253 5.45581 21.5253L17.5453 21.5253C19.304 21.5253 20.7336 20.0957 20.7336 18.3392L20.7336 13.0315C20.7336 11.2804 19.3084 9.85405 17.5572 9.85405L16.5328 9.85405C16.0831 9.85405 15.7181 9.48905 15.7181 9.03932C15.7181 8.58959 16.0831 8.22459 16.5328 8.22459L17.5572 8.22459C20.2078 8.22459 22.363 10.382 22.363 13.0315L22.363 18.3392C22.363 20.9941 20.2024 23.1548 17.5453 23.1548L5.45581 23.1548C2.79871 23.1548 0.636963 20.9941 0.636963 18.3392L0.636962 13.0434ZM7.7566 4.26599L10.9232 1.0853C10.9513 1.05692 10.9806 1.03151 11.0116 1.00826L10.9232 1.0853C10.9611 1.04681 11.0026 1.01258 11.0468 0.982885C11.0668 0.969814 11.0875 0.957206 11.1088 0.945522C11.1255 0.93604 11.1428 0.927314 11.1605 0.919223C11.1761 0.912366 11.1917 0.905782 11.2075 0.899681C11.2282 0.89149 11.2494 0.884319 11.2709 0.878028C11.2878 0.873289 11.3047 0.868932 11.3218 0.865112C11.3426 0.86026 11.3635 0.856439 11.3845 0.853433C11.3982 0.851732 11.4125 0.850069 11.427 0.848783C11.4517 0.846296 11.4758 0.845224 11.5 0.845224L11.5674 0.850763L11.6105 0.852993C11.6124 0.853242 11.6142 0.853498 11.616 0.853761L11.5 0.845224C11.5603 0.845224 11.62 0.8519 11.6781 0.864879C11.6953 0.868932 11.7122 0.873289 11.7288 0.878166C11.7506 0.884319 11.7718 0.89149 11.7927 0.899524C11.8083 0.905782 11.8239 0.912366 11.8393 0.919412C11.8572 0.927314 11.8745 0.936038 11.8916 0.945388C11.9125 0.957206 11.9332 0.969814 11.9533 0.983291C11.9652 0.990917 11.9769 0.99928 11.9885 1.00797C12.0225 1.03383 12.0545 1.06202 12.0841 1.09251L15.2445 4.26599C15.4031 4.42459 15.4824 4.63316 15.4824 4.84065C15.4824 5.04922 15.4031 5.25888 15.2423 5.41748C14.9229 5.73468 14.408 5.73359 14.0908 5.4153L12.3147 3.63387L12.3147 14.7405C12.3147 15.1902 11.9497 15.5552 11.5 15.5552C11.0503 15.5552 10.6853 15.1902 10.6853 14.7405L10.6853 3.6317L8.91025 5.4153C8.59305 5.73359 8.07814 5.73576 7.75877 5.41748C7.4394 5.10028 7.4394 4.58537 7.7566 4.26599Z" fill="#878787"/>
</svg>
