<svg width="80" height="25" viewBox="0 0 80 25" fill="none" xmlns="http://www.w3.org/2000/svg">
<path d="M39.68 19H44.4C48 19 50.448 16.728 50.448 13.4C50.448 10.072 48 7.8 44.4 7.8H39.68V19ZM41.28 17.608V9.192H44.304C47.072 9.192 48.848 10.888 48.848 13.4C48.848 15.912 47.072 17.608 44.304 17.608H41.28ZM58.5468 19.128C60.2908 19.128 61.7948 18.52 62.8188 17.368L61.7788 16.36C60.9148 17.272 59.8588 17.704 58.6268 17.704C56.0988 17.704 54.2268 15.88 54.2268 13.4C54.2268 10.92 56.0988 9.096 58.6268 9.096C59.8588 9.096 60.9148 9.512 61.7788 10.424L62.8188 9.416C61.7948 8.264 60.2908 7.672 58.5628 7.672C55.1548 7.672 52.6268 10.088 52.6268 13.4C52.6268 16.712 55.1548 19.128 58.5468 19.128ZM77.6613 19L77.6453 7.8H76.3333L71.7253 15.672L67.0533 7.8H65.7413V19H67.2773V10.888L71.3253 17.64H72.0613L76.1093 10.84L76.1253 19H77.6613Z" fill="#C5C5C5"/>
<path fill-rule="evenodd" clip-rule="evenodd" d="M12.3845 0C8.9487 0 6.04244 1.19867 3.66189 3.59601C1.22063 6.07602 0 9.0107 0 12.4C0 15.7894 1.22063 18.7034 3.66189 21.1421C6.10315 23.5808 9.01199 24.8001 12.3845 24.8001C15.7984 24.8001 18.7577 23.5704 21.2609 21.1111C23.6208 18.7757 24.8001 15.8721 24.8001 12.4C24.8001 8.92804 23.5988 5.99336 21.1989 3.59601C18.799 1.19867 15.8617 0 12.3845 0ZM12.4155 2.23072C15.2301 2.23072 17.6197 3.22401 19.5843 5.20802C21.5735 7.17136 22.5655 9.56741 22.5655 12.4C22.5655 15.2521 21.5942 17.6184 19.6489 19.4991C17.6003 21.5244 15.1888 22.5358 12.4155 22.5358C9.64362 22.5358 7.25403 21.5348 5.24677 19.5288C3.23822 17.5241 2.23459 15.1487 2.23459 12.4C2.23459 9.65008 3.24855 7.25403 5.27648 5.20802C7.22174 3.22401 9.601 2.23072 12.4155 2.23072V2.23072Z" fill="#C5C5C5"/>
<path fill-rule="evenodd" clip-rule="evenodd" d="M17.0846 9.46094H8.07129V11.5961H17.0846V9.46094V9.46094ZM17.0846 13.4457H8.07129V15.5809H17.0846V13.4457V13.4457Z" fill="#C5C5C5"/>
</svg>
