<svg width="25" height="24" viewBox="0 0 25 24" fill="none" xmlns="http://www.w3.org/2000/svg">
<path d="M3.67647 0H7.59853C8.075 0 8.53971 0.1575 8.92206 0.45L11.275 2.25H19.8529C20.828 2.25 21.7631 2.64509 22.4526 3.34835C23.1421 4.05161 23.5294 5.00544 23.5294 6V10.8855C23.0758 10.5035 22.5827 10.173 22.0588 9.9V6C22.0588 5.40326 21.8264 4.83097 21.4127 4.40901C20.9991 3.98705 20.438 3.75 19.8529 3.75H11.2059L9.05441 6.051C8.84831 6.27193 8.60033 6.44782 8.32554 6.56798C8.05074 6.68814 7.75487 6.75007 7.45588 6.75H1.47059V17.25C1.47059 17.8467 1.70299 18.419 2.11668 18.841C2.53036 19.2629 3.09143 19.5 3.67647 19.5H10.5985C10.7441 20.0235 10.9368 20.5245 11.1765 21H3.67647C2.70141 21 1.76629 20.6049 1.07681 19.9016C0.387341 19.1984 0 18.2446 0 17.25V3.75C0 2.75544 0.387341 1.80161 1.07681 1.09835C1.76629 0.395088 2.70141 0 3.67647 0ZM1.47059 3.75V5.25H7.45735C7.55714 5.25022 7.65593 5.22972 7.74771 5.18975C7.83948 5.14978 7.92232 5.09117 7.99118 5.0175L9.84412 3.0315L8.03971 1.65C7.91243 1.55263 7.75762 1.5 7.59853 1.5H3.67647C3.09143 1.5 2.53036 1.73705 2.11668 2.15901C1.70299 2.58097 1.47059 3.15326 1.47059 3.75ZM25 17.25C25 19.0402 24.3028 20.7571 23.0617 22.023C21.8207 23.2888 20.1375 24 18.3824 24C16.6272 24 14.944 23.2888 13.703 22.023C12.4619 20.7571 11.7647 19.0402 11.7647 17.25C11.7647 15.4598 12.4619 13.7429 13.703 12.477C14.944 11.2112 16.6272 10.5 18.3824 10.5C20.1375 10.5 21.8207 11.2112 23.0617 12.477C24.3028 13.7429 25 15.4598 25 17.25ZM18.9029 13.7205L18.8985 13.716C18.7623 13.5783 18.5785 13.5007 18.3868 13.5H18.3779C18.1848 13.5009 17.9998 13.5796 17.8632 13.719L14.9221 16.719C14.784 16.8596 14.7063 17.0504 14.7062 17.2495C14.7061 17.4485 14.7834 17.6394 14.9213 17.7803C15.0592 17.9211 15.2463 18.0003 15.4414 18.0004C15.6365 18.0006 15.8237 17.9216 15.9618 17.781L17.6471 16.0605V20.25C17.6471 20.4489 17.7245 20.6397 17.8624 20.7803C18.0003 20.921 18.1873 21 18.3824 21C18.5774 21 18.7644 20.921 18.9023 20.7803C19.0402 20.6397 19.1176 20.4489 19.1176 20.25V16.0605L20.8029 17.781C20.8708 17.8526 20.9519 17.9098 21.0416 17.9491C21.1313 17.9884 21.2278 18.0091 21.3254 18.0099C21.4231 18.0108 21.5199 17.9918 21.6103 17.9541C21.7006 17.9164 21.7827 17.8607 21.8518 17.7903C21.9208 17.7199 21.9754 17.6361 22.0124 17.544C22.0493 17.4518 22.0679 17.353 22.0671 17.2534C22.0662 17.1539 22.046 17.0554 22.0074 16.9639C21.9689 16.8724 21.9129 16.7897 21.8426 16.7205L18.9015 13.7205H18.9029Z" fill="#66B127"/>
</svg>
