<svg width="26" height="26" viewBox="0 0 26 26" fill="none" xmlns="http://www.w3.org/2000/svg">
<path d="M12.5018 0C12.842 4.48822e-05 13.1704 0.124957 13.4247 0.351044C13.6789 0.57713 13.8413 0.888667 13.8812 1.22656L13.8909 1.38909V23.6145C13.8905 23.9685 13.7549 24.3091 13.5119 24.5665C13.2688 24.824 12.9366 24.9789 12.5832 24.9996C12.2298 25.0204 11.8817 24.9054 11.6102 24.6782C11.3387 24.4509 11.1642 24.1286 11.1224 23.777L11.1127 23.6145V1.38909C11.1127 1.02068 11.259 0.667359 11.5196 0.406854C11.7801 0.14635 12.1334 0 12.5018 0ZM6.94544 4.16726C7.28567 4.16731 7.61406 4.29222 7.86831 4.51831C8.12256 4.74439 8.28499 5.05593 8.3248 5.39383L8.33452 5.55635V19.4472C8.33413 19.8013 8.19856 20.1418 7.95551 20.3993C7.71247 20.6567 7.38029 20.8116 7.02684 20.8324C6.6734 20.8531 6.32538 20.7381 6.05388 20.5109C5.78237 20.2837 5.60789 19.9613 5.56607 19.6097L5.55635 19.4472V5.55635C5.55635 5.18794 5.7027 4.83462 5.9632 4.57412C6.22371 4.31361 6.57703 4.16726 6.94544 4.16726ZM18.0581 4.16726C18.3984 4.16731 18.7268 4.29222 18.981 4.51831C19.2353 4.74439 19.3977 5.05593 19.4375 5.39383L19.4472 5.55635V19.4472C19.4468 19.8013 19.3113 20.1418 19.0682 20.3993C18.8252 20.6567 18.493 20.8116 18.1395 20.8324C17.7861 20.8531 17.4381 20.7381 17.1666 20.5109C16.8951 20.2837 16.7206 19.9613 16.6788 19.6097L16.669 19.4472V5.55635C16.669 5.18794 16.8154 4.83462 17.0759 4.57412C17.3364 4.31361 17.6897 4.16726 18.0581 4.16726ZM1.38909 8.33452C1.72932 8.33457 2.05771 8.45948 2.31196 8.68557C2.56621 8.91165 2.72864 9.22319 2.76845 9.56109L2.77817 9.72361V15.28C2.77778 15.634 2.64221 15.9745 2.39916 16.232C2.15612 16.4894 1.82394 16.6444 1.4705 16.6651C1.11705 16.6859 0.769027 16.5709 0.497526 16.3436C0.226024 16.1164 0.0515402 15.7941 0.00972357 15.4425L0 15.28V9.72361C0 9.3552 0.14635 9.00188 0.406854 8.74138C0.667359 8.48087 1.02068 8.33452 1.38909 8.33452ZM23.6145 8.33452C23.9547 8.33457 24.2831 8.45948 24.5374 8.68557C24.7916 8.91165 24.954 9.22319 24.9939 9.56109L25.0036 9.72361V15.28C25.0032 15.634 24.8676 15.9745 24.6246 16.232C24.3815 16.4894 24.0493 16.6444 23.6959 16.6651C23.3425 16.6859 22.9944 16.5709 22.7229 16.3436C22.4514 16.1164 22.2769 15.7941 22.2351 15.4425L22.2254 15.28V9.72361C22.2254 9.3552 22.3717 9.00188 22.6323 8.74138C22.8928 8.48087 23.2461 8.33452 23.6145 8.33452Z" fill="#C5C5C5"/>
</svg>
