<svg width="80" height="80" viewBox="0 0 80 80" fill="none" xmlns="http://www.w3.org/2000/svg">
<rect width="80" height="80" rx="5" fill="#AFFFCF" fill-opacity="0.2"/>
<path d="M69.4035 12.5966C69.0177 12.2144 68.4967 12 67.9537 12C67.4106 12 66.8896 12.2144 66.5038 12.5966L53.7094 25.4187L52.3358 24.0449C51.582 23.288 50.6861 22.6874 49.6996 22.2776C48.7131 21.8678 47.6554 21.6569 46.5872 21.6569C45.5191 21.6569 44.4614 21.8678 43.4749 22.2776C42.4884 22.6874 41.5925 23.288 40.8387 24.0449L34.3779 30.5069L33.7928 29.8963C33.3975 29.5717 32.8955 29.4059 32.3847 29.431C31.8738 29.4561 31.3905 29.6703 31.0289 30.0321C30.6672 30.3938 30.453 30.8772 30.4279 31.3881C30.4028 31.8991 30.5686 32.4011 30.8931 32.7965L31.5036 33.3817L25.0428 39.8436C24.286 40.5976 23.6855 41.4937 23.2758 42.4803C22.8661 43.467 22.6552 44.5248 22.6552 45.5932C22.6552 46.6616 22.8661 47.7195 23.2758 48.7061C23.6855 49.6928 24.286 50.5888 25.0428 51.3428L26.4163 52.7166L13.5965 65.5133C13.2144 65.8992 13 66.4203 13 66.9634C13 67.5066 13.2144 68.0277 13.5965 68.4136C13.9854 68.7897 14.5053 69 15.0463 69C15.5874 69 16.1073 68.7897 16.4962 68.4136L29.2906 55.5914L30.6642 56.9652C32.1933 58.4815 34.2595 59.3323 36.4128 59.3323C38.5661 59.3323 40.6322 58.4815 42.1613 56.9652L48.6221 50.5033L49.2072 51.1139C49.5961 51.49 50.116 51.7003 50.657 51.7003C51.1981 51.7003 51.7179 51.49 52.1069 51.1139C52.489 50.728 52.7034 50.2068 52.7034 49.6637C52.7034 49.1206 52.489 48.5995 52.1069 48.2136L51.4964 47.6285L57.9572 41.1665C58.714 40.4125 59.3145 39.5165 59.7242 38.5298C60.1339 37.5432 60.3448 36.4853 60.3448 35.4169C60.3448 34.3486 60.1339 33.2907 59.7242 32.304C59.3145 31.3174 58.714 30.4213 57.9572 29.6673L56.5837 28.2935L69.4035 15.4968C69.7856 15.111 70 14.5898 70 14.0467C70 13.5036 69.7856 12.9825 69.4035 12.5966V12.5966ZM39.287 54.0904C38.5209 54.8455 37.4884 55.2688 36.4128 55.2688C35.3371 55.2688 34.3047 54.8455 33.5385 54.0904L27.9171 48.468C27.5371 48.0919 27.2356 47.6441 27.0297 47.1507C26.8239 46.6573 26.7179 46.1279 26.7179 45.5932C26.7179 45.0586 26.8239 44.5292 27.0297 44.0357C27.2356 43.5423 27.5371 43.0946 27.9171 42.7184L34.3779 36.2565L45.7478 47.6285L39.287 54.0904ZM48.6221 44.7537L37.2522 33.3817L43.7129 26.9197C44.089 26.5397 44.5367 26.2381 45.03 26.0322C45.5234 25.8264 46.0527 25.7204 46.5872 25.7204C47.1218 25.7204 47.6511 25.8264 48.1444 26.0322C48.6378 26.2381 49.0855 26.5397 49.4615 26.9197L55.0829 32.5421C55.8379 33.3085 56.2611 34.3411 56.2611 35.4169C56.2611 36.4928 55.8379 37.5254 55.0829 38.2917L48.6221 44.7537ZM67.8519 49.2821C67.7215 49.6914 67.4634 50.048 67.1155 50.2998C66.7676 50.5516 66.3482 50.6854 65.9188 50.6814C65.7025 50.6848 65.4873 50.6503 65.2829 50.5796L59.1782 48.5444C58.9243 48.4608 58.6894 48.3281 58.4868 48.1538C58.2842 47.9794 58.1179 47.7669 57.9975 47.5283C57.877 47.2897 57.8047 47.0297 57.7847 46.7632C57.7647 46.4966 57.7974 46.2287 57.8809 45.9748C57.9644 45.7209 58.0971 45.486 58.2714 45.2833C58.4457 45.0807 58.6582 44.9144 58.8968 44.7939C59.1353 44.6735 59.3953 44.6011 59.6618 44.5811C59.9283 44.5611 60.1961 44.5938 60.45 44.6774L66.5547 46.7126C66.8085 46.7961 67.0435 46.9288 67.2461 47.1032C67.4487 47.2775 67.615 47.49 67.7354 47.7286C67.8559 47.9672 67.9282 48.2272 67.9482 48.4938C67.9681 48.7603 67.9354 49.0282 67.8519 49.2821ZM15.1481 31.728C15.2316 31.4741 15.3643 31.2391 15.5386 31.0365C15.7129 30.8339 15.9254 30.6675 16.1639 30.5471C16.4025 30.4266 16.6624 30.3543 16.9289 30.3343C17.1954 30.3143 17.4633 30.347 17.7171 30.4305L23.8218 32.4658C24.2816 32.617 24.6725 32.927 24.9242 33.3404C25.176 33.7538 25.2723 34.2434 25.1957 34.7214C25.1191 35.1993 24.8747 35.6343 24.5064 35.9483C24.1381 36.2623 23.6699 36.4347 23.1859 36.4346C22.9697 36.4379 22.7544 36.4035 22.55 36.3328L16.4453 34.2975C16.1915 34.214 15.9565 34.0813 15.7539 33.907C15.5513 33.7327 15.385 33.5201 15.2646 33.2815C15.1441 33.0429 15.0718 32.7829 15.0518 32.5164C15.0319 32.2498 15.0646 31.9819 15.1481 31.728V31.728ZM31.4273 16.718C31.3438 16.4641 31.3111 16.1962 31.3311 15.9297C31.3511 15.6631 31.4234 15.4031 31.5438 15.1645C31.6643 14.9259 31.8305 14.7134 32.0331 14.539C32.2357 14.3647 32.4706 14.232 32.7245 14.1485C33.2372 13.9798 33.7959 14.0217 34.2777 14.265C34.7595 14.5084 35.1249 14.9332 35.2936 15.4459L37.3285 21.5517C37.412 21.8056 37.4447 22.0735 37.4247 22.3401C37.4047 22.6066 37.3324 22.8666 37.212 23.1052C37.0915 23.3438 36.9252 23.5564 36.7226 23.7307C36.52 23.905 36.2851 24.0377 36.0312 24.1212C35.8268 24.1919 35.6116 24.2264 35.3953 24.223C34.9659 24.227 34.5465 24.0933 34.1986 23.8415C33.8507 23.5896 33.5926 23.233 33.4622 22.8238L31.4273 16.718ZM51.5727 64.2922C51.6563 64.5461 51.689 64.814 51.669 65.0805C51.649 65.3471 51.5767 65.6071 51.4562 65.8457C51.3358 66.0843 51.1695 66.2968 50.9669 66.4711C50.7643 66.6455 50.5294 66.7782 50.2755 66.8617C50.0711 66.9324 49.8559 66.9668 49.6396 66.9634C49.2102 66.9674 48.7908 66.8337 48.4429 66.5819C48.095 66.3301 47.8369 65.9734 47.7064 65.5642L45.6715 59.4584C45.588 59.2045 45.5553 58.9366 45.5753 58.6701C45.5953 58.4036 45.6676 58.1436 45.7881 57.905C45.9085 57.6664 46.0748 57.4538 46.2774 57.2795C46.48 57.1052 46.7149 56.9724 46.9688 56.8889C47.2226 56.8054 47.4905 56.7727 47.757 56.7927C48.0235 56.8127 48.2834 56.885 48.522 57.0055C48.7605 57.126 48.973 57.2923 49.1473 57.4949C49.3216 57.6975 49.4543 57.9325 49.5378 58.1864L51.5727 64.2922Z" fill="#71B625"/>
</svg>
