<svg width="32" height="32" viewBox="0 0 32 32" fill="none" xmlns="http://www.w3.org/2000/svg">
<path d="M15.9997 20.7213C18.577 20.7213 20.6663 18.632 20.6663 16.0546C20.6663 13.4773 18.577 11.388 15.9997 11.388C13.4223 11.388 11.333 13.4773 11.333 16.0546C11.333 18.632 13.4223 20.7213 15.9997 20.7213Z" stroke="#71B626" stroke-width="3" stroke-linecap="round" stroke-linejoin="round"/>
<path d="M16 30.0546V30.0701M2 11.3879V11.4035M30 11.3879V11.4035M9.77778 28.6546C7.65498 27.6192 5.82863 26.0635 4.46872 24.1325C3.10882 22.2014 2.25956 19.9577 2 17.6101M22.2222 28.6546C24.345 27.6192 26.1714 26.0635 27.5313 24.1325C28.8912 22.2014 29.7404 19.9577 30 17.6101M6.97778 5.16569C9.47925 3.11851 12.6121 2 15.8444 2C19.0768 2 22.2096 3.11851 24.7111 5.16569" stroke="#71B626" stroke-width="3" stroke-linecap="round" stroke-linejoin="round"/>
</svg>
