<svg width="80" height="80" viewBox="0 0 80 80" fill="none" xmlns="http://www.w3.org/2000/svg">
<path d="M56.7143 19H22.4286C20.535 19 19 20.535 19 22.4286V56.7143C19 58.6078 20.535 60.1429 22.4286 60.1429H56.7143C58.6078 60.1429 60.1429 58.6078 60.1429 56.7143V22.4286C60.1429 20.535 58.6078 19 56.7143 19Z" stroke="#71B625" stroke-width="4" stroke-linecap="round" stroke-linejoin="round"/>
<path d="M33.8569 43H45.2854V49.8571H33.8569V43ZM28.1426 29.2857H50.9997V43H28.1426V29.2857Z" stroke="#71B625" stroke-width="4" stroke-linecap="round" stroke-linejoin="round"/>
<path d="M36.1426 33.8571V29.2857M42.9997 33.8571V29.2857" stroke="#71B625" stroke-width="4" stroke-linecap="round"/>
<path fill-rule="evenodd" clip-rule="evenodd" d="M64.9606 10.8338C64.2211 10.2902 63.3518 10 62.4624 10C61.271 10.0039 60.1293 10.5264 59.2868 11.4535C58.4443 12.3805 57.9694 13.6367 57.9658 14.9476C57.9658 15.6584 58.105 16.3576 58.3705 16.9989L19.0015 59.7618C18.2389 59.4638 17.4158 59.3972 16.6193 59.5715C15.7471 59.7624 14.9459 60.2337 14.317 60.9256C13.6882 61.6175 13.2599 62.4991 13.0864 63.4589C12.9129 64.4186 13.0019 65.4134 13.3423 66.3175C13.6826 67.2215 14.259 67.9943 14.9984 68.5379C15.7379 69.0816 16.6072 69.3717 17.4966 69.3717C18.6881 69.3678 19.8297 68.8453 20.6722 67.9183C21.5147 66.9913 21.9896 65.7351 21.9932 64.4241C21.9932 63.4671 21.741 62.5312 21.2677 61.7294L60.3277 19.3022C60.4618 19.3818 60.6 19.4541 60.7416 19.5187C61.5633 19.8931 62.4674 19.9911 63.3397 19.8002C64.2119 19.6093 65.0131 19.1381 65.642 18.4462C66.2709 17.7542 66.6991 16.8726 66.8726 15.9129C67.0461 14.9531 66.9571 13.9583 66.6167 13.0543C66.2764 12.1502 65.7001 11.3775 64.9606 10.8338Z" fill="#71B626"/>
<rect width="80" height="80" rx="5" fill="#AFFFCF" fill-opacity="0.2"/>
</svg>
