<svg width="22" height="22" viewBox="0 0 22 22" fill="none" xmlns="http://www.w3.org/2000/svg">
<path d="M18.8482 15.7008C18.29 15.6996 17.7439 15.8635 17.2785 16.1719L13.6794 12.5607L12.5696 13.6707L16.1798 17.2709C16.0417 17.5179 15.9362 17.7818 15.8659 18.056H6.17964C6.10129 17.7772 5.98002 17.5124 5.8202 17.2709L17.2785 5.80931C17.7439 6.11768 18.29 6.28156 18.8482 6.28033C19.4359 6.28268 20.0124 6.11998 20.5122 5.81073C21.012 5.50148 21.415 5.05811 21.6753 4.53107C21.9356 4.00403 22.0427 3.41449 21.9846 2.82953C21.9265 2.24456 21.7053 1.68767 21.3464 1.22221C20.9874 0.756757 20.5051 0.401434 19.9542 0.196675C19.4033 -0.00808404 18.806 -0.0540563 18.2303 0.0639894C17.6546 0.182035 17.1236 0.459358 16.6977 0.864402C16.2718 1.26945 15.9681 1.78594 15.8211 2.35513H6.21261C6.02827 1.6828 5.62961 1.08901 5.07719 0.663947C4.52476 0.238883 3.84875 0.00576642 3.15181 0C2.31923 0 1.52074 0.330838 0.932012 0.919734C0.343283 1.50863 0.0125392 2.30734 0.0125392 3.14017C0.0125392 3.97299 0.343283 4.77171 0.932012 5.3606C1.52074 5.9495 2.31923 6.28033 3.15181 6.28033C3.71001 6.28156 4.25611 6.11768 4.72145 5.80931L8.32063 9.4205L9.43036 8.31045L5.8202 4.71025C5.95829 4.46323 6.06381 4.19935 6.13412 3.92521H15.8204C15.8987 4.20396 16.02 4.46881 16.1798 4.71025L4.72145 16.1719C4.25611 15.8635 3.71001 15.6996 3.15181 15.7008C2.56414 15.6985 1.9876 15.8612 1.48781 16.1704C0.988021 16.4797 0.585047 16.9231 0.324744 17.4501C0.0644405 17.9771 -0.0427385 18.5667 0.0154027 19.1516C0.0735438 19.7366 0.29467 20.2935 0.65362 20.759C1.01257 21.2244 1.49493 21.5797 2.04581 21.7845C2.59668 21.9893 3.19396 22.0352 3.76967 21.9172C4.34538 21.7991 4.87641 21.5218 5.30232 21.1168C5.72824 20.7117 6.03193 20.1952 6.17886 19.626H15.7874C15.9325 20.1971 16.2347 20.716 16.6599 21.1238C17.0851 21.5316 17.6161 21.8119 18.1926 21.9329C18.7691 22.0539 19.3679 22.0107 19.9211 21.8082C20.4743 21.6057 20.9596 21.2521 21.3219 20.7875C21.6841 20.3229 21.9089 19.766 21.9705 19.18C22.0322 18.594 21.9282 18.0025 21.6706 17.4727C21.4129 16.9428 21.0118 16.4959 20.5129 16.1827C20.014 15.8695 19.4372 15.7025 18.8482 15.7008ZM18.8482 1.57008C19.1586 1.57008 19.4621 1.66217 19.7202 1.83469C19.9784 2.00721 20.1795 2.25243 20.2983 2.53932C20.4171 2.82622 20.4482 3.14191 20.3877 3.44648C20.3271 3.75104 20.1776 4.0308 19.9581 4.25038C19.7386 4.46996 19.4589 4.6195 19.1544 4.68008C18.8499 4.74066 18.5343 4.70957 18.2475 4.59074C17.9607 4.4719 17.7156 4.27066 17.5431 4.01246C17.3706 3.75426 17.2785 3.4507 17.2785 3.14017C17.2798 2.72414 17.4456 2.3255 17.7397 2.03132C18.0338 1.73714 18.4323 1.57133 18.8482 1.57008ZM3.15181 4.71025C2.84137 4.71025 2.5379 4.61817 2.27977 4.44564C2.02164 4.27312 1.82046 4.02791 1.70166 3.74101C1.58286 3.45412 1.55177 3.13843 1.61234 2.83386C1.6729 2.52929 1.82239 2.24953 2.04191 2.02995C2.26143 1.81037 2.54111 1.66083 2.84559 1.60025C3.15007 1.53967 3.46567 1.57076 3.75249 1.6896C4.0393 1.80843 4.28445 2.00968 4.45692 2.26788C4.62939 2.52607 4.72145 2.82963 4.72145 3.14017C4.72021 3.5562 4.55444 3.95483 4.26034 4.24901C3.96625 4.54319 3.56773 4.70901 3.15181 4.71025ZM3.15181 20.4111C2.84137 20.4111 2.5379 20.319 2.27977 20.1465C2.02164 19.974 1.82046 19.7287 1.70166 19.4418C1.58286 19.155 1.55177 18.8393 1.61234 18.5347C1.6729 18.2301 1.82239 17.9504 2.04191 17.7308C2.26143 17.5112 2.54111 17.3617 2.84559 17.3011C3.15007 17.2405 3.46567 17.2716 3.75249 17.3904C4.0393 17.5093 4.28445 17.7105 4.45692 17.9687C4.62939 18.2269 4.72145 18.5305 4.72145 18.841C4.72021 19.257 4.55444 19.6557 4.26034 19.9498C3.96625 20.244 3.56773 20.4098 3.15181 20.4111ZM18.8482 20.4111C18.5377 20.4111 18.2343 20.319 17.9761 20.1465C17.718 19.974 17.5168 19.7287 17.398 19.4418C17.2792 19.155 17.2481 18.8393 17.3087 18.5347C17.3693 18.2301 17.5188 17.9504 17.7383 17.7308C17.9578 17.5112 18.2375 17.3617 18.542 17.3011C18.8464 17.2405 19.162 17.2716 19.4489 17.3904C19.7357 17.5093 19.9808 17.7105 20.1533 17.9687C20.3258 18.2269 20.4178 18.5305 20.4178 18.841C20.4166 19.257 20.2508 19.6557 19.9567 19.9498C19.6626 20.244 19.2641 20.4098 18.8482 20.4111Z" fill="#66B127"/>
</svg>
