<svg width="190" height="30" viewBox="0 0 190 30" fill="none" xmlns="http://www.w3.org/2000/svg">
<path d="M29.6855 14.859C29.6849 15.8457 29.5883 16.83 29.3973 17.7981H29.1583V17.8578H17.4613C16.7649 18.5438 15.8727 18.9963 14.9079 19.1526C13.9432 19.309 12.9537 19.1616 12.0765 18.7307C11.1992 18.2998 10.4775 17.6068 10.0114 16.7477C9.5452 15.8885 9.35759 14.9056 9.47449 13.9351C9.5914 12.9645 10.007 12.0543 10.6639 11.3305C11.3207 10.6067 12.1863 10.1049 13.1408 9.89481C14.0952 9.68467 15.0914 9.77652 15.9914 10.1576C16.8914 10.5387 17.6507 11.1902 18.1642 12.022H23.5523C22.8833 10.1662 21.6416 8.57138 20.0067 7.46801C18.3718 6.36463 16.4285 5.80992 14.4576 5.88405C12.4868 5.95819 10.5905 6.65734 9.04313 7.88043C7.4957 9.10351 6.37726 10.7871 5.8495 12.6879C5.32175 14.5887 5.41202 16.6081 6.10727 18.4541C6.80252 20.3002 8.06673 21.8773 9.7171 22.9573C11.3675 24.0374 13.3185 24.5645 15.2881 24.4624C17.2577 24.3603 19.1438 23.6343 20.6737 22.3894L20.7546 22.3296L21.6051 21.5984C22.1471 21.1488 22.8307 20.906 23.5347 20.9129C24.2787 20.9041 25.0015 21.1608 25.5733 21.6371C25.7805 21.8175 25.9605 22.0271 26.1075 22.2593C26.3313 22.6304 26.4371 23.0608 26.4107 23.4934C26.3843 23.926 26.2271 24.3404 25.9599 24.6816C25.9492 24.7016 25.9349 24.7194 25.9177 24.7343C25.8377 24.8274 25.752 24.9154 25.6612 24.998C25.6477 25.0181 25.6311 25.0359 25.6119 25.0507C23.2386 27.5565 20.0664 29.1566 16.641 29.5757C13.2156 29.9948 9.75132 29.2067 6.84412 27.347C3.93692 25.4872 1.76863 22.6722 0.712303 19.3862C-0.344025 16.1001 -0.222332 12.5486 1.05644 9.34261C2.33522 6.13663 4.69111 3.47667 7.71879 1.8204C10.7465 0.164127 14.2566 -0.384894 17.6452 0.267797C21.0339 0.920488 24.0892 2.73408 26.2854 5.39653C28.4816 8.05898 29.6815 11.4038 29.6785 14.8555L29.6855 14.859Z" fill="url(#paint0_linear_1_5151)"/>
<path d="M57.2 26L49.4 15.14L56.72 5H50.3L46.16 11.06L41.96 5H35.27L42.59 15.38L34.94 26H41.72L46.01 19.49L50.36 26H57.2ZM65.6309 26H71.5709V9.71H77.9909V5H59.1809V9.71H65.6309V26ZM96.0439 26H102.404L97.8739 19.4C100.484 18.14 101.984 15.86 101.984 12.77C101.984 7.97 98.3839 5 92.6539 5H83.0539V26H88.9939V20.42H92.2339L96.0439 26ZM95.9839 12.77C95.9839 14.69 94.7539 15.83 92.2939 15.83H88.9939V9.68H92.2939C94.7539 9.68 95.9839 10.82 95.9839 12.77ZM123.831 26H130.011L120.711 5H114.861L105.591 26H111.651L113.301 21.92H122.181L123.831 26ZM115.041 17.54L117.741 10.82L120.441 17.54H115.041ZM148.793 5L142.973 18.68L137.273 5H130.853L139.823 26H145.673L154.673 5H148.793ZM158.752 26H164.692V5H158.752V26ZM179.148 26.42C185.388 26.42 188.448 23.3 188.448 19.64C188.448 11.9 176.538 14.3 176.538 11.09C176.538 10.04 177.438 9.2 179.928 9.2C181.758 9.2 183.738 9.74 185.748 10.82L187.578 6.41C185.508 5.21 182.688 4.58 179.958 4.58C173.718 4.58 170.658 7.64 170.658 11.39C170.658 19.19 182.598 16.76 182.598 20.09C182.598 21.11 181.638 21.8 179.178 21.8C176.748 21.8 174.108 20.96 172.248 19.73L170.298 24.11C172.278 25.49 175.698 26.42 179.148 26.42Z" fill="#464646"/>
<defs>
<linearGradient id="paint0_linear_1_5151" x1="-0.520186" y1="14.859" x2="29.1794" y2="14.859" gradientUnits="userSpaceOnUse">
<stop stop-color="#73B725"/>
<stop offset="0.23" stop-color="#6EB526"/>
<stop offset="0.51" stop-color="#60AF2B"/>
<stop offset="0.8" stop-color="#49A432"/>
<stop offset="1" stop-color="#349B38"/>
</linearGradient>
</defs>
</svg>
