<svg width="26" height="23" viewBox="0 0 26 23" fill="none" xmlns="http://www.w3.org/2000/svg">
<path d="M17.9932 17.2663H14.2932V12.333H11.8266V17.2663H8.12656V18.4997H0.726562V20.9663H8.12656V22.1997H17.9932V20.9663H25.3932V18.4997H17.9932V17.2663Z" fill="#9B51E0"/>
<path d="M20.4596 1.23333H13.3149L12.2628 0.180067L12.0815 0H5.65957C5.16912 0.000652629 4.69894 0.195772 4.35214 0.542573C4.00534 0.889374 3.81022 1.35955 3.80957 1.85V11.7167C3.81022 12.2071 4.00534 12.6773 4.35214 13.0241C4.69894 13.3709 5.16912 13.566 5.65957 13.5667H20.4596C20.95 13.566 21.4202 13.3709 21.767 13.0241C22.1138 12.6773 22.3089 12.2071 22.3096 11.7167V3.08333C22.3089 2.59288 22.1138 2.12271 21.767 1.77591C21.4202 1.42911 20.95 1.23399 20.4596 1.23333ZM19.8429 3.7V11.1H6.27624V2.46667H10.9543L12.0063 3.51993L12.1876 3.7H19.8429Z" fill="#9B51E0"/>
</svg>
