<svg width="26" height="24" viewBox="0 0 26 24" fill="none" xmlns="http://www.w3.org/2000/svg">
<path d="M18.666 0H2.96899C2.37426 0 1.80389 0.236255 1.38335 0.656791C0.962817 1.07733 0.726563 1.6477 0.726562 2.24242V12.3333H2.96899V2.24242H18.666V0Z" fill="#27AE60"/>
<path d="M23.1503 4.48438H7.45336C6.85863 4.48438 6.28826 4.72063 5.86773 5.14117C5.44719 5.5617 5.21094 6.13207 5.21094 6.7268V17.9389C5.21094 18.5336 5.44719 19.104 5.86773 19.5246C6.28826 19.9451 6.85863 20.1813 7.45336 20.1813H13.6537V21.8968H11.9382V23.545H18.6655V21.8856H16.9612V20.1813H23.1503C23.7451 20.1813 24.3154 19.9451 24.736 19.5246C25.1565 19.104 25.3928 18.5336 25.3928 17.9389V6.7268C25.3928 6.13207 25.1565 5.5617 24.736 5.14117C24.3154 4.72063 23.7451 4.48438 23.1503 4.48438ZM23.1503 17.9389H7.45336V6.7268H23.1503V17.9389Z" fill="#27AE60"/>
</svg>
