<svg width="25" height="25" viewBox="0 0 25 25" fill="none" xmlns="http://www.w3.org/2000/svg">
<path d="M12.3932 16.3916C14.4183 16.3916 16.0599 14.75 16.0599 12.725C16.0599 10.6999 14.4183 9.05829 12.3932 9.05829C10.3682 9.05829 8.72656 10.6999 8.72656 12.725C8.72656 14.75 10.3682 16.3916 12.3932 16.3916Z" stroke="#C5C5C5" stroke-width="2" stroke-linecap="round" stroke-linejoin="round"/>
<path d="M12.3931 23.7249V23.7371M1.39307 9.05826V9.07048M23.3931 9.05826V9.07048M7.50418 22.6249C5.83626 21.8114 4.40127 20.5891 3.33278 19.0718C2.26428 17.5546 1.59701 15.7916 1.39307 13.9471M17.282 22.6249C18.9499 21.8114 20.3849 20.5891 21.4534 19.0718C22.5219 17.5546 23.1891 15.7916 23.3931 13.9471M5.30418 4.16937C7.26962 2.56087 9.73111 1.68204 12.2708 1.68204C14.8106 1.68204 17.2721 2.56087 19.2375 4.16937" stroke="#C5C5C5" stroke-width="2" stroke-linecap="round" stroke-linejoin="round"/>
</svg>
