<svg width="54" height="54" viewBox="0 0 54 54" fill="none" xmlns="http://www.w3.org/2000/svg">
<rect width="54" height="54" rx="5" fill="#AFFFCF" fill-opacity="0.2"/>
<path d="M27.2289 47.2566C22.7446 47.2566 18.2581 47.2566 13.7717 47.2566C11.7695 47.2566 11.0116 46.5135 11.0074 44.5492C10.9975 39.9666 10.9975 35.3833 11.0074 30.7993C11.0009 30.3157 11.0822 29.8349 11.2474 29.3803C14.1948 21.959 17.1591 14.5504 20.0771 7.12067C20.4224 6.24486 20.8771 5.9859 21.7909 6.00064C25.3994 6.05748 29.0079 6.06801 32.6143 6.00064C33.606 5.9838 34.0502 6.29749 34.4186 7.22173C37.1261 14.0009 39.8335 20.7842 42.6989 27.4981C43.451 29.2293 43.8153 31.1041 43.7663 32.9909C43.6968 36.7447 43.7494 40.4985 43.7452 44.2544C43.7452 46.6019 43.0778 47.2524 40.6799 47.2524C36.1983 47.2552 31.7147 47.2566 27.2289 47.2566ZM13.1337 28.0434H41.4588C41.4771 27.9037 41.4771 27.7621 41.4588 27.6223C38.7851 21.0411 36.1281 14.4493 33.3996 7.88701C33.248 7.52069 32.528 7.19436 32.0649 7.18383C28.9069 7.12067 25.7257 7.18383 22.5572 7.12067C21.6351 7.10383 21.2035 7.38805 20.8729 8.26597C18.4602 14.4851 15.9844 20.6874 13.5338 26.8813C13.3864 27.2287 13.2938 27.5929 13.1337 28.0434ZM27.3531 45.5997C31.7891 45.5997 36.2271 45.5829 40.663 45.6145C41.5936 45.6145 42.0841 45.4587 42.0694 44.3513C42.0146 39.9154 42.0252 35.4773 42.0694 31.0414C42.0694 30.0708 41.7178 29.7635 40.7914 29.7635C31.8691 29.7817 22.9467 29.7817 14.0243 29.7635C13.0032 29.7635 12.6832 30.1298 12.6937 31.1382C12.7379 35.4773 12.7548 39.8164 12.6937 44.1555C12.6748 45.3492 13.079 45.6418 14.2011 45.6292C18.576 45.5724 22.9635 45.5997 27.3531 45.5997Z" fill="#71B626"/>
<path d="M27.4354 31.3949C31.0397 31.3949 34.6441 31.3949 38.2484 31.3949C40.0232 31.3949 40.4169 31.7802 40.4274 33.5234C40.4456 36.3964 40.4456 39.2737 40.4274 42.1552C40.4148 43.8016 39.9621 44.2753 38.3536 44.2774C31.0552 44.29 23.749 44.29 16.4351 44.2774C14.8098 44.2774 14.3424 43.81 14.3298 42.1889C14.3087 39.2639 14.3087 36.341 14.3298 33.4202C14.3424 31.8328 14.7508 31.4159 16.3277 31.4096C20.031 31.3844 23.7343 31.397 27.4354 31.3949ZM38.6926 42.5889V33.0181H34.663C34.5683 33.6139 34.4883 34.1213 34.4083 34.6202H32.2292L32.0419 33.0223H22.81L22.5763 34.576H20.5047L20.332 32.997H16.0603V42.6815H20.831V40.3867L17.9383 40.2141C17.6183 38.433 17.6183 38.433 20.1047 38.1088C20.2099 37.6751 20.3152 37.2266 20.4184 36.8245H22.0774C22.1889 37.3235 22.2879 37.7403 22.3763 38.1614H24.7343C24.8332 37.6751 24.9217 37.254 25.008 36.8351H26.8017C26.7659 37.9088 27.0291 38.5762 28.2607 38.0814C28.326 37.6835 28.3975 37.2688 28.4712 36.8308H30.2102C30.305 37.3277 30.3808 37.7382 30.4755 38.233C30.9303 38.233 31.3176 38.233 31.6987 38.233C32.0798 38.233 32.4524 38.1804 32.8461 38.1509C32.9219 37.6582 32.983 37.2456 33.0461 36.8308H34.863C34.9262 37.3235 34.9788 37.7382 35.0293 38.1256C37.1494 38.353 37.1494 38.353 36.8231 40.2099L34.1535 40.3952V42.5994L38.6926 42.5889ZM23.0332 42.5363H31.9282V40.3783H23.0332V42.5363Z" fill="#71B626"/>
</svg>
