<svg width="54" height="54" viewBox="0 0 54 54" fill="none" xmlns="http://www.w3.org/2000/svg">
<rect width="54" height="54" rx="5" fill="#AFFFCF" fill-opacity="0.2"/>
<path d="M8.92727 11V15.8908H46.3047V39.985H23.441V36.4118H13.8694L13.6193 40.0319H9.58384C8.00048 41.0524 10.3498 43.9802 7 43.9445V11.2948L8.92727 11ZM44.3863 38.0778V18.1262H9.0501V21.8468H13.5657V31.4987H9.0635V38.022H11.7099C11.9801 34.4488 12.1185 34.3282 15.6403 34.3238C17.4835 34.3238 19.3266 34.3238 21.1698 34.3238C24.9663 34.3238 24.9663 34.3238 25.5447 38.0823L44.3863 38.0778ZM8.92727 23.8366V29.3459H11.8148V23.8366H8.92727Z" fill="#71B626"/>
<path d="M42.8254 31.2372L38.7252 35.257C38.4215 34.9064 38.1267 34.5446 37.8096 34.2052C37.5327 33.9104 37.153 33.361 36.952 33.4168C36.5501 33.5263 36.2329 33.9617 35.8935 34.2789C35.554 34.596 35.2347 34.931 34.9064 35.257C34.5915 34.9153 34.2789 34.5736 33.9618 34.2342C33.6826 33.9394 33.3298 33.3677 33.131 33.4168C32.7245 33.5173 32.3851 33.9349 32.0456 34.2498C31.7062 34.5647 31.4047 34.9198 31.0854 35.257C30.7615 34.9287 30.4444 34.587 30.1117 34.2722C29.4417 33.6357 28.7829 33.0082 28.1174 32.3784C27.8226 32.0992 27.2487 31.7531 27.2956 31.5543C27.3939 31.1479 27.8048 30.8017 28.1219 30.4645C28.439 30.1273 28.7918 29.828 29.1358 29.5109C28.8097 29.1849 28.4658 28.8633 28.1554 28.5261C27.845 28.1889 27.405 27.8561 27.2956 27.4653C27.242 27.2643 27.7914 26.8891 28.0884 26.61C28.4256 26.2929 28.7851 25.9958 29.1358 25.6899C28.7383 25.346 28.3139 25.0199 27.9544 24.6514C27.673 24.3611 27.2844 23.9815 27.2844 23.6644C27.2844 23.3472 27.7601 23.048 28.0437 22.7711C28.7271 22.0773 29.4171 21.3887 30.1139 20.7053C30.402 20.4217 30.7839 19.8858 30.9938 19.9438C31.3935 20.0622 31.6928 20.5133 32.0322 20.8371L33.0417 21.7929C33.3476 21.4445 33.6469 21.0872 33.964 20.7478C34.2431 20.453 34.6161 19.8991 34.8148 19.9527C35.2191 20.0599 35.5406 20.4932 35.8801 20.8081C36.2195 21.123 36.5344 21.4646 36.8627 21.7929C37.1798 21.4535 37.4791 21.0984 37.8185 20.7813C38.158 20.4642 38.4997 20.051 38.9061 19.9527C39.1026 19.9036 39.4421 20.4887 39.7346 20.7679C40.4381 21.4378 41.1639 22.0966 41.854 22.7778C42.1398 23.0614 42.5597 23.4142 42.5574 23.7314C42.5552 24.0485 42.1108 24.3835 41.8406 24.676C41.481 25.0557 41.0902 25.4018 40.7239 25.7614C41.0947 26.0494 41.4877 26.3107 41.8294 26.6301C42.1242 26.9048 42.5596 27.2375 42.5663 27.5546C42.573 27.8717 42.1599 28.2246 41.8785 28.5216C41.519 28.899 41.1103 29.2318 40.7239 29.5824C41.0813 29.8794 41.4363 30.1809 41.8004 30.4757C42.1085 30.7169 42.4324 30.9469 42.8254 31.2372ZM31.1948 31.2886H38.618V23.9189H31.1948V31.2886Z" fill="#71B626"/>
<path d="M23.2133 23.7294C21.9068 24.6093 21.1431 25.516 20.4016 25.4982C19.783 25.4825 18.6151 24.2341 18.7178 23.7987C18.9121 23.0371 19.8344 22.1104 20.5892 21.954C21.1565 21.8357 21.9492 22.8228 23.2133 23.7294Z" fill="#71B626"/>
</svg>
