<svg width="54" height="54" viewBox="0 0 54 54" fill="none" xmlns="http://www.w3.org/2000/svg">
<rect width="54" height="54" rx="5" fill="#AFFFCF" fill-opacity="0.2"/>
<path d="M40.8729 8C41.3524 8.21813 41.5012 8.55325 41.5 9.00934C41.4898 19.9944 41.487 30.9792 41.4917 41.9636C41.4917 42.7221 41.2083 42.9551 40.3 42.9601H38.0005C37.9543 42.9682 37.9092 42.9801 37.8659 42.9958C37.8659 43.669 37.8659 44.3571 37.8659 45.0452C37.8659 45.7541 37.5695 46 36.7179 46C35.3904 46 34.0641 46 32.7378 46C32.0079 46 31.6807 45.7273 31.6748 45.1205C31.6748 44.4166 31.6748 43.7126 31.6748 42.9819H22.8252C22.8252 43.67 22.8252 44.3584 22.8252 45.0472C22.8252 45.7541 22.5264 46 21.6748 46C20.3473 46 19.021 46 17.6947 46C16.9648 46 16.64 45.7263 16.6317 45.1196C16.6317 44.4156 16.6317 43.7116 16.6317 42.9551H16.1463C15.4235 42.9551 14.7019 42.9611 13.9803 42.9551C13.3685 42.9472 13.0283 42.6577 13.0094 42.1461C13.0094 42.0846 13.0094 42.0231 13.0094 41.9607C13.0094 30.9775 13.0063 19.9938 13 9.00934C13 8.55325 13.1476 8.21813 13.6283 8H40.8729ZM39.6918 34.8031V9.5031H14.8117V34.7981H16.5432V12.0701C16.5432 11.2541 16.8006 11.0379 17.775 11.0379H36.7026C37.6982 11.0379 37.9486 11.2501 37.9486 12.0949V34.8001L39.6918 34.8031ZM39.6918 41.457V36.3379H14.7999V41.457H39.6918ZM36.1593 30.3909H18.3395V34.7991H36.1593V30.3909ZM18.336 22.9022H36.1486V18.489H18.336V22.9022ZM36.1581 24.4419H18.3514V28.8551H36.1581V24.4419ZM18.3502 12.5371V16.9641H36.1486V12.5371H18.3502ZM18.4364 42.9759V44.487H21.0312V42.9759H18.4364ZM36.0577 44.5068V42.9779H33.4594V44.5068H36.0577Z" fill="#71B626"/>
<path d="M24.2514 38.8821C24.2603 39.0304 24.2603 39.179 24.2514 39.3273C24.2325 39.5016 24.1388 39.6642 23.9879 39.7849C23.8369 39.9056 23.6389 39.9762 23.4306 39.9837C23.0279 40.0025 22.6133 39.7784 22.5566 39.4314C22.4994 39.0651 22.4994 38.6942 22.5566 38.3279C22.6121 37.961 23.0291 37.7399 23.4601 37.7657C23.6669 37.778 23.8612 37.8531 24.0066 37.9771C24.1521 38.101 24.2387 38.2652 24.2503 38.4389C24.2668 38.5867 24.2503 38.7364 24.2503 38.8841L24.2514 38.8821Z" fill="#71B626"/>
<path d="M35.8361 38.8862C35.845 39.0342 35.845 39.1825 35.8361 39.3304C35.8169 39.4982 35.7285 39.6551 35.5862 39.774C35.4438 39.893 35.2566 39.9665 35.0566 39.9818C34.6586 40.0175 34.211 39.8034 34.1543 39.4643C34.0905 39.0745 34.0905 38.6792 34.1543 38.2894C34.2098 37.9443 34.6267 37.7401 35.0483 37.7659C35.2487 37.7763 35.4381 37.8463 35.5827 37.9633C35.7272 38.0803 35.8175 38.2366 35.8373 38.4044C35.8469 38.5649 35.8465 38.7258 35.8361 38.8862Z" fill="#71B626"/>
<path d="M18.6573 38.8639C18.6485 38.7159 18.6485 38.5677 18.6573 38.4197C18.6741 38.2519 18.7609 38.0944 18.9024 37.9751C19.0439 37.8557 19.2311 37.7821 19.4309 37.7673C19.8644 37.7326 20.2872 37.9478 20.3521 38.3107C20.4129 38.6645 20.4189 39.0234 20.3698 39.3785C20.3398 39.5588 20.2279 39.7224 20.0576 39.8351C19.8872 39.9478 19.6716 40.0009 19.4557 39.9833C19.2404 39.9696 19.0388 39.8893 18.89 39.758C18.7412 39.6266 18.6558 39.4536 18.6502 39.2724C18.6396 39.1366 18.6502 39.0007 18.6502 38.8639H18.6573Z" fill="#71B626"/>
<path d="M32.0153 38.9273C32.008 39.0962 31.9863 39.2646 31.9504 39.4309C31.906 39.6012 31.7902 39.7523 31.6241 39.8568C31.4579 39.9612 31.2526 40.012 31.0455 39.9999C30.8385 39.9877 30.6435 39.9135 30.4963 39.7906C30.3491 39.6678 30.2595 39.5046 30.2438 39.3308C30.2195 39.047 30.2172 38.7622 30.2367 38.4781C30.2381 38.2969 30.3214 38.1228 30.4699 37.9912C30.6183 37.8596 30.8207 37.7803 31.0362 37.7692C31.2593 37.7534 31.4811 37.8104 31.6554 37.9284C31.8296 38.0464 31.9429 38.2164 31.9716 38.4028C31.9967 38.5769 32.0113 38.7519 32.0153 38.9273Z" fill="#71B626"/>
<path d="M28.1285 38.9082C28.1285 39.0312 28.1391 39.1551 28.1285 39.2771C28.1168 39.4659 28.0193 39.6437 27.856 39.7738C27.6927 39.904 27.4761 39.9765 27.251 39.9765C27.0258 39.9765 26.8092 39.904 26.646 39.7738C26.4827 39.6437 26.3851 39.4659 26.3735 39.2771C26.3534 39.007 26.3534 38.7361 26.3735 38.466C26.3851 38.2773 26.4827 38.0995 26.646 37.9693C26.8092 37.8392 27.0258 37.7666 27.251 37.7666C27.4761 37.7666 27.6927 37.8392 27.856 37.9693C28.0193 38.0995 28.1168 38.2773 28.1285 38.466C28.1403 38.6128 28.1285 38.7605 28.1285 38.9082Z" fill="#71B626"/>
<path d="M29.0623 33.3367C27.6332 33.3367 26.2042 33.3367 24.7751 33.3367C24.1846 33.3367 23.8302 33.0937 23.7771 32.6813C23.7463 32.5013 23.7995 32.3183 23.9256 32.1705C24.0517 32.0227 24.241 31.9215 24.4538 31.8881C24.6275 31.8615 24.8041 31.8502 24.9806 31.8544C27.7065 31.8544 30.4319 31.8544 33.157 31.8544C33.3042 31.8512 33.4515 31.8575 33.5976 31.8732C33.8204 31.8928 34.0251 31.9852 34.1675 32.1305C34.3098 32.2757 34.3783 32.4622 34.3581 32.6496C34.3532 32.8309 34.2639 33.0034 34.1094 33.1301C33.9549 33.2568 33.7474 33.3278 33.5314 33.3277C32.5866 33.3456 31.6417 33.3367 30.7028 33.3377C30.1477 33.3377 29.602 33.3367 29.0623 33.3367Z" fill="#71B626"/>
<path d="M21.9758 32.6072C21.97 32.7996 21.8756 32.9826 21.7124 33.1178C21.5492 33.2529 21.3299 33.3297 21.1007 33.332C20.9834 33.3323 20.8673 33.3127 20.7593 33.2744C20.6514 33.236 20.5538 33.1797 20.4724 33.1088C20.3911 33.038 20.3277 32.954 20.286 32.862C20.2444 32.77 20.2254 32.6718 20.2302 32.5735C20.2355 32.3791 20.3326 32.1946 20.5 32.0603C20.6675 31.9261 20.8916 31.8531 21.1231 31.8576C21.3546 31.8621 21.5745 31.9436 21.7344 32.0841C21.8943 32.2247 21.9811 32.4129 21.9758 32.6072Z" fill="#71B626"/>
<path d="M29.0373 21.4403C27.594 21.4403 26.1496 21.4462 24.7052 21.4403C24.0461 21.4403 23.6422 21.013 23.7934 20.5103C23.8902 20.1841 24.2221 19.963 24.6827 19.962C27.6007 19.9567 30.5187 19.9567 33.4367 19.962C33.9859 19.962 34.3485 20.2723 34.3544 20.6927C34.3603 21.13 33.9894 21.4373 33.4095 21.4393C31.9557 21.4452 30.4971 21.4403 29.0373 21.4403Z" fill="#71B626"/>
<path d="M21.0832 21.4363C20.853 21.4327 20.634 21.3527 20.4738 21.214C20.3136 21.0752 20.2252 20.8889 20.2281 20.6957C20.2311 20.5027 20.3228 20.3181 20.4842 20.1806C20.6455 20.0431 20.864 19.9634 21.0938 19.958C21.3318 19.9622 21.5581 20.0452 21.7234 20.189C21.8887 20.3328 21.9795 20.5256 21.9761 20.7254C21.9693 20.9189 21.8715 21.1023 21.7042 21.2355C21.537 21.3686 21.3137 21.4409 21.0832 21.4363Z" fill="#71B626"/>
<path d="M29.0375 27.3868C27.5931 27.3868 26.1487 27.3927 24.7054 27.3868C24.0275 27.3868 23.6165 26.9297 23.8031 26.4231C23.9212 26.0998 24.2625 25.9105 24.7728 25.9075C25.8192 25.9025 26.8656 25.9075 27.912 25.9075C29.6942 25.9075 31.4776 25.9005 33.2598 25.9164C33.5358 25.9177 33.8061 25.9821 34.0417 26.1028C34.3723 26.2833 34.429 26.5985 34.305 26.901C34.2505 27.0509 34.1371 27.1809 33.9834 27.2698C33.8296 27.3588 33.6445 27.4014 33.4582 27.3908H29.5241L29.0375 27.3868Z" fill="#71B626"/>
<path d="M21.0947 27.3836C20.8649 27.3808 20.6454 27.3025 20.4834 27.1656C20.3214 27.0286 20.2297 26.8439 20.2279 26.6509C20.2247 26.5524 20.2452 26.4543 20.2882 26.3626C20.3312 26.2709 20.3957 26.1874 20.4779 26.1171C20.5602 26.0468 20.6585 25.9911 20.767 25.9533C20.8754 25.9156 20.9918 25.8966 21.1092 25.8975C21.2266 25.8984 21.3426 25.9191 21.4502 25.9584C21.5579 25.9977 21.655 26.0548 21.7358 26.1264C21.8165 26.1979 21.8793 26.2823 21.9204 26.3747C21.9614 26.467 21.9799 26.5653 21.9746 26.6638C21.9706 26.8569 21.8759 27.0409 21.7111 27.1757C21.5463 27.3105 21.3248 27.3852 21.0947 27.3836Z" fill="#71B626"/>
<path d="M29.0387 15.4971H24.7066C24.2991 15.4971 23.9814 15.3533 23.829 15.034C23.6956 14.7514 23.7239 14.45 24.0145 14.2498C24.2034 14.1171 24.4373 14.0376 24.6829 14.0227C27.6001 14.0078 30.5185 14.0108 33.4357 14.0158C33.9837 14.0158 34.3487 14.3211 34.3546 14.7435C34.3605 15.1659 33.9896 15.4911 33.4157 15.4941C31.957 15.502 30.4973 15.4971 29.0387 15.4971Z" fill="#71B626"/>
<path d="M21.9762 14.7423C21.9783 14.8873 21.9291 15.0296 21.8349 15.1511C21.7406 15.2726 21.6056 15.3679 21.4468 15.4249C21.288 15.4819 21.1126 15.4981 20.9428 15.4714C20.773 15.4447 20.6165 15.3763 20.4931 15.2749C20.3696 15.1735 20.2848 15.0436 20.2493 14.9017C20.2138 14.7598 20.2293 14.6123 20.2938 14.4778C20.3583 14.3432 20.4688 14.2278 20.6115 14.1461C20.7541 14.0643 20.9225 14.0199 21.0952 14.0186C21.325 14.0203 21.5451 14.0966 21.7093 14.2315C21.8736 14.3664 21.9692 14.5495 21.9762 14.7423Z" fill="#71B626"/>
</svg>
