<svg width="54" height="54" viewBox="0 0 54 54" fill="none" xmlns="http://www.w3.org/2000/svg">
<rect width="54" height="54" rx="5" fill="#AFFFCF" fill-opacity="0.2"/>
<path d="M27.207 44.2005H12.1945C9.45586 44.199 8.05734 42.802 8.05584 40.0768C8.05584 39.2473 8.10076 38.4163 8.05584 37.5897C7.79081 33.2938 8.51553 29.0982 9.25372 24.8952C9.9994 20.5498 10.6882 16.188 11.3889 11.8337C11.6675 10.0878 12.8069 9.01123 14.5633 9.00824C22.9485 8.99725 31.3302 8.99725 39.7084 9.00824C41.4393 9.00824 42.5953 10.0145 42.9037 11.8337C43.6629 16.3048 44.3816 20.7834 45.1153 25.259C45.3684 26.7998 45.6739 28.3376 45.8505 29.8873C46.0407 31.5584 46.1605 33.2399 46.2159 34.9199C46.2773 36.7602 46.2369 38.6034 46.2279 40.4452C46.2174 42.7286 44.7739 44.1886 42.498 44.1975C37.401 44.2085 32.304 44.2095 27.207 44.2005ZM43.612 29.6193C43.4173 28.3241 43.2421 27.1427 43.064 25.9628C42.3527 21.2686 41.634 16.5744 40.9377 11.8757C40.8524 11.2992 40.6712 11.0416 40.0183 11.0431C31.4864 11.0651 22.9545 11.0651 14.4226 11.0431C13.8551 11.0431 13.6395 11.1779 13.5586 11.7918C12.9926 16.0757 12.3727 20.3522 11.7768 24.6316C11.5477 26.2787 11.338 27.9393 11.1149 29.6208L43.612 29.6193ZM27.1591 41.6431C32.4717 41.6431 37.7903 41.6311 43.0984 41.655C43.892 41.655 44.19 41.396 44.1795 40.5889C44.1446 38.0404 44.1446 35.4919 44.1795 32.9434C44.1915 32.0944 43.8486 31.8069 43.0325 31.8084C32.4073 31.8224 21.7816 31.8224 11.1554 31.8084C10.3707 31.8084 10.0698 32.0914 10.0833 32.8985C10.1207 35.4156 10.0937 37.9341 10.0982 40.4527C10.0982 41.5787 10.1656 41.6401 11.3126 41.6416L27.1591 41.6431Z" fill="#71B626"/>
<path d="M20.2905 13.5283L20.3849 14.9104C21.4959 14.9104 22.592 14.9583 23.679 14.8939C24.4277 14.849 24.8964 15.0826 25.3261 15.7264C26.9732 18.1686 28.7057 20.5509 30.3662 22.9841C30.7226 23.5067 31.1074 23.7013 31.7228 23.6759C32.771 23.631 33.8101 23.6459 34.8538 23.6759C35.7777 23.6983 36.0906 24.0607 36.0861 25.0025C36.0861 25.8291 35.6698 26.2618 34.8463 26.2678C33.3489 26.2783 31.8336 26.3232 30.3333 26.2379C29.938 26.2154 29.4468 25.856 29.2043 25.5086C27.5213 23.0919 25.8816 20.6452 24.254 18.1911C23.9366 17.7104 23.6102 17.4604 22.9992 17.5053C22.1487 17.5682 21.2893 17.5218 20.3894 17.5218C20.3429 18.0967 20.304 18.5984 20.2561 19.2153L16.9844 16.7566L20.2905 13.5283Z" fill="#71B626"/>
<path d="M34.3942 19.2698V17.5554C32.4476 17.5464 30.3947 16.9085 29.2238 19.4196L27.6411 17.4026C29.0861 15.0907 31.4549 14.4454 34.3343 15.0293C34.3747 14.3929 34.4032 13.9198 34.4271 13.5439L37.633 16.8381L34.3942 19.2698Z" fill="#71B626"/>
<path d="M24.732 21.0684L26.3791 22.9475C25.7622 23.846 25.0824 24.8941 24.3337 25.9003C24.1705 26.1189 23.7587 26.2417 23.4577 26.2507C22.2299 26.2896 21.0006 26.2417 19.7727 26.2747C18.7995 26.3016 18.6677 25.6353 18.6467 24.9375C18.6258 24.2398 18.8683 23.6603 19.7398 23.6663C20.6113 23.6723 21.4633 23.7172 22.3168 23.6393C22.7125 23.5879 23.0768 23.3967 23.3439 23.1003C23.844 22.4938 24.2423 21.7976 24.732 21.0684Z" fill="#71B626"/>
<path d="M31.7471 37.3008H35.477V39.1949H31.7471V37.3008Z" fill="#71B626"/>
<path d="M38.1855 37.2842H41.902V39.2008H38.1855V37.2842Z" fill="#71B626"/>
<path d="M18.6243 37.3008H22.3137V39.1904H18.6243V37.3008Z" fill="#71B626"/>
<path d="M28.7491 39.2037H25.0447V37.3096H28.7491V39.2037Z" fill="#71B626"/>
<path d="M22.3392 34.3252V36.0846H18.6243V34.3252H22.3392Z" fill="#71B626"/>
<path d="M25.0269 36.0876V34.3223H28.7568V36.0876H25.0269Z" fill="#71B626"/>
<path d="M35.4934 34.3379V36.1033H31.7246V34.3379H35.4934Z" fill="#71B626"/>
<path d="M38.1797 34.2832H41.9096V36.08H38.1797V34.2832Z" fill="#71B626"/>
<path d="M14.4404 37.7753C14.2718 37.7783 14.1044 37.7468 13.9484 37.6828C13.7923 37.6188 13.6511 37.5236 13.5331 37.403C13.4152 37.2824 13.3232 37.139 13.2627 36.9816C13.2021 36.8242 13.1744 36.6561 13.1812 36.4876C13.1812 35.7928 13.8026 35.14 14.4644 35.2149C15.1771 35.2957 15.6473 35.697 15.6773 36.4666C15.6886 36.6354 15.665 36.8046 15.6078 36.9638C15.5506 37.1229 15.4611 37.2685 15.345 37.3914C15.2288 37.5143 15.0885 37.6119 14.9328 37.6779C14.7772 37.744 14.6095 37.7772 14.4404 37.7753Z" fill="#71B626"/>
</svg>
