<svg width="20" height="20" viewBox="0 0 20 20" fill="none" xmlns="http://www.w3.org/2000/svg">
<path d="M14.4636 11.0728C14.3223 11.0728 14.1898 11.0506 14.0662 11.0061C13.9426 10.9623 13.8278 10.8874 13.7219 10.7815L9.21854 6.27815C9.11258 6.17219 9.0377 6.05739 8.99391 5.93377C8.9494 5.81015 8.92715 5.6777 8.92715 5.53642C8.92715 5.39514 8.9494 5.26269 8.99391 5.13907C9.0377 5.01545 9.11258 4.90066 9.21854 4.7947L13.7219 0.291391C13.8278 0.185431 13.9426 0.110552 14.0662 0.0667549C14.1898 0.0222516 14.3223 0 14.4636 0C14.6049 0 14.7373 0.0222516 14.8609 0.0667549C14.9845 0.110552 15.0993 0.185431 15.2053 0.291391L19.7086 4.7947C19.8146 4.90066 19.8894 5.01545 19.9332 5.13907C19.9777 5.26269 20 5.39514 20 5.53642C20 5.6777 19.9777 5.81015 19.9332 5.93377C19.8894 6.05739 19.8146 6.17219 19.7086 6.27815L15.2053 10.7815C15.0993 10.8874 14.9845 10.9623 14.8609 11.0061C14.7373 11.0506 14.6049 11.0728 14.4636 11.0728ZM1.0596 9.40397C0.759382 9.40397 0.507903 9.30225 0.305166 9.09881C0.101722 8.89607 0 8.64459 0 8.34437V1.98675C0 1.68653 0.101722 1.4347 0.305166 1.23126C0.507903 1.02852 0.759382 0.927152 1.0596 0.927152H7.41722C7.71744 0.927152 7.96927 1.02852 8.17272 1.23126C8.37545 1.4347 8.47682 1.68653 8.47682 1.98675V8.34437C8.47682 8.64459 8.37545 8.89607 8.17272 9.09881C7.96927 9.30225 7.71744 9.40397 7.41722 9.40397H1.0596ZM11.6556 20C11.3554 20 11.1039 19.8983 10.9012 19.6948C10.6977 19.4921 10.596 19.2406 10.596 18.9404V12.5828C10.596 12.2826 10.6977 12.0307 10.9012 11.8273C11.1039 11.6245 11.3554 11.5232 11.6556 11.5232H18.0132C18.3135 11.5232 18.5649 11.6245 18.7677 11.8273C18.9711 12.0307 19.0728 12.2826 19.0728 12.5828V18.9404C19.0728 19.2406 18.9711 19.4921 18.7677 19.6948C18.5649 19.8983 18.3135 20 18.0132 20H11.6556ZM1.0596 20C0.759382 20 0.507903 19.8983 0.305166 19.6948C0.101722 19.4921 0 19.2406 0 18.9404V12.5828C0 12.2826 0.101722 12.0307 0.305166 11.8273C0.507903 11.6245 0.759382 11.5232 1.0596 11.5232H7.41722C7.71744 11.5232 7.96927 11.6245 8.17272 11.8273C8.37545 12.0307 8.47682 12.2826 8.47682 12.5828V18.9404C8.47682 19.2406 8.37545 19.4921 8.17272 19.6948C7.96927 19.8983 7.71744 20 7.41722 20H1.0596ZM2.11921 7.28477H6.35762V3.04636H2.11921V7.28477ZM14.4901 8.55629L17.4834 5.56291L14.4901 2.56954L11.4967 5.56291L14.4901 8.55629ZM12.7152 17.8808H16.9536V13.6424H12.7152V17.8808ZM2.11921 17.8808H6.35762V13.6424H2.11921V17.8808Z" fill="white"/>
</svg>
