<svg width="27" height="27" viewBox="0 0 27 27" fill="none" xmlns="http://www.w3.org/2000/svg">
<path d="M26.3196 13.1598C26.3196 9.66959 24.9331 6.32235 22.4652 3.85441C19.9972 1.38647 16.65 -7.62939e-06 13.1598 -7.62939e-06C9.6696 -7.62939e-06 6.32236 1.38647 3.85442 3.85441C1.38648 6.32235 0 9.66959 0 13.1598C0 16.65 1.38648 19.9972 3.85442 22.4652C6.32236 24.9331 9.6696 26.3196 13.1598 26.3196C16.65 26.3196 19.9972 24.9331 22.4652 22.4652C24.9331 19.9972 26.3196 16.65 26.3196 13.1598ZM14.195 20.0409L14.1863 20.0497C13.9154 20.3181 13.5499 20.4694 13.1686 20.4708H13.151C12.7669 20.469 12.399 20.3156 12.1275 20.0438L6.27868 14.195C6.00412 13.9208 5.84972 13.5488 5.84945 13.1608C5.84917 12.7728 6.00305 12.4006 6.27722 12.126C6.55139 11.8514 6.92341 11.697 7.31143 11.6968C7.69944 11.6965 8.07167 11.8504 8.34623 12.1245L11.6976 15.4788V7.31099C11.6976 6.92319 11.8516 6.55127 12.1259 6.27706C12.4001 6.00284 12.772 5.84879 13.1598 5.84879C13.5476 5.84879 13.9195 6.00284 14.1937 6.27706C14.4679 6.55127 14.622 6.92319 14.622 7.31099V15.4788L17.9734 12.1245C18.1082 11.9849 18.2696 11.8735 18.448 11.7969C18.6264 11.7202 18.8182 11.6799 19.0124 11.6782C19.2065 11.6765 19.3991 11.7135 19.5788 11.787C19.7585 11.8606 19.9217 11.9691 20.059 12.1064C20.1963 12.2437 20.3049 12.407 20.3784 12.5867C20.4519 12.7664 20.4889 12.9589 20.4872 13.1531C20.4856 13.3472 20.4452 13.5391 20.3686 13.7175C20.292 13.8959 20.1806 14.0572 20.0409 14.1921L14.1921 20.0409H14.195Z" fill="#DC3938"/>
</svg>
