<svg width="54" height="54" viewBox="0 0 54 54" fill="none" xmlns="http://www.w3.org/2000/svg">
<rect width="54" height="54" rx="5" fill="#AFFFCF" fill-opacity="0.2"/>
<path d="M28.104 41.2446V42.4751H44.8848C45.5599 42.4751 45.8546 42.6733 45.8556 43.128C45.8567 43.5827 45.5589 43.784 44.888 43.784H9.81503C9.2851 43.7766 9.00636 43.5498 9.00742 43.1259C9.00848 42.7019 9.28722 42.4762 9.82139 42.4762C15.2839 42.4762 20.7461 42.4762 26.2079 42.4762H26.7463V41.2446H26.2482C21.1969 41.2446 16.1449 41.2446 11.0922 41.2446C10.0556 41.2446 9.32856 40.7443 9.07843 39.8509C9.02412 39.6333 8.99881 39.4095 9.00318 39.1853C9.00106 37.5842 9 35.9834 9 34.3831C9 33.0879 9.779 32.3184 11.0826 32.3174H43.7783C45.0798 32.3174 45.8556 33.089 45.8599 34.3831C45.8662 35.958 45.8662 37.5323 45.8599 39.1058C45.8599 40.4836 45.1021 41.2435 43.7295 41.2446H28.104ZM27.3897 39.9357H43.6575C44.3708 39.9357 44.5552 39.7523 44.5552 39.0454C44.5552 37.5241 44.5552 36.005 44.5552 34.488C44.5552 33.8287 44.3602 33.6327 43.702 33.6327H11.1706C10.5092 33.6327 10.3142 33.8266 10.3132 34.4806C10.3132 35.975 10.3132 37.4694 10.3132 38.9638C10.3132 39.783 10.469 39.9399 11.2851 39.9399L27.3897 39.9357Z" fill="#71B626"/>
<path d="M27.3918 20.9283C21.9582 20.9283 16.5236 20.9283 11.0879 20.9283C10.0524 20.9283 9.32644 20.4259 9.07419 19.5314C9.02112 19.3133 8.99654 19.0892 9.00106 18.8647C9.00035 17.265 9 15.6646 9 14.0636C9.00848 12.7705 9.7843 12 11.0879 12H43.7751C45.0925 12 45.8577 12.7737 45.8609 14.1017C45.8652 15.6752 45.8652 17.2491 45.8609 18.8234C45.8609 20.1662 45.0893 20.9262 43.7359 20.9262C38.2882 20.929 32.8402 20.9297 27.3918 20.9283ZM27.4331 13.31H11.1685C10.5082 13.31 10.3132 13.505 10.3132 14.1579C10.3132 15.6919 10.3132 17.2258 10.3132 18.7598C10.3132 19.4169 10.5092 19.614 11.1664 19.614C22.0102 19.614 32.8529 19.614 43.6946 19.614C44.3527 19.614 44.5499 19.418 44.5509 18.7662C44.5509 17.2718 44.5509 15.7773 44.5509 14.2829C44.5509 13.4647 44.3951 13.31 43.5769 13.31H27.4331Z" fill="#71B626"/>
<path d="M27.4416 31.0874H11.0943C10.045 31.0874 9.30524 30.568 9.06783 29.6587C9.02096 29.4526 8.99995 29.2415 9.0053 29.0302C9.00177 27.4277 9 25.8273 9 24.229C9 22.9317 9.77688 22.1602 11.0784 22.1602C21.9738 22.1602 32.8695 22.1602 43.7656 22.1602C45.0872 22.1602 45.8535 22.9296 45.8577 24.2555C45.862 25.8418 45.862 27.4287 45.8577 29.0164C45.8577 30.3116 45.0777 31.0853 43.7794 31.0853C38.3331 31.0888 32.8872 31.0895 27.4416 31.0874ZM27.431 29.7774C32.8525 29.7774 38.2741 29.7774 43.6956 29.7774C44.3559 29.7774 44.5531 29.5813 44.5541 28.9295C44.5541 27.3948 44.5541 25.8605 44.5541 24.3265C44.5541 23.6662 44.3602 23.4712 43.7062 23.4712H11.1717C10.5092 23.4712 10.3142 23.6652 10.3132 24.3191C10.3132 25.8135 10.3132 27.3079 10.3132 28.8023C10.3132 29.6216 10.469 29.7784 11.2851 29.7784L27.431 29.7774Z" fill="#71B626"/>
<path d="M15.3871 36.8386C15.3755 37.2176 15.2521 37.5847 15.0323 37.8937C14.8125 38.2027 14.5062 38.4397 14.152 38.575C13.7978 38.7103 13.4114 38.7377 13.0417 38.6539C12.6719 38.5701 12.3351 38.3787 12.0739 38.1039C11.8126 37.8291 11.6385 37.4832 11.5734 37.1096C11.5084 36.7361 11.5553 36.3516 11.7083 36.0047C11.8612 35.6577 12.1134 35.3638 12.4331 35.1599C12.7528 34.956 13.1257 34.8512 13.5048 34.8588C13.7593 34.862 14.0107 34.9161 14.244 35.018C14.4773 35.1198 14.6879 35.2674 14.8633 35.4519C15.0387 35.6364 15.1754 35.8541 15.2654 36.0923C15.3553 36.3304 15.3967 36.5842 15.3871 36.8386ZM13.4793 37.3866C13.5992 37.3844 13.7157 37.3469 13.8142 37.2786C13.9126 37.2103 13.9887 37.1143 14.0326 37.0028C14.0766 36.8913 14.0865 36.7693 14.0612 36.6521C14.0358 36.535 13.9763 36.428 13.8902 36.3447C13.804 36.2613 13.6951 36.2054 13.5772 36.184C13.4593 36.1625 13.3377 36.1765 13.2277 36.2241C13.1177 36.2718 13.0243 36.3509 12.9593 36.4516C12.8943 36.5523 12.8606 36.67 12.8625 36.7898C12.8685 36.9491 12.9356 37.1 13.0498 37.2111C13.1641 37.3222 13.3168 37.385 13.4762 37.3866H13.4793Z" fill="#71B626"/>
<path d="M18.5453 34.8595C18.9262 34.8598 19.2984 34.9732 19.6147 35.1854C19.931 35.3976 20.1771 35.6991 20.3217 36.0514C20.4663 36.4038 20.503 36.7912 20.427 37.1644C20.351 37.5377 20.1658 37.8799 19.8949 38.1477C19.624 38.4154 19.2796 38.5966 18.9055 38.6683C18.5314 38.7399 18.1445 38.6988 17.7938 38.55C17.4432 38.4013 17.1446 38.1517 16.9361 37.833C16.7276 37.5143 16.6185 37.1407 16.6227 36.7599C16.6225 36.5084 16.6723 36.2594 16.7691 36.0273C16.866 35.7952 17.0079 35.5846 17.1868 35.4079C17.3657 35.2311 17.5778 35.0916 17.811 34.9974C18.0442 34.9033 18.2938 34.8564 18.5453 34.8595ZM18.5537 36.1748C18.4338 36.1729 18.316 36.2067 18.2153 36.2718C18.1145 36.3368 18.0354 36.4304 17.9878 36.5405C17.9402 36.6506 17.9263 36.7723 17.948 36.8903C17.9696 37.0083 18.0257 37.1172 18.1093 37.2032C18.1928 37.2893 18.3 37.3486 18.4173 37.3738C18.5346 37.3989 18.6567 37.3887 18.7681 37.3444C18.8796 37.3001 18.9754 37.2237 19.0435 37.125C19.1115 37.0262 19.1488 36.9095 19.1504 36.7895C19.1495 36.6299 19.0868 36.4768 18.9756 36.3623C18.8644 36.2477 18.7133 36.1805 18.5537 36.1748Z" fill="#71B626"/>
<path d="M25.5442 36.7874C25.5429 37.1683 25.4285 37.5402 25.2154 37.856C25.0023 38.1717 24.7001 38.4169 24.3474 38.5605C23.9946 38.7042 23.6071 38.7398 23.2341 38.6627C22.8611 38.5857 22.5194 38.3995 22.2523 38.1279C21.9853 37.8563 21.8051 37.5114 21.7345 37.1371C21.6639 36.7628 21.7061 36.376 21.8558 36.0258C22.0055 35.6755 22.2559 35.3776 22.5752 35.17C22.8945 34.9624 23.2683 34.8543 23.6492 34.8596C23.9003 34.8612 24.1487 34.9125 24.38 35.0103C24.6113 35.1082 24.821 35.2508 24.9971 35.4299C25.1732 35.609 25.3121 35.8212 25.406 36.0541C25.4999 36.2871 25.5469 36.5363 25.5442 36.7874ZM23.6121 37.3873C23.732 37.3894 23.8498 37.3559 23.9506 37.291C24.0514 37.2262 24.1308 37.1328 24.1786 37.0229C24.2264 36.9129 24.2405 36.7913 24.2192 36.6733C24.1978 36.5553 24.142 36.4463 24.0587 36.3601C23.9754 36.2738 23.8684 36.2142 23.7513 36.1887C23.6341 36.1633 23.512 36.1732 23.4005 36.2171C23.2889 36.261 23.1929 36.3371 23.1245 36.4356C23.0562 36.5341 23.0186 36.6506 23.0165 36.7705C23.0171 36.9302 23.0795 37.0836 23.1904 37.1985C23.3014 37.3134 23.4525 37.381 23.6121 37.3873Z" fill="#71B626"/>
<path d="M13.4513 14.544C13.8325 14.5413 14.2059 14.652 14.524 14.8621C14.8421 15.0722 15.0905 15.3721 15.2376 15.7238C15.3848 16.0755 15.424 16.463 15.3503 16.837C15.2766 17.211 15.0933 17.5546 14.8237 17.8242C14.5542 18.0938 14.2105 18.277 13.8365 18.3507C13.4625 18.4245 13.075 18.3852 12.7233 18.2381C12.3716 18.091 12.0717 17.8425 11.8616 17.5244C11.6515 17.2063 11.5408 16.8329 11.5435 16.4517C11.5424 16.2009 11.591 15.9523 11.6864 15.7204C11.7819 15.4884 11.9224 15.2776 12.0998 15.1003C12.2771 14.9229 12.4879 14.7824 12.7199 14.6869C12.9518 14.5915 13.2004 14.5429 13.4513 14.544ZM14.0681 16.4517C14.0662 16.3319 14.0288 16.2152 13.9606 16.1166C13.8924 16.018 13.7965 15.9418 13.6851 15.8977C13.5736 15.8535 13.4515 15.8435 13.3343 15.8687C13.2171 15.8939 13.11 15.9534 13.0266 16.0395C12.9431 16.1256 12.8871 16.2345 12.8656 16.3524C12.844 16.4704 12.8579 16.5921 12.9055 16.7021C12.9532 16.8121 13.0323 16.9056 13.133 16.9706C13.2338 17.0357 13.3515 17.0694 13.4714 17.0675C13.6317 17.0626 13.7838 16.9956 13.8957 16.8808C14.0076 16.7659 14.0705 16.6121 14.0713 16.4517H14.0681Z" fill="#71B626"/>
<path d="M20.4656 16.4743C20.4637 16.8552 20.3485 17.227 20.1349 17.5423C19.9212 17.8577 19.6186 18.1024 19.2655 18.2455C18.9125 18.3885 18.5249 18.4233 18.1519 18.3456C17.779 18.2678 17.4376 18.081 17.1711 17.8088C16.9046 17.5366 16.725 17.1914 16.6552 16.8169C16.5853 16.4424 16.6283 16.0557 16.7787 15.7057C16.9292 15.3557 17.1802 15.0583 17.5 14.8514C17.8198 14.6444 18.1939 14.5371 18.5748 14.5432C18.8261 14.5447 19.0746 14.596 19.3059 14.6941C19.5373 14.7922 19.7469 14.9351 19.9227 15.1146C20.0985 15.2942 20.237 15.5068 20.3302 15.7401C20.4233 15.9735 20.4694 16.223 20.4656 16.4743ZM19.1503 16.4743C19.1524 16.3542 19.1188 16.2362 19.0537 16.1352C18.9886 16.0342 18.895 15.9549 18.7847 15.9072C18.6744 15.8596 18.5525 15.8457 18.4344 15.8675C18.3162 15.8892 18.2072 15.9456 18.1212 16.0294C18.0351 16.1132 17.9759 16.2207 17.951 16.3383C17.9262 16.4558 17.9368 16.578 17.9815 16.6895C18.0263 16.801 18.1031 16.8967 18.2023 16.9644C18.3016 17.0321 18.4186 17.0689 18.5388 17.0699C18.6976 17.0679 18.8496 17.0049 18.9634 16.8941C19.0772 16.7833 19.1441 16.633 19.1503 16.4743Z" fill="#71B626"/>
<path d="M25.5442 16.4688C25.5436 16.8497 25.4297 17.2219 25.2171 17.538C25.0045 17.8541 24.7027 18.0998 24.3501 18.244C23.9975 18.3882 23.61 18.4244 23.2368 18.3479C22.8637 18.2714 22.5216 18.0857 22.2542 17.8144C21.9868 17.5431 21.8061 17.1984 21.7349 16.8242C21.6638 16.4499 21.7056 16.063 21.8548 15.7125C22.0041 15.362 22.2542 15.0638 22.5733 14.8558C22.8924 14.6478 23.2662 14.5393 23.6471 14.5441C23.8983 14.5448 24.147 14.5952 24.3787 14.6925C24.6103 14.7899 24.8204 14.9321 24.9968 15.111C25.1732 15.29 25.3124 15.5021 25.4063 15.7352C25.5003 15.9682 25.5472 16.2176 25.5442 16.4688ZM24.2289 16.4519C24.227 16.332 24.1897 16.2154 24.1215 16.1168C24.0534 16.0182 23.9576 15.942 23.8462 15.8979C23.7347 15.8537 23.6127 15.8436 23.4955 15.8687C23.3784 15.8939 23.2713 15.9532 23.1878 16.0392C23.1043 16.1252 23.0482 16.234 23.0265 16.3519C23.0049 16.4697 23.0186 16.5914 23.0661 16.7015C23.1135 16.8115 23.1925 16.905 23.2931 16.9702C23.3937 17.0354 23.5113 17.0693 23.6312 17.0676C23.791 17.0619 23.9424 16.9946 24.0538 16.8799C24.1652 16.7651 24.2279 16.6118 24.2289 16.4519Z" fill="#71B626"/>
<path d="M13.4515 24.7003C13.833 24.6973 14.2068 24.808 14.5252 25.0181C14.8436 25.2282 15.0923 25.5283 15.2397 25.8802C15.387 26.2321 15.4264 26.6199 15.3527 26.9942C15.2789 27.3686 15.0955 27.7125 14.8258 27.9823C14.556 28.252 14.2121 28.4354 13.8377 28.5092C13.4634 28.5829 13.0756 28.5435 12.7237 28.3962C12.3718 28.2488 12.0717 28.0001 11.8616 27.6817C11.6515 27.3633 11.5408 26.9895 11.5438 26.608C11.5426 26.3572 11.5912 26.1086 11.6867 25.8766C11.7822 25.6446 11.9226 25.4339 12.1 25.2565C12.2774 25.0791 12.4882 24.9387 12.7201 24.8432C12.9521 24.7477 13.2007 24.6991 13.4515 24.7003ZM13.4515 26.0155C13.3313 26.0172 13.2143 26.0546 13.1154 26.1228C13.0164 26.191 12.9399 26.2871 12.8956 26.3988C12.8513 26.5105 12.8411 26.6329 12.8663 26.7504C12.8916 26.8679 12.9511 26.9753 13.0375 27.0589C13.1238 27.1426 13.233 27.1987 13.3512 27.2202C13.4695 27.2418 13.5915 27.2278 13.7017 27.1799C13.812 27.1321 13.9056 27.0526 13.9707 26.9516C14.0358 26.8505 14.0694 26.7324 14.0673 26.6122C14.0613 26.4526 13.9939 26.3015 13.8792 26.1903C13.7645 26.0791 13.6113 26.0165 13.4515 26.0155Z" fill="#71B626"/>
<path d="M20.4656 26.6347C20.463 27.0155 20.3473 27.387 20.1332 27.702C19.9191 28.0169 19.6162 28.2612 19.2631 28.4037C18.9099 28.5462 18.5223 28.5805 18.1496 28.5023C17.7769 28.4241 17.4358 28.237 17.1696 27.9645C16.9035 27.6921 16.7243 27.3468 16.6548 26.9723C16.5853 26.5979 16.6287 26.2112 16.7794 25.8615C16.93 25.5117 17.1813 25.2146 17.5011 25.0079C17.821 24.8012 18.1951 24.6942 18.5758 24.7005C18.8271 24.7028 19.0754 24.7548 19.3065 24.8534C19.5376 24.9519 19.747 25.0952 19.9226 25.2749C20.0982 25.4547 20.2366 25.6673 20.3297 25.9007C20.4229 26.134 20.4691 26.3835 20.4656 26.6347ZM19.1503 26.6347C19.1526 26.5146 19.1191 26.3964 19.0542 26.2953C18.9892 26.1942 18.8957 26.1147 18.7854 26.0669C18.6752 26.0191 18.5532 26.0051 18.435 26.0267C18.3168 26.0484 18.2077 26.1046 18.1215 26.1884C18.0354 26.2722 17.9761 26.3797 17.9511 26.4972C17.9262 26.6148 17.9367 26.7371 17.9814 26.8486C18.0261 26.9602 18.103 27.0559 18.2022 27.1237C18.3014 27.1915 18.4186 27.2282 18.5387 27.2293C18.6979 27.2272 18.8502 27.164 18.9641 27.0527C19.0779 26.9414 19.1446 26.7906 19.1503 26.6315V26.6347Z" fill="#71B626"/>
<path d="M25.5442 26.6264C25.5427 27.0072 25.4281 27.379 25.2148 27.6946C25.0016 28.0102 24.6994 28.2553 24.3466 28.3987C23.9939 28.5422 23.6064 28.5776 23.2334 28.5005C22.8605 28.4233 22.5189 28.2371 22.252 27.9654C21.9851 27.6937 21.8049 27.3489 21.7344 26.9746C21.6639 26.6004 21.7062 26.2136 21.8559 25.8634C22.0056 25.5132 22.256 25.2154 22.5753 25.0078C22.8946 24.8002 23.2684 24.6922 23.6492 24.6974C23.9004 24.6991 24.1489 24.7504 24.3803 24.8483C24.6116 24.9463 24.8214 25.089 24.9975 25.2682C25.1736 25.4474 25.3125 25.6597 25.4063 25.8928C25.5002 26.1258 25.547 26.3752 25.5442 26.6264ZM23.6365 27.2263C23.7567 27.2246 23.8736 27.1873 23.9726 27.119C24.0715 27.0508 24.148 26.9548 24.1924 26.843C24.2367 26.7313 24.2469 26.609 24.2216 26.4914C24.1964 26.3739 24.1368 26.2666 24.0505 26.1829C23.9642 26.0993 23.855 26.0431 23.7367 26.0216C23.6185 26 23.4965 26.0141 23.3862 26.0619C23.276 26.1097 23.1824 26.1892 23.1173 26.2902C23.0522 26.3913 23.0186 26.5094 23.0207 26.6296C23.0261 26.789 23.0926 26.9401 23.2065 27.0518C23.3203 27.1635 23.4728 27.2271 23.6322 27.2295L23.6365 27.2263Z" fill="#71B626"/>
</svg>
