<svg width="146" height="151" viewBox="0 0 146 151" fill="none" xmlns="http://www.w3.org/2000/svg">
<g filter="url(#filter0_d_2421_8575)">
<path fill-rule="evenodd" clip-rule="evenodd" d="M72.9023 115.507C44.7898 115.507 22 93.128 22 65.5215C22 37.9151 44.7898 15.5356 72.9023 15.5356C101.015 15.5356 123.805 37.9151 123.805 65.5215C123.805 77.5425 119.484 88.5724 112.283 97.195C111.048 105.426 111.177 116.554 118.422 125.497C108.979 126.553 92.9908 115.328 89.5101 112.786C84.305 114.55 78.7176 115.507 72.9023 115.507Z" fill="#66B127" fill-opacity="0.9" shape-rendering="crispEdges"/>
</g>
<g filter="url(#filter1_d_2421_8575)">
<path fill-rule="evenodd" clip-rule="evenodd" d="M73.8599 126.732C38.7285 127.331 9.77195 99.8497 9.18351 65.3509C8.59508 30.8521 36.5976 2.39954 71.729 1.80032C106.86 1.2011 135.817 28.6821 136.405 63.181C136.661 78.2009 131.498 92.0748 122.687 103.003C121.318 113.316 121.714 127.222 130.96 138.245C119.181 139.766 98.9586 126.076 94.5578 122.977C88.0902 125.292 81.1276 126.608 73.8599 126.732Z" fill="#66B127" fill-opacity="0.3" shape-rendering="crispEdges"/>
</g>
<path d="M39.7084 81.4978C40.7975 81.1746 40.4768 81.1818 41.1095 80.6547L40.5058 53.7738C40.5028 53.6416 40.4858 53.5139 40.4612 53.3891C45.3256 40.4413 56.9805 30.507 71.7239 30.1759C86.4673 29.8448 98.8055 39.559 104.108 52.6848L104.721 79.9964C101.613 85.366 100.235 89.5738 97.4137 92.0069C96.6857 92.8361 96.6871 93.3542 97.4615 94.1386C97.4898 94.1673 97.6618 94.2421 97.8503 94.2379C98.3464 94.2268 98.2772 94.075 98.6437 93.6576C101.796 90.0697 104.216 84.5649 106.431 79.958L107.626 79.9312C115.548 79.7533 116.799 74.017 116.608 65.5087C116.417 57.0004 114.893 50.6163 106.971 50.7943L105.538 50.8264C99.4432 36.6315 86.2968 27.7225 71.6762 28.0509C57.0479 28.3794 44.3133 37.8682 38.8645 52.3238L37.7543 52.3488C29.8324 52.5267 29.2363 59.021 29.4274 67.5293C29.6185 76.0375 30.9843 79.2426 36.8244 81.2638L38.4096 81.527L39.7084 81.4978ZM114.425 65.5577C114.882 74.3977 113.372 77.3924 107.572 77.5226L106.761 77.5408L106.221 53.4876L107.031 53.4694C113.625 53.3213 113.89 55.2376 114.425 65.5577ZM31.4953 67.4828C31.3554 61.252 31.1985 54.269 37.8021 54.4786L38.6124 54.4604L39.1648 79.0589L38.3545 79.0771C32.5532 79.2074 31.0828 73.9096 31.4953 67.4828Z" fill="white"/>
<path d="M78.7343 61.0896H87.7871C86.8898 57.9364 85.0455 55.1489 82.5132 53.1187C79.9809 51.0884 76.8879 49.9175 73.6688 49.7704C70.4498 49.6232 67.2663 50.5073 64.5658 52.2984C61.8652 54.0895 59.7833 56.6975 58.6125 59.7562C57.4417 62.8148 57.2408 66.1703 58.0381 69.3513C58.8354 72.5322 60.5909 75.3787 63.0577 77.4909C65.5246 79.6031 68.579 80.8747 71.7918 81.1273C75.0046 81.3798 78.2143 80.6005 80.9699 78.8988C81.6147 78.5125 82.2298 78.077 82.8099 77.596L83.4079 77.0711L83.5183 76.9679C84.0634 76.4441 84.716 76.0504 85.4289 75.8153C86.1417 75.5802 86.897 75.5097 87.6399 75.6088C88.2871 75.6821 88.9107 75.8987 89.467 76.2436C90.0233 76.5885 90.4987 77.0533 90.8599 77.6053C91.2976 78.265 91.4999 79.0577 91.4329 79.851C91.3659 80.6443 91.0337 81.3901 90.4919 81.9639C89.4204 83.1557 88.2406 84.2416 86.9683 85.2071L86.3059 85.6851C83.2222 87.8175 79.692 89.1862 75.997 89.6821C72.3019 90.178 68.5443 89.7874 65.0237 88.5413C61.5032 87.2953 58.3171 85.2283 55.7196 82.5053C53.1221 79.7823 51.1851 76.4786 50.063 72.8576C48.9409 69.2367 48.6648 65.3987 49.2567 61.6497C49.8487 57.9008 51.2922 54.3446 53.4723 51.2648C55.6523 48.1851 58.5086 45.6669 61.8132 43.9113C65.1179 42.1556 68.7795 41.2109 72.506 41.1526C75.6718 41.1043 78.8157 41.6951 81.7563 42.8909C84.6969 44.0867 87.3761 45.8639 89.6392 48.12C91.9022 50.376 93.7045 53.0663 94.942 56.0355C96.1794 59.0048 96.8276 62.1943 96.8491 65.4201C96.8575 67.0121 96.7096 68.6009 96.4075 70.1629H78.486C77.5321 71.3293 76.2452 72.1637 74.8043 72.5501C73.3634 72.9366 71.84 72.8558 70.4462 72.3191C69.0524 71.7824 67.8575 70.8165 67.0276 69.5556C66.1977 68.2948 65.7742 66.8017 65.8159 65.2842C65.8577 63.7667 66.3627 62.3002 67.2606 61.0887C68.1585 59.8772 69.4047 58.981 70.8258 58.5247C72.247 58.0684 73.7723 58.0748 75.1898 58.5429C76.6072 59.011 77.8462 59.9176 78.7343 61.1365V61.0896Z" fill="#FEFFFE"/>
<defs>
<filter id="filter0_d_2421_8575" x="13" y="14.5356" width="119.805" height="128.031" filterUnits="userSpaceOnUse" color-interpolation-filters="sRGB">
<feFlood flood-opacity="0" result="BackgroundImageFix"/>
<feColorMatrix in="SourceAlpha" type="matrix" values="0 0 0 0 0 0 0 0 0 0 0 0 0 0 0 0 0 0 127 0" result="hardAlpha"/>
<feOffset dy="8"/>
<feGaussianBlur stdDeviation="4.5"/>
<feComposite in2="hardAlpha" operator="out"/>
<feColorMatrix type="matrix" values="0 0 0 0 0 0 0 0 0 0 0 0 0 0 0 0 0 0 0.04 0"/>
<feBlend mode="normal" in2="BackgroundImageFix" result="effect1_dropShadow_2421_8575"/>
<feBlend mode="normal" in="SourceGraphic" in2="effect1_dropShadow_2421_8575" result="shape"/>
</filter>
<filter id="filter1_d_2421_8575" x="0.175781" y="0.790649" width="145.238" height="154.572" filterUnits="userSpaceOnUse" color-interpolation-filters="sRGB">
<feFlood flood-opacity="0" result="BackgroundImageFix"/>
<feColorMatrix in="SourceAlpha" type="matrix" values="0 0 0 0 0 0 0 0 0 0 0 0 0 0 0 0 0 0 127 0" result="hardAlpha"/>
<feOffset dy="8"/>
<feGaussianBlur stdDeviation="4.5"/>
<feComposite in2="hardAlpha" operator="out"/>
<feColorMatrix type="matrix" values="0 0 0 0 0 0 0 0 0 0 0 0 0 0 0 0 0 0 0.04 0"/>
<feBlend mode="normal" in2="BackgroundImageFix" result="effect1_dropShadow_2421_8575"/>
<feBlend mode="normal" in="SourceGraphic" in2="effect1_dropShadow_2421_8575" result="shape"/>
</filter>
</defs>
</svg>
