<svg width="36" height="36" viewBox="0 0 36 36" fill="none" xmlns="http://www.w3.org/2000/svg">
<rect width="36" height="36" rx="5" fill="#AFFFCF" fill-opacity="0.2"/>
<path d="M18.1528 31.5044C15.1632 31.5044 12.1722 31.5044 9.18127 31.5044C7.84649 31.5044 7.34122 31.009 7.33841 29.6995C7.33186 26.6444 7.33186 23.5889 7.33841 20.5329C7.33411 20.2104 7.38833 19.8899 7.49841 19.5869C9.46339 14.6393 11.4396 9.70025 13.3849 4.74712C13.6151 4.16324 13.9183 3.9906 14.5274 4.00043C16.9331 4.03832 19.3388 4.04534 21.7431 4.00043C22.4041 3.9892 22.7003 4.19833 22.9459 4.81449C24.7509 9.33392 26.5558 13.8562 28.4661 18.3321C28.9675 19.4862 29.2104 20.736 29.1777 21.994C29.1314 24.4965 29.1664 26.999 29.1636 29.503C29.1636 31.0679 28.7187 31.5016 27.1201 31.5016C24.1324 31.5035 21.1433 31.5044 18.1528 31.5044ZM8.756 18.6956H27.6394C27.6515 18.6024 27.6515 18.5081 27.6394 18.4149C25.8569 14.0274 24.0856 9.63288 22.2666 5.25801C22.1655 5.01379 21.6855 4.79624 21.3767 4.78922C19.2714 4.74712 17.1506 4.78922 15.0383 4.74712C14.4235 4.73589 14.1358 4.92537 13.9155 5.51065C12.307 9.65674 10.6564 13.7916 9.02267 17.9208C8.92442 18.1524 8.86267 18.3953 8.756 18.6956ZM18.2356 30.3998C21.1929 30.3998 24.1516 30.3886 27.1088 30.4096C27.7292 30.4096 28.0562 30.3058 28.0464 29.5675C28.0099 26.6102 28.0169 23.6515 28.0464 20.6943C28.0464 20.0472 27.812 19.8423 27.1945 19.8423C21.2462 19.8545 15.2979 19.8545 9.3497 19.8423C8.66898 19.8423 8.45564 20.0865 8.46265 20.7588C8.49213 23.6516 8.50336 26.5443 8.46265 29.437C8.45002 30.2328 8.7195 30.4279 9.4676 30.4195C12.3842 30.3816 15.3092 30.3998 18.2356 30.3998Z" fill="#71B626"/>
<path d="M18.2901 20.9299C20.693 20.9299 23.0959 20.9299 25.4988 20.9299C26.6819 20.9299 26.9444 21.1868 26.9514 22.3489C26.9636 24.2643 26.9636 26.1825 26.9514 28.1035C26.943 29.2011 26.6412 29.5169 25.5689 29.5183C20.7033 29.5267 15.8325 29.5267 10.9566 29.5183C9.87302 29.5183 9.56143 29.2067 9.55301 28.1259C9.53897 26.1759 9.53897 24.2273 9.55301 22.2802C9.56143 21.2219 9.83372 20.944 10.885 20.9398C13.3538 20.9229 15.8227 20.9313 18.2901 20.9299ZM25.7949 28.3926V22.0121H23.1085C23.0453 22.4093 22.992 22.7475 22.9387 23.0802H21.486L21.3611 22.0149H15.2065L15.0507 23.0507H13.6696L13.5545 21.998H10.7067V28.4544H13.8872V26.9245L11.9587 26.8094C11.7454 25.622 11.7454 25.622 13.4029 25.4059C13.4731 25.1167 13.5433 24.8178 13.6121 24.5497H14.7181C14.7925 24.8823 14.8584 25.1602 14.9174 25.441H16.4894C16.5553 25.1167 16.6143 24.836 16.6718 24.5567H17.8676C17.8438 25.2725 18.0192 25.7174 18.8403 25.3876C18.8838 25.1223 18.9315 24.8458 18.9807 24.5539H20.14C20.2032 24.8851 20.2537 25.1588 20.3168 25.4887C20.62 25.4887 20.8783 25.4887 21.1323 25.4887C21.3863 25.4887 21.6348 25.4536 21.8972 25.4339C21.9478 25.1055 21.9885 24.8304 22.0306 24.5539H23.2418C23.2839 24.8823 23.319 25.1588 23.3527 25.4171C24.7661 25.5687 24.7661 25.5687 24.5485 26.8066L22.7688 26.9301V28.3996L25.7949 28.3926ZM15.3553 28.3575H21.2853V26.9189H15.3553V28.3575Z" fill="#71B626"/>
</svg>
