<svg width="28" height="27" viewBox="0 0 28 27" fill="none" xmlns="http://www.w3.org/2000/svg">
<path d="M26.9875 24.4999C25.1215 21.2856 22.1348 18.873 18.6 17.7249C20.2943 16.7173 21.611 15.1814 22.3478 13.3529C23.0845 11.5245 23.2006 9.50475 22.6781 7.60396C22.1557 5.70316 21.0236 4.02648 19.4558 2.83148C17.888 1.63647 15.9713 0.989258 14 0.989258C12.0287 0.989258 10.1119 1.63647 8.54413 2.83148C6.97635 4.02648 5.84427 5.70316 5.32181 7.60396C4.79936 9.50475 4.91542 11.5245 5.65217 13.3529C6.38893 15.1814 7.70562 16.7173 9.39997 17.7249C5.86509 18.873 2.87839 21.2856 1.01247 24.4999C0.934203 24.6134 0.880269 24.7419 0.854053 24.8773C0.827836 25.0127 0.829905 25.152 0.860128 25.2866C0.890351 25.4211 0.948076 25.548 1.02967 25.6591C1.11127 25.7703 1.21498 25.8634 1.33429 25.9326C1.45359 26.0017 1.58591 26.0455 1.72292 26.061C1.85994 26.0766 1.9987 26.0637 2.13048 26.023C2.26226 25.9824 2.3842 25.9149 2.48866 25.8249C2.59312 25.7349 2.67783 25.6242 2.73747 25.4999C3.88044 23.5249 5.5227 21.8851 7.49948 20.7452C9.47626 19.6052 11.7181 19.0052 14 19.0052C16.2819 19.0052 18.5237 19.6052 20.5005 20.7452C22.4772 21.8851 24.1195 23.5249 25.2625 25.4999C25.3221 25.6242 25.4068 25.7349 25.5113 25.8249C25.6157 25.9149 25.7377 25.9824 25.8695 26.023C26.0012 26.0637 26.14 26.0766 26.277 26.061C26.414 26.0455 26.5463 26.0017 26.6657 25.9326C26.785 25.8634 26.8887 25.7703 26.9703 25.6591C27.0519 25.548 27.1096 25.4211 27.1398 25.2866C27.17 25.152 27.1721 25.0127 27.1459 24.8773C27.1197 24.7419 27.0657 24.6134 26.9875 24.4999ZM6.99997 9.99989C6.99997 8.61542 7.41051 7.26204 8.17968 6.1109C8.94885 4.95975 10.0421 4.06255 11.3212 3.53273C12.6003 3.00292 14.0077 2.8643 15.3656 3.13439C16.7235 3.40449 17.9707 4.07117 18.9497 5.05014C19.9287 6.02911 20.5954 7.27639 20.8655 8.63426C21.1356 9.99212 20.9969 11.3996 20.4671 12.6787C19.9373 13.9578 19.0401 15.051 17.889 15.8202C16.7378 16.5893 15.3844 16.9999 14 16.9999C12.1435 16.9999 10.363 16.2624 9.05022 14.9496C7.73747 13.6369 6.99997 11.8564 6.99997 9.99989Z" fill="#66B127"/>
</svg>
