<svg width="42" height="34" viewBox="0 0 42 34" fill="none" xmlns="http://www.w3.org/2000/svg">
<path d="M4.33268 0.333496H37.666C38.7711 0.333496 39.8309 0.772483 40.6123 1.55388C41.3937 2.33529 41.8327 3.39509 41.8327 4.50016V29.5002C41.8327 30.6052 41.3937 31.665 40.6123 32.4464C39.8309 33.2278 38.7711 33.6668 37.666 33.6668H4.33268C3.22761 33.6668 2.16781 33.2278 1.3864 32.4464C0.605002 31.665 0.166016 30.6052 0.166016 29.5002V4.50016C0.166016 3.39509 0.605002 2.33529 1.3864 1.55388C2.16781 0.772483 3.22761 0.333496 4.33268 0.333496ZM3 3.5V30.5H18.916V3.5H3ZM39 30.5V3.5H35.0827C35.5827 4.625 35.4785 6.72933 35.4785 6.85433C35.3327 8.25016 34.3535 9.7085 33.9993 10.2293L29.1452 15.5418L36.0618 15.5002L36.0827 18.0418L25.2493 17.9793L25.166 15.896C25.166 15.896 31.5202 9.16683 31.8327 8.56266C32.1243 7.97933 33.3118 3.5 30.3743 3.5C27.8118 3.60417 28.1035 7.2085 28.1035 7.2085L24.8952 7.22933C24.8952 7.22933 24.916 4.85417 25.6868 3.5H22V30.5H28.4577L28.4368 27.7085L30.4577 27.6877C30.4577 27.6877 32.3535 27.3543 32.3743 25.5002C32.4577 23.4168 30.6868 23.4168 30.3743 23.4168C30.1035 23.4168 28.1452 23.521 28.1452 25.2293H24.9785C24.9785 25.2293 25.0618 20.9377 30.3743 20.9377C35.791 20.9377 35.4993 25.146 35.4993 25.146C35.4993 25.146 35.5827 27.7502 33.1868 28.7293L34.2702 30.5H39ZM14.5827 25.3335H11.4577V13.2502L7.70768 14.4168V11.8543L14.2493 9.521H14.5827V25.3335Z" fill="#6ab127"/>
</svg>
