<svg width="54" height="32" viewBox="0 0 54 32" fill="none" xmlns="http://www.w3.org/2000/svg">
<path fill-rule="evenodd" clip-rule="evenodd" d="M4.95818 14.0492C3.82909 15.1619 3.27273 16.5037 3.27273 18.091C3.27273 19.6783 3.82909 21.0201 4.95818 22.1819C6.07091 23.2619 7.41273 23.8183 9 23.8183H14.8745C14.7927 24.3583 14.7273 24.8983 14.7273 25.4546C14.7273 26.011 14.7927 26.551 14.8745 27.091H9C6.54545 27.091 4.40182 26.2728 2.63455 24.5219C0.883636 22.8037 0 20.6928 0 18.2219C0 16.0946 0.638182 14.1965 1.91455 12.5274C3.19091 10.8583 4.90909 9.79463 6.95455 9.33645C7.64182 6.83282 9 4.80372 11.0455 3.24918C13.0909 1.69463 15.4145 0.90918 18 0.90918C21.1909 0.90918 23.8909 2.02191 26.1164 4.24736C28.3418 6.47282 29.4545 9.17282 29.4545 12.3637C31.3364 12.5765 32.8909 13.3946 34.1345 14.8183C34.9691 15.751 35.5091 16.7983 35.7709 17.9601C34.0117 16.454 31.7703 15.6295 29.4545 15.6365H26.1818V12.3637C26.1818 10.1055 25.3636 8.17463 23.7927 6.571C22.1891 5.00009 20.2582 4.18191 18 4.18191C15.7418 4.18191 13.8109 5.00009 12.2073 6.571C10.6364 8.17463 9.81818 10.1055 9.81818 12.3637H9C7.41273 12.3637 6.07091 12.9201 4.95818 14.0492ZM23.2527 31.1053C22.3473 31.1053 21.5127 30.9635 20.7491 30.6799C19.9964 30.3853 19.3364 29.9708 18.7691 29.4362C18.2127 28.9017 17.7764 28.2744 17.46 27.5544C17.1545 26.8344 17.0018 26.0435 17.0018 25.1817C17.0018 24.3199 17.1545 23.529 17.46 22.809C17.7764 22.089 18.2182 21.4617 18.7855 20.9271C19.3527 20.3926 20.0182 19.9835 20.7818 19.6999C21.5455 19.4053 22.3855 19.258 23.3018 19.258C24.3164 19.258 25.2273 19.4271 26.0345 19.7653C26.8527 20.1035 27.54 20.5944 28.0964 21.238L26.3945 22.809C25.98 22.3726 25.5273 22.0508 25.0364 21.8435C24.5455 21.6253 24.0109 21.5162 23.4327 21.5162C22.8764 21.5162 22.3691 21.6035 21.9109 21.778C21.4527 21.9526 21.0545 22.2035 20.7164 22.5308C20.3891 22.858 20.1327 23.2453 19.9473 23.6926C19.7727 24.1399 19.6855 24.6362 19.6855 25.1817C19.6855 25.7162 19.7727 26.2071 19.9473 26.6544C20.1327 27.1017 20.3891 27.4944 20.7164 27.8326C21.0545 28.1599 21.4473 28.4108 21.8945 28.5853C22.3527 28.7599 22.8545 28.8471 23.4 28.8471C23.9236 28.8471 24.4309 28.7653 24.9218 28.6017C25.104 28.5383 25.284 28.4599 25.4618 28.3663V25.0017H27.8836V29.649C27.2618 30.118 26.5364 30.4781 25.7073 30.729C24.8891 30.9799 24.0709 31.1053 23.2527 31.1053ZM31.0007 30.909V19.4544H36.597C38.037 19.4544 39.117 19.7271 39.837 20.2726C40.5679 20.818 40.9334 21.538 40.9334 22.4326C40.9334 23.0326 40.7861 23.5562 40.4916 24.0035C40.225 24.3984 39.8691 24.7129 39.4238 24.947C39.5316 24.983 39.6366 25.023 39.7388 25.0671C40.2952 25.2962 40.7261 25.6399 41.0316 26.098C41.3479 26.5562 41.5061 27.118 41.5061 27.7835C41.5061 28.7653 41.1188 29.5344 40.3443 30.0908C39.5697 30.6362 38.4297 30.909 36.9243 30.909H31.0007ZM33.6352 28.9126H36.7279C37.4152 28.9126 37.9334 28.8035 38.2825 28.5853C38.6425 28.3562 38.8225 27.9962 38.8225 27.5053C38.8225 27.0253 38.6425 26.6708 38.2825 26.4417C37.9334 26.2017 37.4152 26.0817 36.7279 26.0817H33.6352V28.9126ZM33.6352 21.4508V24.1508H36.2697C36.9134 24.1508 37.4043 24.0417 37.7425 23.8235C38.0916 23.5944 38.2661 23.2508 38.2661 22.7926C38.2661 22.3453 38.0916 22.0126 37.7425 21.7944C37.4043 21.5653 36.9134 21.4508 36.2697 21.4508H33.6352ZM43.2213 31.0544H42.2247L46.0047 20.2642H47.0013L43.2213 31.0544ZM53.4505 27.7211C53.4505 28.9468 52.4655 30.0006 50.3464 30.0006C49.1207 30.0006 47.918 29.5882 47.2765 28.9926L47.7004 28.0991C48.296 28.6375 49.3154 29.027 50.3464 29.027C51.7324 29.027 52.328 28.4886 52.328 27.7899C52.328 26.9127 51.354 26.6765 50.2784 26.4155C48.9521 26.0938 47.4713 25.7346 47.4713 24.09C47.4713 22.853 48.4334 21.7991 50.5411 21.7991C51.4804 21.7991 52.454 22.0511 53.1184 22.5093L52.7404 23.4257C52.0416 22.979 51.2513 22.7728 50.5411 22.7728C49.178 22.7728 48.5938 23.3455 48.5938 24.0442C48.5938 24.9242 49.574 25.1615 50.6537 25.4228C51.9774 25.7432 53.4505 26.0998 53.4505 27.7211Z" fill="#6ab127"/>
</svg>
