<svg width="24" height="27" viewBox="0 0 24 27" fill="none" xmlns="http://www.w3.org/2000/svg">
<path d="M21.8854 19.2304C20.3616 17.3654 19.2858 16.416 19.2858 11.2744C19.2858 6.5659 16.8814 4.88841 14.9025 4.0737C14.6396 3.9657 14.3922 3.71767 14.312 3.44768C13.9649 2.26626 12.9918 1.22546 11.6982 1.22546C10.4046 1.22546 9.43089 2.26685 9.08732 3.44887C9.00721 3.72182 8.75977 3.9657 8.49691 4.0737C6.5156 4.8896 4.11359 6.56115 4.11359 11.2744C4.11063 16.416 3.03483 17.3654 1.51102 19.2304C0.879665 20.003 1.4327 21.1631 2.53698 21.1631H20.8654C21.9637 21.1631 22.5132 19.9995 21.8854 19.2304Z" stroke="#B18181" stroke-width="2" stroke-linecap="round" stroke-linejoin="round"/>
<path d="M15.4958 21.1641V22.1135C15.4958 23.1207 15.0957 24.0867 14.3835 24.7989C13.6713 25.5111 12.7054 25.9112 11.6982 25.9112C10.691 25.9112 9.72501 25.5111 9.01282 24.7989C8.30062 24.0867 7.90051 23.1207 7.90051 22.1135V21.1641" stroke="#B18181" stroke-width="2" stroke-linecap="round" stroke-linejoin="round"/>
</svg>
