<svg width="26" height="26" viewBox="0 0 26 26" fill="none" xmlns="http://www.w3.org/2000/svg">
<path d="M5.41602 23.8333C4.51324 23.8333 3.74588 23.5173 3.11393 22.8854C2.48199 22.2535 2.16602 21.4861 2.16602 20.5833C2.16602 19.8792 2.36896 19.2515 2.77485 18.7005C3.18146 18.1502 3.70074 17.7576 4.33268 17.5229V8.47707C3.70074 8.24235 3.18146 7.84946 2.77485 7.29841C2.36896 6.74807 2.16602 6.12082 2.16602 5.41666C2.16602 4.51388 2.48199 3.74652 3.11393 3.11457C3.74588 2.48263 4.51324 2.16666 5.41602 2.16666C6.12018 2.16666 6.74779 2.3696 7.29885 2.77549C7.84918 3.1821 8.24171 3.70138 8.47643 4.33332H17.5223C17.7389 3.70138 18.1228 3.1821 18.6738 2.77549C19.2242 2.3696 19.8605 2.16666 20.5827 2.16666C21.4855 2.16666 22.2528 2.48263 22.8848 3.11457C23.5167 3.74652 23.8327 4.51388 23.8327 5.41666C23.8327 6.13888 23.6297 6.77516 23.2238 7.32549C22.8172 7.87654 22.298 8.26041 21.666 8.47707V17.5229C22.298 17.7576 22.8172 18.1502 23.2238 18.7005C23.6297 19.2515 23.8327 19.8792 23.8327 20.5833C23.8327 21.4861 23.5167 22.2535 22.8848 22.8854C22.2528 23.5173 21.4855 23.8333 20.5827 23.8333C19.8785 23.8333 19.2513 23.6304 18.7009 23.2245C18.1499 22.8179 17.757 22.2986 17.5223 21.6667H8.47643C8.24171 22.2986 7.84918 22.8179 7.29885 23.2245C6.74779 23.6304 6.12018 23.8333 5.41602 23.8333ZM5.41602 6.49999C5.72296 6.49999 5.98043 6.39635 6.18843 6.18907C6.39571 5.98107 6.49935 5.7236 6.49935 5.41666C6.49935 5.10971 6.39571 4.85224 6.18843 4.64424C5.98043 4.43696 5.72296 4.33332 5.41602 4.33332C5.10907 4.33332 4.8516 4.43696 4.6436 4.64424C4.43632 4.85224 4.33268 5.10971 4.33268 5.41666C4.33268 5.7236 4.43632 5.98107 4.6436 6.18907C4.8516 6.39635 5.10907 6.49999 5.41602 6.49999ZM20.5827 6.49999C20.8896 6.49999 21.1467 6.39635 21.354 6.18907C21.562 5.98107 21.666 5.7236 21.666 5.41666C21.666 5.10971 21.562 4.85224 21.354 4.64424C21.1467 4.43696 20.8896 4.33332 20.5827 4.33332C20.2757 4.33332 20.0186 4.43696 19.8113 4.64424C19.6033 4.85224 19.4993 5.10971 19.4993 5.41666C19.4993 5.7236 19.6033 5.98107 19.8113 6.18907C20.0186 6.39635 20.2757 6.49999 20.5827 6.49999ZM8.47643 19.812H17.5223C17.6848 19.3425 17.9375 18.6243 18.2806 18.2812C18.6237 17.9382 19.3419 17.6625 19.8113 17.5V8.47707C19.3419 8.31457 18.6237 8.0618 18.2806 7.71874C17.9375 7.37568 17.6848 6.46944 17.5223 6H8.5C8.3375 6.46944 8.06115 7.37568 7.7181 7.71874C7.37504 8.0618 6.65788 8.31457 6.18843 8.47707L6 17.5C6.46944 17.6625 7.37504 17.9382 7.7181 18.2812C8.06115 18.6243 8.31393 19.3425 8.47643 19.812ZM20.5827 21.6667C20.8896 21.6667 21.1467 21.5627 21.354 21.3547C21.562 21.1474 21.666 20.8903 21.666 20.5833C21.666 20.2764 21.562 20.0193 21.354 19.812C21.1467 19.604 20.8896 19.5 20.5827 19.5C20.2757 19.5 20.0186 19.604 19.8113 19.812C19.6033 20.0193 19.4993 20.2764 19.4993 20.5833C19.4993 20.8903 19.6033 21.1474 19.8113 21.3547C20.0186 21.5627 20.2757 21.6667 20.5827 21.6667ZM5.41602 21.6667C5.72296 21.6667 5.98043 21.5627 6.18843 21.3547C6.39571 21.1474 6.49935 20.8903 6.49935 20.5833C6.49935 20.2764 6.39571 20.0193 6.18843 19.812C5.98043 19.604 5.72296 19.5 5.41602 19.5C5.10907 19.5 4.8516 19.604 4.6436 19.812C4.43632 20.0193 4.33268 20.2764 4.33268 20.5833C4.33268 20.8903 4.43632 21.1474 4.6436 21.3547C4.8516 21.5627 5.10907 21.6667 5.41602 21.6667Z" fill="#71B626"/>
</svg>
