<svg width="24" height="24" viewBox="0 0 24 24" fill="none" xmlns="http://www.w3.org/2000/svg">
<path d="M4.5 17.5H6.5V20.5H4.5V17.5Z" fill="#71B626"/>
<path d="M20.998 14H3.002C2.47104 14 1.96182 14.2109 1.58637 14.5864C1.21092 14.9618 1 15.471 1 16.002V21.998C1 22.2609 1.05178 22.5212 1.15239 22.7641C1.253 23.007 1.40047 23.2277 1.58637 23.4136C1.77228 23.5995 1.99297 23.747 2.23587 23.8476C2.47876 23.9482 2.73909 24 3.002 24H20.998C21.529 24 22.0382 23.7891 22.4136 23.4136C22.7891 23.0382 23 22.529 23 21.998V16.002C23 15.471 22.7891 14.9618 22.4136 14.5864C22.0382 14.2109 21.529 14 20.998 14ZM8 20.5C8.00366 20.698 7.96737 20.8947 7.89328 21.0783C7.8192 21.262 7.70885 21.4288 7.56882 21.5688C7.4288 21.7088 7.26198 21.8192 7.07833 21.8933C6.89469 21.9674 6.69799 22.0037 6.5 22H3V16H6.5C6.69799 15.9963 6.89469 16.0326 7.07833 16.1067C7.26198 16.1808 7.4288 16.2912 7.56882 16.4312C7.70885 16.5712 7.8192 16.738 7.89328 16.9217C7.96737 17.1053 8.00366 17.302 8 17.5V20.5ZM14.5 22H13.3L10.75 18.5V22H9.5V16H10.75L13.25 19.5V16H14.5V22ZM21 17.52H17.5V18.26H20C20.2652 18.26 20.5196 18.3654 20.7071 18.5529C20.8946 18.7404 21 18.9948 21 19.26V21C21 21.2652 20.8946 21.5196 20.7071 21.7071C20.5196 21.8946 20.2652 22 20 22H16V20.5H19.51V19.76H17C16.7348 19.76 16.4804 19.6546 16.2929 19.4671C16.1054 19.2796 16 19.0252 16 18.76V17C16 16.7348 16.1054 16.4804 16.2929 16.2929C16.4804 16.1054 16.7348 16 17 16H21V17.52ZM4 12C3.5 11.5 3.50448 10.6748 3.5 10C3.50448 9.3252 3.5 8.5 4 8H7.64C7.55287 8.66322 7.50612 9.33112 7.5 10C7.50612 10.6689 7.55287 11.3368 7.64 12H9.66C9 11 9.00775 10.6695 9 10C9.00735 9.33045 9 8.5 9.66 8H14.34C15 8.5 14.9926 9.33045 15 10C14.9922 10.6695 15.16 11 14.5 12L16.36 12C16.4471 11.3368 16.4939 10.6689 16.5 10C16.4939 9.33112 16.4471 8.66322 16.36 8H20C20.5 9 20.4956 9.3252 20.5 10C20.4956 10.6748 20.5 11.5 20 12H21.799C22.0943 10.5475 22.0631 9.04753 21.7075 7.6086C21.3519 6.16967 20.6809 4.82778 19.743 3.68002C18.8051 2.53227 17.6239 1.60736 16.2846 0.972209C14.9454 0.337062 13.4817 0.00756836 11.9995 0.00756836C10.5173 0.00756836 9.05361 0.337062 7.71438 0.972209C6.37514 1.60736 5.19385 2.53227 4.25598 3.68002C3.3181 4.82778 2.64709 6.16967 2.29152 7.6086C1.93594 9.04753 1.90468 10.5475 2.2 12L4 12ZM19.743 6.5H16C15.687 5.26146 14.9436 2.6259 14.34 1.5C16.1641 2.128 18.7742 4.83172 19.743 6.5ZM12 1.5C13.5 2 14.0745 5.08817 14.5 6.5H9.5C9.92547 5.08817 10.5 2 12 1.5ZM9.66 1.5C9.05641 2.62589 8.31296 5.26145 8 6.5H4.25598C5.22181 4.82918 7.83397 2.12457 9.66 1.5Z" fill="#71B626"/>
</svg>
