<svg width="23" height="24" viewBox="0 0 23 24" fill="none" xmlns="http://www.w3.org/2000/svg">
<path fill-rule="evenodd" clip-rule="evenodd" d="M0.636718 13.0435C0.636718 10.3864 2.79846 8.22461 5.45556 8.22461L6.468 8.22461C6.91773 8.22461 7.28273 8.58961 7.28273 9.03934C7.28273 9.48907 6.91773 9.85407 6.468 9.85407L5.45556 9.85407C3.69575 9.85407 2.26617 11.2847 2.26617 13.0435L2.26617 18.3392C2.26617 20.0957 3.69575 21.5253 5.45556 21.5253L17.545 21.5253C19.3038 21.5253 20.7333 20.0957 20.7333 18.3392L20.7333 13.0315C20.7333 11.2804 19.3081 9.85407 17.557 9.85407L16.5326 9.85407C16.0829 9.85407 15.7179 9.48907 15.7179 9.03934C15.7179 8.58961 16.0829 8.22461 16.5326 8.22461L17.557 8.22461C20.2076 8.22461 22.3628 10.382 22.3628 13.0315L22.3628 18.3392C22.3628 20.9941 20.2021 23.1548 17.545 23.1548L5.45556 23.1548C2.79846 23.1548 0.636719 20.9941 0.636719 18.3392L0.636718 13.0435ZM7.75635 4.26601L10.9229 1.08531C10.9511 1.05694 10.9804 1.03153 11.0113 1.00827L10.9229 1.08531C10.9609 1.04682 11.0023 1.0126 11.0466 0.9829C11.0666 0.969829 11.0873 0.957222 11.1086 0.945537C11.1252 0.936056 11.1426 0.92733 11.1602 0.919239C11.1758 0.912382 11.1914 0.905797 11.2073 0.899696C11.2279 0.891506 11.2492 0.884334 11.2707 0.878044C11.2876 0.873304 11.3045 0.868948 11.3216 0.865127C11.3424 0.860275 11.3632 0.856454 11.3843 0.853448C11.3979 0.851747 11.4123 0.850084 11.4267 0.848798C11.4515 0.846311 11.4756 0.845239 11.4998 0.845239L11.5671 0.850778L11.6103 0.853008C11.6121 0.853258 11.6139 0.853513 11.6158 0.853776L11.4998 0.845239C11.5601 0.845239 11.6198 0.851915 11.6778 0.864894C11.695 0.868947 11.7119 0.873304 11.7286 0.878181C11.7504 0.884334 11.7716 0.891506 11.7925 0.899539C11.8081 0.905797 11.8237 0.912382 11.839 0.919427C11.8569 0.92733 11.8743 0.936054 11.8913 0.945404C11.9122 0.957221 11.9329 0.969829 11.953 0.983306C11.9649 0.990932 11.9767 0.999296 11.9882 1.00799C12.0222 1.03385 12.0543 1.06203 12.0839 1.09253L15.2442 4.26601C15.4028 4.42461 15.4821 4.63318 15.4821 4.84066C15.4821 5.04923 15.4028 5.25889 15.2421 5.41749C14.9227 5.73469 14.4078 5.73361 14.0906 5.41532L12.3145 3.63389L12.3145 14.7405C12.3145 15.1902 11.9495 15.5552 11.4998 15.5552C11.05 15.5552 10.685 15.1902 10.685 14.7405L10.685 3.63172L8.91001 5.41532C8.59281 5.73361 8.0779 5.73578 7.75853 5.41749C7.43915 5.10029 7.43915 4.58538 7.75635 4.26601Z" fill="#bfbfbf"/>
</svg>
