<svg width="70" height="78" viewBox="0 0 70 78" fill="none" xmlns="http://www.w3.org/2000/svg">
<rect y="0.799927" width="70" height="77" rx="5" fill="#AFFFCF" fill-opacity="0.2"/>
<path d="M19.8451 39.7038C19.5157 38.2963 19.3448 36.8495 19.336 35.3961C19.3448 33.9427 19.5157 32.496 19.8451 31.0884H26.4633C26.2927 32.5169 26.2011 33.9555 26.1892 35.3961C26.2011 36.8368 26.2927 38.2754 26.4633 39.7038H30.4185C30.2251 38.2775 30.1204 36.8382 30.1052 35.3961C30.1196 33.954 30.2243 32.5147 30.4185 31.0884H39.5822C39.7763 32.5147 39.881 33.954 39.8954 35.3961C39.8802 36.8382 39.7755 38.2774 39.5822 39.7038H43.5374C43.708 38.2754 43.7996 36.8368 43.8115 35.3961C43.7996 33.9555 43.708 32.5169 43.5374 31.0884H50.1556C50.485 32.496 50.656 33.9427 50.6647 35.3961C50.656 36.8495 50.485 38.2963 50.1556 39.7038L54.5808 41.8577V35.3961C54.5808 29.6838 52.5178 24.2054 48.8458 20.1661C45.1737 16.1269 40.1934 13.8577 35.0003 13.8577C29.8073 13.8577 24.8269 16.1269 21.1549 20.1661C17.4829 24.2054 15.4199 29.6838 15.4199 35.3961V41.8577L19.8451 39.7038ZM48.55 26.7807H42.7738C42.1609 24.1131 41.2535 21.5381 40.0717 19.1131C43.6434 20.4657 46.653 23.1875 48.55 26.7807ZM35.0003 18.2515C36.6451 20.8617 37.9071 23.7399 38.7402 26.7807H31.2605C32.0936 23.7399 33.3556 20.8617 35.0003 18.2515ZM29.929 19.1131C28.7472 21.538 27.8397 24.1131 27.2269 26.7807H21.4507C23.3418 23.1821 26.3536 20.4583 29.929 19.1131Z" fill="#71B625"/>
<path d="M53.7884 42.7282V62.5257H16.2104V42.7282H53.7884ZM52.6218 39.7038H17.377C16.3384 39.7038 15.3423 40.1577 14.6079 40.9655C13.8735 41.7734 13.4609 42.8691 13.4609 44.0115V61.2423C13.4609 62.3848 13.8735 63.4805 14.6079 64.2883C15.3423 65.0962 16.3384 65.55 17.377 65.55H52.6218C53.6604 65.55 54.6565 65.0962 55.3909 64.2883C56.1253 63.4805 56.5379 62.3848 56.5379 61.2423V44.0115C56.5379 42.8691 56.1253 41.7734 55.3909 40.9655C54.6565 40.1577 53.6604 39.7038 52.6218 39.7038Z" fill="#71B625"/>
<path d="M25.2095 46.1654H29.1256V59.0885H25.2095V46.1654ZM42.8318 46.1654H34.9997V59.0885H38.9158V54.7808H42.8318C43.2195 54.7887 43.6047 54.7105 43.9642 54.5509C44.3238 54.3914 44.6505 54.1537 44.9246 53.8521C45.1988 53.5505 45.4149 53.1912 45.56 52.7956C45.705 52.4001 45.7761 51.9764 45.7689 51.55V49.3962C45.7761 48.9697 45.705 48.5461 45.56 48.1505C45.4149 47.755 45.1988 47.3957 44.9246 47.0941C44.6505 46.7925 44.3238 46.5548 43.9642 46.3952C43.6047 46.2357 43.2195 46.1575 42.8318 46.1654ZM42.8318 52.6269H38.9158V48.3192H42.8318V52.6269Z" fill="#71B625"/>
</svg>
