<svg width="24" height="24" viewBox="0 0 24 24" fill="none" xmlns="http://www.w3.org/2000/svg">
<path d="M12.4403 5.35054C12.4403 5.25757 12.3531 5.16841 12.2816 5.10267C12.2101 5.03693 12.113 5 12.0118 5C11.9106 5 11.8136 5.03693 11.7421 5.10267C11.6705 5.16841 11.6773 5.25757 11.6773 5.35054L11.2957 10.9592L4.38152 11.3098C4.28033 11.3098 4.18329 11.3467 4.11174 11.4125C4.0402 11.4782 4 11.5674 4 11.6603C4 11.7533 4.0402 11.8425 4.11174 11.9082C4.18329 11.9739 4.28033 12.0109 4.38152 12.0109L11.2957 12.3614L11.6303 18.6495C11.6303 18.7424 11.6705 18.8316 11.7421 18.8973C11.8136 18.9631 11.9106 19 12.0118 19C12.113 19 12.2101 18.9631 12.2816 18.8973C12.3531 18.8316 12.3933 18.7424 12.3933 18.6495L12.8218 12.3614L19.6185 12.0109C19.7197 12.0109 19.8167 11.9739 19.8883 11.9082C19.9598 11.8425 20 11.7533 20 11.6603C20 11.5674 19.9598 11.4782 19.8883 11.4125C19.8167 11.3467 19.7197 11.3098 19.6185 11.3098L12.8218 10.9592L12.4403 5.35054Z" fill="#71B626"/>
<path d="M23.625 11.25H21.6652C21.2992 6.4725 17.481 2.65425 12.7035 2.28825V0.375C12.7035 0.275544 12.664 0.180161 12.5937 0.109835C12.5233 0.0395088 12.428 0 12.3285 0C12.229 0 12.1337 0.0395088 12.0633 0.109835C11.993 0.180161 11.9535 0.275544 11.9535 0.375V2.25C6.831 2.25 2.62725 6.22425 2.24175 11.25H0.375C0.275544 11.25 0.180161 11.2895 0.109835 11.3598C0.0395088 11.4302 0 11.5255 0 11.625C0 11.7245 0.0395088 11.8198 0.109835 11.8902C0.180161 11.9605 0.275544 12 0.375 12H2.2035C2.2035 17.376 6.5775 21.75 11.9535 21.75V23.625C11.9535 23.7245 11.993 23.8198 12.0633 23.8902C12.1337 23.9605 12.229 24 12.3285 24C12.428 24 12.5233 23.9605 12.5937 23.8902C12.664 23.8198 12.7035 23.7245 12.7035 23.625V21.7118C17.7292 21.3263 21.7035 17.1225 21.7035 12H23.625C23.7245 12 23.8198 11.9605 23.8902 11.8902C23.9605 11.8198 24 11.7245 24 11.625C24 11.5255 23.9605 11.4302 23.8902 11.3598C23.8198 11.2895 23.7245 11.25 23.625 11.25ZM11.9535 20C6.99075 20 3.5 16.9627 3.5 12C3.5 7.03725 6.99075 4 11.9535 4C16.9163 4 20.5 6.92742 20.5 11.8902C20.5 16.8529 16.9163 20 11.9535 20Z" fill="#71B626"/>
</svg>
