<svg width="52" height="52" viewBox="0 0 52 52" fill="none" xmlns="http://www.w3.org/2000/svg">
<rect width="52" height="52" rx="5" fill="#AFFFCF" fill-opacity="0.2"/>
<path d="M26.1997 42.5635H11.7433C9.10604 42.562 7.75931 41.2168 7.75787 38.5925C7.75787 37.7937 7.80113 36.9934 7.75787 36.1975C7.50266 32.0607 8.20053 28.0205 8.91139 23.9731C9.62945 19.7887 10.2927 15.5885 10.9675 11.3955C11.2357 9.71421 12.333 8.67749 14.0244 8.6746C22.099 8.66403 30.1702 8.66403 38.2381 8.6746C39.9049 8.6746 41.0181 9.64356 41.3151 11.3955C42.0462 15.701 42.7383 20.0137 43.4448 24.3235C43.6885 25.8072 43.9826 27.288 44.1528 28.7804C44.3359 30.3896 44.4512 32.0088 44.5046 33.6266C44.5637 35.3987 44.5248 37.1737 44.5161 38.9472C44.506 41.1461 43.116 42.5519 40.9244 42.5606C36.0161 42.5712 31.1079 42.5721 26.1997 42.5635ZM41.9971 28.5223C41.8097 27.2751 41.641 26.1374 41.4694 25.0012C40.7845 20.4808 40.0924 15.9605 39.4219 11.4358C39.3397 10.8807 39.1653 10.6327 38.5366 10.6341C30.3207 10.6553 22.1047 10.6553 13.8888 10.6341C13.3423 10.6341 13.1347 10.7639 13.0568 11.3551C12.5118 15.4804 11.9149 19.5984 11.341 23.7193C11.1204 25.3054 10.9185 26.9045 10.7037 28.5237L41.9971 28.5223ZM26.1536 40.1007C31.2694 40.1007 36.391 40.0892 41.5026 40.1123C42.2668 40.1123 42.5537 39.8628 42.5436 39.0856C42.51 36.6315 42.51 34.1774 42.5436 31.7233C42.5551 30.9058 42.225 30.6289 41.4391 30.6304C31.2074 30.6438 20.9753 30.6438 10.7426 30.6304C9.98704 30.6304 9.69722 30.9029 9.7102 31.6801C9.74625 34.1039 9.72029 36.5292 9.72462 38.9544C9.72462 40.0387 9.7895 40.0978 10.894 40.0993L26.1536 40.1007Z" fill="#71B626"/>
<path d="M19.5392 13.0273L19.63 14.3581C20.6999 14.3581 21.7554 14.4043 22.8022 14.3423C23.5231 14.299 23.9744 14.524 24.3883 15.144C25.9744 17.4957 27.6426 19.7898 29.2417 22.1328C29.5849 22.6361 29.9554 22.8235 30.548 22.799C31.5574 22.7557 32.5581 22.7702 33.5631 22.799C34.4527 22.8206 34.7541 23.1696 34.7497 24.0765C34.7497 24.8724 34.3489 25.2892 33.5558 25.2949C32.1139 25.305 30.6547 25.3483 29.21 25.2661C28.8293 25.2445 28.3564 24.8984 28.1228 24.5639C26.5021 22.2367 24.9232 19.8806 23.3559 17.5173C23.0502 17.0545 22.7359 16.8137 22.1476 16.8569C21.3286 16.9175 20.5009 16.8728 19.6343 16.8728C19.5896 17.4265 19.5522 17.9095 19.506 18.5036L16.3555 16.136L19.5392 13.0273Z" fill="#71B626"/>
<path d="M33.1206 18.5561V16.9052C31.2462 16.8965 29.2693 16.2823 28.1418 18.7003L26.6177 16.7581C28.0091 14.5318 30.2902 13.9103 33.063 14.4727C33.1019 13.8599 33.1293 13.4042 33.1523 13.0423L36.2394 16.2145L33.1206 18.5561Z" fill="#71B626"/>
<path d="M23.8161 20.2881L25.4022 22.0976C24.8082 22.9628 24.1535 23.9721 23.4326 24.9411C23.2754 25.1516 22.8789 25.2698 22.5891 25.2785C21.4067 25.3159 20.2229 25.2698 19.0406 25.3015C18.1033 25.3275 17.9764 24.6858 17.9563 24.0139C17.9361 23.342 18.1697 22.784 19.0088 22.7897C19.848 22.7955 20.6685 22.8388 21.4903 22.7638C21.8714 22.7143 22.2223 22.5302 22.4795 22.2447C22.9611 21.6607 23.3446 20.9903 23.8161 20.2881Z" fill="#71B626"/>
<path d="M30.5713 35.9192H34.1631V37.7432H30.5713V35.9192Z" fill="#71B626"/>
<path d="M36.7715 35.9034H40.3503V37.749H36.7715V35.9034Z" fill="#71B626"/>
<path d="M17.9346 35.9192H21.4874V37.7389H17.9346V35.9192Z" fill="#71B626"/>
<path d="M27.6844 37.7518H24.1172V35.9278H27.6844V37.7518Z" fill="#71B626"/>
<path d="M21.5119 33.054V34.7483H17.9346V33.054H21.5119Z" fill="#71B626"/>
<path d="M24.1001 34.7511V33.0511H27.6919V34.7511H24.1001Z" fill="#71B626"/>
<path d="M34.1791 33.0661V34.7661H30.5498V33.0661H34.1791Z" fill="#71B626"/>
<path d="M36.7656 33.0135H40.3574V34.7437H36.7656V33.0135Z" fill="#71B626"/>
<path d="M13.9055 36.3763C13.7431 36.3791 13.5819 36.3488 13.4316 36.2872C13.2814 36.2255 13.1453 36.1338 13.0318 36.0177C12.9182 35.9016 12.8296 35.7635 12.7713 35.6119C12.7131 35.4604 12.6863 35.2985 12.6929 35.1362C12.6929 34.4672 13.2912 33.8385 13.9286 33.9106C14.6149 33.9885 15.0677 34.3749 15.0965 35.116C15.1074 35.2785 15.0847 35.4415 15.0296 35.5947C14.9745 35.748 14.8884 35.8882 14.7765 36.0065C14.6647 36.1249 14.5295 36.2188 14.3797 36.2825C14.2298 36.3461 14.0683 36.378 13.9055 36.3763Z" fill="#71B626"/>
</svg>
