<svg width="33" height="33" viewBox="0 0 33 33" fill="none" xmlns="http://www.w3.org/2000/svg">
<path d="M16.4982 0C16.9472 5.92296e-05 17.3806 0.164902 17.7161 0.463261C18.0516 0.761621 18.266 1.17275 18.3185 1.61866L18.3313 1.83313V31.1633C18.3308 31.6305 18.1519 32.0799 17.8312 32.4197C17.5104 32.7594 17.0721 32.9639 16.6056 32.9912C16.1392 33.0186 15.6799 32.8669 15.3216 32.567C14.9634 32.2671 14.7331 31.8417 14.6779 31.3778L14.6651 31.1633V1.83313C14.6651 1.34696 14.8582 0.880692 15.202 0.536913C15.5458 0.193133 16.012 0 16.4982 0ZM9.16567 5.4994C9.61467 5.49946 10.048 5.66431 10.3836 5.96266C10.7191 6.26102 10.9334 6.67215 10.986 7.11806L10.9988 7.33254V25.6639C10.9983 26.1311 10.8194 26.5805 10.4986 26.9203C10.1779 27.26 9.73953 27.4645 9.2731 27.4918C8.80668 27.5192 8.3474 27.3675 7.98911 27.0676C7.63082 26.7677 7.40056 26.3423 7.34537 25.8784L7.33254 25.6639V7.33254C7.33254 6.84636 7.52567 6.3801 7.86945 6.03632C8.21323 5.69254 8.6795 5.4994 9.16567 5.4994ZM23.8308 5.4994C24.2797 5.49946 24.7131 5.66431 25.0486 5.96266C25.3842 6.26102 25.5985 6.67215 25.6511 7.11806L25.6639 7.33254V25.6639C25.6634 26.1311 25.4845 26.5805 25.1637 26.9203C24.843 27.26 24.4046 27.4645 23.9382 27.4918C23.4718 27.5192 23.0125 27.3675 22.6542 27.0676C22.2959 26.7677 22.0656 26.3423 22.0104 25.8784L21.9976 25.6639V7.33254C21.9976 6.84636 22.1908 6.3801 22.5345 6.03632C22.8783 5.69254 23.3446 5.4994 23.8308 5.4994ZM1.83313 10.9988C2.28213 10.9989 2.71549 11.1637 3.05102 11.4621C3.38655 11.7604 3.60091 12.1716 3.65344 12.6175L3.66627 12.8319V20.1645C3.66575 20.6317 3.48684 21.0811 3.1661 21.4209C2.84536 21.7606 2.40699 21.965 1.94057 21.9924C1.47414 22.0198 1.01486 21.8681 0.656569 21.5682C0.298277 21.2683 0.0680159 20.8429 0.0128319 20.379L0 20.1645V12.8319C0 12.3458 0.193133 11.8795 0.536913 11.5357C0.880692 11.1919 1.34696 10.9988 1.83313 10.9988ZM31.1633 10.9988C31.6123 10.9989 32.0456 11.1637 32.3812 11.4621C32.7167 11.7604 32.9311 12.1716 32.9836 12.6175L32.9964 12.8319V20.1645C32.9959 20.6317 32.817 21.0811 32.4963 21.4209C32.1755 21.7606 31.7371 21.965 31.2707 21.9924C30.8043 22.0198 30.345 21.8681 29.9867 21.5682C29.6284 21.2683 29.3982 20.8429 29.343 20.379L29.3302 20.1645V12.8319C29.3302 12.3458 29.5233 11.8795 29.8671 11.5357C30.2108 11.1919 30.6771 10.9988 31.1633 10.9988Z" fill="#66B127"/>
</svg>
