<svg width="72" height="72" viewBox="0 0 72 72" fill="none" xmlns="http://www.w3.org/2000/svg">
<rect width="72" height="72" rx="5" fill="#AFFFCF" fill-opacity="0.2"/>
<path d="M26.7992 24.2569C26.6122 24.2569 26.4592 24.422 26.4592 24.6239V26.8257C26.4592 27.0275 26.6122 27.1927 26.7992 27.1927H43.1172C43.3042 27.1927 43.4572 27.0275 43.4572 26.8257V24.6239C43.4572 24.422 43.3042 24.2569 43.1172 24.2569H26.7992ZM34.9582 33.4312V31.2294C34.9582 31.0275 34.8052 30.8624 34.6183 30.8624H26.7992C26.6122 30.8624 26.4592 31.0275 26.4592 31.2294V33.4312C26.4592 33.633 26.6122 33.7982 26.7992 33.7982H34.6183C34.8052 33.7982 34.9582 33.633 34.9582 33.4312ZM32.9185 51.5963H23.0596V19.3028H46.8568V35.0826C46.8568 35.2844 47.0098 35.4495 47.1968 35.4495H49.5765C49.7635 35.4495 49.9164 35.2844 49.9164 35.0826V17.4679C49.9164 16.656 49.3088 16 48.5566 16H21.3598C20.6077 16 20 16.656 20 17.4679V53.4312C20 54.2431 20.6077 54.8991 21.3598 54.8991H32.9185C33.1054 54.8991 33.2584 54.7339 33.2584 54.5321V51.9633C33.2584 51.7615 33.1054 51.5963 32.9185 51.5963ZM37.3422 46.2936C37.4187 44.711 38.0306 43.2294 39.076 42.1009C40.1893 40.8991 41.7107 40.2202 43.2872 40.2202C44.8765 40.2202 46.3724 40.8899 47.4985 42.1009C47.6345 42.2477 47.7662 42.4037 47.8894 42.5642L46.9078 43.3853C46.8572 43.4276 46.8186 43.4844 46.7966 43.5493C46.7746 43.6141 46.77 43.6844 46.7833 43.752C46.7966 43.8195 46.8273 43.8817 46.8719 43.9312C46.9165 43.9808 46.9731 44.0157 47.0353 44.0321L51.0001 45.0642C51.2125 45.1193 51.4165 44.945 51.4208 44.711L51.4463 40.3349C51.4469 40.2659 51.4295 40.1982 51.3961 40.1394C51.3627 40.0807 51.3146 40.0333 51.2574 40.0026C51.2002 39.972 51.1361 39.9594 51.0726 39.9662C51.009 39.973 50.9486 39.9991 50.8981 40.0413L50.0354 40.7661C48.4461 38.6422 46.0112 37.2844 43.2872 37.2844C38.617 37.2844 34.8052 41.2706 34.6183 46.2615C34.6098 46.4679 34.767 46.6422 34.9582 46.6422H37.0022C37.185 46.6422 37.3337 46.4908 37.3422 46.2936ZM51.6162 46.6422H49.5722C49.3895 46.6422 49.2408 46.7936 49.2323 46.9908C49.1558 48.5734 48.5439 50.055 47.4985 51.1835C46.3851 52.3853 44.8638 53.0642 43.2872 53.0642C41.6979 53.0642 40.2021 52.3945 39.076 51.1835C38.94 51.0367 38.8083 50.8807 38.685 50.7202L39.6667 49.8991C39.7173 49.8568 39.7558 49.8 39.7778 49.7351C39.7999 49.6703 39.8045 49.6 39.7912 49.5325C39.7778 49.4649 39.7471 49.4028 39.7026 49.3532C39.658 49.3036 39.6013 49.2687 39.5392 49.2523L35.5744 48.2202C35.3619 48.1651 35.1579 48.3394 35.1537 48.5734L35.1282 52.9495C35.1276 53.0185 35.145 53.0862 35.1784 53.145C35.2118 53.2037 35.2598 53.2512 35.3171 53.2818C35.3743 53.3124 35.4383 53.3251 35.5019 53.3182C35.5654 53.3114 35.6259 53.2853 35.6764 53.2431L36.539 52.5183C38.1283 54.6422 40.5633 56 43.2872 56C47.9574 56 51.7692 52.0138 51.9562 47.0229C51.9647 46.8165 51.8075 46.6422 51.6162 46.6422Z" fill="#71B626"/>
</svg>
