<svg width="72" height="72" viewBox="0 0 72 72" fill="none" xmlns="http://www.w3.org/2000/svg">
<rect width="72" height="72" rx="5" fill="#AFFFCF" fill-opacity="0.2"/>
<path d="M25.175 16C22.0531 16 19.3391 18.2726 18.6093 21.4963L14.2175 40.8788C13.9404 42.1018 13.9279 43.3757 14.1811 44.6045C14.4343 45.8334 14.9465 46.9852 15.6791 47.9732C16.4118 48.9613 17.3458 49.7599 18.4109 50.3089C19.476 50.858 20.6444 51.1431 21.8282 51.1429H50.2517C51.4349 51.1423 52.6026 50.8567 53.6669 50.3075C54.7313 49.7583 55.6646 48.9598 56.3967 47.9721C57.1288 46.9844 57.6407 45.8332 57.8938 44.605C58.1469 43.3768 58.1347 42.1036 57.8581 40.8811L53.4706 21.4963C53.1156 19.9296 52.2747 18.5354 51.0833 17.5383C49.8918 16.5413 48.4193 15.9994 46.9027 16H25.1728H25.175ZM21.8238 22.3187C22.005 21.5193 22.4341 20.808 23.042 20.2993C23.6499 19.7905 24.4012 19.514 25.175 19.5143H46.9049C48.4967 19.5143 49.8813 20.674 50.2539 22.3187L54.6458 41.7011C54.8059 42.4075 54.8131 43.1433 54.6668 43.853C54.5206 44.5628 54.2247 45.228 53.8014 45.7987C53.3782 46.3693 52.8387 46.8305 52.2234 47.1475C51.6082 47.4644 50.9333 47.6289 50.2495 47.6286H21.8304C21.1469 47.6286 20.4722 47.4638 19.8573 47.1467C19.2423 46.8296 18.703 46.3684 18.28 45.7978C17.857 45.2272 17.5614 44.562 17.4152 43.8525C17.2691 43.1429 17.2763 42.4073 17.4364 41.7011L21.8238 22.3187ZM24.4651 53.4857C24.0265 53.4857 23.606 53.6708 23.2958 54.0004C22.9857 54.3299 22.8115 54.7768 22.8115 55.2429C22.8115 55.7089 22.9857 56.1558 23.2958 56.4853C23.606 56.8149 24.0265 57 24.4651 57H47.6149C48.0534 57 48.474 56.8149 48.7841 56.4853C49.0942 56.1558 49.2684 55.7089 49.2684 55.2429C49.2684 54.7768 49.0942 54.3299 48.7841 54.0004C48.474 53.6708 48.0534 53.4857 47.6149 53.4857H24.4651Z" fill="#71B626"/>
</svg>
