<svg width="26" height="21" viewBox="0 0 26 21" fill="none" xmlns="http://www.w3.org/2000/svg">
<path d="M19.6957 18.0083H19.2494V16.223H19.6957C20.761 16.2656 21.7996 15.8833 22.5831 15.1601C23.3665 14.437 23.8306 13.4322 23.8732 12.3669C23.9158 11.3015 23.5335 10.2629 22.8103 9.4795C22.0871 8.69606 21.0824 8.232 20.017 8.18939H19.2494L19.1601 7.45743C18.9621 5.95466 18.2245 4.5751 17.0849 3.57575C15.9452 2.57641 14.4811 2.02541 12.9653 2.02541C11.4495 2.02541 9.98545 2.57641 8.84577 3.57575C7.70609 4.5751 6.96853 5.95466 6.7705 7.45743L6.75265 8.18939H5.98499C4.91967 8.232 3.9149 8.69606 3.19174 9.4795C2.46857 10.2629 2.08624 11.3015 2.12885 12.3669C2.17147 13.4322 2.63553 14.437 3.41896 15.1601C4.20239 15.8833 5.24101 16.2656 6.30633 16.223H6.75265V18.0083H6.30633C4.87493 17.9992 3.49739 17.4613 2.43858 16.498C1.37977 15.5347 0.714417 14.214 0.570449 12.7899C0.42648 11.3657 0.814058 9.93855 1.65867 8.78285C2.50327 7.62715 3.74529 6.82446 5.14592 6.52911C5.53128 4.73182 6.52131 3.12104 7.95083 1.96554C9.38035 0.81003 11.1629 0.179688 13.001 0.179688C14.8391 0.179688 16.6217 0.81003 18.0512 1.96554C19.4807 3.12104 20.4708 4.73182 20.8561 6.52911C22.2567 6.82446 23.4988 7.62715 24.3434 8.78285C25.188 9.93855 25.5756 11.3657 25.4316 12.7899C25.2876 14.214 24.6223 15.5347 23.5634 16.498C22.5046 17.4613 21.1271 17.9992 19.6957 18.0083Z" fill="#8E8E8E"/>
<path d="M11.45 20.1525H11.442C11.2699 20.1508 11.103 20.0942 10.9662 19.9913C10.8293 19.8884 10.7298 19.7446 10.6825 19.5814L9.2505 14.6382H5.85938V13.0626H9.85269C10.0263 13.0625 10.1952 13.1182 10.3338 13.2213C10.4725 13.3243 10.5733 13.4691 10.621 13.6338L11.4788 16.5958L13.882 8.8914C13.9338 8.73152 14.0354 8.59182 14.1723 8.49212C14.3092 8.39243 14.4745 8.33781 14.6447 8.33602C14.813 8.33353 14.9776 8.3846 15.1141 8.48166C15.2506 8.57872 15.3518 8.71661 15.4026 8.87486L16.817 13.0626H21.034V14.6382H16.242C16.0743 14.6382 15.9109 14.5862 15.7748 14.4895C15.6388 14.3928 15.5371 14.2563 15.4841 14.0993L14.675 11.7045L12.2135 19.5964C12.1633 19.7574 12.0621 19.8984 11.9246 19.9985C11.7872 20.0986 11.6209 20.1526 11.45 20.1525Z" fill="#BEBEBE"/>
</svg>
