<svg width="62" height="62" viewBox="0 0 62 62" fill="none" xmlns="http://www.w3.org/2000/svg">
<rect y="0.219971" width="61.1" height="61.1" rx="16" fill="#E9FDD8"/>
<rect x="1.88" y="2.09997" width="57.34" height="57.34" rx="13.16" stroke="#66B127" stroke-width="3.76"/>
<rect x="10.7598" y="18" width="39.3674" height="25.1984" rx="8" fill="#E9FDD8"/>
<path fill-rule="evenodd" clip-rule="evenodd" d="M39.8 24.9979H42.1826C42.7006 24.9979 43.2135 25.0999 43.6921 25.2982C44.1707 25.4964 44.6055 25.7869 44.9718 26.1532C45.3381 26.5195 45.6287 26.9544 45.8269 27.433C46.0251 27.9115 46.1272 28.4245 46.1272 28.9425V35.2538C46.1243 36.2991 45.7077 37.3007 44.9686 38.0399C44.2295 38.779 43.2279 39.1955 42.1826 39.1984H18.7044C17.66 39.1926 16.66 38.7752 15.9215 38.0367C15.183 37.2982 14.7656 36.2982 14.7598 35.2538V28.9425C14.7627 27.8972 15.1792 26.8956 15.9183 26.1565C16.6575 25.4173 17.6591 25.0008 18.7044 24.9979H21.0711V23.5147C21.0711 23.3055 21.1542 23.1048 21.3022 22.9569C21.4501 22.8089 21.6508 22.7258 21.86 22.7258C22.0693 22.7258 22.2699 22.8089 22.4179 22.9569C22.5658 23.1048 22.649 23.3055 22.649 23.5147V24.9979H38.2222V22.7889C38.2222 22.5797 38.3053 22.379 38.4533 22.2311C38.6012 22.0831 38.8019 22 39.0111 22C39.2204 22 39.421 22.0831 39.569 22.2311C39.7169 22.379 39.8 22.5797 39.8 22.7889V24.9979ZM43.8561 36.9274C44.3 36.4835 44.5493 35.8815 44.5493 35.2538V28.9425C44.5493 28.3148 44.3 27.7128 43.8561 27.2689C43.4123 26.8251 42.8103 26.5757 42.1826 26.5757H18.7044C18.0767 26.5757 17.4747 26.8251 17.0308 27.2689C16.587 27.7128 16.3376 28.3148 16.3376 28.9425V35.2538C16.3421 35.8801 16.593 36.4795 17.0358 36.9224C17.4787 37.3652 18.0781 37.616 18.7044 37.6206H42.1826C42.8103 37.6206 43.4123 37.3712 43.8561 36.9274ZM20.1874 32.0918C20.1874 32.7454 19.6576 33.2752 19.004 33.2752C18.3505 33.2752 17.8206 32.7454 17.8206 32.0918C17.8206 31.4383 18.3505 30.9084 19.004 30.9084C19.6576 30.9084 20.1874 31.4383 20.1874 32.0918ZM24.5257 33.2752C25.1793 33.2752 25.7091 32.7454 25.7091 32.0918C25.7091 31.4383 25.1793 30.9084 24.5257 30.9084C23.8722 30.9084 23.3424 31.4383 23.3424 32.0918C23.3424 32.7454 23.8722 33.2752 24.5257 33.2752ZM32.8103 34.4585H40.6995C41.3272 34.4585 41.9292 34.2092 42.3731 33.7653C42.8169 33.3215 43.0663 32.7195 43.0663 32.0918C43.0663 31.4641 42.8169 30.8621 42.3731 30.4182C41.9292 29.9744 41.3272 29.725 40.6995 29.725H32.8103C32.1826 29.725 31.5806 29.9744 31.1368 30.4182C30.6929 30.8621 30.4436 31.4641 30.4436 32.0918C30.4436 32.7195 30.6929 33.3215 31.1368 33.7653C31.5806 34.2092 32.1826 34.4585 32.8103 34.4585ZM32.2525 31.5339C32.4004 31.386 32.6011 31.3028 32.8103 31.3028H40.6995C40.9087 31.3028 41.1094 31.386 41.2574 31.5339C41.4053 31.6819 41.4884 31.8825 41.4884 32.0918C41.4884 32.301 41.4053 32.5017 41.2574 32.6496C41.1094 32.7976 40.9087 32.8807 40.6995 32.8807H32.8103C32.6011 32.8807 32.4004 32.7976 32.2525 32.6496C32.1045 32.5017 32.0214 32.301 32.0214 32.0918C32.0214 31.8825 32.1045 31.6819 32.2525 31.5339Z" fill="#646363"/>
</svg>
