<svg width="24" height="17" viewBox="0 0 24 17" fill="none" xmlns="http://www.w3.org/2000/svg">
<path fill-rule="evenodd" clip-rule="evenodd" d="M23.9335 8.74773L21.6173 1.3034C21.524 1.00133 21.3365 0.737066 21.0822 0.549308C20.8278 0.36155 20.5201 0.260167 20.2039 0.26001H4.11648C3.80034 0.260167 3.49256 0.36155 3.23822 0.549308C2.98388 0.737066 2.79635 1.00133 2.70309 1.3034L0.386912 8.75513C0.343 8.89651 0.320551 9.04368 0.320312 9.19172V15.0599C0.320312 15.4524 0.476239 15.8288 0.75379 16.1064C1.03134 16.3839 1.40778 16.5398 1.8003 16.5398H22.5201C22.9126 16.5398 23.2891 16.3839 23.5666 16.1064C23.8442 15.8288 24.0001 15.4524 24.0001 15.0599V9.18432C23.9998 9.03628 23.9774 8.88911 23.9335 8.74773ZM22.5201 15.0599H1.8003V9.18432L4.11648 1.74H20.2039L22.5201 9.18432V15.0599ZM4.10922 11.3599H5.44121V13.5799H4.10922V11.3599ZM9.14094 11.3599H7.80896V13.5799H9.14094V11.3599ZM11.5014 11.3599H12.8334V13.5799H11.5014V11.3599ZM16.5262 11.3599H15.1942V13.5799H16.5262V11.3599ZM18.8939 11.3599H20.2259V13.5799H18.8939V11.3599ZM20.9808 8.3999H3.45038V9.43589H20.9808V8.3999Z" fill="#646363"/>
</svg>
