<svg width="52" height="52" viewBox="0 0 52 52" fill="none" xmlns="http://www.w3.org/2000/svg">
<rect width="52" height="52" rx="5" fill="#AFFFCF" fill-opacity="0.2"/>
<path d="M26.1992 42.5636H11.7428C9.10556 42.5621 7.75883 41.2168 7.75738 38.5926C7.75738 37.7938 7.80064 36.9935 7.75738 36.1976C7.50217 32.0608 8.20005 28.0206 8.9109 23.9732C9.62896 19.7888 10.2922 15.5886 10.967 11.3955C11.2352 9.71429 12.3325 8.67756 14.0239 8.67468C22.0985 8.6641 30.1697 8.6641 38.2376 8.67468C39.9045 8.67468 41.0176 9.64363 41.3146 11.3955C42.0457 15.701 42.7378 20.0137 43.4443 24.3236C43.688 25.8073 43.9821 27.2881 44.1523 28.7805C44.3354 30.3896 44.4508 32.0089 44.5041 33.6267C44.5632 35.3988 44.5243 37.1738 44.5156 38.9473C44.5055 41.1462 43.1156 42.552 40.9239 42.5607C36.0157 42.5713 31.1075 42.5722 26.1992 42.5636ZM41.9967 28.5224C41.8092 27.2751 41.6405 26.1375 41.4689 25.0013C40.784 20.4809 40.0919 15.9606 39.4214 11.4359C39.3392 10.8808 39.1648 10.6328 38.5361 10.6342C30.3202 10.6554 22.1042 10.6554 13.8883 10.6342C13.3418 10.6342 13.1342 10.764 13.0564 11.3552C12.5113 15.4804 11.9144 19.5985 11.3405 23.7194C11.1199 25.3055 10.918 26.9046 10.7032 28.5238L41.9967 28.5224ZM26.1531 40.1008C31.2689 40.1008 36.3906 40.0893 41.5021 40.1123C42.2663 40.1123 42.5532 39.8629 42.5431 39.0857C42.5095 36.6316 42.5095 34.1775 42.5431 31.7234C42.5547 30.9058 42.2245 30.629 41.4386 30.6304C31.2069 30.6439 20.9748 30.6439 10.7421 30.6304C9.98656 30.6304 9.69673 30.9029 9.70971 31.6801C9.74576 34.104 9.7198 36.5292 9.72413 38.9545C9.72413 40.0388 9.78902 40.0979 10.8935 40.0994L26.1531 40.1008Z" fill="#71B626"/>
<path d="M19.5392 13.0273L19.63 14.3582C20.6999 14.3582 21.7554 14.4044 22.8022 14.3424C23.5231 14.2991 23.9744 14.524 24.3883 15.144C25.9744 17.4958 27.6426 19.7898 29.2417 22.1329C29.5849 22.6361 29.9554 22.8236 30.548 22.7991C31.5574 22.7558 32.5581 22.7702 33.5631 22.7991C34.4527 22.8207 34.7541 23.1696 34.7497 24.0766C34.7497 24.8725 34.3489 25.2892 33.5558 25.295C32.1139 25.3051 30.6547 25.3483 29.21 25.2662C28.8293 25.2445 28.3564 24.8985 28.1228 24.564C26.5021 22.2367 24.9232 19.8807 23.3559 17.5174C23.0502 17.0546 22.7359 16.8138 22.1476 16.857C21.3286 16.9176 20.5009 16.8729 19.6343 16.8729C19.5896 17.4266 19.5522 17.9096 19.506 18.5037L16.3555 16.1361L19.5392 13.0273Z" fill="#71B626"/>
<path d="M33.1201 18.5563V16.9053C31.2457 16.8967 29.2688 16.2824 28.1413 18.7005L26.6172 16.7582C28.0086 14.532 30.2897 13.9105 33.0625 14.4728C33.1014 13.86 33.1288 13.4044 33.1519 13.0425L36.239 16.2147L33.1201 18.5563Z" fill="#71B626"/>
<path d="M23.8161 20.2881L25.4022 22.0977C24.8082 22.9628 24.1535 23.9721 23.4326 24.9411C23.2754 25.1516 22.8789 25.2698 22.5891 25.2785C21.4067 25.316 20.2229 25.2698 19.0406 25.3016C18.1033 25.3275 17.9764 24.6859 17.9563 24.0139C17.9361 23.342 18.1697 22.784 19.0088 22.7898C19.848 22.7955 20.6685 22.8388 21.4903 22.7638C21.8714 22.7143 22.2223 22.5302 22.4795 22.2447C22.9611 21.6608 23.3446 20.9903 23.8161 20.2881Z" fill="#71B626"/>
<path d="M30.5713 35.9192H34.1631V37.7432H30.5713V35.9192Z" fill="#71B626"/>
<path d="M36.7715 35.9036H40.3503V37.7492H36.7715V35.9036Z" fill="#71B626"/>
<path d="M17.9341 35.9192H21.4869V37.7389H17.9341V35.9192Z" fill="#71B626"/>
<path d="M27.6844 37.752H24.1172V35.928H27.6844V37.752Z" fill="#71B626"/>
<path d="M21.5114 33.0542V34.7484H17.9341V33.0542H21.5114Z" fill="#71B626"/>
<path d="M24.1001 34.7513V33.0513H27.6919V34.7513H24.1001Z" fill="#71B626"/>
<path d="M34.1791 33.0662V34.7662H30.5498V33.0662H34.1791Z" fill="#71B626"/>
<path d="M36.7656 33.0134H40.3574V34.7437H36.7656V33.0134Z" fill="#71B626"/>
<path d="M13.9055 36.3763C13.7431 36.3792 13.5819 36.3489 13.4316 36.2872C13.2814 36.2256 13.1453 36.1339 13.0318 36.0178C12.9182 35.9017 12.8296 35.7636 12.7713 35.612C12.7131 35.4604 12.6863 35.2986 12.6929 35.1363C12.6929 34.4673 13.2912 33.8386 13.9286 33.9107C14.6149 33.9885 15.0677 34.375 15.0965 35.1161C15.1074 35.2786 15.0847 35.4416 15.0296 35.5948C14.9745 35.7481 14.8884 35.8883 14.7765 36.0066C14.6647 36.125 14.5295 36.2189 14.3797 36.2825C14.2298 36.3462 14.0683 36.3781 13.9055 36.3763Z" fill="#71B626"/>
</svg>
