<svg width="26" height="34" viewBox="0 0 26 34" fill="none" xmlns="http://www.w3.org/2000/svg">
<path d="M24.9389 0C25.3679 0.195168 25.501 0.495016 25.5 0.903094C25.4908 10.7319 25.4884 20.5603 25.4926 30.3885C25.4926 31.0672 25.239 31.2756 24.4264 31.2801H22.3689C22.3276 31.2873 22.2872 31.298 22.2484 31.312C22.2484 31.9144 22.2484 32.53 22.2484 33.1457C22.2484 33.78 21.9832 34 21.2213 34C20.0335 34 18.8468 34 17.6601 34C17.007 34 16.7143 33.756 16.709 33.2131C16.709 32.5833 16.709 31.9534 16.709 31.2996H8.79095C8.79095 31.9153 8.79095 32.5312 8.79095 33.1475C8.79095 33.78 8.5236 34 7.76169 34C6.57393 34 5.38722 34 4.20051 34C3.54745 34 3.25685 33.7551 3.24945 33.2122C3.24945 32.5824 3.24945 31.9525 3.24945 31.2756H2.81513C2.16841 31.2756 1.52275 31.281 0.877087 31.2756C0.3297 31.2685 0.0253616 31.0095 0.00845385 30.5517C0.00845385 30.4967 0.00845385 30.4417 0.00845385 30.3858C0.00845385 20.5589 0.0056359 10.7313 0 0.903094C0 0.495016 0.132091 0.195168 0.562181 0H24.9389ZM23.8821 23.9817V1.34488H1.62103V23.9772H3.1702V3.64165C3.1702 2.91155 3.40056 2.71815 4.27237 2.71815H21.2075C22.0984 2.71815 22.3224 2.908 22.3224 3.66383V23.979L23.8821 23.9817ZM23.8821 29.9352V25.355H1.61046V29.9352H23.8821ZM20.7215 20.034H4.77748V23.9781H20.7215V20.034ZM4.77431 13.3335H20.7119V9.38491H4.77431V13.3335ZM20.7204 14.7112H4.78805V18.6598H20.7204V14.7112ZM4.78699 4.05949V8.02051H20.7119V4.05949H4.78699ZM4.86414 31.2943V32.6462H7.18578V31.2943H4.86414ZM20.6306 32.664V31.296H18.3058V32.664H20.6306Z" fill="#71B626"/>
<path d="M10.0671 27.6316C10.075 27.7643 10.075 27.8972 10.0671 28.0299C10.0501 28.1858 9.96628 28.3313 9.83122 28.4393C9.69615 28.5473 9.51899 28.6105 9.33263 28.6172C8.97228 28.634 8.60137 28.4335 8.55065 28.1231C8.49939 27.7953 8.49939 27.4634 8.55065 27.1357C8.60031 26.8074 8.97334 26.6096 9.35905 26.6327C9.54402 26.6437 9.71787 26.7109 9.84801 26.8218C9.97816 26.9327 10.0557 27.0796 10.066 27.235C10.0808 27.3672 10.066 27.5012 10.066 27.6334L10.0671 27.6316Z" fill="#71B626"/>
<path d="M20.4324 27.6353C20.4403 27.7677 20.4403 27.9003 20.4324 28.0327C20.4151 28.1828 20.336 28.3232 20.2087 28.4296C20.0814 28.536 19.9138 28.6018 19.7349 28.6155C19.3788 28.6475 18.9783 28.4559 18.9276 28.1525C18.8705 27.8037 18.8705 27.45 18.9276 27.1012C18.9772 26.7925 19.3503 26.6097 19.7275 26.6328C19.9068 26.6422 20.0763 26.7048 20.2056 26.8095C20.3349 26.9142 20.4157 27.054 20.4334 27.2041C20.4421 27.3478 20.4417 27.4917 20.4324 27.6353Z" fill="#71B626"/>
<path d="M5.06184 27.6153C5.05391 27.4829 5.05391 27.3502 5.06184 27.2179C5.07682 27.0677 5.15448 26.9268 5.2811 26.82C5.40773 26.7132 5.5752 26.6474 5.754 26.6341C6.14182 26.6031 6.52013 26.7956 6.57825 27.1203C6.63265 27.4368 6.63798 27.758 6.5941 28.0757C6.56721 28.237 6.4671 28.3834 6.31468 28.4843C6.16227 28.5851 5.96934 28.6326 5.77619 28.6169C5.58355 28.6046 5.40319 28.5328 5.27004 28.4152C5.13689 28.2977 5.06044 28.1429 5.0555 27.9808C5.04599 27.8592 5.0555 27.7377 5.0555 27.6153H5.06184Z" fill="#71B626"/>
<path d="M17.0137 27.6718C17.0072 27.823 16.9878 27.9736 16.9556 28.1225C16.9159 28.2748 16.8123 28.41 16.6637 28.5035C16.515 28.5969 16.3313 28.6424 16.146 28.6315C15.9608 28.6206 15.7863 28.5542 15.6546 28.4443C15.5229 28.3343 15.4427 28.1883 15.4287 28.0329C15.407 27.7789 15.4049 27.5241 15.4223 27.2699C15.4236 27.1078 15.4981 26.952 15.6309 26.8343C15.7638 26.7165 15.9449 26.6455 16.1377 26.6356C16.3373 26.6214 16.5358 26.6725 16.6917 26.7781C16.8476 26.8837 16.949 27.0357 16.9746 27.2025C16.9971 27.3583 17.0102 27.5149 17.0137 27.6718Z" fill="#71B626"/>
<path d="M13.5359 27.6548C13.5359 27.7648 13.5454 27.8757 13.5359 27.9848C13.5255 28.1537 13.4382 28.3128 13.2921 28.4292C13.146 28.5457 12.9522 28.6106 12.7508 28.6106C12.5493 28.6106 12.3555 28.5457 12.2094 28.4292C12.0633 28.3128 11.9761 28.1537 11.9656 27.9848C11.9477 27.7431 11.9477 27.5008 11.9656 27.2591C11.9761 27.0902 12.0633 26.9311 12.2094 26.8147C12.3555 26.6982 12.5493 26.6333 12.7508 26.6333C12.9522 26.6333 13.146 26.6982 13.2921 26.8147C13.4382 26.9311 13.5255 27.0902 13.5359 27.2591C13.5465 27.3904 13.5359 27.5226 13.5359 27.6548Z" fill="#71B626"/>
<path d="M14.3718 22.6698C13.0931 22.6698 11.8145 22.6698 10.5358 22.6698C10.0075 22.6698 9.69045 22.4525 9.6429 22.0834C9.61533 21.9224 9.66294 21.7587 9.77577 21.6264C9.88861 21.4942 10.0579 21.4036 10.2484 21.3737C10.4038 21.3499 10.5618 21.3398 10.7197 21.3435C13.1586 21.3435 15.5972 21.3435 18.0355 21.3435C18.1672 21.3407 18.2989 21.3463 18.4296 21.3604C18.629 21.3779 18.8122 21.4606 18.9395 21.5906C19.0669 21.7206 19.1282 21.8874 19.1102 22.055C19.1057 22.2172 19.0259 22.3716 18.8876 22.485C18.7494 22.5984 18.5637 22.6619 18.3704 22.6618C17.5251 22.6778 16.6797 22.6698 15.8396 22.6707C15.3429 22.6707 14.8547 22.6698 14.3718 22.6698Z" fill="#71B626"/>
<path d="M8.03076 22.017C8.02558 22.1892 7.94109 22.3529 7.79506 22.4739C7.64903 22.5948 7.45283 22.6635 7.24772 22.6655C7.14282 22.6658 7.03893 22.6483 6.94233 22.614C6.84572 22.5797 6.75839 22.5293 6.68561 22.4659C6.61283 22.4025 6.55611 22.3273 6.51886 22.245C6.48162 22.1627 6.46463 22.0749 6.46891 21.9869C6.47367 21.813 6.56052 21.6478 6.71034 21.5277C6.86016 21.4076 7.06068 21.3424 7.2678 21.3464C7.47491 21.3504 7.67165 21.4233 7.81473 21.549C7.95782 21.6748 8.03552 21.8432 8.03076 22.017Z" fill="#71B626"/>
<path d="M14.3491 12.0255C13.0578 12.0255 11.7654 12.0308 10.473 12.0255C9.88339 12.0255 9.52199 11.6431 9.65725 11.1933C9.7439 10.9015 10.0408 10.7037 10.453 10.7028C13.0638 10.698 15.6746 10.698 18.2855 10.7028C18.7768 10.7028 19.1013 10.9804 19.1065 11.3566C19.1118 11.7478 18.78 12.0228 18.2612 12.0246C16.9603 12.0299 15.6553 12.0255 14.3491 12.0255Z" fill="#71B626"/>
<path d="M7.23242 12.0219C7.0265 12.0187 6.83049 11.9471 6.68715 11.823C6.54381 11.6988 6.4648 11.5321 6.46734 11.3592C6.46999 11.1866 6.5521 11.0214 6.69647 10.8984C6.84084 10.7754 7.0363 10.704 7.24193 10.6992C7.45485 10.7029 7.65737 10.7772 7.80527 10.9059C7.95316 11.0345 8.03442 11.2071 8.03131 11.3859C8.02522 11.559 7.93779 11.723 7.78811 11.8422C7.63843 11.9614 7.43866 12.026 7.23242 12.0219Z" fill="#71B626"/>
<path d="M14.3492 17.3461C13.0568 17.3461 11.7645 17.3514 10.4731 17.3461C9.86657 17.3461 9.49883 16.9371 9.6658 16.4838C9.77147 16.1946 10.0769 16.0251 10.5334 16.0225C11.4696 16.018 12.4059 16.0225 13.3422 16.0225C14.9368 16.0225 16.5324 16.0163 18.127 16.0305C18.374 16.0316 18.6158 16.0893 18.8266 16.1972C19.1225 16.3587 19.1732 16.6408 19.0623 16.9114C19.0135 17.0455 18.912 17.1619 18.7745 17.2414C18.6369 17.321 18.4713 17.3591 18.3046 17.3496H14.7846L14.3492 17.3461Z" fill="#71B626"/>
<path d="M7.24272 17.3434C7.03704 17.3408 6.84071 17.2708 6.69575 17.1483C6.55079 17.0258 6.46871 16.8605 6.46708 16.6878C6.46425 16.5997 6.48261 16.5119 6.52106 16.4299C6.5595 16.3478 6.61725 16.2731 6.69085 16.2102C6.76445 16.1473 6.85239 16.0974 6.94943 16.0637C7.04647 16.0299 7.15061 16.0129 7.25565 16.0137C7.36069 16.0145 7.46446 16.033 7.56078 16.0682C7.6571 16.1034 7.74398 16.1545 7.81625 16.2185C7.88852 16.2825 7.9447 16.358 7.98142 16.4406C8.01814 16.5233 8.03466 16.6112 8.02999 16.6993C8.02637 16.8721 7.94163 17.0367 7.7942 17.1573C7.64677 17.278 7.44857 17.3448 7.24272 17.3434Z" fill="#71B626"/>
<path d="M14.3504 6.70789H10.4743C10.1097 6.70789 9.82546 6.57926 9.68914 6.2936C9.56973 6.04077 9.59509 5.77108 9.85505 5.59188C10.0241 5.47317 10.2333 5.4021 10.4532 5.38873C13.0633 5.37543 15.6745 5.37809 18.2846 5.38252C18.7749 5.38252 19.1015 5.65576 19.1067 6.03367C19.112 6.41159 18.7802 6.70257 18.2666 6.70523C16.9616 6.71233 15.6555 6.70789 14.3504 6.70789Z" fill="#71B626"/>
<path d="M8.03152 6.03286C8.03339 6.16258 7.98938 6.28986 7.90505 6.39857C7.82071 6.50729 7.69985 6.59255 7.55777 6.64357C7.41568 6.69459 7.25876 6.70908 7.10686 6.68519C6.95496 6.6613 6.81493 6.60011 6.70447 6.50938C6.59402 6.41864 6.51812 6.30243 6.48638 6.17546C6.45464 6.04849 6.46848 5.91647 6.52616 5.79611C6.58384 5.67576 6.68277 5.57247 6.81041 5.49933C6.93805 5.42619 7.08867 5.38649 7.2432 5.38525C7.44881 5.38678 7.64573 5.45506 7.7927 5.57579C7.93966 5.69652 8.02525 5.86032 8.03152 6.03286Z" fill="#71B626"/>
</svg>
