<svg width="28" height="38" viewBox="0 0 28 38" fill="none" xmlns="http://www.w3.org/2000/svg">
<path d="M27.3591 0.703613C27.8208 0.913663 27.9641 1.23638 27.963 1.67557C27.9531 12.2538 27.9505 22.8317 27.955 33.4093C27.955 34.1397 27.6821 34.3641 26.8075 34.3689H24.5931C24.5487 34.3767 24.5052 34.3882 24.4635 34.4032C24.4635 35.0515 24.4635 35.7141 24.4635 36.3768C24.4635 37.0594 24.178 37.2962 23.358 37.2962C22.0797 37.2962 20.8025 37.2962 19.5253 37.2962C18.8224 37.2962 18.5074 37.0336 18.5017 36.4493C18.5017 35.7714 18.5017 35.0935 18.5017 34.3899H9.97984C9.97984 35.0525 9.97984 35.7154 9.97984 36.3787C9.97984 37.0594 9.6921 37.2962 8.8721 37.2962C7.59376 37.2962 6.31656 37.2962 5.03936 37.2962C4.33651 37.2962 4.02375 37.0327 4.01578 36.4484C4.01578 35.7705 4.01578 35.0926 4.01578 34.3641H3.54835C2.85232 34.3641 2.15742 34.3698 1.46252 34.3641C0.873396 34.3565 0.54585 34.0777 0.527653 33.585C0.527653 33.5258 0.527653 33.4666 0.527653 33.4065C0.527653 22.8301 0.52462 12.2532 0.518555 1.67557C0.518555 1.23638 0.660718 0.913663 1.1236 0.703613H27.3591ZM26.2218 26.514V2.15105H2.26319V26.5092H3.93049V4.62295C3.93049 3.83717 4.17842 3.62903 5.1167 3.62903H23.3432C24.302 3.62903 24.5431 3.83336 24.5431 4.64682V26.5111L26.2218 26.514ZM26.2218 32.9214V27.9919H2.25182V32.9214H26.2218ZM22.8201 22.2652H5.66033V26.5101H22.8201V22.2652ZM5.65692 15.0538H22.8098V10.8041H5.65692V15.0538ZM22.8189 16.5366H5.67171V20.7863H22.8189V16.5366ZM5.67057 5.07265V9.33571H22.8098V5.07265H5.67057ZM5.75359 34.3841V35.8392H8.25226V34.3841H5.75359ZM22.7223 35.8583V34.3861H20.2202V35.8583H22.7223Z" fill="#71B626"/>
<path d="M11.3531 30.442C11.3616 30.5848 11.3616 30.7279 11.3531 30.8707C11.3348 31.0385 11.2446 31.1951 11.0993 31.3114C10.9539 31.4276 10.7632 31.4956 10.5627 31.5028C10.1748 31.5209 9.77565 31.3051 9.72106 30.971C9.6659 30.6183 9.6659 30.261 9.72106 29.9083C9.77451 29.555 10.176 29.3421 10.5911 29.3669C10.7902 29.3788 10.9773 29.4511 11.1173 29.5705C11.2574 29.6898 11.3408 29.848 11.352 30.0152C11.3679 30.1575 11.352 30.3017 11.352 30.4439L11.3531 30.442Z" fill="#71B626"/>
<path d="M22.5084 30.4457C22.5169 30.5882 22.5169 30.731 22.5084 30.8735C22.4898 31.0351 22.4047 31.1861 22.2677 31.3007C22.1306 31.4152 21.9503 31.4859 21.7577 31.5008C21.3745 31.5351 20.9434 31.3289 20.8888 31.0024C20.8274 30.627 20.8274 30.2463 20.8888 29.871C20.9423 29.5387 21.3438 29.342 21.7498 29.3668C21.9427 29.3769 22.1251 29.4443 22.2643 29.557C22.4035 29.6696 22.4904 29.8202 22.5095 29.9817C22.5188 30.1363 22.5184 30.2912 22.5084 30.4457Z" fill="#71B626"/>
<path d="M5.96645 30.4245C5.95792 30.282 5.95792 30.1392 5.96645 29.9967C5.98258 29.8351 6.06615 29.6835 6.20244 29.5686C6.33872 29.4536 6.51896 29.3828 6.71139 29.3685C7.12878 29.3351 7.53594 29.5423 7.59849 29.8917C7.65704 30.2324 7.66278 30.5781 7.61555 30.92C7.58661 31.0937 7.47887 31.2512 7.31483 31.3597C7.15079 31.4683 6.94315 31.5194 6.73527 31.5024C6.52795 31.4892 6.33383 31.4119 6.19053 31.2854C6.04723 31.159 5.96495 30.9923 5.95963 30.8178C5.94939 30.687 5.95963 30.5562 5.95963 30.4245H5.96645Z" fill="#71B626"/>
<path d="M18.8298 30.4854C18.8228 30.6481 18.8019 30.8102 18.7673 30.9704C18.7246 31.1343 18.6131 31.2799 18.4531 31.3804C18.2931 31.481 18.0953 31.53 17.8959 31.5183C17.6966 31.5066 17.5088 31.435 17.3671 31.3167C17.2253 31.1984 17.139 31.0413 17.1239 30.8739C17.1006 30.6007 17.0983 30.3264 17.117 30.0528C17.1184 29.8783 17.1987 29.7107 17.3416 29.584C17.4845 29.4573 17.6795 29.3808 17.887 29.3702C18.1018 29.3549 18.3154 29.4098 18.4832 29.5235C18.651 29.6371 18.7601 29.8008 18.7878 29.9803C18.8119 30.1479 18.826 30.3165 18.8298 30.4854Z" fill="#71B626"/>
<path d="M15.0864 30.467C15.0864 30.5854 15.0966 30.7048 15.0864 30.8222C15.0751 31.004 14.9812 31.1752 14.824 31.3005C14.6667 31.4259 14.4582 31.4957 14.2414 31.4957C14.0245 31.4957 13.816 31.4259 13.6587 31.3005C13.5015 31.1752 13.4076 31.004 13.3963 30.8222C13.377 30.5621 13.377 30.3013 13.3963 30.0412C13.4076 29.8594 13.5015 29.6882 13.6587 29.5629C13.816 29.4376 14.0245 29.3677 14.2414 29.3677C14.4582 29.3677 14.6667 29.4376 14.824 29.5629C14.9812 29.6882 15.0751 29.8594 15.0864 30.0412C15.0978 30.1825 15.0864 30.3248 15.0864 30.467Z" fill="#71B626"/>
<path d="M15.9864 25.102C14.6102 25.102 13.2341 25.102 11.8579 25.102C11.2893 25.102 10.9481 24.8681 10.8969 24.4709C10.8672 24.2976 10.9185 24.1214 11.0399 23.9791C11.1613 23.8368 11.3436 23.7393 11.5486 23.7071C11.7158 23.6815 11.8858 23.6706 12.0558 23.6747C14.6807 23.6747 17.3053 23.6747 19.9294 23.6747C20.0712 23.6716 20.213 23.6776 20.3536 23.6928C20.5682 23.7116 20.7654 23.8006 20.9024 23.9405C21.0395 24.0804 21.1055 24.26 21.0861 24.4404C21.0813 24.615 20.9953 24.7811 20.8465 24.9031C20.6978 25.0252 20.498 25.0935 20.2899 25.0935C19.3801 25.1106 18.4702 25.102 17.5661 25.103C17.0315 25.103 16.5061 25.102 15.9864 25.102Z" fill="#71B626"/>
<path d="M9.16211 24.3995C9.15653 24.5848 9.0656 24.761 8.90844 24.8912C8.75127 25.0213 8.54012 25.0953 8.31936 25.0974C8.20647 25.0978 8.09466 25.0789 7.99068 25.042C7.88671 25.005 7.79272 24.9508 7.71439 24.8826C7.63606 24.8143 7.57501 24.7334 7.53493 24.6448C7.49485 24.5562 7.47656 24.4617 7.48117 24.367C7.48629 24.1799 7.57976 24.0021 7.74101 23.8729C7.90225 23.7436 8.11806 23.6734 8.34097 23.6777C8.56388 23.682 8.77562 23.7604 8.92961 23.8958C9.08361 24.0312 9.16724 24.2124 9.16211 24.3995Z" fill="#71B626"/>
<path d="M15.962 13.6461C14.5722 13.6461 13.1813 13.6519 11.7903 13.6461C11.1557 13.6461 10.7668 13.2346 10.9123 12.7506C11.0056 12.4364 11.3252 12.2235 11.7687 12.2226C14.5787 12.2175 17.3886 12.2175 20.1985 12.2226C20.7273 12.2226 21.0765 12.5214 21.0822 12.9262C21.0879 13.3473 20.7307 13.6433 20.1723 13.6452C18.7723 13.6509 17.3677 13.6461 15.962 13.6461Z" fill="#71B626"/>
<path d="M8.30248 13.6423C8.08086 13.6388 7.8699 13.5618 7.71563 13.4282C7.56137 13.2946 7.47633 13.1152 7.47907 12.9291C7.48192 12.7433 7.57028 12.5655 7.72566 12.4331C7.88105 12.3007 8.0914 12.2239 8.31272 12.2188C8.54188 12.2228 8.75984 12.3027 8.91901 12.4412C9.07818 12.5796 9.16564 12.7653 9.16229 12.9577C9.15574 13.1441 9.06164 13.3206 8.90055 13.4489C8.73945 13.5771 8.52445 13.6467 8.30248 13.6423Z" fill="#71B626"/>
<path d="M15.9619 19.3724C14.5709 19.3724 13.18 19.3782 11.7902 19.3724C11.1374 19.3724 10.7416 18.9323 10.9213 18.4444C11.035 18.1331 11.3637 17.9508 11.855 17.9479C12.8627 17.9431 13.8704 17.9479 14.878 17.9479C16.5942 17.9479 18.3116 17.9412 20.0278 17.9565C20.2935 17.9578 20.5538 18.0198 20.7807 18.136C21.0991 18.3098 21.1537 18.6134 21.0343 18.9046C20.9818 19.049 20.8726 19.1742 20.7245 19.2598C20.5765 19.3455 20.3982 19.3865 20.2188 19.3763H16.4304L15.9619 19.3724Z" fill="#71B626"/>
<path d="M8.31361 19.3693C8.09224 19.3666 7.88094 19.2912 7.72493 19.1594C7.56892 19.0275 7.48058 18.8496 7.47882 18.6638C7.47578 18.5689 7.49554 18.4745 7.53691 18.3862C7.57829 18.2978 7.64044 18.2174 7.71965 18.1497C7.79886 18.082 7.89351 18.0284 7.99795 17.9921C8.10239 17.9557 8.21448 17.9374 8.32752 17.9383C8.44057 17.9391 8.55226 17.959 8.65592 17.9969C8.75958 18.0348 8.85309 18.0898 8.93087 18.1587C9.00865 18.2275 9.06911 18.3088 9.10863 18.3978C9.14815 18.4867 9.16593 18.5814 9.1609 18.6762C9.15701 18.8622 9.06581 19.0393 8.90714 19.1691C8.74846 19.2989 8.53515 19.3709 8.31361 19.3693Z" fill="#71B626"/>
<path d="M15.963 7.923H11.7913C11.399 7.923 11.093 7.78456 10.9463 7.47712C10.8178 7.20501 10.8451 6.91476 11.1249 6.72189C11.3068 6.59412 11.532 6.51763 11.7686 6.50325C14.5778 6.48893 17.388 6.49179 20.1972 6.49657C20.7249 6.49657 21.0763 6.79064 21.082 7.19737C21.0877 7.6041 20.7306 7.91727 20.1779 7.92013C18.7733 7.92777 17.3676 7.923 15.963 7.923Z" fill="#71B626"/>
<path d="M9.16282 7.19625C9.16484 7.33587 9.11746 7.47285 9.0267 7.58985C8.93594 7.70686 8.80586 7.79862 8.65294 7.85354C8.50002 7.90845 8.33113 7.92403 8.16765 7.89832C8.00417 7.87261 7.85346 7.80676 7.73458 7.70911C7.6157 7.61145 7.53401 7.48638 7.49985 7.34973C7.46569 7.21308 7.48059 7.07099 7.54267 6.94146C7.60475 6.81192 7.71122 6.70076 7.84859 6.62204C7.98596 6.54333 8.14807 6.5006 8.31438 6.49927C8.53567 6.50091 8.74762 6.5744 8.90578 6.70433C9.06395 6.83427 9.15607 7.01056 9.16282 7.19625Z" fill="#71B626"/>
</svg>
