<svg width="377" height="102" viewBox="0 0 377 102" fill="none" xmlns="http://www.w3.org/2000/svg">
<path d="M428 -111.765C427.99 -97.5393 426.599 -83.3479 423.845 -69.3912H420.399V-68.5295H251.753C241.714 -58.6396 228.849 -52.1158 214.94 -49.861C201.03 -47.6063 186.764 -49.7323 174.116 -55.9446C161.468 -62.1568 151.063 -72.1482 144.342 -84.5357C137.621 -96.9232 134.916 -111.094 136.601 -125.087C138.287 -139.08 144.279 -152.203 153.75 -162.639C163.22 -173.075 175.7 -180.309 189.461 -183.339C203.222 -186.368 217.585 -185.044 230.561 -179.55C243.537 -174.055 254.484 -164.662 261.888 -152.67H339.572C329.927 -179.425 312.024 -202.42 288.453 -218.328C264.881 -234.236 236.862 -242.234 208.447 -241.165C180.032 -240.096 152.692 -230.016 130.382 -212.382C108.072 -194.747 91.9461 -170.473 84.337 -143.068C76.7278 -115.664 78.0294 -86.5483 88.0534 -59.9321C98.0774 -33.3159 116.304 -10.5779 140.099 4.99422C163.894 20.5664 192.024 28.1658 220.421 26.6938C248.818 25.2219 276.012 14.7547 298.07 -3.19422L299.235 -4.05589L311.498 -14.5987C319.312 -21.0802 329.169 -24.5821 339.319 -24.4827C350.046 -24.6093 360.467 -20.9073 368.71 -14.0412C371.698 -11.4391 374.293 -8.41714 376.413 -5.06964C379.64 0.280938 381.164 6.48628 380.784 12.7234C380.404 18.9605 378.137 24.9346 374.285 29.8536C374.13 30.1419 373.924 30.3996 373.677 30.6139C372.523 31.9559 371.287 33.2255 369.977 34.4154C369.783 34.7053 369.544 34.9621 369.268 35.1757C335.05 71.3039 289.313 94.3738 239.927 100.416C190.54 106.459 140.593 95.096 98.6772 68.2829C56.7618 41.4697 25.4998 0.882922 10.2698 -46.4944C-4.96008 -93.8717 -3.20554 -145.077 15.2316 -191.3C33.6687 -237.523 67.6355 -275.874 111.288 -299.754C154.94 -323.634 205.549 -331.549 254.405 -322.139C303.262 -312.729 347.313 -286.581 378.977 -248.194C410.642 -209.807 427.941 -161.582 427.899 -111.816L428 -111.765Z" fill="url(#paint0_linear_86_3249)" fill-opacity="0.06"/>
<defs>
<linearGradient id="paint0_linear_86_3249" x1="-7.49993" y1="-111.765" x2="420.703" y2="-111.765" gradientUnits="userSpaceOnUse">
<stop stop-color="#73B725"/>
<stop offset="0.23" stop-color="#6EB526"/>
<stop offset="0.51" stop-color="#60AF2B"/>
<stop offset="0.8" stop-color="#49A432"/>
<stop offset="1" stop-color="#349B38"/>
</linearGradient>
</defs>
</svg>
