<svg width="839" height="665" viewBox="0 0 839 665" fill="none" xmlns="http://www.w3.org/2000/svg">
<path d="M83.5523 116.455L56.8343 138.883C56.5665 139.108 56.2384 139.253 55.889 139.3C55.5397 139.348 55.1838 139.296 54.8637 139.151C54.5436 139.005 54.2728 138.773 54.0835 138.481C53.8942 138.19 53.7944 137.851 53.7959 137.505L53.9378 93.1714C53.9383 92.8279 54.0388 92.4916 54.2274 92.2021C54.4161 91.9126 54.6851 91.682 55.0029 91.5372C55.3206 91.3925 55.6739 91.3397 56.0212 91.385C56.3685 91.4303 56.6954 91.5719 56.9635 91.7931L83.5397 113.692C83.746 113.861 83.9122 114.072 84.0266 114.31C84.141 114.548 84.2009 114.808 84.2021 115.071C84.2033 115.334 84.1458 115.595 84.0335 115.834C83.9213 116.073 83.757 116.285 83.5523 116.455Z" fill="#65B044"/>
<path d="M97.2154 121.555L55.6251 87.5081C54.36 86.4723 55.0252 84.3645 56.6788 84.3524H56.7161L145.616 84.6189H145.653C147.304 84.6461 147.957 86.757 146.685 87.7837L105.26 121.258C102.549 123.46 99.3664 123.451 97.2154 121.555Z" fill="#65B044"/>
<path d="M146.156 144.703C146.068 144.94 145.762 145.104 145.325 145.165L56.9857 144.883C56.5453 144.819 56.2422 144.655 56.1579 144.418C56.0736 144.18 56.2204 143.805 56.589 143.417C56.6983 143.305 56.8451 143.18 57.0045 143.042L85.6501 117.864C86.1015 117.472 86.6737 117.256 87.2652 117.256C87.8566 117.256 88.4289 117.472 88.8802 117.864L95.3966 123.475C96.9445 124.815 98.9021 125.553 100.927 125.56C102.951 125.567 104.914 124.843 106.471 123.514L113.315 117.688C113.771 117.3 114.346 117.091 114.938 117.098C115.531 117.105 116.101 117.327 116.548 117.726L145.319 143.337C145.475 143.475 145.631 143.6 145.731 143.712C146.097 144.091 146.253 144.431 146.156 144.703Z" fill="#65B044"/>
<path d="M147.353 93.2012L147.219 137.5C147.217 137.849 147.117 138.19 146.931 138.483C146.745 138.776 146.481 139.009 146.17 139.153C145.858 139.298 145.513 139.348 145.174 139.299C144.835 139.25 144.518 139.102 144.259 138.874L118.735 116.295C118.539 116.122 118.382 115.907 118.275 115.666C118.168 115.425 118.114 115.162 118.117 114.898C118.119 114.633 118.179 114.372 118.29 114.133C118.402 113.893 118.563 113.682 118.762 113.513L144.424 91.7896C144.686 91.568 145.004 91.4271 145.342 91.3835C145.679 91.34 146.022 91.3956 146.329 91.5438C146.637 91.692 146.897 91.9267 147.078 92.2203C147.259 92.5139 147.355 92.8541 147.353 93.2012Z" fill="#65B044"/>
<path d="M100.575 188.435C60.5913 188.435 28.0674 155.909 28.0674 115.927C28.0674 75.944 60.5913 43.4208 100.575 43.4208C140.558 43.4208 173.082 75.9472 173.082 115.927C173.082 155.906 140.558 188.435 100.575 188.435ZM100.575 45.4332C61.7031 45.4332 30.0797 77.0589 30.0797 115.927C30.0797 154.794 61.7031 186.42 100.575 186.42C139.446 186.42 171.069 154.797 171.069 115.927C171.069 77.0558 139.446 45.4332 100.575 45.4332Z" fill="#425FEC"/>
<path d="M94.3565 216.503C89.763 216.198 85.1955 215.583 80.6856 214.663L81.0907 212.691C85.5112 213.593 89.9881 214.196 94.4905 214.496L94.3565 216.503ZM108.155 216.487L108.018 214.477C112.521 214.172 116.998 213.563 121.418 212.653L121.829 214.62C117.319 215.546 112.75 216.166 108.155 216.475V216.487ZM67.3793 210.979C63.0359 209.444 58.8026 207.617 54.7086 205.51L55.6435 203.724C59.6546 205.788 63.8026 207.578 68.0586 209.08L67.3793 210.979ZM135.114 210.913L134.434 209.031C138.685 207.522 142.827 205.725 146.831 203.652L147.766 205.436C143.68 207.549 139.453 209.379 135.114 210.913ZM42.9137 198.37C39.1499 195.728 35.5714 192.834 32.2032 189.707L33.5806 188.24C36.8834 191.303 40.3909 194.139 44.0792 196.729L42.9137 198.37ZM159.551 198.28L158.383 196.636C162.064 194.039 165.565 191.198 168.863 188.132L170.243 189.602C166.878 192.729 163.306 195.628 159.551 198.28ZM22.7703 179.689C19.8595 176.138 17.1922 172.396 14.7865 168.489L16.5161 167.437C18.8687 171.27 21.4821 174.937 24.3378 178.414L22.7703 179.689ZM179.651 179.565L178.093 178.293C180.943 174.809 183.552 171.137 185.902 167.301L187.625 168.346C185.226 172.261 182.562 176.01 179.651 179.565ZM8.41384 156.302C6.57085 152.103 5.01948 147.782 3.77065 143.372L5.71829 142.826C6.94515 147.154 8.47053 151.392 10.2836 155.511L8.41384 156.302ZM193.976 156.132L192.107 155.328C193.91 151.212 195.428 146.978 196.65 142.655L198.595 143.195C197.354 147.611 195.811 151.938 193.976 156.144V156.132ZM0.956685 129.938C0.328297 125.397 0.00867486 120.819 0 116.235H2.01932C2.02718 120.727 2.33951 125.213 2.95419 129.662L0.956685 129.938ZM201.39 129.746L199.386 129.476C199.992 125.024 200.296 120.536 200.296 116.043V115.655H202.319V116.043C202.318 120.625 202.008 125.202 201.39 129.743V129.746ZM2.90433 102.799L0.900592 102.532C1.51323 97.9894 2.4378 93.4938 3.66781 89.077L5.60923 89.6167C4.40641 93.9441 3.50267 98.3484 2.90433 102.799ZM199.333 102.231C198.709 97.7837 197.777 93.3844 196.544 89.0646L198.492 88.5125C199.747 92.9224 200.696 97.4127 201.334 101.952L199.333 102.231ZM10.1184 76.8998L8.26426 76.1027C10.0918 71.8933 12.2086 67.8143 14.5996 63.8946L16.3291 64.9367C13.9864 68.7784 11.9113 72.7755 10.1184 76.8998ZM191.96 76.3974C190.148 72.2929 188.057 68.3157 185.703 64.4932L187.423 63.4417C189.833 67.3413 191.973 71.3993 193.83 75.5878L191.96 76.3974ZM24.1103 53.9475L22.5522 52.679C25.4541 49.1194 28.5952 45.7598 31.9539 42.6234L33.3344 44.0874C30.0402 47.1637 26.9585 50.4579 24.1103 53.9475ZM177.859 53.5288C174.994 50.0532 171.897 46.7735 168.588 43.712L169.96 42.2388C173.335 45.3564 176.494 48.6983 179.414 52.2416L177.859 53.5288ZM43.7862 35.5547L42.6145 33.917C46.3688 31.2644 50.299 28.8675 54.3783 26.7428L55.3132 28.5263C51.3157 30.6072 47.4646 32.9554 43.7862 35.5547ZM158.084 35.2445C154.388 32.662 150.52 30.3325 146.507 28.272L147.442 26.4854C151.532 28.5864 155.473 30.9615 159.24 33.5944L158.084 35.2445ZM67.7127 23.1294L67.0302 21.2343C71.3669 19.6934 75.8044 18.4498 80.3116 17.5123L80.7261 19.4819C76.3063 20.3979 71.9551 21.6156 67.7033 23.1263L67.7127 23.1294ZM134.089 22.9433C129.829 21.4494 125.47 20.2503 121.044 19.3547L121.446 17.382C125.963 18.2973 130.411 19.5212 134.759 21.0451L134.089 22.9433ZM94.1103 17.6116L93.967 15.6048C96.3322 15.4404 98.7255 15.3535 101.078 15.3535H101.159C103.356 15.3535 105.578 15.4249 107.763 15.5676L107.635 17.5743C105.453 17.4348 103.253 17.3944 101.091 17.3665C98.7847 17.3665 96.4288 17.4472 94.1103 17.6116Z" fill="#425FEC"/>
<path d="M686.111 579.596H209.192V583.434H686.111V579.596Z" fill="white" fill-opacity="0.1"/>
<path d="M776.436 25.995L775.481 25.9091L768.636 104.596L838.687 71.9181L837.234 68.1284C831.618 56.426 823.06 46.3884 812.401 39.0015C801.741 31.6145 789.348 27.1323 776.436 25.995Z" fill="#33A02C"/>
<path d="M747.893 216.828C780.275 215.797 809.262 192.885 817.088 161.011L818.535 156.215L809.655 153.984L805.323 152.901L804.774 152.767L803.179 152.37L746.42 138.196L746.802 133.809L746.948 132.155L752.759 64.6207C751.618 64.5264 750.502 64.4493 749.383 64.4036C746.183 64.2352 742.977 64.259 739.781 64.475C739.233 64.5007 738.667 64.5407 738.119 64.5836C712.47 66.7402 683.932 81.0708 674.21 116.976C674.062 117.524 673.925 118.07 673.793 118.618C671.767 126.725 670.679 135.886 670.762 146.2C670.93 165.487 679.568 183.182 693.209 196.042C693.471 196.307 693.737 196.544 693.999 196.793C695.986 198.619 698.07 200.335 700.242 201.934C706.549 206.597 713.533 210.265 720.95 212.809C725.458 214.355 730.102 215.47 734.82 216.139C736.067 216.308 737.334 216.465 738.622 216.574C741.704 216.843 744.8 216.928 747.893 216.828Z" fill="#57BF50"/>
<path d="M757.121 130.268L835.08 149.697C835.079 149.688 835.079 149.68 835.08 149.671L836.52 144.869C840.641 128.158 838.848 110.521 831.449 95L757.121 130.268Z" fill="#C5FFC1"/>
<path d="M717.11 440.363L717.249 440.085L694.225 428.724L695.827 453.809H697.147C701.357 453.489 705.411 452.082 708.911 449.724C712.411 447.367 715.236 444.141 717.11 440.363Z" fill="#425FEC"/>
<path d="M100.279 230.088L74.8484 234.017L75.0088 235.6C75.8394 241.002 78.5322 245.944 82.6229 249.576L100.279 230.088Z" fill="#FC721A"/>
<path d="M247.147 114.335C247.146 115.692 246.742 117.02 245.986 118.149C245.23 119.277 244.155 120.157 242.898 120.676C241.641 121.196 240.259 121.331 238.924 121.066C237.59 120.801 236.365 120.146 235.403 119.186C234.442 118.225 233.787 117.002 233.522 115.67C233.257 114.338 233.393 112.958 233.914 111.703C234.434 110.449 235.316 109.376 236.447 108.622C237.578 107.868 238.908 107.465 240.268 107.465C241.172 107.465 242.066 107.643 242.901 107.988C243.736 108.333 244.494 108.839 245.133 109.477C245.772 110.115 246.278 110.872 246.624 111.706C246.969 112.539 247.147 113.433 247.147 114.335Z" fill="#390D9F"/>
<path d="M437.452 636.282C437.452 637.641 437.048 638.969 436.292 640.099C435.536 641.229 434.461 642.109 433.203 642.629C431.946 643.149 430.562 643.285 429.227 643.02C427.892 642.754 426.666 642.1 425.704 641.139C424.741 640.178 424.086 638.953 423.821 637.621C423.556 636.288 423.693 634.907 424.214 633.651C424.735 632.396 425.618 631.323 426.75 630.569C427.882 629.814 429.212 629.412 430.574 629.413C431.477 629.413 432.372 629.59 433.207 629.936C434.041 630.281 434.8 630.787 435.438 631.425C436.077 632.063 436.584 632.82 436.929 633.654C437.275 634.487 437.452 635.38 437.452 636.282Z" fill="#425FEC"/>
<path d="M134.206 410.005C133.583 412.248 132.307 414.255 130.54 415.774C128.774 417.292 126.596 418.254 124.282 418.537C121.968 418.819 119.622 418.411 117.54 417.362C115.459 416.314 113.736 414.673 112.589 412.647C111.442 410.62 110.923 408.3 111.097 405.98C111.271 403.659 112.131 401.442 113.567 399.609C115.003 397.776 116.952 396.409 119.167 395.682C121.381 394.954 123.762 394.899 126.008 395.523L128.775 385.603C124.564 384.435 120.1 384.54 115.948 385.904C111.796 387.269 108.143 389.831 105.45 393.268C102.757 396.706 101.145 400.863 100.819 405.214C100.493 409.566 101.467 413.916 103.617 417.715C105.768 421.514 108.998 424.591 112.9 426.557C116.803 428.523 121.201 429.29 125.54 428.76C129.879 428.231 133.963 426.429 137.275 423.582C140.588 420.735 142.981 416.972 144.151 412.768L134.206 410.005Z" fill="#7109B5"/>
<path d="M529.268 664.51L666.548 665C667.776 665.005 668.993 664.769 670.129 664.304C671.265 663.84 672.298 663.156 673.17 662.293C674.042 661.43 674.734 660.403 675.208 659.273C675.682 658.142 675.929 656.929 675.933 655.703L676.263 564.004C676.268 562.779 676.031 561.564 675.565 560.429C675.099 559.295 674.415 558.263 673.549 557.393C672.684 556.523 671.656 555.832 670.523 555.359C669.391 554.886 668.176 554.64 666.948 554.635L529.668 554.146C528.44 554.141 527.224 554.378 526.088 554.842C524.951 555.307 523.918 555.99 523.047 556.854C522.175 557.717 521.483 558.743 521.008 559.874C520.534 561.004 520.288 562.217 520.283 563.442L519.956 655.141C519.951 656.367 520.188 657.581 520.654 658.716C521.119 659.85 521.804 660.881 522.668 661.751C523.533 662.621 524.561 663.313 525.693 663.786C526.826 664.26 528.041 664.506 529.268 664.51Z" fill="#66B127"/>
<path d="M623.443 608.375L575.846 577.547C575.435 577.282 574.96 577.132 574.472 577.113C573.983 577.094 573.498 577.206 573.068 577.439C572.638 577.671 572.278 578.015 572.027 578.434C571.776 578.853 571.642 579.332 571.64 579.82L571.419 641.106C571.417 641.595 571.547 642.075 571.796 642.497C572.044 642.918 572.402 643.265 572.831 643.501C573.26 643.736 573.745 643.852 574.234 643.836C574.724 643.82 575.2 643.672 575.612 643.409L623.422 612.947C623.806 612.703 624.123 612.366 624.343 611.967C624.563 611.569 624.679 611.122 624.681 610.667C624.683 610.212 624.571 609.764 624.355 609.363C624.138 608.963 623.825 608.623 623.443 608.375Z" fill="white"/>
<path d="M363.289 126.868L363.591 126.445C377.191 135.968 389.022 125.913 389.131 125.81L389.473 126.2C389.343 126.303 377.215 136.621 363.289 126.868Z" fill="#101C3A"/>
<path d="M388.111 136.612C389.802 135.75 391.439 134.785 393.012 133.722L393.169 133.614L395.334 135.258L395.031 135.669L393.163 134.251C391.616 135.281 390.01 136.223 388.356 137.071L388.111 136.612Z" fill="#101C3A"/>
<path d="M139.239 617.469L150.928 616.883L151.194 609.493C154.519 608.579 157.657 607.091 160.467 605.096L166.368 609.566L174.212 600.91L169.165 595.497C170.871 592.506 172.038 589.24 172.614 585.847L179.952 584.837L179.347 573.171L171.947 572.902C171.029 569.584 169.539 566.452 167.543 563.645L172.02 557.755L163.368 549.924L157.943 554.971C154.946 553.268 151.673 552.103 148.273 551.529L147.265 544.191L135.576 544.78L135.306 552.169C131.983 553.083 128.846 554.571 126.036 556.564L120.133 552.097L112.292 560.753L117.351 566.154C115.64 569.151 114.468 572.424 113.887 575.825L106.549 576.834L107.139 588.503L114.541 588.772C115.457 592.089 116.947 595.221 118.943 598.027L114.468 603.917L123.142 611.745L128.552 606.7C131.556 608.403 134.834 609.568 138.24 610.143L139.239 617.469ZM122.158 581.891C121.948 577.726 122.979 573.593 125.122 570.013C127.265 566.434 130.423 563.569 134.197 561.781C137.971 559.994 142.191 559.363 146.323 559.97C150.456 560.577 154.316 562.393 157.414 565.19C160.513 567.986 162.711 571.637 163.731 575.681C164.751 579.725 164.547 583.98 163.145 587.907C161.742 591.835 159.205 595.26 155.853 597.748C152.501 600.236 148.485 601.676 144.313 601.886C138.719 602.167 133.242 600.219 129.087 596.469C124.933 592.719 122.44 587.475 122.158 581.891Z" fill="#390D9F"/>
<path d="M135.134 549.794L135.327 544.535L144.14 544.091L144.167 544.608L135.827 545.028L135.651 549.815L135.134 549.794Z" fill="#101C3A"/>
<path d="M106.585 577.082L106.515 576.568L113.654 575.589C114.135 571.715 115.997 568.2 116.015 568.163L116.472 568.408C116.454 568.441 114.574 571.993 114.144 575.846L114.123 576.045L106.585 577.082Z" fill="#101C3A"/>
<path d="M108.71 591.323L108.104 579.18L115.491 578.164C115.655 577.173 116.515 572.552 118.846 568.768L113.772 563.328L121.946 554.318L127.862 558.809C130.606 556.886 133.658 555.44 136.886 554.533L137.159 547.095L149.32 546.491L150.349 553.862C151.418 554.049 156.631 555.071 159.771 557.186L165.22 552.127L174.245 560.287L169.725 566.205C170.331 566.93 172.665 570.034 174.006 575.223L181.453 575.495L182.059 587.636L174.672 588.651C174.509 589.655 173.649 594.376 171.318 598.051L176.395 603.491L168.221 612.5L162.287 608.006C159.581 610 156.515 611.453 153.256 612.283L152.986 619.717L140.822 620.322L139.805 612.951C136.483 612.438 133.289 611.301 130.393 609.599L124.943 614.664L115.915 606.504L120.438 600.608C118.362 597.953 116.899 594.874 116.154 591.589L108.71 591.323ZM108.634 579.621L109.197 590.83L116.569 591.096L116.612 591.29C117.868 596.957 120.926 600.399 120.956 600.432L121.098 600.589L116.633 606.465L124.961 613.984L130.368 608.97L130.535 609.073C133.465 610.831 136.716 611.989 140.099 612.482L140.298 612.5L141.307 619.799L152.529 619.234L152.796 611.881L152.983 611.835C156.305 611.025 159.427 609.546 162.157 607.489L162.311 607.359L168.19 611.814L175.723 603.5L170.697 598.108L170.806 597.942C173.44 593.904 174.209 588.446 174.218 588.391L174.245 588.198L181.547 587.195L180.981 575.988L173.618 575.722L173.57 575.535C172.099 569.687 169.25 566.413 169.223 566.38L169.083 566.223L173.546 560.351L165.22 552.834L159.813 557.854L159.644 557.733C156.332 555.373 150.141 554.342 150.077 554.333L149.892 554.303L148.887 547.019L137.664 547.585L137.395 554.932L137.21 554.98C133.915 555.877 130.805 557.35 128.025 559.332L127.871 559.45L121.997 555.004L114.459 563.319L119.47 568.707L119.364 568.874C116.727 573.047 115.955 578.373 115.949 578.427L115.921 578.617L108.634 579.621Z" fill="#101C3A"/>
<path d="M124.967 590.67C123.529 586.698 123.302 582.39 124.316 578.289C125.331 574.189 127.54 570.48 130.665 567.633C133.791 564.786 137.691 562.929 141.874 562.295C146.057 561.661 150.335 562.28 154.165 564.072C157.996 565.865 161.208 568.752 163.396 572.367C165.583 575.983 166.647 580.165 166.454 584.384C166.261 588.603 164.819 592.67 162.31 596.071C159.801 599.472 156.339 602.054 152.36 603.491C147.024 605.41 141.143 605.139 136.008 602.735C130.873 600.332 126.902 595.993 124.967 590.67ZM164.721 576.321C163.315 572.442 160.789 569.067 157.462 566.622C154.135 564.177 150.156 562.771 146.029 562.583C141.902 562.396 137.811 563.434 134.275 565.567C130.739 567.7 127.916 570.831 126.162 574.566C124.409 578.301 123.805 582.47 124.425 586.548C125.046 590.626 126.864 594.428 129.649 597.474C132.435 600.521 136.062 602.674 140.073 603.662C144.085 604.65 148.299 604.429 152.184 603.025C157.392 601.14 161.637 597.269 163.987 592.262C166.338 587.255 166.602 581.522 164.721 576.321Z" fill="#101C3A"/>
<path d="M378.59 132.352L399.697 131.288L400.185 117.941C406.189 116.293 411.858 113.606 416.932 110.002L427.589 118.077L441.754 102.431L432.654 92.6631C435.73 87.2596 437.834 81.3594 438.869 75.2306L452.123 73.4172L451.064 52.3429L437.692 51.8593C436.037 45.8667 433.346 40.2087 429.741 35.14L437.825 24.5016L422.161 10.3604L412.37 19.4514C406.958 16.3744 401.048 14.2692 394.908 13.2315L393.091 0L371.981 1.06082L371.499 14.4072C365.493 16.0593 359.822 18.744 354.739 22.3407L344.08 14.2712L329.917 29.9085L339.03 39.6856C335.953 45.0891 333.844 50.9875 332.8 57.115L319.545 58.9284L320.611 80.0028L333.98 80.4863C335.63 86.4798 338.321 92.1376 341.93 97.2026L333.847 107.871L349.511 122.009L359.302 112.912C364.716 115.982 370.626 118.086 376.764 119.129L378.59 132.352ZM347.74 68.0889C347.361 60.5668 349.225 53.1013 353.096 46.6366C356.967 40.1719 362.671 34.9984 369.488 31.7702C376.304 28.5419 383.926 27.4041 391.391 28.5005C398.855 29.5968 405.826 32.8782 411.422 37.9296C417.018 42.9811 420.988 49.5756 422.829 56.8795C424.671 64.1833 424.302 71.8683 421.769 78.9626C419.235 86.057 414.651 92.2421 408.597 96.7358C402.542 101.229 395.289 103.83 387.754 104.208C377.65 104.716 367.758 101.195 360.254 94.4215C352.75 87.6478 348.248 78.1757 347.74 68.0889Z" fill="#71B626"/>
<path d="M407.811 114.838C410.865 113.277 413.822 111.534 416.666 109.618L416.944 109.425L420.847 112.405L420.284 113.148L416.911 110.591C414.116 112.453 411.217 114.154 408.228 115.687L407.811 114.838Z" fill="#101C3A"/>
<path d="M323.448 85.1255L322.34 63.1928L335.682 61.3583C335.984 59.5691 337.528 51.2216 341.736 44.3852L332.572 34.5537L347.307 18.2818L358.036 26.3996C362.994 22.9263 368.505 20.3154 374.336 18.6777L374.829 5.24364L396.8 4.13748L398.634 17.4627C400.566 17.8042 409.981 19.6236 415.655 23.5073L425.488 14.3679L441.788 29.0834L433.665 39.7702C434.74 41.0818 438.969 46.6882 441.394 56.0633L454.848 56.5529L455.953 78.4826L442.614 80.3171C442.311 82.1304 440.767 90.6563 436.559 97.2932L445.723 107.122L430.98 123.4L420.265 115.279C415.377 118.874 409.838 121.49 403.954 122.983L403.466 136.411L381.49 137.523L379.652 124.225C373.654 123.301 367.886 121.25 362.653 118.18L352.799 127.332L336.496 112.619L344.619 101.926C343.508 100.578 338.966 94.6548 336.883 85.6363L323.448 85.1255ZM323.305 63.9937L324.329 84.243L337.649 84.7236L337.728 85.0742C339.996 95.3106 345.518 101.527 345.575 101.588L345.83 101.872L337.764 112.486L352.811 126.062L362.553 116.995L362.856 117.177C368.148 120.353 374.02 122.447 380.131 123.336L380.491 123.372L382.307 136.553L402.591 135.531L403.073 122.251L403.409 122.17C413.363 119.752 419.917 114.372 419.981 114.312L420.265 114.076L430.883 122.124L444.461 107.116L435.378 97.3809L435.575 97.0786C440.331 89.7859 441.724 79.9272 441.736 79.8275L441.788 79.4799L454.975 77.6665L453.955 57.4173L440.652 56.9337L440.571 56.5982C437.912 46.0354 432.769 40.1208 432.699 40.0633L432.448 39.7792L440.51 29.171L425.47 15.5949L415.706 24.6618L415.403 24.4442C409.424 20.1797 398.238 18.318 398.126 18.2999L397.79 18.2455L395.973 5.0895L375.689 6.10801L375.205 19.3788L374.872 19.4665C368.919 21.084 363.302 23.7447 358.281 27.3244L358 27.539L347.404 19.5088L333.805 34.5235L342.887 44.2522L342.699 44.5544C337.937 52.1101 336.544 61.7149 336.529 61.8117L336.484 62.1592L323.305 63.9937Z" fill="#33A02C"/>
<path d="M352.811 83.9468C350.996 79.1643 350.152 74.0691 350.328 68.9578C350.504 63.8465 351.696 58.8212 353.836 54.1742C355.975 49.5273 359.019 45.3515 362.79 41.8898C366.561 38.4282 370.984 35.7498 375.802 34.0106C380.62 32.2714 385.736 31.506 390.853 31.759C395.969 32.012 400.985 33.2784 405.607 35.4844C410.229 37.6904 414.365 40.7921 417.775 44.6088C421.185 48.4255 423.801 52.8812 425.47 57.7165C432.717 77.7179 422.309 99.8712 402.273 107.104C392.638 110.567 382.019 110.073 372.747 105.733C363.475 101.392 356.305 93.557 352.811 83.9468ZM424.613 58.0308C422.077 51.0281 417.518 44.9335 411.512 40.5175C405.506 36.1016 398.324 33.5627 390.872 33.222C383.421 32.8812 376.036 34.7539 369.651 38.6033C363.266 42.4526 358.168 48.1056 355.001 54.8475C351.834 61.5894 350.742 69.1173 351.861 76.4793C352.98 83.8413 356.26 90.7067 361.288 96.2073C366.315 101.708 372.864 105.597 380.106 107.382C387.347 109.167 394.956 108.768 401.971 106.236C411.369 102.832 419.031 95.8443 423.276 86.8072C427.521 77.7702 428.002 67.4212 424.613 58.0308Z" fill="#101C3A"/>
<path d="M230.765 183.521H622.909C626.018 183.521 629 184.754 631.199 186.949C633.398 189.144 634.633 192.121 634.633 195.225V517.794C634.633 520.032 634.192 522.247 633.334 524.315C632.476 526.382 631.218 528.261 629.633 529.843C628.048 531.426 626.167 532.681 624.096 533.537C622.025 534.394 619.805 534.834 617.563 534.834H236.11C233.868 534.835 231.648 534.394 229.577 533.538C227.505 532.682 225.623 531.427 224.038 529.844C222.452 528.262 221.195 526.383 220.337 524.316C219.479 522.248 219.037 520.032 219.037 517.794V195.225C219.037 193.688 219.34 192.166 219.93 190.746C220.519 189.325 221.383 188.035 222.472 186.948C223.561 185.861 224.854 184.999 226.277 184.411C227.7 183.823 229.225 183.521 230.765 183.521Z" fill="white" fill-opacity="0.2"/>
<path d="M617.563 537.002H236.11C231.008 536.997 226.117 534.971 222.51 531.37C218.903 527.769 216.874 522.886 216.869 517.794V195.229C216.875 191.553 218.34 188.03 220.944 185.432C223.547 182.833 227.076 181.37 230.758 181.364H622.912C626.594 181.37 630.123 182.833 632.726 185.432C635.329 188.03 636.795 191.553 636.801 195.229V517.794C636.795 522.886 634.767 527.768 631.161 531.369C627.554 534.97 622.664 536.996 617.563 537.002ZM230.764 185.692C228.232 185.696 225.804 186.702 224.013 188.489C222.223 190.277 221.215 192.701 221.211 195.229V517.794C221.211 521.74 222.782 525.525 225.577 528.315C228.372 531.106 232.164 532.673 236.117 532.673H617.563C621.516 532.673 625.307 531.106 628.103 528.315C630.898 525.525 632.468 521.74 632.468 517.794V195.229C632.466 192.701 631.46 190.277 629.669 188.489C627.879 186.701 625.451 185.695 622.919 185.692H230.764Z" fill="#CFE0FA"/>
<path d="M592.174 194.238C591.612 194.239 591.063 194.406 590.596 194.718C590.129 195.03 589.765 195.473 589.551 195.991C589.336 196.509 589.28 197.08 589.39 197.63C589.5 198.18 589.77 198.685 590.167 199.082C590.565 199.478 591.071 199.748 591.622 199.858C592.173 199.967 592.744 199.912 593.263 199.697C593.782 199.483 594.226 199.12 594.539 198.654C594.851 198.188 595.019 197.64 595.019 197.079C595.019 196.325 594.719 195.603 594.186 195.07C593.652 194.537 592.928 194.238 592.174 194.238Z" fill="#2B173F"/>
<path d="M604.172 194.238C603.61 194.238 603.061 194.404 602.594 194.716C602.126 195.028 601.762 195.47 601.547 195.989C601.332 196.507 601.275 197.077 601.384 197.628C601.494 198.178 601.764 198.683 602.161 199.08C602.559 199.477 603.065 199.748 603.616 199.858C604.167 199.967 604.738 199.912 605.258 199.698C605.777 199.483 606.221 199.12 606.534 198.654C606.846 198.188 607.014 197.64 607.014 197.079C607.014 196.326 606.715 195.604 606.182 195.071C605.649 194.539 604.926 194.239 604.172 194.238Z" fill="#425FEC"/>
<path d="M616.171 194.238C615.609 194.238 615.059 194.404 614.592 194.716C614.125 195.028 613.76 195.47 613.545 195.989C613.33 196.507 613.274 197.077 613.383 197.628C613.492 198.178 613.763 198.683 614.16 199.08C614.557 199.477 615.063 199.748 615.614 199.858C616.165 199.967 616.737 199.912 617.256 199.698C617.775 199.483 618.22 199.12 618.532 198.654C618.845 198.188 619.012 197.64 619.013 197.079C619.013 196.706 618.94 196.336 618.798 195.992C618.655 195.647 618.446 195.334 618.182 195.07C617.918 194.806 617.604 194.597 617.259 194.454C616.914 194.311 616.544 194.238 616.171 194.238Z" fill="#FC721A"/>
<path d="M516.063 213.456H221.442V217.795H516.063V213.456Z" fill="#CFE0FA"/>
<path d="M435.216 254.152L433.908 255.295L431.774 257.162L431.33 257.551L412.739 273.821L407.17 278.697H407.167L403.2 282.167L403.021 282.045L402.499 281.687L398.037 278.633L385.642 270.141L382.252 267.821L368.884 294.443V294.446L366.554 299.086L364.813 299.738L361.693 300.909L346.442 306.62L343.546 307.706L341.655 309.958L341.208 310.486L339.989 311.94H339.985L322.56 332.68L318.241 337.824L318.088 337.692L313.373 333.451L300.111 321.551L299.345 320.864L296.838 318.612L296.642 318.436L295.307 319.978L294.474 320.945L276.483 341.75L273.281 345.453L273.027 345.585L268.915 347.698L250.866 356.988L249.138 354.563L267.563 345.081L271.422 343.099L272.343 342.031L274.25 339.822L274.589 339.433L292.448 318.778L296.374 314.236L296.838 314.652L301.286 318.646L314.931 330.891L315.91 331.774L317.902 333.559L317.943 333.597L320.609 330.424L321.191 329.731L337.655 310.134L341.655 305.372L341.784 305.22L345.097 303.979L348 302.89L360.653 298.149L364.433 296.732L366.245 293.124L381.13 263.479L399.857 276.306L402.98 278.444L405.378 276.343L406.303 275.535L409.958 272.336L429.389 255.336L431.964 253.084L433.271 251.941L435.216 254.152Z" fill="#FC721A"/>
<path d="M441.994 269.698L453.349 236.331L418.725 243.192L441.994 269.698Z" fill="#FC721A"/>
<path d="M272.343 349.119C275.022 349.119 277.194 346.951 277.194 344.276C277.194 341.602 275.022 339.433 272.343 339.433C269.664 339.433 267.492 341.602 267.492 344.276C267.492 346.951 269.664 349.119 272.343 349.119Z" fill="#425FEC"/>
<path d="M301.693 316.718C301.693 317.676 301.408 318.612 300.875 319.409C300.342 320.205 299.584 320.826 298.698 321.192C297.812 321.559 296.836 321.655 295.895 321.468C294.954 321.281 294.09 320.82 293.412 320.143C292.733 319.465 292.271 318.602 292.084 317.663C291.897 316.724 291.993 315.75 292.36 314.865C292.727 313.98 293.349 313.224 294.147 312.692C294.944 312.16 295.882 311.876 296.842 311.876C298.128 311.876 299.362 312.386 300.272 313.294C301.182 314.202 301.693 315.434 301.693 316.718Z" fill="#390D9F"/>
<path d="M322.939 334.564C322.939 335.522 322.655 336.458 322.121 337.254C321.588 338.051 320.83 338.672 319.944 339.038C319.057 339.405 318.082 339.5 317.141 339.313C316.2 339.126 315.335 338.664 314.657 337.987C313.979 337.309 313.517 336.446 313.33 335.506C313.143 334.567 313.24 333.593 313.608 332.708C313.975 331.823 314.598 331.067 315.396 330.536C316.194 330.004 317.132 329.72 318.092 329.721C318.729 329.721 319.359 329.846 319.947 330.09C320.536 330.333 321.07 330.69 321.521 331.14C321.971 331.589 322.328 332.123 322.571 332.711C322.815 333.298 322.94 333.928 322.939 334.564Z" fill="#390D9F"/>
<path d="M346.506 307.391C346.506 308.35 346.222 309.286 345.688 310.083C345.155 310.879 344.396 311.5 343.509 311.866C342.622 312.233 341.647 312.328 340.705 312.14C339.764 311.953 338.9 311.49 338.222 310.812C337.544 310.134 337.082 309.27 336.896 308.33C336.71 307.39 336.808 306.416 337.177 305.531C337.545 304.646 338.169 303.891 338.968 303.36C339.767 302.829 340.706 302.547 341.666 302.549C342.95 302.551 344.182 303.063 345.089 303.971C345.997 304.879 346.506 306.109 346.506 307.391Z" fill="#390D9F"/>
<path d="M370.344 297.909C370.344 298.867 370.06 299.803 369.527 300.6C368.994 301.396 368.236 302.017 367.349 302.383C366.463 302.75 365.487 302.845 364.546 302.658C363.605 302.471 362.74 302.01 362.062 301.332C361.384 300.654 360.922 299.791 360.735 298.852C360.549 297.912 360.645 296.938 361.013 296.053C361.38 295.169 362.003 294.413 362.801 293.881C363.599 293.349 364.537 293.066 365.497 293.066C366.783 293.067 368.016 293.578 368.925 294.486C369.834 295.394 370.344 296.625 370.344 297.909Z" fill="#390D9F"/>
<path d="M407.441 280.307C407.441 281.265 407.157 282.201 406.624 282.998C406.09 283.794 405.333 284.415 404.446 284.781C403.559 285.148 402.584 285.243 401.643 285.056C400.702 284.869 399.837 284.408 399.159 283.73C398.481 283.052 398.019 282.189 397.832 281.25C397.646 280.31 397.742 279.336 398.11 278.451C398.477 277.567 399.1 276.811 399.898 276.279C400.696 275.747 401.634 275.464 402.594 275.464C403.231 275.464 403.861 275.59 404.45 275.833C405.038 276.076 405.573 276.433 406.023 276.883C406.473 277.333 406.83 277.867 407.073 278.454C407.317 279.042 407.442 279.671 407.441 280.307Z" fill="#390D9F"/>
<path d="M387.194 267.28C387.194 268.238 386.91 269.174 386.377 269.971C385.844 270.767 385.086 271.388 384.2 271.754C383.313 272.121 382.338 272.217 381.397 272.03C380.456 271.843 379.591 271.382 378.913 270.705C378.235 270.027 377.773 269.165 377.585 268.225C377.398 267.286 377.494 266.312 377.861 265.427C378.229 264.542 378.85 263.786 379.648 263.254C380.446 262.722 381.384 262.438 382.343 262.438C383.63 262.438 384.864 262.948 385.773 263.856C386.683 264.764 387.194 265.996 387.194 267.28Z" fill="#390D9F"/>
<path d="M301.97 420.399H287.766C286.852 420.399 286.106 419.899 286.106 419.287V374.793H300.314C301.225 374.793 301.97 375.294 301.97 375.906V420.399Z" fill="#390D9F"/>
<path d="M333.874 420.399H319.674C318.762 420.399 318.017 419.899 318.017 419.287V350.299H332.224C333.136 350.299 333.881 350.8 333.881 351.412L333.874 420.399Z" fill="#425FEC"/>
<path d="M270.388 420.399H256.184C255.27 420.399 254.524 419.977 254.524 419.463V361.401H268.732C269.643 361.401 270.388 361.824 270.388 362.341V420.399Z" fill="#7109B5"/>
<path d="M365.792 420.399H351.584C350.673 420.399 349.928 419.764 349.928 418.986V326.326H364.132C365.046 326.326 365.792 326.962 365.792 327.736V420.399Z" fill="#7109B5"/>
<path d="M397.702 420.399H383.495C382.583 420.399 381.838 419.797 381.838 419.047V304.108H396.045C396.957 304.108 397.702 304.71 397.702 305.443V420.399Z" fill="#425FEC"/>
<path d="M429.613 420.399H415.406C414.494 420.399 413.749 419.916 413.749 419.321V312.234H427.956C428.868 312.234 429.613 312.721 429.613 313.313V420.399Z" fill="#390D9F"/>
<path d="M461.523 420.399H447.316C446.404 420.399 445.659 419.848 445.659 419.172V281.849H459.867C460.774 281.849 461.523 282.4 461.523 283.077V420.399Z" fill="#7109B5"/>
<path d="M553.607 262.668L553.505 255.285H487.604L487.706 262.668H553.607Z" fill="#101C3A"/>
<path d="M542.549 240.456L542.444 233.074H486.909L487.011 240.456H542.549Z" fill="#101C3A"/>
<path d="M625.311 262.668L625.206 255.285H559.304L559.409 262.668H625.311Z" fill="#101C3A"/>
<path d="M614.25 240.456L614.148 233.074H558.61L558.715 240.456H614.25Z" fill="#101C3A"/>
<path d="M553.607 331.899L553.505 324.517H487.604L487.706 331.899H553.607Z" fill="#101C3A"/>
<path d="M542.549 309.688L542.444 302.305H486.909L487.011 309.688H542.549Z" fill="#101C3A"/>
<path d="M625.311 331.899L625.206 324.517H559.304L559.409 331.899H625.311Z" fill="#101C3A"/>
<path d="M614.25 309.688L614.148 302.305H558.61L558.715 309.688H614.25Z" fill="#101C3A"/>
<path d="M561.723 288.281L561.523 280.899H487.766L487.966 288.281H561.723Z" fill="#101C3A"/>
<path d="M597.834 288.281L597.732 280.902H559.47L559.572 288.281H597.834Z" fill="#101C3A"/>
<path d="M607.912 288.281L607.81 280.902H600.283L600.385 288.281H607.912Z" fill="#101C3A"/>
<path d="M553.607 421.032L553.427 413.653H487.414L487.59 421.032H553.607Z" fill="#101C3A"/>
<path d="M552.902 398.82L552.797 391.441H486.896L487.001 398.82H552.902Z" fill="#101C3A"/>
<path d="M541.841 376.609L541.74 369.227H486.201L486.306 376.609H541.841Z" fill="#101C3A"/>
<path d="M607.204 421.032L607.075 413.653H559.115L559.247 421.032H607.204Z" fill="#101C3A"/>
<path d="M624.602 398.82L624.501 391.441H558.6L558.705 398.82H624.602Z" fill="#101C3A"/>
<path d="M613.545 376.609L613.444 369.227H557.905L558.01 376.609H613.545Z" fill="#101C3A"/>
<path d="M618.142 355.203L617.79 347.82H487.058L487.414 355.203H618.142Z" fill="#101C3A"/>
<path d="M597.129 355.206L597.024 347.824H558.762L558.867 355.206H597.129Z" fill="#101C3A"/>
<path d="M607.204 355.206L607.103 347.824H599.575L599.68 355.206H607.204Z" fill="#101C3A"/>
<path d="M577.8 501.771H248.535V507.949H577.8V501.771Z" fill="#101C3A"/>
<path d="M353.413 480.04H248.535V486.218H353.413V480.04Z" fill="#101C3A"/>
<path d="M472.207 480.04H398.793V486.218H472.207V480.04Z" fill="#101C3A"/>
<path d="M468.403 458.309H248.535V464.487H468.403V458.309Z" fill="#101C3A"/>
<path d="M606.435 458.309H497.882V464.487H606.435V458.309Z" fill="#101C3A"/>
<path d="M433.704 629.413C433.704 630.771 433.301 632.098 432.545 633.228C431.789 634.357 430.715 635.237 429.458 635.757C428.201 636.276 426.818 636.412 425.484 636.147C424.15 635.882 422.924 635.228 421.962 634.268C421 633.308 420.345 632.084 420.08 630.752C419.814 629.42 419.951 628.04 420.471 626.785C420.992 625.53 421.873 624.458 423.004 623.703C424.136 622.949 425.465 622.546 426.826 622.546C428.65 622.546 430.4 623.27 431.69 624.557C432.98 625.845 433.704 627.592 433.704 629.413Z" fill="#390D9F"/>
</svg>
