<svg width="26" height="26" viewBox="0 0 26 26" fill="none" xmlns="http://www.w3.org/2000/svg">
<path d="M12.5018 0.208588C12.842 0.208633 13.1704 0.333545 13.4247 0.559631C13.6789 0.785718 13.8413 1.09725 13.8812 1.43515L13.8909 1.59767V23.8231C13.8905 24.1771 13.7549 24.5177 13.5119 24.7751C13.2688 25.0326 12.9366 25.1875 12.5832 25.2082C12.2298 25.229 11.8817 25.114 11.6102 24.8867C11.3387 24.6595 11.1642 24.3372 11.1224 23.9856L11.1127 23.8231V1.59767C11.1127 1.22927 11.259 0.875946 11.5196 0.615442C11.7801 0.354937 12.1334 0.208588 12.5018 0.208588ZM6.94544 4.37585C7.28567 4.37589 7.61406 4.50081 7.86831 4.72689C8.12256 4.95298 8.28499 5.26452 8.3248 5.60241L8.33452 5.76494V19.6558C8.33413 20.0099 8.19856 20.3504 7.95551 20.6078C7.71247 20.8653 7.38029 21.0202 7.02684 21.041C6.6734 21.0617 6.32538 20.9467 6.05388 20.7195C5.78237 20.4922 5.60789 20.1699 5.56607 19.8183L5.55635 19.6558V5.76494C5.55635 5.39653 5.7027 5.04321 5.9632 4.7827C6.22371 4.5222 6.57703 4.37585 6.94544 4.37585ZM18.0581 4.37585C18.3984 4.37589 18.7268 4.50081 18.981 4.72689C19.2353 4.95298 19.3977 5.26452 19.4375 5.60241L19.4472 5.76494V19.6558C19.4468 20.0099 19.3113 20.3504 19.0682 20.6078C18.8252 20.8653 18.493 21.0202 18.1395 21.041C17.7861 21.0617 17.4381 20.9467 17.1666 20.7195C16.8951 20.4922 16.7206 20.1699 16.6788 19.8183L16.669 19.6558V5.76494C16.669 5.39653 16.8154 5.04321 17.0759 4.7827C17.3364 4.5222 17.6897 4.37585 18.0581 4.37585ZM1.38909 8.54311C1.72932 8.54316 2.05771 8.66807 2.31196 8.89415C2.56621 9.12024 2.72864 9.43178 2.76845 9.76968L2.77817 9.9322V15.4885C2.77778 15.8426 2.64221 16.1831 2.39916 16.4406C2.15612 16.698 1.82394 16.853 1.4705 16.8737C1.11705 16.8945 0.769027 16.7795 0.497526 16.5522C0.226024 16.325 0.0515402 16.0026 0.00972357 15.6511L0 15.4885V9.9322C0 9.56379 0.14635 9.21047 0.406854 8.94997C0.667359 8.68946 1.02068 8.54311 1.38909 8.54311ZM23.6145 8.54311C23.9547 8.54316 24.2831 8.66807 24.5374 8.89415C24.7916 9.12024 24.954 9.43178 24.9939 9.76968L25.0036 9.9322V15.4885C25.0032 15.8426 24.8676 16.1831 24.6246 16.4406C24.3815 16.698 24.0493 16.853 23.6959 16.8737C23.3425 16.8945 22.9944 16.7795 22.7229 16.5522C22.4514 16.325 22.2769 16.0026 22.2351 15.6511L22.2254 15.4885V9.9322C22.2254 9.56379 22.3717 9.21047 22.6323 8.94997C22.8928 8.68946 23.2461 8.54311 23.6145 8.54311Z" fill="#C5C5C5"/>
</svg>
