<svg width="34" height="30" viewBox="0 0 34 30" fill="none" xmlns="http://www.w3.org/2000/svg">
<rect width="34" height="30" rx="8" fill="white"/>
<path d="M10.6502 4C9.72895 4.00066 8.83528 4.30358 8.11554 4.85915C7.3958 5.41472 6.89265 6.19 6.68851 7.058L4.10108 18.058C3.96586 18.633 3.96631 19.23 4.10241 19.8048C4.23851 20.3796 4.50676 20.9174 4.88727 21.3783C5.26779 21.8393 5.75081 22.2116 6.30051 22.4676C6.85022 22.7236 7.45251 22.8567 8.06273 22.8571H25.9356C26.546 22.8569 27.1485 22.724 27.6984 22.4681C28.2483 22.2122 28.7315 21.8399 29.1122 21.3789C29.4929 20.9179 29.7613 20.38 29.8975 19.8052C30.0337 19.2303 30.0342 18.6331 29.8989 18.058L27.3131 7.058C27.1087 6.18895 26.6046 5.41288 25.8835 4.85719C25.1625 4.30151 24.2673 3.99923 23.345 4H10.6502ZM8.27252 7.40686C8.3949 6.88584 8.69683 6.42045 9.12882 6.08697C9.56081 5.75349 10.0972 5.57171 10.6502 5.57143H23.3466C23.8998 5.57136 24.4366 5.75297 24.8689 6.08648C25.3012 6.41999 25.6034 6.88558 25.7259 7.40686L28.3133 18.4069C28.3944 18.752 28.3939 19.1103 28.3121 19.4553C28.2303 19.8002 28.0691 20.1229 27.8406 20.3995C27.612 20.676 27.3219 20.8993 26.9919 21.0527C26.6618 21.2061 26.3003 21.2858 25.934 21.2857H8.06273C7.69661 21.2855 7.33523 21.2057 7.00538 21.0522C6.67554 20.8987 6.38569 20.6754 6.15732 20.3989C5.92895 20.1223 5.76792 19.7997 5.68617 19.4549C5.60443 19.11 5.60406 18.7519 5.68509 18.4069L8.27252 7.40686ZM9.68088 24.4286C9.46522 24.4286 9.2584 24.5114 9.1059 24.6587C8.95341 24.8061 8.86774 25.0059 8.86774 25.2143C8.86774 25.4227 8.95341 25.6225 9.1059 25.7699C9.2584 25.9172 9.46522 26 9.68088 26H24.3175C24.5332 26 24.74 25.9172 24.8925 25.7699C25.045 25.6225 25.1306 25.4227 25.1306 25.2143C25.1306 25.0059 25.045 24.8061 24.8925 24.6587C24.74 24.5114 24.5332 24.4286 24.3175 24.4286H9.68088Z" fill="#646363"/>
</svg>
