<svg width="62" height="62" viewBox="0 0 62 62" fill="none" xmlns="http://www.w3.org/2000/svg">
<rect width="61.1" height="61.1" rx="16" fill="#E3E3E3"/>
<rect x="1.88" y="1.88" width="57.34" height="57.34" rx="13.16" stroke="#9F9F9F" stroke-width="3.76"/>
<rect x="14.4399" y="19.04" width="32.7197" height="24.9948" rx="8" fill="#E3E3E3"/>
<path fill-rule="evenodd" clip-rule="evenodd" d="M43.0901 31.9005L40.6722 24.1292C40.5748 23.8139 40.379 23.538 40.1135 23.342C39.848 23.146 39.5267 23.0402 39.1967 23.04H22.4028C22.0728 23.0402 21.7515 23.146 21.486 23.342C21.2205 23.538 21.0247 23.8139 20.9274 24.1292L18.5095 31.9082C18.4636 32.0558 18.4402 32.2094 18.4399 32.364V38.4898C18.4399 38.8996 18.6027 39.2925 18.8925 39.5823C19.1822 39.872 19.5752 40.0348 19.9849 40.0348H41.6146C42.0244 40.0348 42.4173 39.872 42.7071 39.5823C42.9968 39.2925 43.1596 38.8996 43.1596 38.4898V32.3563C43.1593 32.2017 43.1359 32.0481 43.0901 31.9005ZM41.6146 38.4898H19.9849V32.3563L22.4028 24.585H39.1967L41.6146 32.3563V38.4898ZM22.3953 34.6274H23.7858V36.9448H22.3953V34.6274ZM27.6481 34.6274H26.2576V36.9448H27.6481V34.6274ZM30.1122 34.6274H31.5027V36.9448H30.1122V34.6274ZM35.3573 34.6274H33.9668V36.9448H35.3573V34.6274ZM37.8296 34.6274H39.22V36.9448H37.8296V34.6274ZM40.0076 31.5374H21.7073V32.6189H40.0076V31.5374Z" fill="#646363"/>
</svg>
