<svg width="20" height="21" viewBox="0 0 20 21" fill="none" xmlns="http://www.w3.org/2000/svg">
<path d="M10 20.5C15.5228 20.5 20 16.0228 20 10.5C20 4.97715 15.5228 0.5 10 0.5C4.47715 0.5 0 4.97715 0 10.5C0 16.0228 4.47715 20.5 10 20.5Z" fill="#DC3938"/>
<path d="M11.037 10.4988L13.2872 8.24939C13.5709 7.96577 13.5709 7.49633 13.2872 7.21271C13.0035 6.9291 12.5339 6.9291 12.2502 7.21271L10 9.4621L7.74982 7.21271C7.46611 6.9291 6.99651 6.9291 6.71279 7.21271C6.42907 7.49633 6.42907 7.96577 6.71279 8.24939L8.96296 10.4988L6.71279 12.7482C6.42907 13.0318 6.42907 13.5012 6.71279 13.7848C6.85954 13.9315 7.04542 14 7.23131 14C7.41719 14 7.60307 13.9315 7.74982 13.7848L10 11.5355L12.2502 13.7848C12.3969 13.9315 12.5828 14 12.7687 14C12.9546 14 13.1405 13.9315 13.2872 13.7848C13.5709 13.5012 13.5709 13.0318 13.2872 12.7482L11.037 10.4988Z" fill="white"/>
</svg>
