<svg width="22" height="24" viewBox="0 0 22 24" fill="none" xmlns="http://www.w3.org/2000/svg">
<path fill-rule="evenodd" clip-rule="evenodd" d="M0.136962 13.0434C0.136962 10.3863 2.29871 8.2246 4.95581 8.2246L5.96824 8.2246C6.41797 8.2246 6.78297 8.58959 6.78297 9.03932C6.78297 9.48905 6.41797 9.85405 5.96824 9.85405L4.95581 9.85405C3.19599 9.85405 1.76642 11.2847 1.76642 13.0434L1.76642 18.3392C1.76642 20.0957 3.19599 21.5253 4.95581 21.5253L17.0453 21.5253C18.804 21.5253 20.2336 20.0957 20.2336 18.3392L20.2336 13.0315C20.2336 11.2804 18.8084 9.85405 17.0572 9.85405L16.0328 9.85405C15.5831 9.85405 15.2181 9.48905 15.2181 9.03932C15.2181 8.58959 15.5831 8.22459 16.0328 8.22459L17.0572 8.22459C19.7078 8.22459 21.863 10.382 21.863 13.0315L21.863 18.3392C21.863 20.9941 19.7024 23.1548 17.0453 23.1548L4.95581 23.1548C2.29871 23.1548 0.136963 20.9941 0.136963 18.3392L0.136962 13.0434ZM7.2566 4.266L10.4232 1.0853C10.4513 1.05692 10.4806 1.03151 10.5116 1.00826L10.4232 1.0853C10.4611 1.04681 10.5026 1.01258 10.5468 0.982885C10.5668 0.969814 10.5875 0.957206 10.6088 0.945521C10.6255 0.93604 10.6428 0.927314 10.6605 0.919224C10.6761 0.912366 10.6917 0.905783 10.7075 0.899681C10.7282 0.891491 10.7494 0.88432 10.7709 0.878029C10.7878 0.873289 10.8047 0.868932 10.8218 0.865113C10.8426 0.86026 10.8635 0.856439 10.8845 0.853433C10.8982 0.851732 10.9125 0.850068 10.927 0.848784C10.9517 0.846297 10.9758 0.845224 11 0.845224L11.0674 0.850762L11.1105 0.852992C11.1124 0.853242 11.1142 0.853498 11.116 0.85376L11 0.845224C11.0603 0.845224 11.12 0.8519 11.1781 0.864879C11.1953 0.868932 11.2122 0.873289 11.2288 0.878166C11.2506 0.884319 11.2718 0.891491 11.2927 0.899524C11.3083 0.905783 11.3239 0.912367 11.3393 0.919413C11.3572 0.927314 11.3745 0.936039 11.3916 0.945389C11.4125 0.957205 11.4332 0.969813 11.4533 0.983291C11.4652 0.990916 11.4769 0.999281 11.4885 1.00797C11.5225 1.03383 11.5545 1.06202 11.5841 1.09251L14.7445 4.26599C14.9031 4.4246 14.9824 4.63316 14.9824 4.84065C14.9824 5.04922 14.9031 5.25888 14.7423 5.41748C14.4229 5.73468 13.908 5.73359 13.5908 5.4153L11.8147 3.63387L11.8147 14.7405C11.8147 15.1902 11.4497 15.5552 11 15.5552C10.5503 15.5552 10.1853 15.1902 10.1853 14.7405L10.1853 3.6317L8.41025 5.4153C8.09305 5.73359 7.57814 5.73576 7.25877 5.41748C6.9394 5.10028 6.9394 4.58537 7.2566 4.266Z" fill="white"/>
</svg>
