<svg width="20" height="26" viewBox="0 0 20 26" fill="none" xmlns="http://www.w3.org/2000/svg">
<path d="M10.0008 0.333313C5.97286 0.333313 2.66699 3.66689 2.66699 7.73297C2.66699 9.30875 3.16566 10.7772 4.00655 11.9801L3.97648 11.9326L8.67128 20.1424L8.69499 20.1738C8.88419 20.4236 9.07144 20.6249 9.29804 20.7765C9.52464 20.9281 9.81479 21.0238 10.0998 20.9948C10.6694 20.937 11.0003 20.5388 11.3061 20.1194L11.3252 20.0934L16.5011 11.1823L16.5052 11.1749C16.6292 10.9486 16.7189 10.7203 16.7956 10.4992C17.1506 9.62118 17.3333 8.68163 17.3337 7.73297C17.3337 3.66689 14.0288 0.333313 10.0008 0.333313ZM10.0008 1.5698C13.3629 1.5698 16.1114 4.344 16.1114 7.73297C16.1117 8.52454 15.9589 9.30851 15.6617 10.0408L15.6555 10.0561L15.6502 10.0722C15.5859 10.2594 15.516 10.4293 15.4353 10.5767L10.312 19.3968C10.0854 19.6987 9.92699 19.7702 9.97784 19.7648C10.004 19.7623 10.0282 19.7831 9.97221 19.7455C9.91868 19.7096 9.80941 19.6045 9.67986 19.4373L5.02099 11.2886L5.00461 11.2656C4.30233 10.2616 3.88921 9.04563 3.88921 7.73297C3.88921 4.34424 6.63873 1.5698 10.0008 1.5698ZM10.0008 3.51109C7.68788 3.51109 5.81715 5.39699 5.81715 7.73297C5.81715 10.0689 7.68812 11.9548 10.0008 11.9548C12.3135 11.9548 14.1835 10.0687 14.1835 7.73297C14.1835 5.39699 12.3135 3.51109 10.0008 3.51109ZM10.0008 4.74759C11.6672 4.74759 12.9613 6.05456 12.9613 7.73297C12.9613 9.41138 11.6674 10.7184 10.0008 10.7184C8.33419 10.7184 7.03937 9.41113 7.03937 7.73297C7.03937 6.05456 8.33444 4.74759 10.0008 4.74759Z" fill="#71B625"/>
<path d="M6.00199 17.6667C2.47049 18.1827 0.000488281 19.4172 0.000488281 21.2345C0.000488281 23.6824 4.12749 25.6667 10.0005 25.6667C15.8735 25.6667 20.0005 23.6824 20.0005 21.2345C20.0005 19.4172 17.5307 18.1827 13.9995 17.6667L13.5102 18.5281C16.1717 18.91 18.0005 19.7125 18.0005 20.6437C18.0005 21.9494 14.4187 23.0076 10.0005 23.0076C5.58224 23.0076 2.00049 21.9494 2.00049 20.6437C2.00024 19.7156 3.81699 18.9139 6.48674 18.5304C6.32549 18.2424 6.16324 17.9549 6.00174 17.6667H6.00199Z" fill="#71B625"/>
</svg>
