<svg width="25" height="26" viewBox="0 0 25 26" fill="none" xmlns="http://www.w3.org/2000/svg">
<path fill-rule="evenodd" clip-rule="evenodd" d="M5.44872 14.3122C10.6654 14.3122 10.8974 16.0814 10.8974 19.7609C10.8974 21.6045 10.8974 22.916 10.1231 23.8763C9.23205 24.9827 7.61026 25.2096 5.44872 25.2096C3.28718 25.2096 1.66538 24.9827 0.774359 23.8763C0 22.916 0 21.6057 0 19.7929L0.961538 19.7609H0C0 16.0814 0.232052 14.3122 5.44872 14.3122ZM19.5513 14.3122C24.768 14.3122 25 16.0814 25 19.7609C25 21.6045 25 22.916 24.2256 23.8763C23.3346 24.9827 21.7128 25.2096 19.5513 25.2096C17.3897 25.2096 15.7679 24.9827 14.8769 23.8763C14.1026 22.916 14.1026 21.6057 14.1026 19.7929L15.0641 19.7609H14.1026C14.1026 16.0814 14.3346 14.3122 19.5513 14.3122ZM5.71303 16.2358L5.44872 16.2352C2.10388 16.2352 1.93235 16.4753 1.92355 19.2827L1.92409 20.3765C1.93017 21.4931 1.97271 22.2997 2.27051 22.6711C2.61026 23.0916 3.61923 23.2865 5.44872 23.2865C7.27821 23.2865 8.28718 23.0904 8.62692 22.6699C8.97436 22.2378 8.97436 21.2122 8.97436 19.7916C8.97436 16.5863 8.97436 16.2509 5.71303 16.2358ZM19.8156 16.2358L19.5513 16.2352C16.2064 16.2352 16.0349 16.4753 16.0261 19.2827L16.0267 20.3765C16.0327 21.4931 16.0753 22.2997 16.3731 22.6711C16.7128 23.0916 17.7218 23.2865 19.5513 23.2865C21.3808 23.2865 22.3897 23.0904 22.7295 22.6699C23.0769 22.2378 23.0769 21.2122 23.0769 19.7916C23.0769 16.5863 23.0769 16.2509 19.8156 16.2358ZM5.44872 0.209595C10.6654 0.209595 10.8974 1.97883 10.8974 5.65831C10.8974 7.5019 10.8974 8.81344 10.1231 9.7737C9.23205 10.8801 7.61026 11.107 5.44872 11.107C3.28718 11.107 1.66538 10.8801 0.774359 9.7737C0 8.81344 0 7.50318 0 5.69036L0.961538 5.65831H0C0 1.97883 0.232052 0.209595 5.44872 0.209595ZM19.5513 0.209595C24.768 0.209595 25 1.97883 25 5.65831C25 7.5019 25 8.81344 24.2256 9.7737C23.3346 10.8801 21.7128 11.107 19.5513 11.107C17.3897 11.107 15.7679 10.8801 14.8769 9.7737C14.1026 8.81344 14.1026 7.50318 14.1026 5.69036L15.0641 5.65831H14.1026C14.1026 1.97883 14.3346 0.209595 19.5513 0.209595ZM5.71303 2.13324L5.44872 2.13267C2.10388 2.13267 1.93235 2.37269 1.92355 5.18017L1.92409 6.27393C1.93017 7.39055 1.97271 8.19714 2.27051 8.56857C2.61026 8.98908 3.61923 9.18395 5.44872 9.18395C7.27821 9.18395 8.28718 8.9878 8.62692 8.56729C8.97436 8.13524 8.97436 7.1096 8.97436 5.68908C8.97436 2.48369 8.97436 2.14833 5.71303 2.13324ZM19.8156 2.13324L19.5513 2.13267C16.2064 2.13267 16.0349 2.37269 16.0261 5.18017L16.0267 6.27393C16.0327 7.39055 16.0753 8.19714 16.3731 8.56857C16.7128 8.98908 17.7218 9.18395 19.5513 9.18395C21.3808 9.18395 22.3897 8.9878 22.7295 8.56729C23.0769 8.13524 23.0769 7.1096 23.0769 5.68908C23.0769 2.48369 23.0769 2.14833 19.8156 2.13324Z" fill="#C5C5C5"/>
</svg>
