<svg width="24" height="22" viewBox="0 0 24 22" fill="none" xmlns="http://www.w3.org/2000/svg">
<path d="M1.75 5.53846C1.75 4.21426 1.75125 3.28781 1.83427 2.58825C1.91575 1.90166 2.06541 1.54853 2.27824 1.30742C2.4792 1.07976 2.75558 0.928741 3.3196 0.842835C3.91576 0.752034 4.71264 0.75 5.88889 0.75H18.1111C19.2874 0.75 20.0842 0.752034 20.6804 0.842835C21.2444 0.928741 21.5208 1.07976 21.7218 1.30742C21.9346 1.54853 22.0842 1.90166 22.1657 2.58825C22.2488 3.28781 22.25 4.21426 22.25 5.53846V17.25H1.75V5.53846Z" stroke="#66B127" stroke-width="1.5"/>
<path d="M2.74074 17.1389C1.95414 17.1389 1.25 17.7539 1.25 18.5926C1.25 19.8199 2.28578 20.75 3.48148 20.75H20.5185C21.7142 20.75 22.75 19.8199 22.75 18.5926C22.75 17.7539 22.0459 17.1389 21.2593 17.1389H2.74074Z" stroke="#66B127" stroke-width="1.5"/>
<path d="M16.2808 11.5641C15.9764 11.5634 15.6785 11.6528 15.4247 11.821L13.4615 9.85127L12.8562 10.4568L14.8253 12.4205C14.75 12.5552 14.6925 12.6992 14.6541 12.8487H9.37071C9.32798 12.6967 9.26183 12.5522 9.17465 12.4205L15.4247 6.16871C15.6785 6.33692 15.9764 6.4263 16.2808 6.42564C16.6014 6.42692 16.9159 6.33817 17.1885 6.16949C17.4611 6.00081 17.6809 5.75897 17.8229 5.47149C17.9649 5.18402 18.0233 4.86245 17.9916 4.54338C17.9599 4.22431 17.8393 3.92055 17.6435 3.66666C17.4477 3.41278 17.1846 3.21896 16.8841 3.10728C16.5836 2.99559 16.2578 2.97051 15.9438 3.0349C15.6298 3.09929 15.3401 3.25056 15.1078 3.47149C14.8755 3.69243 14.7099 3.97415 14.6297 4.28461H9.38869C9.28815 3.91789 9.0707 3.59401 8.76937 3.36215C8.46805 3.1303 8.09932 3.00315 7.71917 3C7.26503 3 6.82949 3.18046 6.50837 3.50167C6.18725 3.82289 6.00684 4.25855 6.00684 4.71282C6.00684 5.16709 6.18725 5.60275 6.50837 5.92396C6.82949 6.24518 7.26503 6.42564 7.71917 6.42564C8.02364 6.4263 8.32151 6.33692 8.57534 6.16871L10.5385 8.13846L11.1438 7.53297L9.17465 5.56923C9.24997 5.43449 9.30753 5.29055 9.34589 5.14102H14.6293C14.672 5.29307 14.7382 5.43753 14.8253 5.56923L8.57534 11.821C8.32151 11.6528 8.02364 11.5634 7.71917 11.5641C7.39862 11.5628 7.08415 11.6516 6.81153 11.8202C6.53892 11.9889 6.31912 12.2308 6.17713 12.5182C6.03515 12.8057 5.97669 13.1273 6.0084 13.4464C6.04011 13.7654 6.16073 14.0692 6.35652 14.3231C6.55231 14.577 6.81542 14.7708 7.11589 14.8825C7.41637 14.9941 7.74216 15.0192 8.05619 14.9548C8.37021 14.8904 8.65986 14.7392 8.89218 14.5182C9.12449 14.2973 9.29015 14.0156 9.37029 13.7051H14.6113C14.6904 14.0166 14.8553 14.2996 15.0872 14.5221C15.3191 14.7445 15.6088 14.8974 15.9232 14.9634C16.2377 15.0294 16.5643 15.0058 16.8661 14.8954C17.1678 14.7849 17.4325 14.5921 17.6301 14.3386C17.8277 14.0852 17.9503 13.7814 17.9839 13.4618C18.0175 13.1422 17.9609 12.8196 17.8203 12.5305C17.6798 12.2415 17.461 11.9978 17.1889 11.8269C16.9167 11.6561 16.6021 11.565 16.2808 11.5641ZM16.2808 3.85641C16.4502 3.85641 16.6157 3.90664 16.7565 4.00074C16.8973 4.09484 17.007 4.2286 17.0718 4.38508C17.1366 4.54157 17.1536 4.71377 17.1205 4.8799C17.0875 5.04602 17.006 5.19862 16.8862 5.31839C16.7665 5.43816 16.6139 5.51973 16.4479 5.55277C16.2818 5.58582 16.1096 5.56886 15.9532 5.50404C15.7967 5.43922 15.663 5.32945 15.569 5.18861C15.4749 5.04778 15.4247 4.8822 15.4247 4.71282C15.4253 4.48589 15.5158 4.26846 15.6762 4.10799C15.8366 3.94753 16.054 3.85709 16.2808 3.85641ZM7.71917 5.56923C7.54984 5.56923 7.38431 5.519 7.24351 5.4249C7.10272 5.33079 6.99298 5.19704 6.92818 5.04055C6.86338 4.88406 6.84642 4.71187 6.87946 4.54574C6.91249 4.37961 6.99403 4.22702 7.11377 4.10725C7.23351 3.98747 7.38606 3.90591 7.55214 3.87286C7.71822 3.83982 7.89037 3.85678 8.04681 3.9216C8.20326 3.98642 8.33697 4.09619 8.43105 4.23702C8.52512 4.37786 8.57534 4.54344 8.57534 4.71282C8.57466 4.93974 8.48424 5.15718 8.32382 5.31764C8.16341 5.4781 7.94603 5.56855 7.71917 5.56923ZM7.71917 14.1333C7.54984 14.1333 7.38431 14.0831 7.24351 13.989C7.10272 13.8949 6.99298 13.7611 6.92818 13.6046C6.86338 13.4482 6.84642 13.276 6.87946 13.1098C6.91249 12.9437 6.99403 12.7911 7.11377 12.6713C7.23351 12.5516 7.38606 12.47 7.55214 12.437C7.71822 12.4039 7.89037 12.4209 8.04681 12.4857C8.20326 12.5505 8.33697 12.6603 8.43105 12.8011C8.52512 12.942 8.57534 13.1075 8.57534 13.2769C8.57466 13.5038 8.48424 13.7213 8.32382 13.8817C8.16341 14.0422 7.94603 14.1326 7.71917 14.1333ZM16.2808 14.1333C16.1115 14.1333 15.946 14.0831 15.8052 13.989C15.6644 13.8949 15.5546 13.7611 15.4898 13.6046C15.425 13.4482 15.4081 13.276 15.4411 13.1098C15.4741 12.9437 15.5557 12.7911 15.6754 12.6713C15.7952 12.5516 15.9477 12.47 16.1138 12.437C16.2799 12.4039 16.452 12.4209 16.6085 12.4857C16.7649 12.5505 16.8986 12.6603 16.9927 12.8011C17.0868 12.942 17.137 13.1075 17.137 13.2769C17.1363 13.5038 17.0459 13.7213 16.8855 13.8817C16.7251 14.0422 16.5077 14.1326 16.2808 14.1333Z" fill="#66B127"/>
</svg>
