<svg width="24" height="30" viewBox="0 0 24 30" fill="none" xmlns="http://www.w3.org/2000/svg">
<path d="M12.1496 0.975586C9.13455 0.979053 6.24405 2.14793 4.11212 4.22581C1.98019 6.30369 0.780913 9.12091 0.777356 12.0595C0.773745 14.4609 1.57856 16.7971 3.06834 18.7098C3.06834 18.7098 3.37849 19.1078 3.42915 19.1653L12.1496 29.1891L20.8741 19.1602C20.9196 19.1068 21.2308 18.7098 21.2308 18.7098L21.2318 18.7068C22.7208 16.7949 23.5253 14.4598 23.5218 12.0595C23.5182 9.12091 22.3189 6.30369 20.187 4.22581C18.0551 2.14793 15.1646 0.979053 12.1496 0.975586ZM12.1496 16.09C11.3317 16.09 10.5321 15.8536 9.85208 15.4107C9.17203 14.9678 8.64199 14.3384 8.32899 13.6019C8.016 12.8654 7.93411 12.055 8.09367 11.2732C8.25323 10.4913 8.64709 9.77316 9.22542 9.20948C9.80376 8.6458 10.5406 8.26194 11.3428 8.10642C12.145 7.9509 12.9764 8.03072 13.7321 8.33578C14.4877 8.64084 15.1336 9.15744 15.588 9.82025C16.0424 10.4831 16.2849 11.2623 16.2849 12.0595C16.2835 13.128 15.8474 14.1524 15.0722 14.908C14.2969 15.6636 13.2459 16.0887 12.1496 16.09Z" fill="#6DB425"/>
<ellipse cx="12.1488" cy="12.0892" rx="4.37393" ry="4.27478" fill="white"/>
</svg>
