<svg width="24" height="22" viewBox="0 0 24 22" fill="none" xmlns="http://www.w3.org/2000/svg">
<path d="M12.0005 7.16085C12.2187 7.16085 12.428 7.24803 12.5823 7.40321C12.7366 7.55839 12.8233 7.76886 12.8233 7.98832V13.5047C12.8233 13.7242 12.7366 13.9347 12.5823 14.0898C12.428 14.245 12.2187 14.3322 12.0005 14.3322C11.7823 14.3322 11.5731 14.245 11.4188 14.0898C11.2645 13.9347 11.1778 13.7242 11.1778 13.5047V7.98832C11.1778 7.76886 11.2645 7.55839 11.4188 7.40321C11.5731 7.24803 11.7823 7.16085 12.0005 7.16085ZM12.0005 18.1937C12.2915 18.1937 12.5705 18.0774 12.7762 17.8705C12.982 17.6636 13.0975 17.383 13.0975 17.0904C13.0975 16.7978 12.982 16.5172 12.7762 16.3103C12.5705 16.1033 12.2915 15.9871 12.0005 15.9871C11.7096 15.9871 11.4306 16.1033 11.2248 16.3103C11.0191 16.5172 10.9035 16.7978 10.9035 17.0904C10.9035 17.383 11.0191 17.6636 11.2248 17.8705C11.4306 18.0774 11.7096 18.1937 12.0005 18.1937ZM9.84932 1.26602C10.7927 -0.422005 13.2083 -0.422005 14.1518 1.26602L23.6792 18.3007C24.6051 19.9556 23.416 22 21.5291 22H2.47198C0.584035 22 -0.605116 19.9556 0.320754 18.3007L9.84822 1.26602H9.84932ZM12.718 2.07693C12.6465 1.94879 12.5423 1.84212 12.4162 1.76788C12.2901 1.69365 12.1467 1.65451 12.0005 1.65451C11.8544 1.65451 11.711 1.69365 11.5849 1.76788C11.4588 1.84212 11.3546 1.94879 11.2831 2.07693L1.75563 19.1116C1.68512 19.2376 1.64863 19.3799 1.64981 19.5244C1.65099 19.669 1.6898 19.8107 1.76237 19.9354C1.83494 20.0602 1.93873 20.1637 2.06343 20.2355C2.18812 20.3074 2.32935 20.3452 2.47307 20.3451H21.528C21.6717 20.3452 21.813 20.3074 21.9377 20.2355C22.0624 20.1637 22.1661 20.0602 22.2387 19.9354C22.3113 19.8107 22.3501 19.669 22.3513 19.5244C22.3525 19.3799 22.316 19.2376 22.2455 19.1116L12.718 2.07693Z" fill="#E2B200"/>
</svg>
