<svg width="36" height="36" viewBox="0 0 36 36" fill="none" xmlns="http://www.w3.org/2000/svg">
<rect width="36" height="36" rx="5" fill="#AFFFCF" fill-opacity="0.2"/>
<path d="M5.95135 7.33333V10.5938H30.8696V26.6566H15.6272V24.2745H9.24609L9.07935 26.6879H6.38906C5.33349 27.3683 6.89972 29.3201 4.6665 29.2963V7.52986L5.95135 7.33333ZM29.5907 25.3852V12.0841H6.03323V14.5645H9.04362V20.9992H6.04217V25.348H7.80641C7.98656 22.9659 8.07886 22.8855 10.4267 22.8825C11.6555 22.8825 12.8843 22.8825 14.113 22.8825C16.644 22.8825 16.644 22.8825 17.0296 25.3882L29.5907 25.3852ZM5.95135 15.891V19.5639H7.87639V15.891H5.95135Z" fill="#71B626"/>
<path d="M28.5501 20.8249L25.8166 23.5048C25.6142 23.271 25.4176 23.0299 25.2062 22.8036C25.0216 22.607 24.7685 22.2408 24.6345 22.278C24.3665 22.351 24.1551 22.6413 23.9288 22.8527C23.7025 23.0641 23.4896 23.2874 23.2708 23.5048C23.0609 23.277 22.8524 23.0492 22.641 22.8229C22.4549 22.6264 22.2197 22.2452 22.0872 22.278C21.8162 22.345 21.5899 22.6234 21.3636 22.8333C21.1373 23.0433 20.9363 23.28 20.7234 23.5048C20.5075 23.2859 20.2961 23.0581 20.0743 22.8482C19.6276 22.4239 19.1884 22.0055 18.7448 21.5857C18.5483 21.3996 18.1656 21.1688 18.1969 21.0363C18.2624 20.7654 18.5363 20.5346 18.7478 20.3098C18.9592 20.085 19.1944 19.8855 19.4237 19.6741C19.2063 19.4567 18.977 19.2423 18.7701 19.0175C18.5631 18.7927 18.2698 18.5709 18.1969 18.3103C18.1612 18.1763 18.5274 17.9262 18.7254 17.7401C18.9502 17.5287 19.1899 17.3307 19.4237 17.1267C19.1587 16.8974 18.8758 16.6801 18.6361 16.4344C18.4485 16.2409 18.1895 15.9878 18.1895 15.7764C18.1895 15.5649 18.5066 15.3654 18.6956 15.1808C19.1512 14.7183 19.6113 14.2592 20.0758 13.8037C20.2678 13.6146 20.5224 13.2573 20.6624 13.296C20.9289 13.3749 21.1284 13.6756 21.3547 13.8915L22.0276 14.5287C22.2316 14.2965 22.4311 14.0583 22.6425 13.832C22.8286 13.6354 23.0772 13.2662 23.2097 13.3019C23.4792 13.3734 23.6936 13.6622 23.9199 13.8722C24.1462 14.0821 24.3561 14.3099 24.575 14.5287C24.7864 14.3024 24.9859 14.0657 25.2122 13.8543C25.4385 13.6429 25.6663 13.3674 25.9372 13.3019C26.0683 13.2692 26.2946 13.6593 26.4896 13.8454C26.9586 14.292 27.4424 14.7312 27.9025 15.1853C28.093 15.3744 28.3729 15.6096 28.3714 15.821C28.37 16.0324 28.0737 16.2557 27.8935 16.4508C27.6538 16.7039 27.3933 16.9346 27.1491 17.1743C27.3963 17.3664 27.6583 17.5406 27.8861 17.7535C28.0826 17.9366 28.3729 18.1585 28.3774 18.3699C28.3819 18.5813 28.1064 18.8165 27.9188 19.0145C27.6791 19.2661 27.4067 19.488 27.1491 19.7217C27.3873 19.9197 27.6241 20.1207 27.8667 20.3172C28.0722 20.478 28.2881 20.6314 28.5501 20.8249ZM20.7964 20.8592H25.7452V15.9461H20.7964V20.8592Z" fill="#71B626"/>
<path d="M15.4753 15.8196C14.6044 16.4061 14.0952 17.0106 13.6009 16.9987C13.1885 16.9883 12.4099 16.156 12.4784 15.8657C12.6079 15.358 13.2228 14.7402 13.726 14.6359C14.1041 14.557 14.6327 15.2151 15.4753 15.8196Z" fill="#71B626"/>
</svg>
