<svg width="36" height="36" viewBox="0 0 36 36" fill="none" xmlns="http://www.w3.org/2000/svg">
<rect width="36" height="36" rx="5" fill="#AFFFCF" fill-opacity="0.2"/>
<path d="M12.3813 8C10.8779 8 9.571 9.08203 9.21959 10.6169L7.10472 19.8454C6.97128 20.4277 6.96529 21.0342 7.08721 21.6193C7.20912 22.2044 7.45577 22.7528 7.80858 23.2233C8.16138 23.6937 8.61116 24.0739 9.12405 24.3353C9.63695 24.5967 10.1996 24.7325 10.7696 24.7324H24.4568C25.0266 24.7321 25.5889 24.5961 26.1014 24.3347C26.6139 24.0732 27.0634 23.693 27.4159 23.2227C27.7685 22.7525 28.015 22.2043 28.1369 21.6196C28.2587 21.0348 28.2529 20.4286 28.1196 19.8465L26.0069 10.6169C25.836 9.87097 25.431 9.20717 24.8573 8.73244C24.2835 8.25772 23.5744 7.99972 22.8441 8H12.3802H12.3813ZM10.7675 11.0085C10.8548 10.6279 11.0614 10.2892 11.3541 10.047C11.6469 9.80477 12.0087 9.67313 12.3813 9.67324H22.8452C23.6117 9.67324 24.2785 10.2254 24.4579 11.0085L26.5728 20.237C26.6499 20.5733 26.6533 20.9236 26.5829 21.2615C26.5125 21.5995 26.37 21.9162 26.1662 22.1879C25.9624 22.4596 25.7026 22.6792 25.4063 22.8301C25.11 22.981 24.785 23.0593 24.4558 23.0592H10.7707C10.4415 23.0592 10.1167 22.9807 9.82053 22.8297C9.5244 22.6787 9.26471 22.4591 9.06103 22.1875C8.85734 21.9158 8.71495 21.5991 8.64458 21.2613C8.57422 20.9234 8.5777 20.5732 8.65477 20.237L10.7675 11.0085ZM12.0394 25.8479C11.8282 25.8479 11.6257 25.936 11.4764 26.0929C11.327 26.2498 11.2432 26.4626 11.2432 26.6845C11.2432 26.9064 11.327 27.1192 11.4764 27.2761C11.6257 27.433 11.8282 27.5211 12.0394 27.5211H23.1871C23.3983 27.5211 23.6008 27.433 23.7501 27.2761C23.8994 27.1192 23.9833 26.9064 23.9833 26.6845C23.9833 26.4626 23.8994 26.2498 23.7501 26.0929C23.6008 25.936 23.3983 25.8479 23.1871 25.8479H12.0394Z" fill="#66B127"/>
</svg>
