<svg width="26" height="33" viewBox="0 0 26 33" fill="none" xmlns="http://www.w3.org/2000/svg">
<path fill-rule="evenodd" clip-rule="evenodd" d="M25.7367 26.3109C25.7367 31.6662 18.3926 32.2852 12.87 32.2852L12.4748 32.2849C8.95618 32.2764 0 32.0542 0 26.2784C0 21.0324 7.04891 20.3313 12.5295 20.3048L13.2652 20.3044C16.7835 20.3129 25.7367 20.5351 25.7367 26.3109ZM12.87 22.7412C5.94673 22.7412 2.43719 23.9306 2.43719 26.2784C2.43719 28.6473 5.94673 29.8481 12.87 29.8481C19.7916 29.8481 23.2995 28.6587 23.2995 26.3109C23.2995 23.9419 19.7916 22.7412 12.87 22.7412ZM12.87 0C17.6274 0 21.496 3.87025 21.496 8.62764C21.496 13.385 17.6274 17.2537 12.87 17.2537H12.818C8.07034 17.239 4.22446 13.3672 4.24065 8.62276C4.24065 3.87025 8.11096 0 12.87 0ZM12.87 2.3202C9.39129 2.3202 6.56087 5.14896 6.56087 8.62764C6.54953 12.0949 9.3588 14.9221 12.8228 14.9351L12.87 16.0952V14.9351C16.347 14.9351 19.1758 12.1047 19.1758 8.62764C19.1758 5.14896 16.347 2.3202 12.87 2.3202Z" fill="#66B127"/>
</svg>
