<svg width="23" height="23" viewBox="0 0 23 23" fill="none" xmlns="http://www.w3.org/2000/svg">
<path fill-rule="evenodd" clip-rule="evenodd" d="M5.01282 12.9744C9.81215 12.9744 10.0256 14.6021 10.0256 17.9872C10.0256 19.6833 10.0256 20.8899 9.31323 21.7733C8.49349 22.7912 7.00144 23 5.01282 23C3.02421 23 1.53215 22.7912 0.71241 21.7733C0 20.8899 0 19.6845 0 18.0167L0.884615 17.9872H0C0 14.6021 0.213487 12.9744 5.01282 12.9744ZM17.9872 12.9744C22.7865 12.9744 23 14.6021 23 17.9872C23 19.6833 23 20.8899 22.2876 21.7733C21.4678 22.7912 19.9758 23 17.9872 23C15.9986 23 14.5065 22.7912 13.6868 21.7733C12.9744 20.8899 12.9744 19.6845 12.9744 18.0167L13.859 17.9872H12.9744C12.9744 14.6021 13.1878 12.9744 17.9872 12.9744ZM5.25598 14.7441L5.01282 14.7436C1.93557 14.7436 1.77776 14.9644 1.76967 17.5473L1.77016 18.5535C1.77575 19.5808 1.81489 20.3229 2.08887 20.6646C2.40144 21.0515 3.32969 21.2308 5.01282 21.2308C6.69595 21.2308 7.62421 21.0503 7.93677 20.6634C8.25641 20.2659 8.25641 19.3224 8.25641 18.0155C8.25641 15.0665 8.25641 14.758 5.25598 14.7441ZM18.2303 14.7441L17.9872 14.7436C14.9099 14.7436 14.7521 14.9644 14.744 17.5473L14.7445 18.5535C14.7501 19.5808 14.7893 20.3229 15.0632 20.6646C15.3758 21.0515 16.3041 21.2308 17.9872 21.2308C19.6703 21.2308 20.5986 21.0503 20.9111 20.6634C21.2308 20.2659 21.2308 19.3224 21.2308 18.0155C21.2308 15.0665 21.2308 14.758 18.2303 14.7441ZM5.01282 0C9.81215 0 10.0256 1.62769 10.0256 5.01282C10.0256 6.70892 10.0256 7.91554 9.31323 8.79897C8.49349 9.81687 7.00144 10.0256 5.01282 10.0256C3.02421 10.0256 1.53215 9.81687 0.71241 8.79897C0 7.91554 0 6.7101 0 5.04231L0.884615 5.01282H0C0 1.62769 0.213487 0 5.01282 0ZM17.9872 0C22.7865 0 23 1.62769 23 5.01282C23 6.70892 23 7.91554 22.2876 8.79897C21.4678 9.81687 19.9758 10.0256 17.9872 10.0256C15.9986 10.0256 14.5065 9.81687 13.6868 8.79897C12.9744 7.91554 12.9744 6.7101 12.9744 5.04231L13.859 5.01282H12.9744C12.9744 1.62769 13.1878 0 17.9872 0ZM5.25598 1.76976L5.01282 1.76923C1.93557 1.76923 1.77776 1.99005 1.76967 4.57293L1.77016 5.57919C1.77575 6.60648 1.81489 7.34854 2.08887 7.69026C2.40144 8.07713 3.32969 8.25641 5.01282 8.25641C6.69595 8.25641 7.62421 8.07595 7.93677 7.68908C8.25641 7.29159 8.25641 6.348 8.25641 5.04113C8.25641 2.09217 8.25641 1.78364 5.25598 1.76976ZM18.2303 1.76976L17.9872 1.76923C14.9099 1.76923 14.7521 1.99005 14.744 4.57293L14.7445 5.57919C14.7501 6.60648 14.7893 7.34854 15.0632 7.69026C15.3758 8.07713 16.3041 8.25641 17.9872 8.25641C19.6703 8.25641 20.5986 8.07595 20.9111 7.68908C21.2308 7.29159 21.2308 6.348 21.2308 5.04113C21.2308 2.09217 21.2308 1.78364 18.2303 1.76976Z" fill="#71B626"/>
</svg>
