<svg width="20" height="24" viewBox="0 0 20 24" fill="none" xmlns="http://www.w3.org/2000/svg">
<path d="M4.08507 4.95413C3.97273 4.95413 3.88081 5.05321 3.88081 5.17431V6.49541C3.88081 6.61651 3.97273 6.7156 4.08507 6.7156H13.8892C14.0016 6.7156 14.0935 6.61651 14.0935 6.49541V5.17431C14.0935 5.05321 14.0016 4.95413 13.8892 4.95413H4.08507ZM8.98714 10.4587V9.13761C8.98714 9.01651 8.89523 8.91743 8.78289 8.91743H4.08507C3.97273 8.91743 3.88081 9.01651 3.88081 9.13761V10.4587C3.88081 10.5798 3.97273 10.6789 4.08507 10.6789H8.78289C8.89523 10.6789 8.98714 10.5798 8.98714 10.4587ZM7.76162 21.3578H1.83828V1.98165H16.136V11.4495C16.136 11.5706 16.2279 11.6697 16.3403 11.6697H17.77C17.8824 11.6697 17.9743 11.5706 17.9743 11.4495V0.880734C17.9743 0.393578 17.6092 0 17.1573 0H0.817013C0.365103 0 0 0.393578 0 0.880734V22.4587C0 22.9459 0.365103 23.3394 0.817013 23.3394H7.76162C7.87396 23.3394 7.96588 23.2404 7.96588 23.1193V21.578C7.96588 21.4569 7.87396 21.3578 7.76162 21.3578ZM10.4195 18.1761C10.4654 17.2266 10.8331 16.3376 11.4612 15.6605C12.1301 14.9394 13.0441 14.5321 13.9913 14.5321C14.9462 14.5321 15.8449 14.9339 16.5215 15.6605C16.6032 15.7486 16.6824 15.8422 16.7564 15.9385L16.1666 16.4312C16.1362 16.4566 16.1131 16.4907 16.0998 16.5296C16.0866 16.5685 16.0838 16.6106 16.0918 16.6512C16.0998 16.6917 16.1183 16.729 16.1451 16.7587C16.1719 16.7885 16.2059 16.8094 16.2432 16.8193L18.6253 17.4385C18.753 17.4716 18.8756 17.367 18.8781 17.2266L18.8934 14.6009C18.8938 14.5596 18.8833 14.5189 18.8633 14.4837C18.8432 14.4484 18.8143 14.42 18.78 14.4016C18.7456 14.3832 18.7071 14.3756 18.6689 14.3797C18.6307 14.3838 18.5944 14.3994 18.5641 14.4248L18.0458 14.8596C17.0909 13.5853 15.6279 12.7706 13.9913 12.7706C11.1854 12.7706 8.89523 15.1624 8.78289 18.1569C8.77778 18.2807 8.87225 18.3853 8.98714 18.3853H10.2152C10.325 18.3853 10.4144 18.2945 10.4195 18.1761ZM18.9956 18.3853H17.7675C17.6577 18.3853 17.5683 18.4761 17.5632 18.5945C17.5173 19.544 17.1496 20.433 16.5215 21.1101C15.8526 21.8312 14.9386 22.2385 13.9913 22.2385C13.0365 22.2385 12.1378 21.8367 11.4612 21.1101C11.3795 21.022 11.3003 20.9284 11.2263 20.8321L11.8161 20.3394C11.8465 20.3141 11.8696 20.28 11.8828 20.2411C11.8961 20.2022 11.8989 20.16 11.8909 20.1195C11.8829 20.0789 11.8644 20.0416 11.8376 20.0119C11.8108 19.9822 11.7768 19.9612 11.7395 19.9514L9.35735 19.3321C9.22969 19.2991 9.10714 19.4037 9.10459 19.544L9.08927 22.1697C9.0889 22.2111 9.09935 22.2517 9.11942 22.287C9.13949 22.3222 9.16836 22.3507 9.20274 22.3691C9.23711 22.3875 9.27559 22.395 9.31378 22.3909C9.35196 22.3868 9.3883 22.3712 9.41863 22.3459L9.93692 21.911C10.8918 23.1853 12.3548 24 13.9913 24C16.7973 24 19.0875 21.6083 19.1998 18.6138C19.2049 18.4899 19.1104 18.3853 18.9956 18.3853Z" fill="#66B127"/>
</svg>
