<svg width="21" height="26" viewBox="0 0 21 26" fill="none" xmlns="http://www.w3.org/2000/svg">
<path fill-rule="evenodd" clip-rule="evenodd" d="M20.6569 20.7154C20.6569 24.9318 14.8747 25.4192 10.5265 25.4192L10.2153 25.4189C7.44504 25.4122 0.393555 25.2373 0.393555 20.6898C0.393555 16.5595 5.94339 16.0075 10.2585 15.9866L10.8376 15.9863C13.6077 15.993 20.6569 16.1679 20.6569 20.7154ZM10.5265 17.9049C5.07561 17.9049 2.31243 18.8413 2.31243 20.6898C2.31243 22.555 5.07561 23.5003 10.5265 23.5003C15.9761 23.5003 18.738 22.5639 18.738 20.7154C18.738 18.8503 15.9761 17.9049 10.5265 17.9049ZM10.5265 0C14.2721 0 17.318 3.04717 17.318 6.79281C17.318 10.5385 14.2721 13.5844 10.5265 13.5844H10.4856C6.74759 13.5728 3.7196 10.5244 3.73236 6.78898C3.73236 3.04717 6.77957 0 10.5265 0ZM10.5265 1.82677C7.78762 1.82677 5.55914 4.05394 5.55914 6.79281C5.55021 9.52273 7.76203 11.7486 10.4894 11.7589L10.5265 12.6722V11.7589C13.2641 11.7589 15.4913 9.53041 15.4913 6.79281C15.4913 4.05394 13.2641 1.82677 10.5265 1.82677Z" fill="#C5C5C5"/>
</svg>
