<svg width="36" height="36" viewBox="0 0 36 36" fill="none" xmlns="http://www.w3.org/2000/svg">
<rect width="36" height="36" rx="5" fill="#AFFFCF" fill-opacity="0.2"/>
<path d="M18.1382 29.467H8.12985C6.30407 29.466 5.37172 28.5347 5.37072 26.7179C5.37072 26.1649 5.40067 25.6108 5.37072 25.0598C5.19403 22.1959 5.67718 19.3988 6.16931 16.5968C6.66643 13.6999 7.12562 10.792 7.59279 7.88916C7.77847 6.72522 8.53812 6.00749 9.70905 6.00549C15.2992 5.99817 20.887 5.99817 26.4724 6.00549C27.6264 6.00549 28.397 6.6763 28.6027 7.88916C29.1088 10.8699 29.5879 13.8556 30.0771 16.8393C30.2458 17.8665 30.4494 18.8917 30.5672 19.9249C30.694 21.0389 30.7738 22.1599 30.8108 23.28C30.8517 24.5068 30.8247 25.7356 30.8187 26.9634C30.8118 28.4858 29.8495 29.459 28.3321 29.465C24.9341 29.4723 21.5362 29.473 18.1382 29.467ZM29.0748 19.7462C28.9451 18.8827 28.8283 18.0951 28.7095 17.3085C28.2353 14.179 27.7562 11.0496 27.292 7.91711C27.2351 7.53279 27.1143 7.36109 26.6791 7.36209C20.9911 7.37673 15.3032 7.37673 9.61522 7.36209C9.23689 7.36209 9.09314 7.45193 9.03924 7.86121C8.6619 10.7172 8.24864 13.5681 7.85134 16.4211C7.69861 17.5191 7.55885 18.6262 7.41012 19.7472L29.0748 19.7462ZM18.1062 27.762C21.648 27.762 25.1937 27.7541 28.7324 27.77C29.2615 27.77 29.4601 27.5973 29.4532 27.0593C29.4299 25.3603 29.4299 23.6613 29.4532 21.9623C29.4611 21.3963 29.2325 21.2046 28.6885 21.2056C21.605 21.2149 14.5212 21.2149 7.43707 21.2056C6.91399 21.2056 6.71335 21.3943 6.72233 21.9323C6.74729 23.6104 6.72932 25.2894 6.73232 26.9684C6.73232 27.7191 6.77724 27.76 7.54188 27.761L18.1062 27.762Z" fill="#71B626"/>
<path d="M13.5269 9.01888L13.5897 9.94025C14.3304 9.94025 15.0611 9.97219 15.7859 9.92927C16.285 9.89932 16.5974 10.055 16.8839 10.4843C17.982 12.1124 19.1369 13.7006 20.244 15.3227C20.4816 15.6711 20.7381 15.8009 21.1484 15.7839C21.8472 15.754 22.5399 15.764 23.2357 15.7839C23.8516 15.7989 24.0602 16.0405 24.0572 16.6684C24.0572 17.2194 23.7797 17.5079 23.2307 17.5119C22.2325 17.5189 21.2223 17.5488 20.222 17.4919C19.9585 17.4769 19.6311 17.2374 19.4694 17.0058C18.3473 15.3946 17.2543 13.7635 16.1692 12.1274C15.9576 11.807 15.7399 11.6402 15.3327 11.6702C14.7657 11.7121 14.1927 11.6812 13.5927 11.6812C13.5618 12.0645 13.5358 12.3989 13.5039 12.8102L11.3228 11.1711L13.5269 9.01888Z" fill="#71B626"/>
<path d="M22.9293 12.8466V11.7036C21.6316 11.6976 20.263 11.2723 19.4824 12.9464L18.4272 11.6018C19.3905 10.0605 20.9698 9.63023 22.8894 10.0195C22.9163 9.5953 22.9353 9.27985 22.9512 9.0293L25.0885 11.2254L22.9293 12.8466Z" fill="#71B626"/>
<path d="M16.4878 14.0456L17.5859 15.2984C17.1746 15.8973 16.7214 16.5961 16.2223 17.2669C16.1135 17.4126 15.839 17.4945 15.6383 17.5005C14.8198 17.5264 14.0002 17.4945 13.1817 17.5164C12.5328 17.5344 12.445 17.0902 12.431 16.625C12.417 16.1598 12.5787 15.7735 13.1597 15.7775C13.7407 15.7815 14.3087 15.8115 14.8777 15.7595C15.1415 15.7253 15.3844 15.5978 15.5625 15.4002C15.8959 14.9959 16.1614 14.5317 16.4878 14.0456Z" fill="#71B626"/>
<path d="M21.1646 24.8671H23.6512V26.1299H21.1646V24.8671Z" fill="#71B626"/>
<path d="M25.457 24.8562H27.9347V26.1339H25.457V24.8562Z" fill="#71B626"/>
<path d="M12.416 24.8671H14.8757V26.1269H12.416V24.8671Z" fill="#71B626"/>
<path d="M19.1664 26.1359H16.6968V24.8731H19.1664V26.1359Z" fill="#71B626"/>
<path d="M14.8926 22.8836V24.0565H12.416V22.8836H14.8926Z" fill="#71B626"/>
<path d="M16.6846 24.0584V22.8815H19.1712V24.0584H16.6846Z" fill="#71B626"/>
<path d="M23.6625 22.8919V24.0688H21.1499V22.8919H23.6625Z" fill="#71B626"/>
<path d="M25.4531 22.8555H27.9397V24.0534H25.4531V22.8555Z" fill="#71B626"/>
<path d="M9.6268 25.1836C9.51439 25.1855 9.40276 25.1646 9.29875 25.1219C9.19473 25.0792 9.10054 25.0157 9.02193 24.9353C8.94333 24.855 8.88197 24.7594 8.84162 24.6544C8.80127 24.5495 8.78278 24.4374 8.78728 24.3251C8.78728 23.8619 9.20155 23.4267 9.64277 23.4766C10.1179 23.5305 10.4314 23.798 10.4513 24.3111C10.4589 24.4236 10.4432 24.5364 10.405 24.6425C10.3669 24.7486 10.3073 24.8457 10.2298 24.9276C10.1524 25.0095 10.0588 25.0746 9.95507 25.1186C9.85129 25.1627 9.73953 25.1848 9.6268 25.1836Z" fill="#71B626"/>
</svg>
