<svg width="36" height="36" viewBox="0 0 36 36" fill="none" xmlns="http://www.w3.org/2000/svg">
<rect width="36" height="36" rx="5" fill="#AFFFCF" fill-opacity="0.2"/>
<path d="M13.8863 9.55682L13.9395 10.3372C14.5669 10.3372 15.1857 10.3642 15.7995 10.3279C16.2223 10.3025 16.4869 10.4344 16.7295 10.7979C17.6595 12.1769 18.6377 13.522 19.5753 14.8958C19.7765 15.1909 19.9938 15.3008 20.3413 15.2864C20.9331 15.2611 21.5198 15.2695 22.1091 15.2864C22.6308 15.2991 22.8075 15.5037 22.8049 16.0355C22.8049 16.5022 22.5699 16.7465 22.1049 16.7499C21.2594 16.7558 20.4038 16.7812 19.5567 16.733C19.3335 16.7203 19.0562 16.5174 18.9192 16.3213C17.969 14.9567 17.0432 13.5752 16.1242 12.1896C15.945 11.9182 15.7606 11.777 15.4157 11.8023C14.9355 11.8378 14.4502 11.8116 13.9421 11.8116C13.9159 12.1363 13.8939 12.4195 13.8668 12.7678L12.0195 11.3796L13.8863 9.55682Z" fill="#71B626"/>
<path d="M21.8501 12.7986V11.8306C20.751 11.8255 19.5919 11.4654 18.9307 12.8832L18.0371 11.7444C18.853 10.439 20.1905 10.0746 21.8163 10.4043C21.8391 10.045 21.8552 9.77785 21.8687 9.56564L23.6788 11.4256L21.8501 12.7986Z" fill="#71B626"/>
<path d="M16.3946 13.8141L17.3246 14.8752C16.9763 15.3825 16.5924 15.9743 16.1697 16.5424C16.0776 16.6658 15.8451 16.7352 15.6751 16.7402C14.9819 16.7622 14.2877 16.7352 13.5945 16.7538C13.0449 16.769 12.9705 16.3928 12.9587 15.9988C12.9469 15.6048 13.0838 15.2776 13.5759 15.281C14.0679 15.2844 14.549 15.3097 15.0309 15.2658C15.2543 15.2368 15.46 15.1288 15.6109 14.9614C15.8933 14.619 16.1181 14.2259 16.3946 13.8141Z" fill="#71B626"/>
<path d="M12.9463 22.9794H15.0295V24.0463H12.9463V22.9794Z" fill="#71B626"/>
<path d="M18.6629 24.054H16.5713V22.9845H18.6629V24.054Z" fill="#71B626"/>
<path d="M15.0438 21.2994V22.2928H12.9463V21.2994H15.0438Z" fill="#71B626"/>
<path d="M16.5605 22.2945V21.2977H18.6666V22.2945H16.5605Z" fill="#71B626"/>
<path d="M10.5837 23.2474C10.4884 23.2491 10.3939 23.2313 10.3058 23.1951C10.2177 23.159 10.1379 23.1052 10.0714 23.0371C10.0048 22.9691 9.95282 22.8881 9.91865 22.7992C9.88448 22.7104 9.86882 22.6154 9.87263 22.5203C9.87263 22.128 10.2235 21.7594 10.5972 21.8017C10.9996 21.8473 11.2651 22.0739 11.282 22.5085C11.2884 22.6037 11.2751 22.6993 11.2428 22.7891C11.2105 22.879 11.16 22.9612 11.0944 23.0306C11.0288 23.1 10.9496 23.1551 10.8617 23.1924C10.7738 23.2297 10.6791 23.2484 10.5837 23.2474V23.2474Z" fill="#71B626"/>
<path fill-rule="evenodd" clip-rule="evenodd" d="M23.7071 20.2929C23.3166 19.9024 22.6834 19.9024 22.2929 20.2929C21.9024 20.6834 21.9024 21.3166 22.2929 21.7071L25.0858 24.5L22.2929 27.2929C21.9024 27.6834 21.9024 28.3166 22.2929 28.7071C22.6834 29.0976 23.3166 29.0976 23.7071 28.7071L26.5 25.9142L29.2929 28.7071C29.6834 29.0976 30.3166 29.0976 30.7071 28.7071C31.0977 28.3166 31.0977 27.6834 30.7071 27.2929L27.9142 24.5L30.7071 21.7071C31.0977 21.3166 31.0977 20.6834 30.7071 20.2929C30.3166 19.9024 29.6834 19.9024 29.2929 20.2929L26.5 23.0858L23.7071 20.2929Z" fill="#71B626"/>
<path fill-rule="evenodd" clip-rule="evenodd" d="M9.31565 26.8752H17.7921C18.1948 26.8759 18.5974 26.8766 19 26.877V25.4309C18.5883 25.4311 18.1767 25.4312 17.7651 25.4312L8.81768 25.4304C8.17006 25.4295 8.13202 25.3949 8.13202 24.7591C8.13119 24.2925 8.13227 23.8258 8.13335 23.3592C8.13556 22.4039 8.13777 21.4486 8.12356 20.4938C8.11596 20.0381 8.28589 19.8783 8.72891 19.8783C12.1527 19.8828 15.5764 19.8847 19 19.8841V18.6426L8.70608 18.6431C8.7484 18.3241 8.78987 18.0064 8.83118 17.6899C8.91283 17.0645 8.99388 16.4436 9.07977 15.8261C9.18316 15.0836 9.28784 14.3413 9.39251 13.5989C9.62849 11.9255 9.86447 10.2519 10.0859 8.57635C10.1315 8.22971 10.2532 8.15362 10.5737 8.15362C15.391 8.16602 20.2084 8.16602 25.0258 8.15362C25.3944 8.15278 25.4967 8.29819 25.5449 8.62369C25.8419 10.6282 26.1462 12.6313 26.4504 14.6341C26.5488 15.282 26.6473 15.9298 26.7454 16.5777C26.8025 16.9556 26.859 17.3337 26.9173 17.7237C26.931 17.8151 26.9447 17.9072 26.9586 18H28.211C28.156 17.6434 28.094 17.2875 28.0321 16.9318C27.9884 16.6813 27.9448 16.4309 27.9037 16.1803C27.7915 15.4961 27.68 14.8118 27.5684 14.1275C27.268 12.2843 26.9675 10.441 26.655 8.60002C26.4808 7.5728 25.8281 7.00466 24.8508 7.00466C20.1202 6.99846 15.3877 6.99846 10.6531 7.00466C9.66144 7.00635 9.01805 7.61423 8.8608 8.60002C8.78909 9.04561 8.7176 9.49133 8.6461 9.93712C8.3231 11.951 7.99991 13.966 7.65519 15.9749C7.23838 18.348 6.82918 20.717 6.97883 23.1426C6.99573 23.4537 6.9901 23.7659 6.98446 24.0782C6.98165 24.2345 6.97883 24.3907 6.97883 24.5469C6.97967 26.0856 7.76932 26.8744 9.31565 26.8752Z" fill="#71B626"/>
</svg>
