<svg width="36" height="36" viewBox="0 0 36 36" fill="none" xmlns="http://www.w3.org/2000/svg">
<rect width="36" height="36" rx="5" fill="#AFFFCF" fill-opacity="0.2"/>
<g clip-path="url(#clip0_337_1122)">
<path d="M28.0889 25.7112C28.2556 26.2686 28.1201 26.514 27.4464 26.7789C27.39 27.4773 27.2162 27.6447 26.4873 27.6963C26.1948 28.3385 25.9622 28.452 25.2789 28.2869C24.7802 28.8121 24.5068 28.8546 23.941 28.491C23.3116 28.8442 23.0071 28.7995 22.6043 28.2972C21.8154 28.4199 21.6452 28.3351 21.3635 27.6975C20.6442 27.6413 20.4523 27.4555 20.4044 26.78C19.739 26.5209 19.5892 26.2399 19.7954 25.6333C19.2343 25.1551 19.196 24.9074 19.5736 24.3282C19.1888 23.7468 19.2343 23.4659 19.7786 23.053C19.6323 22.3443 19.745 22.1287 20.3864 21.889C20.4955 21.1563 20.6729 20.9865 21.3455 20.9716C21.6919 20.2916 21.9245 20.1781 22.5743 20.3742C23.0406 19.8409 23.3415 19.7916 23.9014 20.1597C24.6015 19.8065 24.8185 19.8386 25.2681 20.365C25.9574 20.1964 26.2271 20.3271 26.4753 20.9384C27.2306 21.029 27.4272 21.2147 27.4344 21.8478C28.1537 22.209 28.246 22.3787 28.0662 23.0416L28.451 23.334V11.7848H28.0458C26.6408 11.7848 25.2357 11.7848 23.8307 11.7848C23.0382 11.7848 22.5947 11.3674 22.5911 10.6071C22.5839 9.27568 22.5911 7.94427 22.5911 6.61172V6.17021C22.4316 6.16218 22.2962 6.14957 22.1619 6.14957H9.857C9.18206 6.16907 8.85237 6.47984 8.85118 7.13236C8.85118 9.83339 8.85118 12.534 8.85118 15.2343V28.1367C8.85118 28.9887 9.11852 29.2433 10.0212 29.2433C13.4699 29.2433 16.919 29.2433 20.3684 29.2433C20.6454 29.2433 20.8564 29.2284 20.9307 28.9062C20.9906 28.6504 21.2004 28.5036 21.4833 28.5988C21.7866 28.7009 21.8214 28.9429 21.7231 29.2009C21.3595 30.1275 20.995 31.0529 20.6298 31.9772C20.5914 32.0758 20.5566 32.1745 20.4931 32.3476C20.8671 32.2089 21.1704 32.0965 21.475 31.9852C21.9545 31.8086 22.1511 31.9118 22.2566 32.4015C22.2902 32.5563 22.3213 32.7112 22.3705 32.9497C22.4448 32.7972 22.4904 32.7203 22.5215 32.6378C22.8368 31.8511 23.1533 31.0655 23.4614 30.2766C23.5513 30.0472 23.646 29.8282 23.941 29.8305C24.2359 29.8327 24.3246 30.0667 24.4133 30.2892C24.7502 31.1447 25.0919 31.9979 25.5162 32.8534C25.5558 32.6722 25.5942 32.4898 25.6361 32.3086C25.7248 31.9348 25.9334 31.819 26.3039 31.9497C26.6348 32.0644 26.9608 32.1962 27.3756 32.3534C27.2761 32.0862 27.2102 31.8946 27.1359 31.7089C26.8134 30.8855 26.4909 30.0621 26.1624 29.241C26.0521 28.9658 26.0521 28.7146 26.3758 28.6011C26.6995 28.4876 26.8553 28.7032 26.9632 28.9681C27.4428 30.1917 27.9391 31.4096 28.4018 32.6378C28.4702 32.8212 28.4426 33.14 28.3167 33.257C28.1908 33.374 27.8696 33.382 27.6658 33.3281C27.2373 33.1964 26.8163 33.0433 26.4046 32.8694C26.3326 33.2134 26.2643 33.5254 26.196 33.843C26.1708 33.9577 26.1456 34.0827 26.1229 34.202C26.0773 34.4588 25.9394 34.6309 25.6553 34.6607C25.352 34.6893 25.1866 34.5288 25.0859 34.2719C24.7634 33.4485 24.4337 32.6274 24.1052 31.8063C24.0608 31.6917 24.0081 31.5896 23.9278 31.4119C23.5789 32.2903 23.26 33.0976 22.9399 33.9049C22.8848 34.0414 22.82 34.1767 22.7721 34.3143C22.6762 34.5655 22.47 34.7272 22.217 34.6458C22.1157 34.6102 22.0231 34.555 21.945 34.4838C21.8668 34.4126 21.8048 34.3268 21.7627 34.2318C21.6236 33.8052 21.5661 33.3545 21.4678 32.8774C21.0326 33.0414 20.6286 33.1894 20.2318 33.3453C19.9788 33.4451 19.739 33.4841 19.522 33.28C19.3051 33.0758 19.3638 32.8556 19.4537 32.6263C19.7834 31.7949 20.1095 30.9623 20.4667 30.0564H9.97928C8.65976 30.0587 8 29.4298 8 28.1699V7.28258C8 5.96723 8.65217 5.33307 10.0105 5.33307C14.2519 5.33765 18.493 5.33765 22.7337 5.33307C22.8784 5.32662 23.0229 5.35035 23.157 5.40263C23.2911 5.45491 23.4118 5.53448 23.5106 5.63582C25.3556 7.41446 27.215 9.1782 29.0516 10.9626C29.2176 11.1379 29.3132 11.3638 29.3214 11.6002C29.3365 15.8157 29.3401 20.0309 29.3321 24.2457C29.3321 24.8707 29.1667 24.9979 28.632 24.8431L28.0889 25.7112ZM21.4354 21.9452C21.4354 22.4039 21.2112 22.6689 20.7892 22.8007C20.9475 23.2273 20.8012 23.5507 20.4487 23.8064C20.7365 24.1711 20.6885 24.5243 20.4583 24.8718C20.848 25.1252 20.9091 25.4658 20.7988 25.8649C21.2484 25.9922 21.4366 26.2972 21.4462 26.553L22.4772 27.2823C22.7745 27.1906 23.121 27.311 23.3787 27.6459C23.8666 27.4016 23.887 27.4004 24.3318 27.5621L25.5786 27.186C25.6601 26.8913 25.9874 26.7215 26.2487 26.7078C26.5364 26.3374 26.751 26.0622 27.0244 25.7124C26.9177 25.4326 27.0424 25.1 27.4332 24.8397C27.1011 24.4842 27.1934 24.131 27.4032 23.7812C27.0112 23.5347 26.9441 23.1975 27.0699 22.7961C26.6072 22.6757 26.4393 22.3535 26.4046 21.9441C25.9478 21.9372 25.6625 21.7296 25.5306 21.3099C25.0715 21.4934 24.7442 21.3099 24.4649 21.0026C24.098 21.2629 23.7456 21.2457 23.3775 21.0026C23.1138 21.3581 22.7601 21.4613 22.3273 21.3283C22.1907 21.7491 21.8921 21.9372 21.4354 21.9452ZM27.7569 10.958L27.6574 11.0176L23.4422 6.97983C23.4422 8.10482 23.4422 9.33645 23.4422 10.5669C23.4422 10.8617 23.5621 10.9809 23.8762 10.9775C25.1002 10.9683 26.3243 10.9775 27.5483 10.9775C27.6154 10.9729 27.6861 10.9626 27.7569 10.958Z" fill="#71B626"/>
<path d="M13.7316 13.8912V13.4153C13.7316 11.7662 13.7316 10.1168 13.7316 8.46696C13.7316 8.33279 13.698 8.17453 13.7592 8.07017C13.8371 7.93944 13.9989 7.76513 14.1188 7.76628C14.2663 7.76628 14.4329 7.91651 14.548 8.03921C14.6079 8.10458 14.5816 8.24907 14.5816 8.35801C14.5816 10.264 14.5816 12.1703 14.5816 14.077C14.5816 14.585 14.4617 14.7008 13.9282 14.7031C13.4427 14.7031 12.9571 14.718 12.4728 14.7031C12.1755 14.6905 12.0005 14.7582 11.8518 15.038C11.5461 15.6125 10.8772 15.8671 10.1902 15.7341C9.88305 15.6672 9.60458 15.5121 9.39212 15.2896C9.17966 15.0671 9.04337 14.7878 9.0015 14.4892C8.95964 14.1905 9.0142 13.8867 9.15788 13.6185C9.30155 13.3504 9.52749 13.1306 9.8054 12.9887C9.98503 12.8938 10.1829 12.8348 10.3871 12.8152C10.5913 12.7957 10.7975 12.816 10.9933 12.875C11.189 12.934 11.3702 13.0304 11.5258 13.1583C11.6814 13.2863 11.8082 13.4432 11.8986 13.6194C12.0185 13.8488 12.1599 13.9015 12.3973 13.8946C12.8181 13.882 13.2389 13.8912 13.7316 13.8912ZM10.5427 13.6274C10.3628 13.627 10.1898 13.6931 10.0597 13.8119C9.92965 13.9308 9.8527 14.0932 9.84496 14.265C9.83992 14.3534 9.85371 14.4418 9.8855 14.5249C9.91729 14.608 9.96642 14.684 10.0299 14.7484C10.0934 14.8127 10.1698 14.8641 10.2547 14.8993C10.3396 14.9345 10.431 14.9528 10.5235 14.9531C10.6164 14.9544 10.7087 14.9377 10.7947 14.9042C10.8808 14.8706 10.9589 14.8209 11.0244 14.7578C11.09 14.6948 11.1416 14.6198 11.1762 14.5373C11.2109 14.4549 11.2278 14.3665 11.226 14.2777C11.2186 14.1069 11.1441 13.9451 11.0174 13.8246C10.8908 13.704 10.7212 13.6336 10.5427 13.6274Z" fill="#71B626"/>
<path d="M17.4181 13.8892C17.9635 13.8892 18.4599 13.9075 18.9526 13.8743C19.0641 13.8663 19.1924 13.6885 19.2619 13.5658C19.4178 13.3045 19.6528 13.0944 19.9359 12.9632C20.2189 12.832 20.5369 12.7858 20.8479 12.8307C21.1598 12.8753 21.4496 13.0111 21.6776 13.2195C21.9055 13.4279 22.0605 13.6987 22.1211 13.9947C22.1976 14.3449 22.1387 14.7097 21.9552 15.0214C21.7718 15.3331 21.4763 15.5706 21.1237 15.6896C20.7774 15.8098 20.3973 15.8053 20.0543 15.677C19.7112 15.5487 19.4287 15.3053 19.2595 14.9924C19.1396 14.7481 18.9874 14.6942 18.7308 14.7011C18.1829 14.716 17.6327 14.7011 17.0836 14.7011C16.7347 14.7011 16.5669 14.5417 16.5669 14.2091C16.5669 12.2214 16.5669 10.2302 16.5669 8.2356C16.5669 7.95349 16.6772 7.73905 17.0009 7.74707C17.3246 7.7551 17.4205 7.97643 17.4205 8.25395C17.4205 9.9764 17.4205 11.6992 17.4205 13.4225L17.4181 13.8892ZM20.6238 14.95C20.713 14.9503 20.8015 14.9336 20.8839 14.9008C20.9664 14.868 21.0412 14.8198 21.1039 14.7591C21.1666 14.6983 21.2161 14.6262 21.2493 14.5469C21.2826 14.4676 21.2989 14.3828 21.2975 14.2974C21.2985 14.2091 21.281 14.1214 21.246 14.0395C21.211 13.9577 21.1592 13.8834 21.0938 13.821C21.0283 13.7586 20.9504 13.7094 20.8648 13.6762C20.7791 13.643 20.6874 13.6265 20.595 13.6277C20.4151 13.6338 20.2445 13.7056 20.1181 13.8282C19.9917 13.9508 19.9191 14.115 19.9153 14.2871C19.9149 14.3755 19.9331 14.4631 19.9688 14.5447C20.0045 14.6262 20.0569 14.7001 20.123 14.7619C20.189 14.8237 20.2674 14.8722 20.3534 14.9045C20.4395 14.9368 20.5314 14.9523 20.6238 14.95Z" fill="#71B626"/>
<path d="M15.9927 11.995C15.9927 13.2163 15.9927 14.4376 15.9927 15.6647C15.9927 15.8768 16.0263 16.0087 16.2577 16.1234C16.5802 16.2655 16.8391 16.513 16.9879 16.8214C17.1366 17.1297 17.1655 17.4788 17.0693 17.8057C17.0042 18.0437 16.878 18.2624 16.7021 18.4418C16.5262 18.6212 16.3062 18.7558 16.0621 18.8332C15.818 18.9106 15.5575 18.9284 15.3044 18.885C15.0512 18.8416 14.8135 18.7384 14.6127 18.5847C14.4119 18.431 14.2544 18.2317 14.1546 18.005C14.0548 17.7783 14.0158 17.5313 14.0412 17.2865C14.0666 17.0417 14.1556 16.8069 14.3 16.6034C14.4444 16.3998 14.6398 16.234 14.8682 16.1211C15.108 16.0064 15.1464 15.8585 15.1464 15.636C15.1408 13.2905 15.1408 10.9453 15.1464 8.60056C15.1464 8.49161 15.1464 8.38152 15.1464 8.27143C15.1464 7.979 15.2363 7.74392 15.5839 7.7508C15.904 7.75768 16.0023 7.98015 15.9987 8.25767C15.9987 8.72211 15.9987 9.18656 15.9987 9.64985L15.9927 11.995ZM16.2721 17.4387C16.2721 17.2667 16.2033 17.1011 16.0798 16.9759C15.9563 16.8508 15.7875 16.7755 15.6079 16.7656C15.5171 16.7617 15.4265 16.7749 15.341 16.8045C15.2556 16.8341 15.1771 16.8795 15.1101 16.9381C15.043 16.9968 14.9887 17.0674 14.9501 17.1462C14.9116 17.2249 14.8897 17.3101 14.8856 17.3969C14.8815 17.4837 14.8953 17.5704 14.9263 17.6522C14.9572 17.7339 15.0047 17.8089 15.066 17.8731C15.1273 17.9373 15.2012 17.9892 15.2835 18.0261C15.3657 18.0629 15.4548 18.0839 15.5456 18.0878C15.7317 18.0931 15.9124 18.0279 16.0485 17.9063C16.1845 17.7847 16.2649 17.6167 16.2721 17.4387Z" fill="#71B626"/>
<path d="M12.9247 11.4813C12.9331 12.1544 12.5135 12.6728 11.9476 12.7874C11.659 12.8506 11.3564 12.8166 11.0908 12.6913C10.8253 12.566 10.613 12.3569 10.4898 12.0994C10.2405 11.5673 10.4011 10.9159 10.9178 10.6086C11.178 10.4618 11.2367 10.2932 11.2367 10.0352C11.2211 9.45033 11.2367 8.86548 11.2307 8.28062C11.2307 7.9859 11.323 7.75311 11.6659 7.75655C12.0087 7.75999 12.0855 8.00884 12.0831 8.29553C12.0831 8.91708 12.0687 9.53863 12.0939 10.159C12.1142 10.3137 12.1978 10.4544 12.3264 10.5501C12.6945 10.8104 12.9151 11.1372 12.9247 11.4813ZM12.1346 11.682V11.5168C11.9788 11.4113 11.8361 11.2336 11.6623 11.2095C11.4033 11.1728 11.2295 11.3563 11.2379 11.6154C11.2463 11.8528 11.4141 12.0283 11.6587 11.9847C11.8361 11.9537 11.9776 11.7875 12.1346 11.682Z" fill="#71B626"/>
<path d="M19.9091 9.21748C19.9091 9.39982 19.9091 9.5833 19.9091 9.76564C19.8935 10.1452 19.9091 10.4537 20.3323 10.7094C20.9197 11.0684 20.9018 11.9709 20.3982 12.4571C20.2736 12.5752 20.1252 12.6678 19.962 12.7292C19.7989 12.7907 19.6243 12.8197 19.449 12.8146C19.2737 12.8094 19.1013 12.7702 18.9424 12.6993C18.7834 12.6284 18.6412 12.5272 18.5245 12.4021C18.0449 11.8642 18.1121 11.0259 18.7319 10.6315C19.0172 10.4537 19.0711 10.2633 19.0639 9.97894C19.0471 9.40555 19.0639 8.83216 19.0639 8.25878C19.0639 7.96406 19.1694 7.737 19.5135 7.74846C19.8396 7.75878 19.9187 7.99158 19.9151 8.26451C19.9079 8.58331 19.9103 8.89982 19.9091 9.21748ZM19.9643 11.6922V11.5213C19.8096 11.4067 19.6669 11.2381 19.4979 11.2094C19.2318 11.1647 19.0639 11.3562 19.0651 11.6085C19.0663 11.8608 19.233 12.0259 19.4799 11.9858C19.6574 11.9571 19.806 11.7943 19.9643 11.6922Z" fill="#71B626"/>
<path d="M13.8346 22.9123H10.997C10.9071 22.9123 10.8171 22.9123 10.7284 22.9123C10.4431 22.8986 10.2597 22.7621 10.2705 22.4823C10.2813 22.2025 10.4707 22.1016 10.7368 22.1016C11.4645 22.1016 12.1922 22.1016 12.9199 22.1016H16.5991C16.719 22.1016 16.8293 22.1016 16.9432 22.1016C17.2165 22.1016 17.3952 22.2311 17.4036 22.4892C17.412 22.7713 17.2177 22.9066 16.9348 22.9089C16.2719 22.9146 15.6077 22.9089 14.9447 22.9089L13.8346 22.9123Z" fill="#71B626"/>
<path d="M13.8422 21.2228C12.8727 21.2228 11.9028 21.2228 10.9326 21.2228C10.8187 21.2228 10.6712 21.2492 10.5981 21.1919C10.465 21.0875 10.2756 20.9166 10.2948 20.8008C10.3176 20.6575 10.5202 20.5302 10.6664 20.4224C10.7228 20.3799 10.8391 20.4086 10.9278 20.4086H16.7074C16.7709 20.4086 16.8357 20.4086 16.8992 20.4086C17.1809 20.4017 17.3931 20.5107 17.4027 20.7916C17.4123 21.0726 17.2049 21.2217 16.904 21.2228H13.8422Z" fill="#71B626"/>
<path d="M13.8348 24.5989C12.8278 24.5989 11.8207 24.5989 10.8137 24.5989C10.4073 24.5989 10.1951 24.3696 10.2958 24.0599C10.3833 23.7893 10.6231 23.787 10.8569 23.787H14.7219C15.4233 23.787 16.1258 23.787 16.8271 23.787C17.1232 23.787 17.3738 23.8489 17.4073 24.1792C17.4349 24.4453 17.2107 24.5989 16.8175 24.6001C15.8237 24.6047 14.8334 24.5989 13.8348 24.5989Z" fill="#71B626"/>
</g>
<defs>
<clipPath id="clip0_337_1122">
<rect width="21.3333" height="29.3333" fill="white" transform="translate(8 5.33334)"/>
</clipPath>
</defs>
</svg>
