<svg width="36" height="36" viewBox="0 0 36 36" fill="none" xmlns="http://www.w3.org/2000/svg">
<rect width="36" height="36" rx="5" fill="#AFFFCF" fill-opacity="0.2"/>
<path fill-rule="evenodd" clip-rule="evenodd" d="M17.8849 7.00187C20.9827 7.00187 23.5055 9.52468 23.5055 12.6257L23.5053 14.2983C25.3887 14.9537 26.7434 16.7466 26.7434 18.8508V23.4009C26.7434 26.0585 24.5824 28.2195 21.9248 28.2195H13.8186C11.161 28.2195 9 26.0585 9 23.4009V18.8508C9 16.747 10.3543 14.9544 12.237 14.2986L12.2377 12.6257C12.2441 11.098 12.835 9.68805 13.9012 8.6314C14.9685 7.5737 16.3773 6.96156 17.8849 7.00187ZM21.9248 15.6235H13.8186C12.0384 15.6235 10.5913 17.0706 10.5913 18.8508V23.4009C10.5913 25.1811 12.0384 26.6282 13.8186 26.6282H21.9248C23.704 26.6282 25.1521 25.1811 25.1521 23.4009V18.8508C25.1521 17.0706 23.704 15.6235 21.9248 15.6235ZM17.8715 19.1518C18.3107 19.1518 18.6672 19.5083 18.6672 19.9475V22.3038C18.6672 22.743 18.3107 23.0994 17.8715 23.0994C17.4323 23.0994 17.0758 22.743 17.0758 22.3038V19.9475C17.0758 19.5083 17.4323 19.1518 17.8715 19.1518ZM17.8817 8.59321H17.8647C16.79 8.59321 15.7832 9.00696 15.0226 9.76125C14.2566 10.5187 13.8333 11.5298 13.8291 12.6076L13.8281 14.0316H21.9132L21.9141 12.6257C21.9141 10.402 20.1053 8.59321 17.8817 8.59321Z" fill="#71B626"/>
</svg>
