<svg width="36" height="36" viewBox="0 0 36 36" fill="none" xmlns="http://www.w3.org/2000/svg">
<rect width="36" height="36" rx="5" fill="#AFFFCF" fill-opacity="0.2"/>
<path d="M26.4983 26.3549C25.8171 26.3549 25.2541 25.7918 25.2541 25.1106C25.2541 24.8904 25.3182 24.6857 25.4208 24.5053C25.3648 24.5009 25.3113 24.4885 25.2541 24.4885C24.7601 24.4918 24.2873 24.6894 23.9379 25.0387C23.5886 25.3881 23.391 25.8609 23.3877 26.3549C23.3877 27.3764 24.2325 28.2213 25.2541 28.2213C26.275 28.2213 27.1205 27.3764 27.1205 26.3549C27.1205 26.2976 27.108 26.2441 27.1037 26.1881C26.9232 26.2908 26.7186 26.3549 26.4983 26.3549Z" fill="#66B127"/>
<path d="M25.2549 22C20.5062 22 19.079 26.1166 19.0659 26.1583L19 26.3549L19.0653 26.5515C19.079 26.5932 20.5062 30.7098 25.2549 30.7098C30.0035 30.7098 31.4307 26.5932 31.4438 26.5515L31.5097 26.3549L31.4444 26.1583C31.4307 26.1166 30.0035 22 25.2549 22ZM25.2549 29.4655C21.9259 29.4655 20.6362 27.0728 20.3239 26.3549C20.6374 25.6345 21.9277 23.2443 25.2549 23.2443C28.5839 23.2443 29.8735 25.6369 30.1858 26.3549C29.8723 27.0753 28.582 29.4655 25.2549 29.4655Z" fill="#66B127"/>
<path fill-rule="evenodd" clip-rule="evenodd" d="M22.5535 21.2755C23.2002 20.943 23.5552 20.9433 24.3054 20.944L24.4124 20.944H24.4152C24.4991 20.944 24.5382 20.8477 24.4767 20.7942C23.6189 20.0573 22.6389 19.4621 21.577 19.0331C21.5714 19.0304 21.5658 19.0284 21.5602 19.0264L21.5602 19.0264C21.5546 19.0244 21.549 19.0224 21.5434 19.0197C23.2799 17.8127 24.4096 15.8509 24.4096 13.6375C24.4096 9.9708 21.3113 7 17.4888 7C13.6664 7 10.5709 9.9708 10.5709 13.6375C10.5709 15.8509 11.7006 17.8127 13.4399 19.0197C13.4343 19.0224 13.4287 19.0244 13.4231 19.0264C13.4215 19.027 13.4199 19.0275 13.4184 19.0281C13.4143 19.0296 13.4103 19.0312 13.4063 19.0331C12.1564 19.5389 11.0351 20.2642 10.0704 21.1903C9.11123 22.1066 8.34763 23.1929 7.82217 24.3886C7.30518 25.5594 7.02616 26.8138 7.00007 28.0847C6.99932 28.1132 7.00456 28.1417 7.01547 28.1683C7.02637 28.1949 7.04273 28.2191 7.06358 28.2395C7.08443 28.26 7.10934 28.2762 7.13685 28.2873C7.16436 28.2984 7.19392 28.3041 7.22377 28.3041L8.2763 28.2934C8.39654 28.2934 8.4972 28.1998 8.5 28.0847C8.55593 26.0185 9.47044 23.9667 11 22.5C12.5799 20.9825 15.2546 20.2749 17.4916 20.2749C19.0771 20.2749 21.0156 20.4806 22.327 21.2675C22.3607 21.2877 22.3994 21.2991 22.4391 21.3005C22.4789 21.3019 22.5183 21.2933 22.5535 21.2755ZM17.564 18.8041C16.2833 18.8041 15 18.3041 14 17.8041C13.4471 17.5277 12.7414 16.5586 12.5 16C12.2586 15.4414 11.9986 14.4086 12 13.8041C12 12.5757 12.594 10.8698 13.5 10C14.406 9.13017 16.2054 8.30414 17.4888 8.30414C18.7723 8.30414 20.5912 9.13017 21.5 10C21.9471 10.4269 22.2586 10.9414 22.5 11.5C22.7414 12.0586 23.0014 13.3955 23 14C23 15.2285 22.406 16.6302 21.5 17.5C20.5912 18.3698 18.8447 18.8041 17.564 18.8041Z" fill="#66B127"/>
</svg>
