<svg width="36" height="36" viewBox="0 0 36 36" fill="none" xmlns="http://www.w3.org/2000/svg">
<rect width="36" height="36" rx="5" fill="#AFFFCF" fill-opacity="0.2"/>
<path d="M28 29.7754H22V23.2684H28V29.7754ZM23.5 28.1487H26.5V24.8951H23.5V28.1487ZM20.5 27.3353H11.5C10.3065 27.3353 9.16193 26.8211 8.31802 25.9059C7.47411 24.9906 7 23.7493 7 22.455C7 21.1607 7.47411 19.9193 8.31802 19.0041C9.16193 18.0889 10.3065 17.5747 11.5 17.5747H13V19.2015H11.5C10.7044 19.2015 9.94129 19.5442 9.37868 20.1544C8.81607 20.7646 8.5 21.5921 8.5 22.455C8.5 23.3179 8.81607 24.1454 9.37868 24.7556C9.94129 25.3657 10.7044 25.7085 11.5 25.7085H20.5V27.3353Z" fill="#66B127"/>
<path d="M20.5 21.6407H14.5V15.1337H20.5V21.6407ZM16 20.0139H19V16.7604H16V20.0139Z" fill="#66B127"/>
<path d="M23.5 19.2007H22V17.5739H23.5C24.2956 17.5739 25.0587 17.2312 25.6213 16.621C26.1839 16.0109 26.5 15.1833 26.5 14.3204C26.5 13.4575 26.1839 12.63 25.6213 12.0198C25.0587 11.4097 24.2956 11.0669 23.5 11.0669H14.5V9.44014H23.5C24.6935 9.44014 25.8381 9.95431 26.682 10.8695C27.5259 11.7848 28 13.0261 28 14.3204C28 15.6148 27.5259 16.8561 26.682 17.7713C25.8381 18.6865 24.6935 19.2007 23.5 19.2007ZM13 13.507H7V7H13V13.507ZM8.5 11.8803H11.5V8.62676H8.5V11.8803Z" fill="#66B127"/>
</svg>
