<svg width="36" height="36" viewBox="0 0 36 36" fill="none" xmlns="http://www.w3.org/2000/svg">
<rect width="36" height="36" rx="5" fill="#AFFFCF" fill-opacity="0.2"/>
<path d="M27.2484 5.3333C27.5681 5.47872 27.6673 5.70213 27.6665 6.00619C27.6597 13.3296 27.6578 20.6528 27.661 27.9757C27.661 28.4814 27.472 28.6367 26.8665 28.64H25.3335C25.3027 28.6454 25.2727 28.6534 25.2438 28.6638C25.2438 29.1126 25.2438 29.5714 25.2438 30.0301C25.2438 30.5027 25.0461 30.6666 24.4784 30.6666C23.5934 30.6666 22.7092 30.6666 21.825 30.6666C21.3384 30.6666 21.1203 30.4849 21.1164 30.0803C21.1164 29.611 21.1164 29.1417 21.1164 28.6546H15.2166C15.2166 29.1133 15.2166 29.5722 15.2166 30.0314C15.2166 30.5027 15.0174 30.6666 14.4497 30.6666C13.5647 30.6666 12.6805 30.6666 11.7963 30.6666C11.3097 30.6666 11.0932 30.4842 11.0877 30.0797C11.0877 29.6104 11.0877 29.1411 11.0877 28.6367H10.7641C10.2822 28.6367 9.8011 28.6407 9.32002 28.6367C8.91216 28.6314 8.6854 28.4384 8.6728 28.0973C8.6728 28.0564 8.6728 28.0154 8.6728 27.9737C8.6728 20.6517 8.6707 13.3291 8.6665 6.00619C8.6665 5.70213 8.76492 5.47872 9.08538 5.3333H27.2484ZM26.461 23.202V6.33537H9.87433V23.1987H11.0286V8.04669C11.0286 7.50269 11.2003 7.35859 11.8498 7.35859H24.4682C25.132 7.35859 25.2989 7.50004 25.2989 8.06321V23.2L26.461 23.202ZM26.461 27.6379V24.2252H9.86645V27.6379H26.461ZM24.106 20.2606H12.2262V23.1994H24.106V20.2606ZM12.2238 15.2681H24.0989V12.326H12.2238V15.2681ZM24.1052 16.2946H12.2341V19.2367H24.1052V16.2946ZM12.2333 8.35802V11.3094H24.0989V8.35802H12.2333ZM12.2908 28.6506V29.658H14.0206V28.6506H12.2908ZM24.0383 29.6712V28.6519H22.3061V29.6712H24.0383Z" fill="#71B626"/>
<path d="M16.1673 25.9214C16.1732 26.0202 16.1732 26.1193 16.1673 26.2181C16.1547 26.3343 16.0922 26.4427 15.9916 26.5232C15.8909 26.6037 15.7589 26.6508 15.6201 26.6557C15.3516 26.6683 15.0752 26.5189 15.0374 26.2876C14.9992 26.0434 14.9992 25.796 15.0374 25.5519C15.0744 25.3073 15.3524 25.1599 15.6398 25.1771C15.7776 25.1853 15.9071 25.2354 16.0041 25.318C16.1011 25.4006 16.1588 25.5101 16.1665 25.6259C16.1775 25.7244 16.1665 25.8242 16.1665 25.9227L16.1673 25.9214Z" fill="#71B626"/>
<path d="M23.8904 25.9241C23.8963 26.0227 23.8963 26.1216 23.8904 26.2202C23.8776 26.3321 23.8186 26.4367 23.7238 26.516C23.6289 26.5952 23.504 26.6442 23.3707 26.6545C23.1054 26.6783 22.807 26.5355 22.7692 26.3095C22.7267 26.0496 22.7267 25.7861 22.7692 25.5262C22.8062 25.2962 23.0841 25.16 23.3652 25.1772C23.4988 25.1842 23.6251 25.2308 23.7215 25.3088C23.8178 25.3868 23.878 25.491 23.8912 25.6029C23.8976 25.7099 23.8974 25.8171 23.8904 25.9241Z" fill="#71B626"/>
<path d="M12.4385 25.9092C12.4326 25.8106 12.4326 25.7117 12.4385 25.6131C12.4497 25.5012 12.5076 25.3962 12.6019 25.3167C12.6963 25.2371 12.821 25.188 12.9543 25.1782C13.2432 25.155 13.5251 25.2985 13.5684 25.5404C13.6089 25.7763 13.6129 26.0155 13.5802 26.2523C13.5602 26.3725 13.4856 26.4816 13.372 26.5567C13.2585 26.6318 13.1147 26.6672 12.9708 26.6555C12.8273 26.6463 12.6929 26.5928 12.5937 26.5053C12.4945 26.4177 12.4375 26.3023 12.4338 26.1815C12.4267 26.091 12.4338 26.0004 12.4338 25.9092H12.4385Z" fill="#71B626"/>
<path d="M21.3439 25.9515C21.339 26.0642 21.3246 26.1764 21.3006 26.2873C21.271 26.4008 21.1938 26.5016 21.083 26.5712C20.9723 26.6408 20.8354 26.6747 20.6973 26.6666C20.5593 26.6585 20.4293 26.609 20.3312 26.5271C20.2331 26.4452 20.1733 26.3364 20.1628 26.2205C20.1467 26.0313 20.1451 25.8415 20.1581 25.6521C20.159 25.5313 20.2146 25.4152 20.3136 25.3275C20.4125 25.2397 20.5475 25.1868 20.6912 25.1795C20.8399 25.1689 20.9877 25.2069 21.1039 25.2856C21.2201 25.3643 21.2956 25.4776 21.3148 25.6018C21.3315 25.7179 21.3412 25.8346 21.3439 25.9515V25.9515Z" fill="#71B626"/>
<path d="M18.7518 25.9388C18.7518 26.0208 18.7589 26.1034 18.7518 26.1847C18.7441 26.3106 18.679 26.4291 18.5702 26.5159C18.4613 26.6026 18.3169 26.651 18.1668 26.651C18.0167 26.651 17.8723 26.6026 17.7635 26.5159C17.6546 26.4291 17.5896 26.3106 17.5818 26.1847C17.5684 26.0047 17.5684 25.8241 17.5818 25.644C17.5896 25.5182 17.6546 25.3996 17.7635 25.3129C17.8723 25.2261 18.0167 25.1777 18.1668 25.1777C18.3169 25.1777 18.4613 25.2261 18.5702 25.3129C18.679 25.3996 18.7441 25.5182 18.7518 25.644C18.7597 25.7419 18.7518 25.8403 18.7518 25.9388Z" fill="#71B626"/>
<path d="M19.3758 22.2245C18.4231 22.2245 17.4704 22.2245 16.5177 22.2245C16.124 22.2245 15.8878 22.0626 15.8524 21.7876C15.8318 21.6676 15.8673 21.5456 15.9514 21.4471C16.0355 21.3486 16.1616 21.2811 16.3035 21.2588C16.4193 21.241 16.537 21.2335 16.6547 21.2363C18.4719 21.2363 20.2889 21.2363 22.1057 21.2363C22.2038 21.2342 22.302 21.2384 22.3993 21.2489C22.5479 21.2619 22.6844 21.3235 22.7793 21.4204C22.8742 21.5172 22.9198 21.6416 22.9064 21.7665C22.9031 21.8873 22.8436 22.0023 22.7406 22.0868C22.6376 22.1713 22.4993 22.2186 22.3553 22.2186C21.7254 22.2305 21.0955 22.2245 20.4695 22.2252C20.0994 22.2252 19.7357 22.2245 19.3758 22.2245Z" fill="#71B626"/>
<path d="M14.651 21.7381C14.6472 21.8663 14.5842 21.9883 14.4754 22.0785C14.3666 22.1686 14.2204 22.2198 14.0676 22.2213C13.9894 22.2215 13.912 22.2084 13.84 22.1829C13.7681 22.1573 13.703 22.1197 13.6488 22.0725C13.5945 22.0252 13.5523 21.9693 13.5245 21.9079C13.4968 21.8466 13.4841 21.7811 13.4873 21.7156C13.4908 21.586 13.5556 21.463 13.6672 21.3735C13.7788 21.284 13.9282 21.2354 14.0825 21.2383C14.2369 21.2413 14.3835 21.2957 14.4901 21.3894C14.5967 21.4831 14.6546 21.6085 14.651 21.7381V21.7381Z" fill="#71B626"/>
<path d="M19.3583 14.2935C18.3962 14.2935 17.4332 14.2975 16.4703 14.2935C16.0309 14.2935 15.7616 14.0086 15.8624 13.6735C15.927 13.456 16.1482 13.3086 16.4553 13.308C18.4006 13.3044 20.346 13.3044 22.2913 13.308C22.6574 13.308 22.8991 13.5149 22.9031 13.7951C22.907 14.0866 22.6598 14.2915 22.2732 14.2928C21.3039 14.2968 20.3315 14.2935 19.3583 14.2935Z" fill="#71B626"/>
<path d="M14.0555 14.2909C13.902 14.2884 13.756 14.2351 13.6492 14.1426C13.5424 14.0501 13.4835 13.9259 13.4854 13.7971C13.4874 13.6684 13.5485 13.5454 13.6561 13.4537C13.7637 13.3621 13.9093 13.3089 14.0625 13.3053C14.2212 13.3081 14.3721 13.3635 14.4823 13.4593C14.5925 13.5552 14.653 13.6837 14.6507 13.8169C14.6462 13.9459 14.581 14.0682 14.4695 14.1569C14.358 14.2457 14.2091 14.2939 14.0555 14.2909V14.2909Z" fill="#71B626"/>
<path d="M19.358 18.2578C18.3951 18.2578 17.4321 18.2618 16.47 18.2578C16.018 18.2578 15.744 17.9531 15.8684 17.6153C15.9471 17.3998 16.1747 17.2736 16.5148 17.2716C17.2125 17.2683 17.9101 17.2716 18.6077 17.2716C19.7958 17.2716 20.9847 17.267 22.1729 17.2776C22.3568 17.2784 22.5371 17.3214 22.6941 17.4018C22.9146 17.5221 22.9524 17.7323 22.8697 17.9339C22.8333 18.0339 22.7578 18.1205 22.6553 18.1798C22.5527 18.2391 22.4293 18.2675 22.3052 18.2605H19.6824L19.358 18.2578Z" fill="#71B626"/>
<path d="M14.0635 18.2557C13.9102 18.2538 13.764 18.2017 13.6559 18.1104C13.5479 18.0191 13.4868 17.8959 13.4856 17.7673C13.4835 17.7016 13.4971 17.6362 13.5258 17.5751C13.5544 17.5139 13.5975 17.4583 13.6523 17.4114C13.7071 17.3645 13.7727 17.3274 13.845 17.3022C13.9173 17.2771 13.9949 17.2644 14.0731 17.265C14.1514 17.2656 14.2287 17.2794 14.3005 17.3056C14.3722 17.3318 14.437 17.3699 14.4908 17.4176C14.5447 17.4652 14.5865 17.5215 14.6139 17.5831C14.6413 17.6447 14.6536 17.7102 14.6501 17.7759C14.6474 17.9046 14.5842 18.0273 14.4744 18.1171C14.3645 18.207 14.2169 18.2568 14.0635 18.2557Z" fill="#71B626"/>
<path d="M19.3591 10.3313H16.471C16.1994 10.3313 15.9876 10.2355 15.886 10.0226C15.7971 9.83425 15.816 9.63331 16.0096 9.49978C16.1356 9.41133 16.2915 9.35837 16.4553 9.34842C18.4001 9.3385 20.3457 9.34048 22.2905 9.34379C22.6558 9.34379 22.8991 9.54738 22.9031 9.82896C22.907 10.1105 22.6598 10.3274 22.2771 10.3293C21.3047 10.3346 20.3315 10.3313 19.3591 10.3313Z" fill="#71B626"/>
<path d="M14.651 9.82811C14.6524 9.92477 14.6196 10.0196 14.5568 10.1006C14.4939 10.1816 14.4039 10.2451 14.298 10.2832C14.1921 10.3212 14.0752 10.332 13.962 10.3142C13.8489 10.2964 13.7445 10.2508 13.6622 10.1832C13.5799 10.1156 13.5234 10.029 13.4997 9.93436C13.4761 9.83976 13.4864 9.74139 13.5294 9.65171C13.5723 9.56203 13.646 9.48508 13.7411 9.43058C13.8362 9.37609 13.9485 9.3465 14.0636 9.34558C14.2168 9.34672 14.3635 9.39759 14.473 9.48755C14.5825 9.5775 14.6463 9.69955 14.651 9.82811V9.82811Z" fill="#71B626"/>
</svg>
