<svg width="36" height="36" viewBox="0 0 36 36" fill="none" xmlns="http://www.w3.org/2000/svg">
<rect width="36" height="36" rx="5" fill="#AFFFCF" fill-opacity="0.2"/>
<path d="M18.0008 5.33331C13.9729 5.33331 10.667 8.66689 10.667 12.733C10.667 14.3088 11.1657 15.7772 12.0065 16.9801L11.9765 16.9326L16.6713 25.1424L16.695 25.1738C16.8842 25.4236 17.0714 25.6249 17.298 25.7765C17.5246 25.9281 17.8148 26.0238 18.0998 25.9948C18.6694 25.937 19.0003 25.5388 19.3061 25.1194L19.3252 25.0934L24.5011 16.1823L24.5052 16.1749C24.6292 15.9486 24.7189 15.7203 24.7956 15.4992C25.1506 14.6212 25.3333 13.6816 25.3337 12.733C25.3337 8.66689 22.0288 5.33331 18.0008 5.33331ZM18.0008 6.5698C21.3629 6.5698 24.1114 9.344 24.1114 12.733C24.1117 13.5245 23.9589 14.3085 23.6617 15.0408L23.6555 15.0561L23.6502 15.0722C23.5859 15.2594 23.516 15.4293 23.4353 15.5767L18.312 24.3968C18.0854 24.6987 17.927 24.7702 17.9778 24.7648C18.004 24.7623 18.0282 24.7831 17.9722 24.7455C17.9187 24.7096 17.8094 24.6045 17.6799 24.4373L13.021 16.2886L13.0046 16.2656C12.3023 15.2616 11.8892 14.0456 11.8892 12.733C11.8892 9.34424 14.6387 6.5698 18.0008 6.5698ZM18.0008 8.51109C15.6879 8.51109 13.8171 10.397 13.8171 12.733C13.8171 15.0689 15.6881 16.9548 18.0008 16.9548C20.3135 16.9548 22.1835 15.0687 22.1835 12.733C22.1835 10.397 20.3135 8.51109 18.0008 8.51109ZM18.0008 9.74759C19.6672 9.74759 20.9613 11.0546 20.9613 12.733C20.9613 14.4114 19.6674 15.7184 18.0008 15.7184C16.3342 15.7184 15.0394 14.4111 15.0394 12.733C15.0394 11.0546 16.3344 9.74759 18.0008 9.74759Z" fill="#71B625"/>
<path d="M14.002 22.6666C10.4705 23.1827 8.00049 24.4172 8.00049 26.2345C8.00049 28.6824 12.1275 30.6666 18.0005 30.6666C23.8735 30.6666 28.0005 28.6824 28.0005 26.2345C28.0005 24.4172 25.5307 23.1827 21.9995 22.6666L21.5102 23.5281C24.1717 23.91 26.0005 24.7125 26.0005 25.6437C26.0005 26.9494 22.4187 28.0076 18.0005 28.0076C13.5822 28.0076 10.0005 26.9494 10.0005 25.6437C10.0002 24.7156 11.817 23.9138 14.4867 23.5304C14.3255 23.2424 14.1632 22.9549 14.0017 22.6666H14.002Z" fill="#71B625"/>
</svg>
