<svg width="36" height="36" viewBox="0 0 36 36" fill="none" xmlns="http://www.w3.org/2000/svg">
<rect width="36" height="36" rx="5" fill="#AFFFCF" fill-opacity="0.2"/>
<path d="M18.0007 7C18.3001 7.00004 18.589 7.10995 18.8127 7.30889C19.0365 7.50783 19.1794 7.78196 19.2144 8.07929L19.223 8.2223V27.7791C19.2226 28.0906 19.1033 28.3902 18.8895 28.6168C18.6756 28.8433 18.3833 28.9796 18.0723 28.9979C17.7613 29.0162 17.4551 28.915 17.2162 28.715C16.9773 28.5151 16.8237 28.2314 16.7869 27.9221L16.7784 27.7791V8.2223C16.7784 7.89812 16.9072 7.58723 17.1364 7.358C17.3656 7.12878 17.6765 7 18.0007 7ZM13.1115 10.6669C13.4109 10.6669 13.6998 10.7768 13.9236 10.9758C14.1473 11.1747 14.2902 11.4489 14.3252 11.7462L14.3338 11.8892V24.1122C14.3334 24.4237 14.2141 24.7234 14.0003 24.9499C13.7864 25.1764 13.4941 25.3127 13.1831 25.331C12.8721 25.3493 12.5659 25.2481 12.327 25.0481C12.0881 24.8482 11.9345 24.5645 11.8977 24.2552L11.8892 24.1122V11.8892C11.8892 11.565 12.018 11.2541 12.2472 11.0249C12.4764 10.7957 12.7873 10.6669 13.1115 10.6669ZM22.8899 10.6669C23.1893 10.6669 23.4782 10.7768 23.7019 10.9758C23.9257 11.1747 24.0686 11.4489 24.1036 11.7462L24.1122 11.8892V24.1122C24.1118 24.4237 23.9925 24.7234 23.7787 24.9499C23.5648 25.1764 23.2725 25.3127 22.9615 25.331C22.6505 25.3493 22.3443 25.2481 22.1054 25.0481C21.8665 24.8482 21.7129 24.5645 21.6761 24.2552L21.6676 24.1122V11.8892C21.6676 11.565 21.7964 11.2541 22.0256 11.0249C22.2548 10.7957 22.5657 10.6669 22.8899 10.6669ZM8.2223 14.3338C8.52168 14.3338 8.81063 14.4437 9.03436 14.6427C9.25808 14.8416 9.40101 15.1157 9.43604 15.4131L9.4446 15.5561V20.4453C9.44425 20.7568 9.32496 21.0565 9.11109 21.283C8.89723 21.5095 8.60493 21.6459 8.29393 21.6641C7.98293 21.6824 7.67669 21.5812 7.43779 21.3812C7.19889 21.1813 7.04535 20.8976 7.00856 20.5883L7 20.4453V15.5561C7 15.2319 7.12878 14.921 7.358 14.6918C7.58723 14.4626 7.89812 14.3338 8.2223 14.3338ZM27.7791 14.3338C28.0784 14.3338 28.3674 14.4437 28.5911 14.6427C28.8148 14.8416 28.9578 15.1157 28.9928 15.4131L29.0014 15.5561V20.4453C29.001 20.7568 28.8817 21.0565 28.6679 21.283C28.454 21.5095 28.1617 21.6459 27.8507 21.6641C27.5397 21.6824 27.2335 21.5812 26.9946 21.3812C26.7556 21.1813 26.6021 20.8976 26.5653 20.5883L26.5568 20.4453V15.5561C26.5568 15.2319 26.6855 14.921 26.9148 14.6918C27.144 14.4626 27.4549 14.3338 27.7791 14.3338Z" fill="#66B127"/>
</svg>
