<svg width="54" height="54" viewBox="0 0 54 54" fill="none" xmlns="http://www.w3.org/2000/svg">
<rect width="54" height="54" rx="5" fill="#AFFFCF" fill-opacity="0.2"/>
<path d="M27.0007 8C20.9588 8 16 13.0004 16 19.0995C16 21.4632 16.748 23.6658 18.0093 25.4701L17.9642 25.3989L25.0064 37.7136L25.042 37.7607C25.3258 38.1354 25.6067 38.4373 25.9466 38.6647C26.2865 38.8921 26.7217 39.0357 27.1492 38.9923C28.0036 38.9055 28.5 38.3082 28.9587 37.6791L28.9873 37.6402L36.7511 24.2735L36.7574 24.2623C36.9433 23.9229 37.0778 23.5805 37.193 23.2489C37.7254 21.9318 37.9995 20.5225 38 19.0995C38 13.0004 33.0427 8 27.0007 8ZM27.0007 9.85474C32.0439 9.85474 36.1667 14.016 36.1667 19.0995C36.167 20.2868 35.9378 21.4628 35.492 22.5612L35.4828 22.5842L35.4748 22.6083C35.3783 22.8891 35.2735 23.1439 35.1525 23.365L27.4675 36.5952C27.1276 37.0481 26.89 37.1553 26.9663 37.1472C27.0055 37.1435 27.0418 37.1746 26.9578 37.1182C26.8775 37.0645 26.7136 36.9068 26.5193 36.656L19.531 24.433L19.5064 24.3985C18.453 22.8924 17.8333 21.0685 17.8333 19.0995C17.8333 14.0164 21.9576 9.85474 27.0007 9.85474ZM27.0007 12.7667C23.5313 12.7667 20.7252 15.5955 20.7252 19.0995C20.7252 22.6035 23.5317 25.4323 27.0007 25.4323C30.4698 25.4323 33.2748 22.6031 33.2748 19.0995C33.2748 15.5955 30.4698 12.7667 27.0007 12.7667ZM27.0007 14.6214C29.5003 14.6214 31.4414 16.5819 31.4414 19.0995C31.4414 21.6171 29.5007 23.5776 27.0007 23.5776C24.5008 23.5776 22.5586 21.6167 22.5586 19.0995C22.5586 16.5819 24.5012 14.6214 27.0007 14.6214Z" fill="#71B625"/>
<path d="M21.0023 34C15.705 34.7741 12 36.6259 12 39.3518C12 43.0236 18.1905 46 27 46C35.8095 46 42 43.0236 42 39.3518C42 36.6259 38.2954 34.7741 32.9985 34L32.2646 35.2922C36.2569 35.865 39 37.0687 39 38.4656C39 40.4241 33.6274 42.0114 27 42.0114C20.3726 42.0114 15 40.4241 15 38.4656C14.9996 37.0734 17.7248 35.8708 21.7294 35.2957C21.4875 34.8637 21.2441 34.4324 21.0019 34H21.0023Z" fill="#71B625"/>
</svg>
