<svg width="82" height="82" viewBox="0 0 82 82" fill="none" xmlns="http://www.w3.org/2000/svg">
<path fill-rule="evenodd" clip-rule="evenodd" d="M41 82C18.3552 82 0 63.6448 0 41C0 18.3552 18.3552 0 41 0C63.6448 0 82 18.3552 82 41C82 63.6448 63.6448 82 41 82ZM41.7175 59.7703C44.3518 61.5923 47.6932 62.6762 51.3115 62.6762C52.2109 62.6762 53.1001 62.6096 53.9739 62.4789C54.2738 62.6019 54.5633 62.7531 54.9195 62.9581C55.6882 63.4091 56.7158 64.1009 57.9945 65.0337C59.0426 65.7999 60.5263 65.0593 60.5263 63.7704V60.0266C61.0644 59.6781 61.5718 59.3014 62.0509 58.8939C64.9466 56.4391 66.625 53.0822 66.625 49.4819C66.625 47.1116 65.9075 44.895 64.6468 42.9808C64.2493 44.3401 63.7108 45.6541 63.0401 46.9014C63.3066 47.7291 63.4475 48.5927 63.4475 49.4819C63.4475 52.1315 62.197 54.6325 59.983 56.5083C59.4118 56.9908 58.7967 57.4189 58.1457 57.7869C57.9045 57.9232 57.7037 58.1208 57.5638 58.3598C57.4238 58.5988 57.3496 58.8707 57.3487 59.1476V60.7466C55.8292 59.7729 54.7863 59.3142 53.9919 59.3142C53.9026 59.3145 53.8134 59.3222 53.7254 59.3372C51.499 59.7096 49.2167 59.5604 47.0578 58.9016C45.3091 59.3558 43.5223 59.6474 41.7201 59.7729L41.7175 59.7703ZM22.5859 52.2827C23.4309 52.9977 24.3248 53.6527 25.2611 54.243V60.6287C25.2611 62.2431 27.1189 63.1656 28.4284 62.2072C32.0415 59.5679 34.5527 58.0765 35.1806 57.9279C36.6309 58.1585 38.1121 58.2738 39.6086 58.2738C52.9336 58.2738 63.8447 49.0309 63.8447 37.4663C63.8447 25.8992 52.931 16.6562 39.6086 16.6562C26.2861 16.6562 15.375 25.8992 15.375 37.4637C15.375 43.1269 18.0144 48.4082 22.5859 52.2827ZM35.2677 53.9893C33.9787 53.9893 32.0953 54.899 29.2356 56.8183V53.136C29.2343 52.7894 29.1411 52.4492 28.9656 52.1503C28.79 51.8514 28.5383 51.6044 28.2362 51.4345C27.1503 50.82 26.1243 50.1054 25.1714 49.2999C21.4481 46.1506 19.3469 41.9379 19.3469 37.4637C19.3469 28.2131 28.3566 20.582 39.6086 20.582C50.8631 20.582 59.8703 28.2131 59.8703 37.4637C59.8703 46.7144 50.8631 54.3481 39.6086 54.3481C38.2504 54.3481 36.9102 54.2353 35.6008 54.0149C35.4907 53.9972 35.3792 53.9886 35.2677 53.9893ZM29.2791 41.3921C31.0344 41.3921 32.4566 39.9827 32.4566 38.2504C32.4566 36.5156 31.0344 35.1088 29.2791 35.1088C27.5238 35.1088 26.1016 36.5156 26.1016 38.2504C26.1016 39.9852 27.5238 41.3921 29.2791 41.3921ZM39.6086 41.3921C41.3639 41.3921 42.7861 39.9827 42.7861 38.2504C42.7861 36.5156 41.3639 35.1088 39.6086 35.1088C37.8532 35.1088 36.4311 36.5156 36.4311 38.2504C36.4311 39.9852 37.8532 41.3921 39.6086 41.3921ZM49.938 41.3921C51.6933 41.3921 53.1155 39.9827 53.1155 38.2504C53.1155 36.5156 51.6933 35.1088 49.938 35.1088C48.1827 35.1088 46.7605 36.5156 46.7605 38.2504C46.7605 39.9852 48.1827 41.3921 49.938 41.3921Z" fill="url(#paint0_linear_271_1018)"/>
<defs>
<linearGradient id="paint0_linear_271_1018" x1="41" y1="108.5" x2="37" y2="1.14684e-06" gradientUnits="userSpaceOnUse">
<stop stop-color="#3D9E47"/>
<stop offset="1" stop-color="#66B127"/>
</linearGradient>
</defs>
</svg>
