<svg width="72" height="72" viewBox="0 0 72 72" fill="none" xmlns="http://www.w3.org/2000/svg">
<rect width="72" height="72" rx="5" fill="#AFFFCF" fill-opacity="0.2"/>
<path d="M36.0033 42.611C39.5011 42.611 42.3366 39.6411 42.3366 35.9776C42.3366 32.3141 39.5011 29.3442 36.0033 29.3442C32.5055 29.3442 29.6699 32.3141 29.6699 35.9776C29.6699 39.6411 32.5055 42.611 36.0033 42.611Z" stroke="#71B626" stroke-width="4" stroke-linecap="round" stroke-linejoin="round"/>
<path d="M36 55.8779V55.9M17 29.3444V29.3665M55 29.3444V29.3665M27.5556 53.8879C24.6746 52.4161 22.196 50.2049 20.3504 47.46C18.5048 44.7151 17.3523 41.5258 17 38.1889M44.4444 53.8879C47.3254 52.4161 49.804 50.2049 51.6496 47.46C53.4952 44.7151 54.6477 41.5258 55 38.1889M23.7556 20.4998C27.1504 17.5899 31.4021 16 35.7889 16C40.1757 16 44.4274 17.5899 47.8222 20.4998" stroke="#71B626" stroke-width="4" stroke-linecap="round" stroke-linejoin="round"/>
</svg>
