<svg width="72" height="72" viewBox="0 0 72 72" fill="none" xmlns="http://www.w3.org/2000/svg">
<rect width="72" height="72" rx="5" fill="#AFFFCF" fill-opacity="0.2"/>
<path d="M56.9441 57.99H45.2458V45.4219H56.9441V57.99ZM48.1704 54.848H54.0195V48.5639H48.1704V54.848ZM42.3212 53.2769H24.7737C22.4468 53.2769 20.2152 52.2838 18.5698 50.5161C16.9244 48.7484 16 46.3508 16 43.8508C16 41.3509 16.9244 38.9533 18.5698 37.1856C20.2152 35.4178 22.4468 34.4247 24.7737 34.4247H27.6983V37.5668H24.7737C23.2224 37.5668 21.7347 38.2288 20.6378 39.4073C19.5408 40.5858 18.9246 42.1842 18.9246 43.8508C18.9246 45.5175 19.5408 47.1159 20.6378 48.2943C21.7347 49.4728 23.2224 50.1349 24.7737 50.1349H42.3212V53.2769Z" fill="#7DC547"/>
<path d="M42.3194 42.2781H30.6211V29.7099H42.3194V42.2781ZM33.5457 39.136H39.3948V32.8519H33.5457V39.136Z" fill="#7DC547"/>
<path d="M48.1704 37.5653H45.2458V34.4232H48.1704C49.7216 34.4232 51.2094 33.7612 52.3063 32.5827C53.4033 31.4042 54.0195 29.8058 54.0195 28.1392C54.0195 26.4725 53.4033 24.8741 52.3063 23.6957C51.2094 22.5172 49.7216 21.8551 48.1704 21.8551H30.6229V18.7131H48.1704C50.4973 18.7131 52.7289 19.7062 54.3743 21.4739C56.0197 23.2416 56.9441 25.6392 56.9441 28.1392C56.9441 30.6391 56.0197 33.0367 54.3743 34.8044C52.7289 36.5722 50.4973 37.5653 48.1704 37.5653ZM27.6983 26.5681H16V14H27.6983V26.5681ZM18.9246 23.4261H24.7737V17.142H18.9246V23.4261Z" fill="#7DC547"/>
</svg>
