<svg width="25" height="22" viewBox="0 0 25 22" fill="none" xmlns="http://www.w3.org/2000/svg">
<path d="M7.88628 2.55682L7.93955 3.33717C8.56687 3.33717 9.18574 3.36423 9.79953 3.32787C10.2223 3.30251 10.4869 3.4344 10.7295 3.79794C11.6595 5.17687 12.6377 6.52198 13.5753 7.89583C13.7765 8.19089 13.9938 8.3008 14.3413 8.28643C14.9331 8.26107 15.5198 8.26952 16.1091 8.28643C16.6308 8.29911 16.8075 8.50371 16.8049 9.0355C16.8049 9.50219 16.5699 9.74652 16.1049 9.7499C15.2594 9.75582 14.4038 9.78118 13.5567 9.73299C13.3335 9.72031 13.0562 9.5174 12.9192 9.32126C11.969 7.95671 11.0432 6.57524 10.1242 5.18955C9.94495 4.91816 9.76064 4.77697 9.4157 4.80234C8.93548 4.83784 8.4502 4.81164 7.94208 4.81164C7.91587 5.13629 7.89389 5.41951 7.86684 5.76784L6.01953 4.37961L7.88628 2.55682Z" fill="#71B626"/>
<path d="M15.8501 5.79866V4.83062C14.751 4.82554 13.5919 4.46538 12.9307 5.8832L12.0371 4.74438C12.853 3.43901 14.1905 3.07462 15.8163 3.40434C15.8391 3.04503 15.8552 2.77787 15.8687 2.56566L17.6788 4.42565L15.8501 5.79866Z" fill="#71B626"/>
<path d="M10.3946 6.81413L11.3246 7.87517C10.9763 8.38244 10.5924 8.97426 10.1697 9.5424C10.0776 9.66583 9.84506 9.73516 9.67513 9.74023C8.98186 9.76221 8.28775 9.73516 7.59448 9.75376C7.04494 9.76898 6.97054 9.39275 6.9587 8.99877C6.94687 8.60479 7.08383 8.27761 7.57588 8.28099C8.06793 8.28437 8.54899 8.30973 9.0309 8.26577C9.25434 8.23675 9.46005 8.1288 9.61087 7.96141C9.89325 7.619 10.1181 7.22587 10.3946 6.81413Z" fill="#71B626"/>
<path d="M6.94629 15.9794H9.02947V17.0463H6.94629V15.9794Z" fill="#71B626"/>
<path d="M12.6629 17.0539H10.5713V15.9845H12.6629V17.0539Z" fill="#71B626"/>
<path d="M9.04385 14.2994V15.2928H6.94629V14.2994H9.04385Z" fill="#71B626"/>
<path d="M10.5605 15.2945V14.2977H12.6666V15.2945H10.5605Z" fill="#71B626"/>
<path d="M4.58365 16.2474C4.48845 16.2491 4.3939 16.2313 4.30581 16.1951C4.21772 16.159 4.13794 16.1052 4.07137 16.0371C4.00479 15.9691 3.95282 15.8881 3.91865 15.7992C3.88448 15.7104 3.86882 15.6154 3.87263 15.5203C3.87263 15.128 4.22349 14.7594 4.59718 14.8017C4.99961 14.8473 5.26509 15.0739 5.28199 15.5085C5.28841 15.6037 5.27506 15.6993 5.24277 15.7891C5.21048 15.879 5.15996 15.9612 5.09438 16.0306C5.0288 16.1 4.94957 16.1551 4.86168 16.1924C4.77379 16.2297 4.67913 16.2484 4.58365 16.2474Z" fill="#71B626"/>
<path fill-rule="evenodd" clip-rule="evenodd" d="M17.7071 13.2929C17.3166 12.9024 16.6834 12.9024 16.2929 13.2929C15.9024 13.6834 15.9024 14.3166 16.2929 14.7071L19.0858 17.5L16.2929 20.2929C15.9024 20.6834 15.9024 21.3166 16.2929 21.7071C16.6834 22.0976 17.3166 22.0976 17.7071 21.7071L20.5 18.9142L23.2929 21.7071C23.6834 22.0976 24.3166 22.0976 24.7071 21.7071C25.0976 21.3166 25.0976 20.6834 24.7071 20.2929L21.9142 17.5L24.7071 14.7071C25.0976 14.3166 25.0976 13.6834 24.7071 13.2929C24.3166 12.9024 23.6834 12.9024 23.2929 13.2929L20.5 16.0858L17.7071 13.2929Z" fill="#71B626"/>
<path fill-rule="evenodd" clip-rule="evenodd" d="M3.31565 19.8752H11.7921C12.1948 19.8759 12.5974 19.8766 13 19.877V18.4309C12.5883 18.4311 12.1767 18.4312 11.7651 18.4312L2.81768 18.4304C2.17006 18.4295 2.13202 18.3949 2.13202 17.7591C2.13119 17.2925 2.13227 16.8258 2.13335 16.3592C2.13556 15.4039 2.13777 14.4486 2.12356 13.4938C2.11596 13.0381 2.28589 12.8783 2.72891 12.8783C6.15271 12.8828 9.57642 12.8847 13 12.8841V11.6426L2.70608 11.6431C2.7484 11.3241 2.78987 11.0064 2.83118 10.6899C2.91283 10.0645 2.99388 9.44359 3.07977 8.82607C3.18316 8.08359 3.28784 7.34127 3.39251 6.59894C3.62849 4.92546 3.86447 3.25192 4.08585 1.57635C4.13151 1.22971 4.25325 1.15362 4.57367 1.15362C9.39104 1.16602 14.2084 1.16602 19.0258 1.15362C19.3944 1.15278 19.4967 1.29819 19.5449 1.62369C19.8419 3.62824 20.1462 5.63134 20.4504 7.63409C20.5488 8.28198 20.6473 8.92982 20.7454 9.57767C20.8025 9.95555 20.859 10.3337 20.9173 10.7237C20.931 10.8151 20.9447 10.9072 20.9586 11H22.211C22.156 10.6434 22.094 10.2875 22.0321 9.93175C21.9884 9.68128 21.9448 9.43087 21.9037 9.18031C21.7915 8.49612 21.68 7.8118 21.5684 7.12748C21.268 5.28427 20.9675 3.44102 20.655 1.60002C20.4808 0.572799 19.8281 0.0046576 18.8508 0.0046576C14.1202 -0.00154236 9.38766 -0.00154236 4.65315 0.0046576C3.66144 0.00634849 3.01805 0.614226 2.8608 1.60002C2.78909 2.04561 2.7176 2.49133 2.6461 2.93712C2.3231 4.95098 1.99991 6.96604 1.65519 8.97487C1.23838 11.348 0.829182 13.717 0.978827 16.1426C0.995734 16.4537 0.990101 16.7659 0.984465 17.0782C0.981646 17.2345 0.978827 17.3907 0.978827 17.5469C0.979672 19.0856 1.76932 19.8744 3.31565 19.8752Z" fill="#71B626"/>
</svg>
