<svg width="22" height="21" viewBox="0 0 22 21" fill="none" xmlns="http://www.w3.org/2000/svg">
<path d="M13.2871 17.1953H16.4135V20.3217H13.2871V17.1953Z" fill="#C5C5C5"/>
<path d="M18.7588 17.1953H21.8852V20.3217H18.7588V17.1953Z" fill="#C5C5C5"/>
<path d="M13.2871 11.7246H16.4135V14.851H13.2871V11.7246Z" fill="#C5C5C5"/>
<path d="M18.7588 11.7246H21.8852V14.851H18.7588V11.7246Z" fill="#C5C5C5"/>
<path d="M11.724 17.1952H1.5632V6.2528H20.3216V10.1608H21.8848V6.2528C21.8844 5.83834 21.7196 5.44098 21.4265 5.14791C21.1334 4.85484 20.7361 4.69002 20.3216 4.6896H15.632V1.5632C15.6316 1.14874 15.4668 0.751375 15.1737 0.458308C14.8806 0.165241 14.4833 0.000413839 14.0688 0H7.81601C7.40155 0.000413839 7.00418 0.165241 6.71111 0.458308C6.41805 0.751375 6.25322 1.14874 6.2528 1.5632V4.6896H1.5632C1.14874 4.69002 0.751375 4.85484 0.458308 5.14791C0.165241 5.44098 0.000413839 5.83834 0 6.2528V17.1952C0.000413839 17.6097 0.165241 18.007 0.458308 18.3001C0.751375 18.5932 1.14874 18.758 1.5632 18.7584H11.724V17.1952ZM7.81601 1.5632H14.0688V4.6896H7.81601V1.5632Z" fill="#C5C5C5"/>
</svg>
