<svg width="21" height="21" viewBox="0 0 21 21" fill="none" xmlns="http://www.w3.org/2000/svg">
<path d="M20.5 20.5007H14.6429V14.6436H20.5V20.5007ZM16.1071 19.0364H19.0357V16.1078H16.1071V19.0364ZM13.1786 18.3043H4.39286C3.2278 18.3043 2.11046 17.8415 1.28664 17.0176C0.462818 16.1938 0 15.0765 0 13.9114C0 12.7464 0.462818 11.629 1.28664 10.8052C2.11046 9.98137 3.2278 9.51855 4.39286 9.51855H5.85714V10.9828H4.39286C3.61615 10.9828 2.87126 11.2914 2.32204 11.8406C1.77283 12.3898 1.46429 13.1347 1.46429 13.9114C1.46429 14.6881 1.77283 15.433 2.32204 15.9822C2.87126 16.5314 3.61615 16.84 4.39286 16.84H13.1786V18.3043Z" fill="#C5C5C5"/>
<path d="M13.1784 13.1784H7.32129V7.32129H13.1784V13.1784ZM8.78557 11.7141H11.7141V8.78557H8.78557V11.7141Z" fill="#C5C5C5"/>
<path d="M16.1071 10.9821H14.6429V9.51786H16.1071C16.8838 9.51786 17.6287 9.20931 18.178 8.6601C18.7272 8.11088 19.0357 7.36599 19.0357 6.58929C19.0357 5.81258 18.7272 5.06769 18.178 4.51847C17.6287 3.96926 16.8838 3.66071 16.1071 3.66071H7.32143V2.19643H16.1071C17.2722 2.19643 18.3895 2.65925 19.2134 3.48307C20.0372 4.30689 20.5 5.42423 20.5 6.58929C20.5 7.75434 20.0372 8.87168 19.2134 9.69551C18.3895 10.5193 17.2722 10.9821 16.1071 10.9821ZM5.85714 5.85714H0V0H5.85714V5.85714ZM1.46429 4.39286H4.39286V1.46429H1.46429V4.39286Z" fill="#C5C5C5"/>
</svg>
