<svg width="52" height="52" viewBox="0 0 52 52" fill="none" xmlns="http://www.w3.org/2000/svg">
<rect width="52" height="52" rx="5" fill="#AFFFCF" fill-opacity="0.2"/>
<path d="M26.0005 7.7037C20.1824 7.7037 15.4072 12.5189 15.4072 18.3921C15.4072 20.6682 16.1275 22.7893 17.3421 24.5268L17.2987 24.4582L24.0801 36.3168L24.1143 36.3622C24.3876 36.723 24.6581 37.0137 24.9854 37.2327C25.3127 37.4517 25.7318 37.5899 26.1435 37.5481C26.9662 37.4645 27.4443 36.8894 27.886 36.2836L27.9135 36.2461L35.3898 23.3744L35.3958 23.3637C35.5748 23.0369 35.7044 22.7072 35.8153 22.3878C36.328 21.1195 36.5919 19.7624 36.5924 18.3921C36.5924 12.5189 31.8187 7.7037 26.0005 7.7037ZM26.0005 9.48975C30.8569 9.48975 34.827 13.4969 34.827 18.3921C34.8273 19.5355 34.6066 20.6679 34.1773 21.7256L34.1685 21.7477L34.1607 21.7709C34.0678 22.0413 33.9669 22.2867 33.8503 22.4996L26.45 35.2398C26.1227 35.676 25.8939 35.7792 25.9673 35.7714C26.0051 35.7678 26.0401 35.7978 25.9592 35.7435C25.8819 35.6917 25.7241 35.5399 25.5369 35.2984L18.8074 23.528L18.7838 23.4948C17.7694 22.0446 17.1727 20.2882 17.1727 18.3921C17.1727 13.4973 21.1442 9.48975 26.0005 9.48975ZM26.0005 12.2938C22.6596 12.2938 19.9575 15.0179 19.9575 18.3921C19.9575 21.7663 22.66 24.4904 26.0005 24.4904C29.3411 24.4904 32.0422 21.7659 32.0422 18.3921C32.0422 15.0179 29.3411 12.2938 26.0005 12.2938ZM26.0005 14.0799C28.4075 14.0799 30.2768 15.9677 30.2768 18.3921C30.2768 20.8165 28.4079 22.7043 26.0005 22.7043C23.5932 22.7043 21.7229 20.8161 21.7229 18.3921C21.7229 15.9677 23.5935 14.0799 26.0005 14.0799Z" fill="#71B625"/>
<path d="M20.2245 32.7408C15.1234 33.4862 11.5557 35.2694 11.5557 37.8943C11.5557 41.4301 17.5169 44.2963 26.0001 44.2963C34.4833 44.2963 40.4446 41.4301 40.4446 37.8943C40.4446 35.2694 36.8771 33.4862 31.7764 32.7408L31.0697 33.9851C34.9141 34.5367 37.5557 35.6958 37.5557 37.041C37.5557 38.9269 32.382 40.4554 26.0001 40.4554C19.6182 40.4554 14.4446 38.9269 14.4446 37.041C14.4442 35.7003 17.0684 34.5423 20.9247 33.9884C20.6918 33.5724 20.4574 33.1571 20.2241 32.7408H20.2245Z" fill="#71B625"/>
</svg>
