<svg width="14" height="14" viewBox="0 0 14 14" fill="none" xmlns="http://www.w3.org/2000/svg">
<path fill-rule="evenodd" clip-rule="evenodd" d="M7 0.504456C7.60931 0.504456 8.10381 0.998963 8.10381 1.60827V5.89502L12.3962 5.89532C13.0055 5.89532 13.5 6.38983 13.5 6.99913C13.5 7.60843 13.0055 8.10294 12.3962 8.10294L8.10381 8.10264V12.3918C8.10381 13.0011 7.60931 13.4956 7 13.4956C6.3907 13.4956 5.89619 13.0011 5.89619 12.3918V8.10264L1.60384 8.10294C0.993066 8.10294 0.500031 7.60843 0.500031 6.99913C0.500031 6.38983 0.993066 5.89532 1.60384 5.89532L5.89619 5.89502V1.60827C5.89619 0.998963 6.3907 0.504456 7 0.504456Z" fill="#66B127"/>
</svg>
