<svg width="37" height="37" viewBox="0 0 37 37" fill="none" xmlns="http://www.w3.org/2000/svg">
<rect width="36.9231" height="36.9231" rx="8.61539" fill="#EEEEEE"/>
<path d="M18.4614 21.4619V20.4619C18.4614 19.4619 18.4614 18.9619 19.4614 18.4619C20.4614 17.9619 21.4614 17.4619 21.4614 15.9619C21.4614 14.9619 20.4614 13.4619 18.4614 13.4619C16.4614 13.4619 15.4614 14.7259 15.4614 16.4619M18.4614 22.4619V24.4619M8.46143 10.4519C8.46143 9.35391 9.35943 8.46191 10.4514 8.46191H26.4714C27.5694 8.46191 28.4614 9.35991 28.4614 10.4519V26.4719C28.4614 27.5709 27.5634 28.4619 26.4714 28.4619H10.4514C9.92405 28.4606 9.41865 28.2505 9.04574 27.8776C8.67283 27.5047 8.46275 26.9993 8.46143 26.4719V10.4519Z" stroke="#999999" stroke-width="2"/>
</svg>
