<svg width="21" height="21" viewBox="0 0 21 21" fill="none" xmlns="http://www.w3.org/2000/svg">
<path d="M13.1845 0C11.9603 0.0014759 10.7538 0.292369 9.6634 0.848942C8.57304 1.40551 7.62972 2.212 6.91041 3.20258C6.1911 4.19316 5.71619 5.33978 5.52443 6.54886C5.33267 7.75795 5.42948 8.99524 5.80698 10.1598L0.222985 15.7341C0.0789466 15.8818 -0.0011508 16.0803 1.24962e-05 16.2867V20.1644C1.24962e-05 20.3701 0.0817226 20.5674 0.227167 20.7128C0.372612 20.8583 0.569878 20.94 0.775568 20.94H4.65335C4.85904 20.94 5.0563 20.8583 5.20175 20.7128C5.34719 20.5674 5.4289 20.3701 5.4289 20.1644V18.6133H6.98001C7.1857 18.6133 7.38297 18.5316 7.52841 18.3862C7.67386 18.2407 7.75557 18.0435 7.75557 17.8378V16.2867H9.30668C9.51301 16.2878 9.71152 16.2077 9.85926 16.0637L10.7802 15.133C11.846 15.4786 12.9739 15.5891 14.0865 15.457C15.199 15.3249 16.2697 14.9534 17.225 14.3679C18.1802 13.7825 18.9972 12.997 19.6198 12.0656C20.2425 11.1342 20.6559 10.0789 20.8317 8.97243C21.0075 7.86595 20.9414 6.73452 20.6381 5.65599C20.3348 4.57747 19.8015 3.57746 19.0747 2.72479C18.348 1.87211 17.4451 1.18702 16.4283 0.716638C15.4115 0.246261 14.3048 0.00177351 13.1845 0ZM13.1845 13.96C12.3979 13.9615 11.6182 13.8135 10.8869 13.5238C10.7447 13.4616 10.587 13.444 10.4347 13.4735C10.2823 13.5029 10.1425 13.5779 10.0338 13.6886L8.98676 14.7356H6.98001C6.77432 14.7356 6.57706 14.8173 6.43161 14.9627C6.28617 15.1082 6.20446 15.3054 6.20446 15.5111V17.0622H4.65335C4.44766 17.0622 4.25039 17.1439 4.10495 17.2894C3.9595 17.4348 3.87779 17.6321 3.87779 17.8378V19.3889H1.55112V16.6066L7.25146 10.9062C7.36211 10.7975 7.43712 10.6577 7.46655 10.5053C7.49598 10.353 7.47844 10.1953 7.41626 10.0531C6.92474 8.82018 6.84157 7.46209 7.17898 6.17837C7.51639 4.89464 8.25659 3.75296 9.29085 2.92104C10.3251 2.08911 11.5989 1.61079 12.9251 1.55634C14.2513 1.50189 15.56 1.87418 16.659 2.61852C17.758 3.36287 18.5893 4.44003 19.0308 5.69177C19.4723 6.94351 19.5007 8.30385 19.1119 9.57295C18.7231 10.8421 17.9376 11.953 16.8707 12.7427C15.8038 13.5323 14.5118 13.959 13.1845 13.96ZM16.2867 5.81667C16.2867 6.04675 16.2184 6.27167 16.0906 6.46298C15.9628 6.65429 15.7811 6.8034 15.5685 6.89145C15.356 6.9795 15.1221 7.00253 14.8964 6.95765C14.6707 6.91276 14.4634 6.80196 14.3007 6.63927C14.138 6.47657 14.0273 6.26929 13.9824 6.04362C13.9375 5.81796 13.9605 5.58405 14.0486 5.37148C14.1366 5.15891 14.2857 4.97722 14.477 4.84939C14.6683 4.72156 14.8933 4.65333 15.1233 4.65333C15.4319 4.65333 15.7278 4.7759 15.9459 4.99407C16.1641 5.21223 16.2867 5.50813 16.2867 5.81667Z" fill="#66B127"/>
</svg>
