<svg width="25" height="25" viewBox="0 0 25 25" fill="none" xmlns="http://www.w3.org/2000/svg">
<path fill-rule="evenodd" clip-rule="evenodd" d="M12.3845 0C8.9487 0 6.04244 1.19867 3.66189 3.59601C1.22063 6.07602 0 9.0107 0 12.4C0 15.7894 1.22063 18.7034 3.66189 21.1421C6.10315 23.5808 9.01199 24.8001 12.3845 24.8001C15.7984 24.8001 18.7577 23.5704 21.2609 21.1111C23.6208 18.7757 24.8001 15.8721 24.8001 12.4C24.8001 8.92804 23.5988 5.99336 21.1989 3.59601C18.799 1.19867 15.8617 0 12.3845 0ZM12.4155 2.23072C15.2301 2.23072 17.6197 3.22401 19.5843 5.20802C21.5735 7.17136 22.5655 9.56741 22.5655 12.4C22.5655 15.2521 21.5942 17.6184 19.6489 19.4991C17.6003 21.5244 15.1888 22.5358 12.4155 22.5358C9.64362 22.5358 7.25403 21.5348 5.24677 19.5288C3.23822 17.5241 2.23459 15.1487 2.23459 12.4C2.23459 9.65008 3.24855 7.25403 5.27648 5.20802C7.22174 3.22401 9.601 2.23072 12.4155 2.23072Z" fill="#C5C5C5"/>
<path fill-rule="evenodd" clip-rule="evenodd" d="M17.0846 9.46094H8.07129V11.5961H17.0846V9.46094ZM17.0846 13.4457H8.07129V15.5809H17.0846V13.4457Z" fill="#C5C5C5"/>
</svg>
