<svg width="20" height="26" viewBox="0 0 20 26" fill="none" xmlns="http://www.w3.org/2000/svg">
<path d="M19.2484 0.333313C19.5681 0.478732 19.6673 0.702149 19.6665 1.00621C19.6597 8.3296 19.6578 15.6528 19.661 22.9757C19.661 23.4814 19.472 23.6367 18.8665 23.64H17.3335C17.3027 23.6454 17.2727 23.6534 17.2438 23.6638C17.2438 24.1126 17.2438 24.5714 17.2438 25.0301C17.2438 25.5027 17.0461 25.6666 16.4784 25.6666C15.5934 25.6666 14.7092 25.6666 13.825 25.6666C13.3384 25.6666 13.1203 25.4849 13.1164 25.0803C13.1164 24.611 13.1164 24.1417 13.1164 23.6546H7.21662C7.21662 24.1133 7.21662 24.5723 7.21662 25.0314C7.21662 25.5027 7.01742 25.6666 6.44973 25.6666C5.56472 25.6666 4.68051 25.6666 3.79629 25.6666C3.3097 25.6666 3.09317 25.4842 3.08766 25.0797C3.08766 24.6104 3.08766 24.1411 3.08766 23.6367H2.76405C2.28218 23.6367 1.8011 23.6407 1.32002 23.6367C0.912163 23.6314 0.685401 23.4384 0.672803 23.0974C0.672803 23.0564 0.672803 23.0154 0.672803 22.9737C0.672803 15.6517 0.670703 8.32916 0.666504 1.00621C0.666504 0.702149 0.764925 0.478732 1.08538 0.333313H19.2484ZM18.461 18.202V1.33538H1.87433V18.1987H3.02861V3.0467C3.02861 2.5027 3.20026 2.3586 3.84984 2.3586H16.4682C17.132 2.3586 17.2989 2.50006 17.2989 3.06323V18.2L18.461 18.202ZM18.461 22.638V19.2252H1.86645V22.638H18.461ZM16.106 15.2606H4.2262V18.1994H16.106V15.2606ZM4.22384 10.2681H16.0989V7.32599H4.22384V10.2681ZM16.1052 11.2946H4.23407V14.2367H16.1052V11.2946ZM4.23328 3.35803V6.30938H16.0989V3.35803H4.23328ZM4.29076 23.6506V24.658H6.02061V23.6506H4.29076ZM16.0383 24.6712V23.6519H14.3061V24.6712H16.0383Z" fill="#71B626"/>
<path d="M8.1673 20.9214C8.17321 21.0202 8.17321 21.1193 8.1673 21.2181C8.15466 21.3343 8.09222 21.4427 7.99158 21.5232C7.89094 21.6037 7.75894 21.6508 7.62008 21.6557C7.35159 21.6683 7.07522 21.5189 7.03743 21.2876C6.99924 21.0434 6.99924 20.796 7.03743 20.5519C7.07444 20.3073 7.35238 20.1599 7.63977 20.1771C7.77759 20.1853 7.90712 20.2354 8.00409 20.318C8.10106 20.4006 8.15881 20.5101 8.16652 20.6259C8.17754 20.7244 8.16652 20.8242 8.16652 20.9227L8.1673 20.9214Z" fill="#71B626"/>
<path d="M15.8904 20.9241C15.8963 21.0227 15.8963 21.1216 15.8904 21.2202C15.8776 21.3321 15.8186 21.4367 15.7238 21.516C15.6289 21.5952 15.504 21.6442 15.3707 21.6545C15.1054 21.6783 14.807 21.5355 14.7692 21.3095C14.7267 21.0496 14.7267 20.7861 14.7692 20.5262C14.8062 20.2962 15.0841 20.16 15.3652 20.1772C15.4988 20.1842 15.6251 20.2308 15.7215 20.3088C15.8178 20.3868 15.878 20.491 15.8912 20.6029C15.8976 20.7099 15.8974 20.8171 15.8904 20.9241Z" fill="#71B626"/>
<path d="M4.43854 20.9092C4.43263 20.8106 4.43263 20.7117 4.43854 20.6131C4.4497 20.5012 4.50756 20.3962 4.60191 20.3167C4.69626 20.2371 4.82105 20.188 4.95426 20.1782C5.24323 20.155 5.52511 20.2985 5.56841 20.5404C5.60895 20.7763 5.61292 21.0155 5.58022 21.2523C5.56019 21.3725 5.4856 21.4816 5.37203 21.5567C5.25847 21.6318 5.11471 21.6672 4.9708 21.6555C4.82727 21.6463 4.69288 21.5928 4.59367 21.5053C4.49446 21.4177 4.4375 21.3023 4.43381 21.1815C4.42673 21.091 4.43381 21.0004 4.43381 20.9092H4.43854Z" fill="#71B626"/>
<path d="M13.3439 20.9515C13.339 21.0642 13.3246 21.1764 13.3006 21.2873C13.271 21.4008 13.1938 21.5016 13.083 21.5712C12.9723 21.6409 12.8354 21.6747 12.6973 21.6666C12.5593 21.6585 12.4293 21.609 12.3312 21.5271C12.2331 21.4452 12.1733 21.3364 12.1628 21.2206C12.1467 21.0314 12.1451 20.8415 12.1581 20.6521C12.159 20.5313 12.2146 20.4153 12.3136 20.3275C12.4125 20.2398 12.5475 20.1869 12.6912 20.1795C12.8399 20.1689 12.9877 20.2069 13.1039 20.2856C13.2201 20.3643 13.2956 20.4776 13.3148 20.6019C13.3315 20.7179 13.3412 20.8346 13.3439 20.9515Z" fill="#71B626"/>
<path d="M10.7518 20.9389C10.7518 21.0208 10.7589 21.1035 10.7518 21.1848C10.7441 21.3106 10.679 21.4291 10.5702 21.5159C10.4613 21.6027 10.3169 21.651 10.1668 21.651C10.0167 21.651 9.87234 21.6027 9.76348 21.5159C9.65463 21.4291 9.5896 21.3106 9.58182 21.1848C9.56843 21.0047 9.56843 20.8241 9.58182 20.6441C9.5896 20.5182 9.65463 20.3997 9.76348 20.3129C9.87234 20.2261 10.0167 20.1778 10.1668 20.1778C10.3169 20.1778 10.4613 20.2261 10.5702 20.3129C10.679 20.3997 10.7441 20.5182 10.7518 20.6441C10.7597 20.7419 10.7518 20.8404 10.7518 20.9389Z" fill="#71B626"/>
<path d="M11.3758 17.2245C10.4231 17.2245 9.47042 17.2245 8.5177 17.2245C8.12402 17.2245 7.88781 17.0626 7.85237 16.7876C7.83184 16.6677 7.86731 16.5457 7.95138 16.4471C8.03545 16.3486 8.16162 16.2811 8.30354 16.2588C8.41934 16.2411 8.53703 16.2335 8.6547 16.2364C10.4719 16.2364 12.2889 16.2364 14.1057 16.2364C14.2038 16.2342 14.302 16.2384 14.3993 16.2489C14.5479 16.262 14.6844 16.3236 14.7793 16.4204C14.8742 16.5173 14.9198 16.6416 14.9064 16.7665C14.9031 16.8873 14.8436 17.0023 14.7406 17.0868C14.6376 17.1713 14.4993 17.2186 14.3553 17.2186C13.7254 17.2305 13.0955 17.2245 12.4695 17.2252C12.0994 17.2252 11.7357 17.2245 11.3758 17.2245Z" fill="#71B626"/>
<path d="M6.65103 16.7381C6.64717 16.8663 6.58422 16.9883 6.47541 17.0785C6.3666 17.1686 6.22042 17.2198 6.06759 17.2213C5.98943 17.2215 5.91202 17.2084 5.84004 17.1829C5.76806 17.1573 5.70299 17.1197 5.64876 17.0725C5.59453 17.0252 5.55227 16.9693 5.52452 16.9079C5.49677 16.8466 5.48411 16.7811 5.4873 16.7156C5.49085 16.586 5.55556 16.463 5.66719 16.3735C5.77882 16.284 5.92823 16.2354 6.08255 16.2383C6.23687 16.2413 6.38346 16.2957 6.49007 16.3894C6.59668 16.4831 6.65458 16.6085 6.65103 16.7381Z" fill="#71B626"/>
<path d="M11.3583 9.29352C10.3962 9.29352 9.43323 9.29748 8.47028 9.29352C8.03093 9.29352 7.76165 9.00863 7.86243 8.6735C7.92699 8.45604 8.14824 8.30863 8.45532 8.30797C10.4006 8.30445 12.346 8.30445 14.2913 8.30797C14.6574 8.30797 14.8991 8.51486 14.9031 8.79513C14.907 9.08663 14.6598 9.29153 14.2732 9.29286C13.3039 9.29682 12.3315 9.29352 11.3583 9.29352Z" fill="#71B626"/>
<path d="M6.05545 9.29087C5.90202 9.28844 5.75597 9.23515 5.64917 9.14265C5.54237 9.05014 5.4835 8.92593 5.4854 8.79711C5.48737 8.66845 5.54854 8.54541 5.65612 8.45375C5.76369 8.36208 5.90932 8.3089 6.06254 8.30533C6.22119 8.30811 6.37208 8.36347 6.48228 8.45932C6.59248 8.55518 6.65302 8.68374 6.6507 8.81694C6.64617 8.94592 6.58102 9.06816 6.4695 9.15696C6.35797 9.24575 6.20912 9.2939 6.05545 9.29087Z" fill="#71B626"/>
<path d="M11.358 13.2578C10.3951 13.2578 9.43213 13.2618 8.46996 13.2578C8.01801 13.2578 7.74401 12.9531 7.86841 12.6153C7.94715 12.3998 8.1747 12.2736 8.51484 12.2716C9.21245 12.2683 9.91006 12.2716 10.6077 12.2716C11.7958 12.2716 12.9847 12.267 14.1729 12.2776C14.3568 12.2784 14.5371 12.3214 14.6941 12.4018C14.9146 12.5221 14.9524 12.7323 14.8697 12.9339C14.8333 13.0339 14.7578 13.1206 14.6553 13.1798C14.5527 13.2391 14.4293 13.2676 14.3052 13.2605H11.6824L11.358 13.2578Z" fill="#71B626"/>
<path d="M6.06349 13.2558C5.91024 13.2539 5.76396 13.2017 5.65595 13.1104C5.54794 13.0191 5.48678 12.8959 5.48556 12.7673C5.48346 12.7016 5.49714 12.6362 5.52578 12.5751C5.55443 12.5139 5.59745 12.4583 5.65229 12.4114C5.70713 12.3645 5.77266 12.3274 5.84496 12.3022C5.91726 12.2771 5.99486 12.2644 6.07313 12.265C6.15139 12.2656 6.22871 12.2794 6.30048 12.3056C6.37224 12.3318 6.43698 12.3699 6.49083 12.4176C6.54468 12.4653 6.58653 12.5216 6.61389 12.5831C6.64125 12.6447 6.65356 12.7102 6.65008 12.7759C6.64739 12.9046 6.58425 13.0273 6.4744 13.1171C6.36455 13.207 6.21687 13.2568 6.06349 13.2558Z" fill="#71B626"/>
<path d="M11.3591 5.33135H8.47104C8.1994 5.33135 7.9876 5.2355 7.88603 5.02266C7.79706 4.83428 7.81595 4.63334 8.00965 4.49982C8.1356 4.41136 8.29151 4.3584 8.4553 4.34845C10.4001 4.33853 12.3457 4.34052 14.2905 4.34382C14.6558 4.34382 14.8991 4.54741 14.9031 4.82899C14.907 5.11058 14.6598 5.32738 14.2771 5.32937C13.3047 5.33465 12.3315 5.33135 11.3591 5.33135Z" fill="#71B626"/>
<path d="M6.65099 4.82811C6.65239 4.92477 6.61959 5.0196 6.55676 5.1006C6.49392 5.1816 6.40387 5.24514 6.298 5.28315C6.19213 5.32117 6.07521 5.33196 5.96203 5.31416C5.84885 5.29636 5.74451 5.25077 5.66221 5.18316C5.57992 5.11556 5.52336 5.02897 5.49971 4.93436C5.47606 4.83976 5.48638 4.74139 5.52936 4.65171C5.57233 4.56203 5.64604 4.48508 5.74114 4.43058C5.83625 4.37609 5.94848 4.3465 6.06362 4.34558C6.21682 4.34672 6.36355 4.39759 6.47305 4.48755C6.58255 4.5775 6.64632 4.69955 6.65099 4.82811Z" fill="#71B626"/>
</svg>
