<svg width="25" height="24" viewBox="0 0 25 24" fill="none" xmlns="http://www.w3.org/2000/svg">
<path d="M17.2084 11.5701C17.2095 10.6699 16.9175 9.79378 16.3764 9.07429L18.4641 7.00229C18.8724 7.17209 19.3092 7.26265 19.7513 7.26914C20.1512 7.2817 20.5497 7.21531 20.924 7.07377C21.2983 6.93223 21.641 6.71831 21.9326 6.44425C22.2241 6.17018 22.4588 5.84134 22.6232 5.47653C22.7876 5.11171 22.8785 4.71807 22.8907 4.3181C22.8907 3.48549 22.5599 2.68697 21.9712 2.09822C21.3824 1.50947 20.5839 1.17871 19.7513 1.17871C18.9187 1.17871 18.1202 1.50947 17.5314 2.09822C16.9427 2.68697 16.6119 3.48549 16.6119 4.3181C16.6139 4.80365 16.7438 5.2801 16.9886 5.69944L14.9009 7.78713C14.1671 7.37638 13.3403 7.16023 12.4993 7.15926C11.4609 7.14495 10.4469 7.47428 9.61513 8.096C8.78333 8.71772 8.18037 9.59696 7.90008 10.5969H6.81699C6.57992 10.0107 6.17135 9.50974 5.6448 9.15963C5.11824 8.80953 4.49823 8.62659 3.86596 8.63477C3.06084 8.60935 2.27845 8.90396 1.69006 9.4541C1.10167 10.0042 0.755226 10.7651 0.726562 11.5701C0.738741 11.9701 0.829627 12.3637 0.994025 12.7285C1.15842 13.0933 1.39311 13.4222 1.68467 13.6962C1.97623 13.9703 2.31894 14.1842 2.69322 14.3258C3.0675 14.4673 3.46601 14.5337 3.86596 14.5211C4.49823 14.5293 5.11824 14.3464 5.6448 13.9963C6.17135 13.6462 6.57992 13.1452 6.81699 12.559H7.90008C8.18037 13.5589 8.78333 14.4382 9.61513 15.0599C10.4469 15.6816 11.4609 16.011 12.4993 15.9966C13.0992 16.0155 13.697 15.9159 14.2584 15.7036C14.8198 15.4913 15.3339 15.1704 15.7712 14.7593C16.2086 14.3482 16.5606 13.855 16.8072 13.3077C17.0538 12.7605 17.1901 12.17 17.2084 11.5701V11.5701ZM19.7513 3.34489C20.0363 3.31865 20.3201 3.40628 20.5407 3.58864C20.7613 3.77099 20.9007 4.03325 20.9286 4.3181C20.8828 4.59734 20.7393 4.85122 20.5236 5.03442C20.308 5.21761 20.0342 5.31819 19.7513 5.31819C19.4683 5.31819 19.1946 5.21761 18.9789 5.03442C18.7633 4.85122 18.6198 4.59734 18.574 4.3181C18.6057 4.03488 18.7462 3.77506 18.9659 3.59348C19.1855 3.4119 19.4672 3.32277 19.7513 3.34489ZM3.86596 12.559C3.57937 12.5809 3.29562 12.4896 3.07555 12.3048C2.85547 12.1199 2.71659 11.8562 2.68868 11.5701C2.72039 11.2869 2.8609 11.0271 3.08056 10.8455C3.30021 10.6639 3.58183 10.5748 3.86596 10.5969C4.15009 10.5748 4.4317 10.6639 4.65135 10.8455C4.87101 11.0271 5.01152 11.2869 5.04323 11.5701C5.01532 11.8562 4.87644 12.1199 4.65636 12.3048C4.43629 12.4896 4.15254 12.5809 3.86596 12.559V12.559ZM12.4993 14.0345C11.809 14.0688 11.1331 13.8291 10.6187 13.3676C10.1042 12.9061 9.79285 12.26 9.75232 11.5701C9.7928 10.8815 10.1047 10.237 10.6196 9.77793C11.1346 9.31889 11.8105 9.08279 12.4993 9.12138C13.187 9.08695 13.8607 9.32451 14.3747 9.78271C14.8887 10.2409 15.2018 10.883 15.2463 11.5701C15.2017 12.2586 14.8892 12.9022 14.3757 13.3629C13.8622 13.8236 13.1885 14.0647 12.4993 14.0345V14.0345Z" fill="#F2994A"/>
<path d="M3.86596 5.88788C4.30903 5.89076 4.7477 5.79982 5.15311 5.62103L7.91577 8.43079C8.3158 7.8966 8.80421 7.43474 9.3599 7.06515L6.62862 4.31819C6.87341 3.89885 7.00334 3.4224 7.00535 2.93685C6.97669 2.13185 6.63024 1.37099 6.04185 0.820846C5.45346 0.270703 4.67107 -0.0239043 3.86596 0.00151876C3.06084 -0.0239043 2.27845 0.270703 1.69006 0.820846C1.10167 1.37099 0.755226 2.13185 0.726562 2.93685C0.738741 3.33681 0.829627 3.73046 0.994025 4.09527C1.15842 4.46009 1.39311 4.78893 1.68467 5.063C1.97623 5.33706 2.31894 5.55098 2.69322 5.69252C3.0675 5.83406 3.46601 5.90044 3.86596 5.88788V5.88788ZM3.86596 1.96364C4.15009 1.94151 4.4317 2.03065 4.65135 2.21223C4.87101 2.39381 5.01152 2.65363 5.04323 2.93685C5.01532 3.22291 4.87644 3.48665 4.65636 3.67151C4.43629 3.85638 4.15254 3.94765 3.86596 3.92576C3.57937 3.94765 3.29562 3.85638 3.07555 3.67151C2.85547 3.48665 2.71659 3.22291 2.68868 2.93685C2.72039 2.65363 2.8609 2.39381 3.08056 2.21223C3.30021 2.03065 3.58183 1.94151 3.86596 1.96364ZM21.1326 17.2682C20.6895 17.2653 20.2509 17.3562 19.8455 17.535L17.0828 14.7096C16.674 15.2283 16.1805 15.6741 15.623 16.0281L18.3543 18.7594C18.1143 19.18 17.9897 19.6565 17.9932 20.1407C17.9932 20.9733 18.324 21.7719 18.9127 22.3606C19.5015 22.9494 20.3 23.2801 21.1326 23.2801C21.9652 23.2801 22.7638 22.9494 23.3525 22.3606C23.9413 21.7719 24.272 20.9733 24.272 20.1407C24.2274 19.3468 23.8739 18.6019 23.2873 18.0651C22.7007 17.5284 21.9274 17.2423 21.1326 17.2682V17.2682ZM21.1326 21.1924C20.846 21.2143 20.5623 21.123 20.3422 20.9382C20.1221 20.7533 19.9833 20.4896 19.9553 20.2035C20.0011 19.9243 20.1446 19.6704 20.3603 19.4872C20.5759 19.304 20.8497 19.2034 21.1326 19.2034C21.4156 19.2034 21.6893 19.304 21.905 19.4872C22.1206 19.6704 22.2641 19.9243 22.3099 20.2035C22.282 20.4896 22.1431 20.7533 21.923 20.9382C21.703 21.123 21.4192 21.2143 21.1326 21.1924V21.1924Z" fill="#F2994A"/>
</svg>
