<svg width="22" height="30" viewBox="0 0 22 30" fill="none" xmlns="http://www.w3.org/2000/svg">
<path d="M20.0889 20.7112C20.2556 21.2686 20.1201 21.514 19.4464 21.7789C19.39 22.4773 19.2162 22.6447 18.4873 22.6963C18.1948 23.3385 17.9622 23.452 17.2789 23.2869C16.7802 23.8121 16.5068 23.8546 15.941 23.491C15.3116 23.8442 15.0071 23.7995 14.6043 23.2972C13.8154 23.4199 13.6452 23.3351 13.3635 22.6975C12.6442 22.6413 12.4523 22.4555 12.4044 21.78C11.739 21.5209 11.5892 21.2399 11.7954 20.6333C11.2343 20.1551 11.196 19.9074 11.5736 19.3282C11.1888 18.7468 11.2343 18.4659 11.7786 18.053C11.6323 17.3443 11.745 17.1287 12.3864 16.889C12.4955 16.1563 12.6729 15.9865 13.3455 15.9716C13.6919 15.2916 13.9245 15.1781 14.5743 15.3742C15.0406 14.8409 15.3415 14.7916 15.9014 15.1597C16.6015 14.8065 16.8185 14.8386 17.2681 15.365C17.9574 15.1964 18.2271 15.3271 18.4753 15.9384C19.2306 16.029 19.4272 16.2147 19.4344 16.8478C20.1537 17.209 20.246 17.3787 20.0662 18.0416L20.451 18.334V6.78482H20.0458C18.6408 6.78482 17.2357 6.78482 15.8307 6.78482C15.0382 6.78482 14.5947 6.36739 14.5911 5.60708C14.5839 4.27568 14.5911 2.94427 14.5911 1.61172V1.17021C14.4316 1.16218 14.2962 1.14957 14.1619 1.14957H1.857C1.18206 1.16907 0.852375 1.47984 0.851176 2.13236C0.851176 4.83339 0.851176 7.53404 0.851176 10.2343V23.1367C0.851176 23.9887 1.11852 24.2433 2.02124 24.2433C5.4699 24.2433 8.91896 24.2433 12.3684 24.2433C12.6454 24.2433 12.8564 24.2284 12.9307 23.9062C12.9906 23.6504 13.2004 23.5036 13.4833 23.5988C13.7866 23.7009 13.8214 23.9429 13.7231 24.2009C13.3595 25.1275 12.995 26.0529 12.6298 26.9772C12.5914 27.0758 12.5566 27.1745 12.4931 27.3476C12.8671 27.2089 13.1704 27.0965 13.475 26.9852C13.9545 26.8086 14.1511 26.9118 14.2566 27.4015C14.2902 27.5563 14.3213 27.7112 14.3705 27.9497C14.4448 27.7972 14.4904 27.7203 14.5215 27.6378C14.8368 26.8511 15.1533 26.0655 15.4614 25.2766C15.5513 25.0472 15.646 24.8282 15.941 24.8305C16.2359 24.8327 16.3246 25.0667 16.4133 25.2892C16.7502 26.1447 17.0919 26.9979 17.5162 27.8534C17.5558 27.6722 17.5942 27.4898 17.6361 27.3086C17.7248 26.9348 17.9334 26.819 18.3039 26.9497C18.6348 27.0644 18.9608 27.1962 19.3756 27.3534C19.2761 27.0862 19.2102 26.8946 19.1359 26.7089C18.8134 25.8855 18.4909 25.0621 18.1624 24.241C18.0521 23.9658 18.0521 23.7146 18.3758 23.6011C18.6995 23.4876 18.8553 23.7032 18.9632 23.9681C19.4428 25.1917 19.9391 26.4096 20.4018 27.6378C20.4702 27.8212 20.4426 28.14 20.3167 28.257C20.1908 28.374 19.8696 28.382 19.6658 28.3281C19.2373 28.1964 18.8163 28.0433 18.4046 27.8694C18.3326 28.2134 18.2643 28.5254 18.196 28.843C18.1708 28.9577 18.1456 29.0827 18.1229 29.202C18.0773 29.4588 17.9394 29.6309 17.6553 29.6607C17.352 29.6893 17.1866 29.5288 17.0859 29.2719C16.7634 28.4485 16.4337 27.6274 16.1052 26.8063C16.0608 26.6917 16.0081 26.5896 15.9278 26.4119C15.5789 27.2903 15.26 28.0976 14.9399 28.9049C14.8848 29.0414 14.82 29.1767 14.7721 29.3143C14.6762 29.5655 14.47 29.7272 14.217 29.6458C14.1157 29.6102 14.0231 29.555 13.945 29.4838C13.8668 29.4126 13.8048 29.3268 13.7627 29.2318C13.6236 28.8052 13.5661 28.3545 13.4678 27.8774C13.0326 28.0414 12.6286 28.1894 12.2318 28.3453C11.9788 28.4451 11.739 28.4841 11.522 28.28C11.3051 28.0758 11.3638 27.8556 11.4537 27.6263C11.7834 26.7949 12.1095 25.9623 12.4667 25.0564H1.97928C0.659761 25.0587 0 24.4298 0 23.1699V2.28258C0 0.967233 0.652168 0.333067 2.01045 0.333067C6.25195 0.337654 10.493 0.337654 14.7337 0.333067C14.8784 0.326617 15.0229 0.350354 15.157 0.402633C15.2911 0.454911 15.4118 0.534478 15.5106 0.635815C17.3556 2.41446 19.215 4.1782 21.0516 5.96258C21.2176 6.13787 21.3132 6.36381 21.3214 6.60019C21.3365 10.8157 21.3401 15.0309 21.3321 19.2457C21.3321 19.8707 21.1667 19.9979 20.632 19.8431L20.0889 20.7112ZM13.4354 16.9452C13.4354 17.4039 13.2112 17.6689 12.7892 17.8007C12.9475 18.2273 12.8012 18.5507 12.4487 18.8064C12.7365 19.1711 12.6885 19.5243 12.4583 19.8718C12.848 20.1252 12.9091 20.4658 12.7988 20.8649C13.2484 20.9922 13.4366 21.2972 13.4462 21.553L14.4772 22.2823C14.7745 22.1906 15.121 22.311 15.3787 22.6459C15.8666 22.4016 15.887 22.4004 16.3318 22.5621L17.5786 22.186C17.6601 21.8913 17.9874 21.7215 18.2487 21.7078C18.5364 21.3374 18.751 21.0622 19.0244 20.7124C18.9177 20.4326 19.0424 20.1 19.4332 19.8397C19.1011 19.4842 19.1934 19.131 19.4032 18.7812C19.0112 18.5347 18.9441 18.1975 19.0699 17.7961C18.6072 17.6757 18.4393 17.3535 18.4046 16.9441C17.9478 16.9372 17.6625 16.7296 17.5306 16.3099C17.0715 16.4934 16.7442 16.3099 16.4649 16.0026C16.098 16.2629 15.7456 16.2457 15.3775 16.0026C15.1138 16.3581 14.7601 16.4613 14.3273 16.3283C14.1907 16.7491 13.8921 16.9372 13.4354 16.9452ZM19.7569 5.95799L19.6574 6.01763L15.4422 1.97983C15.4422 3.10482 15.4422 4.33645 15.4422 5.56694C15.4422 5.86166 15.5621 5.98093 15.8762 5.97749C17.1002 5.96831 18.3243 5.97749 19.5483 5.97749C19.6154 5.9729 19.6861 5.96258 19.7569 5.95799Z" fill="#71B626"/>
<path d="M5.73159 8.89119V8.41528C5.73159 6.76622 5.73159 5.11678 5.73159 3.46695C5.73159 3.33278 5.69802 3.17452 5.75917 3.07017C5.83709 2.93943 5.99893 2.76512 6.11882 2.76627C6.26627 2.76627 6.43291 2.9165 6.548 3.0392C6.60794 3.10457 6.58157 3.24906 6.58157 3.35801C6.58157 5.26395 6.58157 7.17027 6.58157 9.07697C6.58157 9.58499 6.46168 9.70081 5.9282 9.70311C5.44267 9.70311 4.95714 9.71802 4.47281 9.70311C4.1755 9.69049 4.00047 9.75815 3.85181 10.038C3.54611 10.6125 2.87716 10.8671 2.19022 10.7341C1.88305 10.6672 1.60458 10.5121 1.39212 10.2896C1.17966 10.0671 1.04337 9.78783 1.0015 9.48916C0.959636 9.19049 1.0142 8.88671 1.15788 8.61853C1.30155 8.35035 1.52749 8.13059 1.8054 7.98868C1.98503 7.89378 2.18294 7.83477 2.38714 7.81523C2.59133 7.79569 2.79754 7.81602 2.99327 7.875C3.189 7.93398 3.37016 8.03037 3.52578 8.15833C3.6814 8.28629 3.80822 8.44316 3.89857 8.61941C4.01845 8.84876 4.15991 8.90151 4.39728 8.89463C4.81808 8.88202 5.23887 8.89119 5.73159 8.89119ZM2.54268 8.62743C2.36282 8.62698 2.18975 8.6931 2.0597 8.81194C1.92965 8.93079 1.8527 9.09315 1.84496 9.26504C1.83992 9.35338 1.85371 9.44179 1.8855 9.52487C1.91729 9.60796 1.96642 9.68399 2.02988 9.74835C2.09335 9.81271 2.16984 9.86405 2.2547 9.89925C2.33955 9.93445 2.43101 9.95277 2.5235 9.9531C2.61642 9.95435 2.70865 9.93771 2.79471 9.90416C2.88077 9.87061 2.9589 9.82085 3.02444 9.75783C3.08998 9.69481 3.14161 9.61983 3.17624 9.53734C3.21087 9.45484 3.2278 9.36653 3.22602 9.27766C3.21859 9.10689 3.14411 8.9451 3.01744 8.82456C2.89077 8.70403 2.72123 8.63364 2.54268 8.62743Z" fill="#71B626"/>
<path d="M9.41807 8.8892C9.96354 8.8892 10.4599 8.90755 10.9526 8.87429C11.0641 8.86626 11.1924 8.68851 11.2619 8.56581C11.4178 8.30448 11.6528 8.09441 11.9359 7.96321C12.2189 7.83201 12.5369 7.78583 12.8479 7.83073C13.1598 7.87529 13.4496 8.01109 13.6776 8.2195C13.9055 8.42791 14.0605 8.6987 14.1211 8.9947C14.1976 9.34485 14.1387 9.70966 13.9552 10.0214C13.7718 10.3331 13.4763 10.5706 13.1237 10.6896C12.7774 10.8098 12.3973 10.8053 12.0543 10.677C11.7112 10.5487 11.4287 10.3053 11.2595 9.9924C11.1396 9.74813 10.9874 9.69423 10.7308 9.70111C10.1829 9.71602 9.63266 9.70111 9.08359 9.70111C8.73473 9.70111 8.56689 9.54171 8.56689 9.20915C8.56689 7.22141 8.56689 5.23022 8.56689 3.2356C8.56689 2.95349 8.67719 2.73905 9.00087 2.74707C9.32456 2.7551 9.42047 2.97643 9.42047 3.25395C9.42047 4.9764 9.42047 6.69924 9.42047 8.42246L9.41807 8.8892ZM12.6238 9.94996C12.713 9.95028 12.8015 9.93356 12.8839 9.90078C12.9664 9.868 13.0412 9.81982 13.1039 9.75906C13.1666 9.69829 13.2161 9.62617 13.2493 9.54691C13.2826 9.46765 13.2989 9.38284 13.2975 9.29745C13.2985 9.20905 13.281 9.12136 13.246 9.03954C13.211 8.95771 13.1592 8.88341 13.0938 8.82101C13.0283 8.7586 12.9504 8.70936 12.8648 8.67616C12.7791 8.64297 12.6874 8.62651 12.595 8.62773C12.4151 8.63384 12.2445 8.70555 12.1181 8.82816C11.9917 8.95077 11.9191 9.11498 11.9153 9.28713C11.9149 9.37553 11.9331 9.4631 11.9688 9.54465C12.0045 9.6262 12.0569 9.70007 12.123 9.76188C12.189 9.8237 12.2674 9.87219 12.3534 9.9045C12.4395 9.93681 12.5314 9.95227 12.6238 9.94996Z" fill="#71B626"/>
<path d="M7.99273 6.995C7.99273 8.21631 7.99273 9.43763 7.99273 10.6647C7.99273 10.8768 8.0263 11.0087 8.25768 11.1234C8.58017 11.2655 8.83908 11.513 8.98785 11.8214C9.13663 12.1297 9.16551 12.4788 9.06929 12.8057C9.00422 13.0437 8.87799 13.2624 8.70208 13.4418C8.52618 13.6212 8.30617 13.7558 8.06207 13.8332C7.81796 13.9106 7.55751 13.9284 7.30438 13.885C7.05125 13.8416 6.81347 13.7384 6.61267 13.5847C6.41187 13.431 6.25441 13.2317 6.15461 13.005C6.05481 12.7783 6.01584 12.5313 6.04123 12.2865C6.06662 12.0417 6.15558 11.8069 6.30001 11.6033C6.44444 11.3998 6.63976 11.234 6.86822 11.1211C7.10799 11.0064 7.14635 10.8585 7.14635 10.636C7.14076 8.29047 7.14076 5.94532 7.14635 3.60055C7.14635 3.4916 7.14635 3.38151 7.14635 3.27142C7.14635 2.979 7.23627 2.74391 7.58393 2.75079C7.90402 2.75767 8.00232 2.98014 7.99873 3.25766C7.99873 3.72211 7.99873 4.18655 7.99873 4.64985L7.99273 6.995ZM8.27206 12.4387C8.27206 12.2667 8.20327 12.1011 8.0798 11.9759C7.95632 11.8508 7.7875 11.7755 7.60791 11.7656C7.51715 11.7617 7.42647 11.7749 7.34105 11.8045C7.25563 11.8341 7.17715 11.8795 7.11007 11.9381C7.043 11.9968 6.98866 12.0674 6.95014 12.1462C6.91163 12.2249 6.8897 12.3101 6.88561 12.3969C6.88151 12.4837 6.89534 12.5704 6.92629 12.6521C6.95724 12.7339 7.00471 12.8089 7.06599 12.8731C7.12728 12.9373 7.20117 12.9892 7.28345 13.0261C7.36574 13.0629 7.45481 13.0839 7.54557 13.0878C7.73166 13.0931 7.91239 13.0278 8.04845 12.9063C8.18451 12.7847 8.26487 12.6167 8.27206 12.4387Z" fill="#71B626"/>
<path d="M4.92466 6.48126C4.93305 7.15442 4.51346 7.67276 3.94761 7.78744C3.65896 7.85058 3.35638 7.81663 3.09084 7.6913C2.82531 7.56597 2.61305 7.35692 2.48982 7.09937C2.24046 6.56727 2.4011 5.9159 2.9178 5.60857C3.17795 5.46178 3.23669 5.2932 3.23669 5.03518C3.22111 4.45032 3.23669 3.86547 3.2307 3.28061C3.2307 2.98589 3.32301 2.7531 3.66588 2.75654C4.00875 2.75998 4.08547 3.00883 4.08307 3.29552C4.08307 3.91707 4.06869 4.53863 4.09386 5.15903C4.11416 5.31371 4.19781 5.45436 4.32644 5.55008C4.69448 5.8104 4.91507 6.13723 4.92466 6.48126ZM4.13463 6.68195V6.51681C3.97878 6.41131 3.83611 6.23356 3.66228 6.20948C3.40333 6.17278 3.2295 6.35626 3.23789 6.61543C3.24629 6.85282 3.41412 7.02827 3.65869 6.98469C3.83611 6.95373 3.97758 6.78745 4.13463 6.68195Z" fill="#71B626"/>
<path d="M11.9091 4.21748C11.9091 4.39982 11.9091 4.5833 11.9091 4.76564C11.8935 5.14522 11.9091 5.4537 12.3323 5.70943C12.9197 6.06837 12.9018 6.97089 12.3982 7.45712C12.2736 7.5752 12.1252 7.66778 11.962 7.72923C11.7989 7.79069 11.6243 7.81972 11.449 7.81457C11.2737 7.80942 11.1013 7.7702 10.9424 7.69928C10.7834 7.62836 10.6412 7.52724 10.5245 7.40207C10.0449 6.86424 10.1121 6.02594 10.7319 5.63145C11.0172 5.4537 11.0711 5.26334 11.0639 4.97894C11.0471 4.40555 11.0639 3.83216 11.0639 3.25878C11.0639 2.96406 11.1694 2.737 11.5135 2.74846C11.8396 2.75878 11.9187 2.99158 11.9151 3.26451C11.9079 3.58331 11.9103 3.89982 11.9091 4.21748ZM11.9643 6.69222V6.52135C11.8096 6.40667 11.6669 6.2381 11.4979 6.20943C11.2318 6.1647 11.0639 6.35621 11.0651 6.60851C11.0663 6.8608 11.233 7.02593 11.4799 6.98579C11.6574 6.95712 11.806 6.79428 11.9643 6.69222Z" fill="#71B626"/>
<path d="M5.83462 17.9123H2.99697C2.90705 17.9123 2.81714 17.9123 2.72843 17.9123C2.4431 17.8986 2.25968 17.7621 2.27047 17.4823C2.28126 17.2025 2.47068 17.1016 2.73682 17.1016C3.46451 17.1016 4.19221 17.1016 4.9199 17.1016H8.59914C8.71903 17.1016 8.82932 17.1016 8.94321 17.1016C9.21654 17.1016 9.39517 17.2311 9.40356 17.4892C9.41195 17.7713 9.21774 17.9066 8.93482 17.9089C8.27186 17.9146 7.6077 17.9089 6.94474 17.9089L5.83462 17.9123Z" fill="#71B626"/>
<path d="M5.84217 16.2228C4.87271 16.2228 3.90285 16.2228 2.93259 16.2228C2.8187 16.2228 2.67124 16.2492 2.59811 16.1919C2.46504 16.0875 2.27563 15.9166 2.29481 15.8008C2.31758 15.6575 2.52019 15.5302 2.66645 15.4224C2.72279 15.3799 2.83908 15.4086 2.92779 15.4086H8.7074C8.77094 15.4086 8.83567 15.4086 8.89921 15.4086C9.18094 15.4017 9.39313 15.5107 9.40272 15.7916C9.41231 16.0726 9.20492 16.2217 8.90401 16.2228H5.84217Z" fill="#71B626"/>
<path d="M5.83479 19.5989C4.82777 19.5989 3.82075 19.5989 2.81372 19.5989C2.40731 19.5989 2.19512 19.3696 2.29582 19.0599C2.38334 18.7893 2.62311 18.787 2.85688 18.787H6.72194C7.42326 18.787 8.12578 18.787 8.8271 18.787C9.12321 18.787 9.37377 18.8489 9.40734 19.1792C9.43491 19.4452 9.21073 19.5989 8.81751 19.6001C7.82367 19.6046 6.83343 19.5989 5.83479 19.5989Z" fill="#71B626"/>
</svg>
