<svg width="25" height="24" viewBox="0 0 25 24" fill="none" xmlns="http://www.w3.org/2000/svg">
<path d="M7.92969 4H16.9297C17.5497 4 18.0997 4.02 18.5897 4.09C21.2197 4.38 21.9297 5.62 21.9297 9V15C21.9297 18.38 21.2197 19.62 18.5897 19.91C18.0997 19.98 17.5497 20 16.9297 20H7.92969C7.30969 20 6.75969 19.98 6.26969 19.91C3.63969 19.62 2.92969 18.38 2.92969 15V9C2.92969 5.62 3.63969 4.38 6.26969 4.09C6.75969 4.02 7.30969 4 7.92969 4Z" stroke="#66B127" stroke-width="1.5" stroke-linecap="round" stroke-linejoin="round"/>
<path d="M13.9297 10H17.4297" stroke="#66B127" stroke-width="1.5" stroke-linecap="round" stroke-linejoin="round"/>
<path d="M7.42969 15.5H7.44969H17.4297" stroke="#66B127" stroke-width="1.5" stroke-linecap="round" stroke-linejoin="round"/>
<path d="M10.5258 10H10.5347" stroke="#66B127" stroke-width="2" stroke-linecap="round" stroke-linejoin="round"/>
<path d="M7.52576 10H7.53474" stroke="#66B127" stroke-width="2" stroke-linecap="round" stroke-linejoin="round"/>
</svg>
