<svg width="19" height="22" viewBox="0 0 19 22" fill="none" xmlns="http://www.w3.org/2000/svg">
<path d="M12.4297 1H6.42969C5.8774 1 5.42969 1.44772 5.42969 2V4C5.42969 4.55228 5.8774 5 6.42969 5H12.4297C12.982 5 13.4297 4.55228 13.4297 4V2C13.4297 1.44772 12.982 1 12.4297 1Z" stroke="#66B127" stroke-width="1.5" stroke-linecap="round" stroke-linejoin="round"/>
<path d="M13.4297 3H15.4297C15.9601 3 16.4688 3.21071 16.8439 3.58579C17.219 3.96086 17.4297 4.46957 17.4297 5V19C17.4297 19.5304 17.219 20.0391 16.8439 20.4142C16.4688 20.7893 15.9601 21 15.4297 21H3.42969C2.89925 21 2.39055 20.7893 2.01547 20.4142C1.6404 20.0391 1.42969 19.5304 1.42969 19V5C1.42969 4.46957 1.6404 3.96086 2.01547 3.58579C2.39055 3.21071 2.89925 3 3.42969 3H5.42969M9.42969 10H13.4297M9.42969 15H13.4297M5.42969 10H5.43969M5.42969 15H5.43969" stroke="#66B127" stroke-width="1.5" stroke-linecap="round" stroke-linejoin="round"/>
</svg>
