<svg width="22" height="27" viewBox="0 0 22 27" fill="none" xmlns="http://www.w3.org/2000/svg">
<path fill-rule="evenodd" clip-rule="evenodd" d="M10.8878 0.00276992C14.684 0.00276992 17.7755 3.0943 17.7755 6.89436L17.7754 8.94403C20.0832 9.74722 21.7434 11.9443 21.7434 14.5228V20.0988C21.7434 23.3554 19.0952 26.0036 15.8386 26.0036H5.90485C2.64821 26.0036 0 23.3554 0 20.0988V14.5228C0 11.9448 1.65955 9.74804 3.96674 8.94448L3.96764 6.89436C3.97544 5.02228 4.69957 3.29451 6.00612 1.99965C7.31398 0.7035 9.04045 -0.0466322 10.8878 0.00276992ZM15.8386 10.5681H5.90485C3.72336 10.5681 1.95008 12.3413 1.95008 14.5228V20.0988C1.95008 22.2803 3.72336 24.0535 5.90485 24.0535H15.8386C18.0188 24.0535 19.7933 22.2803 19.7933 20.0988V14.5228C19.7933 12.3413 18.0188 10.5681 15.8386 10.5681ZM10.8714 14.8918C11.4097 14.8918 11.8465 15.3286 11.8465 15.8668V18.7542C11.8465 19.2925 11.4097 19.7293 10.8714 19.7293C10.3332 19.7293 9.89641 19.2925 9.89641 18.7542V15.8668C9.89641 15.3286 10.3332 14.8918 10.8714 14.8918ZM10.8839 1.95285H10.8631C9.54617 1.95285 8.31242 2.45987 7.38028 3.38421C6.44164 4.31245 5.92292 5.5514 5.91772 6.87226L5.91655 8.61724H15.8243L15.8254 6.89436C15.8254 4.16945 13.6088 1.95285 10.8839 1.95285Z" fill="#66B127"/>
</svg>
