<svg width="23" height="28" viewBox="0 0 23 28" fill="none" xmlns="http://www.w3.org/2000/svg">
<path d="M11.1528 27.5044C8.16321 27.5044 5.17224 27.5044 2.18127 27.5044C0.846494 27.5044 0.341216 27.009 0.338409 25.6995C0.331859 22.6444 0.331859 19.5889 0.338409 16.5329C0.334114 16.2104 0.388326 15.8899 0.498413 15.5869C2.46339 10.6393 4.43959 5.70025 6.38491 0.747115C6.61509 0.163238 6.91826 -0.00939879 7.5274 0.000426073C9.93309 0.038322 12.3388 0.0453397 14.7431 0.000426073C15.4041 -0.0108023 15.7003 0.198327 15.9459 0.814486C17.7509 5.33392 19.5558 9.85616 21.4661 14.3321C21.9675 15.4862 22.2104 16.736 22.1777 17.994C22.1314 20.4965 22.1664 22.999 22.1636 25.503C22.1636 27.0679 21.7187 27.5016 20.1201 27.5016C17.1324 27.5035 14.1433 27.5044 11.1528 27.5044ZM1.756 14.6956H20.6394C20.6515 14.6024 20.6515 14.5081 20.6394 14.4149C18.8569 10.0274 17.0856 5.63288 15.2666 1.25801C15.1655 1.01379 14.6855 0.79624 14.3767 0.789222C12.2714 0.747115 10.1506 0.789222 8.03829 0.747115C7.42354 0.735887 7.13581 0.925366 6.91545 1.51065C5.30698 5.65674 3.6564 9.7916 2.02267 13.9208C1.92442 14.1524 1.86267 14.3953 1.756 14.6956ZM11.2356 26.3998C14.1929 26.3998 17.1516 26.3886 20.1088 26.4096C20.7292 26.4096 21.0562 26.3058 21.0464 25.5675C21.0099 22.6102 21.0169 19.6515 21.0464 16.6943C21.0464 16.0472 20.812 15.8423 20.1945 15.8423C14.2462 15.8545 8.29795 15.8545 2.3497 15.8423C1.66898 15.8423 1.45564 16.0865 1.46265 16.7588C1.49213 19.6516 1.50336 22.5443 1.46265 25.437C1.45002 26.2328 1.7195 26.4279 2.4676 26.4195C5.38418 26.3816 8.30918 26.3998 11.2356 26.3998Z" fill="#71B626"/>
<path d="M11.2901 16.9299C13.693 16.9299 16.0959 16.9299 18.4988 16.9299C19.6819 16.9299 19.9444 17.1868 19.9514 18.3489C19.9636 20.2643 19.9636 22.1825 19.9514 24.1035C19.943 25.2011 19.6412 25.5169 18.5689 25.5183C13.7033 25.5267 8.8325 25.5267 3.95656 25.5183C2.87302 25.5183 2.56143 25.2067 2.55301 24.1259C2.53897 22.1759 2.53897 20.2273 2.55301 18.2802C2.56143 17.2219 2.83372 16.944 3.88498 16.9398C6.35383 16.9229 8.82267 16.9313 11.2901 16.9299ZM18.7949 24.3926V18.0121H16.1085C16.0453 18.4093 15.992 18.7475 15.9387 19.0802H14.486L14.3611 18.0149H8.20651L8.05072 19.0507H6.66962L6.55453 17.998H3.70673V24.4544H6.88717V22.9245L4.95869 22.8094C4.74535 21.622 4.74535 21.622 6.40295 21.4059C6.47313 21.1167 6.5433 20.8178 6.61208 20.5497H7.71808C7.79247 20.8823 7.85843 21.1602 7.91738 21.441H9.48936C9.55533 21.1167 9.61427 20.836 9.67182 20.5567H10.8676C10.8438 21.2725 11.0192 21.7174 11.8403 21.3876C11.8838 21.1223 11.9315 20.8458 11.9807 20.5539H13.14C13.2032 20.8851 13.2537 21.1588 13.3168 21.4887C13.62 21.4887 13.8783 21.4887 14.1323 21.4887C14.3863 21.4887 14.6348 21.4536 14.8972 21.4339C14.9478 21.1055 14.9885 20.8304 15.0306 20.5539H16.2418C16.2839 20.8823 16.319 21.1588 16.3527 21.4171C17.7661 21.5687 17.7661 21.5687 17.5485 22.8066L15.7688 22.9301V24.3996L18.7949 24.3926ZM8.35529 24.3575H14.2853V22.9189H8.35529V24.3575Z" fill="#71B626"/>
</svg>
