<svg width="26" height="26" viewBox="0 0 26 26" fill="none" xmlns="http://www.w3.org/2000/svg">
<g style="mix-blend-mode:luminosity">
<path d="M6.5 17.875H3.25V22.75H6.5V17.875ZM14.625 11.375H11.375V22.75H14.625V11.375ZM22.75 3.25V22.75H19.5V3.25H22.75ZM19.5 1.625C19.069 1.625 18.6557 1.7962 18.351 2.10095C18.0462 2.4057 17.875 2.81902 17.875 3.25V22.75C17.875 23.181 18.0462 23.5943 18.351 23.899C18.6557 24.2038 19.069 24.375 19.5 24.375H22.75C23.181 24.375 23.5943 24.2038 23.899 23.899C24.2038 23.5943 24.375 23.181 24.375 22.75V3.25C24.375 2.81902 24.2038 2.4057 23.899 2.10095C23.5943 1.7962 23.181 1.625 22.75 1.625H19.5ZM9.75 11.375C9.75 10.944 9.92121 10.5307 10.226 10.226C10.5307 9.92121 10.944 9.75 11.375 9.75H14.625C15.056 9.75 15.4693 9.92121 15.774 10.226C16.0788 10.5307 16.25 10.944 16.25 11.375V22.75C16.25 23.181 16.0788 23.5943 15.774 23.899C15.4693 24.2038 15.056 24.375 14.625 24.375H11.375C10.944 24.375 10.5307 24.2038 10.226 23.899C9.92121 23.5943 9.75 23.181 9.75 22.75V11.375ZM1.625 17.875C1.625 17.444 1.7962 17.0307 2.10095 16.726C2.4057 16.4212 2.81902 16.25 3.25 16.25H6.5C6.93098 16.25 7.3443 16.4212 7.64905 16.726C7.95379 17.0307 8.125 17.444 8.125 17.875V22.75C8.125 23.181 7.95379 23.5943 7.64905 23.899C7.3443 24.2038 6.93098 24.375 6.5 24.375H3.25C2.81902 24.375 2.4057 24.2038 2.10095 23.899C1.7962 23.5943 1.625 23.181 1.625 22.75V17.875Z" fill="#8B8B8B"/>
</g>
</svg>
