<svg width="70" height="78" viewBox="0 0 70 78" fill="none" xmlns="http://www.w3.org/2000/svg">
<rect y="0.600037" width="70" height="77" rx="5" fill="#AFFFCF" fill-opacity="0.2"/>
<path d="M35.2686 63.6267H15.808C12.2578 63.6246 10.4449 61.6325 10.443 57.7466C10.443 56.5638 10.5012 55.3788 10.443 54.2002C10.0994 48.0746 11.0389 42.092 11.9958 36.0987C12.9624 29.9026 13.8553 23.683 14.7637 17.4741C15.1247 14.9845 16.6018 13.4494 18.8786 13.4451C29.7483 13.4295 40.6135 13.4295 51.4741 13.4451C53.7179 13.4451 55.2164 14.8799 55.6162 17.4741C56.6003 23.8495 57.532 30.2357 58.4831 36.6175C58.8111 38.8146 59.2071 41.0073 59.4361 43.2172C59.6826 45.6 59.8379 47.9977 59.9097 50.3933C59.9893 53.0174 59.9369 55.6457 59.9253 58.2719C59.9117 61.5279 58.0405 63.6097 55.0902 63.6225C48.483 63.6381 41.8758 63.6396 35.2686 63.6267ZM56.5343 42.835C56.282 40.9881 56.0549 39.3035 55.8239 37.621C54.9019 30.9274 53.9702 24.2339 53.0677 17.5339C52.957 16.7119 52.7222 16.3446 51.8759 16.3467C40.816 16.3781 29.7561 16.3781 18.6962 16.3467C17.9605 16.3467 17.681 16.5389 17.5762 17.4143C16.8425 23.5229 16.0389 29.6208 15.2664 35.7229C14.9694 38.0715 14.6977 40.4394 14.4085 42.8371L56.5343 42.835ZM35.2064 59.98C42.0932 59.98 48.9876 59.9629 55.8685 59.9971C56.8973 59.9971 57.2835 59.6277 57.2699 58.4768C57.2247 54.8429 57.2247 51.2089 57.2699 47.5749C57.2855 46.3643 56.841 45.9544 55.7831 45.9565C42.0097 45.9765 28.2356 45.9765 14.4609 45.9565C13.4438 45.9565 13.0537 46.3601 13.0711 47.5109C13.1196 51.1 13.0847 54.6913 13.0905 58.2826C13.0905 59.8882 13.1779 59.9757 14.6647 59.9778L35.2064 59.98Z" fill="#71B626"/>
<path d="M26.3028 19.8903L26.4251 21.861C27.8654 21.861 29.2862 21.9293 30.6954 21.8375C31.6659 21.7734 32.2734 22.1065 32.8305 23.0246C34.9656 26.507 37.2113 29.904 39.3639 33.3735C39.8259 34.1187 40.3247 34.3962 41.1225 34.3599C42.4812 34.2959 43.8283 34.3172 45.1811 34.3599C46.3788 34.392 46.7844 34.9087 46.7786 36.2517C46.7786 37.4302 46.239 38.0473 45.1714 38.0558C43.2304 38.0708 41.2661 38.1348 39.3212 38.0131C38.8088 37.9811 38.1721 37.4687 37.8577 36.9733C35.676 33.5272 33.5506 30.0385 31.4407 26.539C31.0292 25.8536 30.6061 25.4971 29.8141 25.5611C28.7116 25.6508 27.5975 25.5846 26.431 25.5846C26.3708 26.4045 26.3203 27.1198 26.2582 27.9994L22.0171 24.4936L26.3028 19.8903Z" fill="#71B626"/>
<path d="M44.585 28.0773V25.6326C42.0617 25.6198 39.4006 24.7103 37.8827 28.2909L35.8311 25.4149C37.7041 22.1182 40.7748 21.198 44.5074 22.0307C44.5598 21.1233 44.5967 20.4486 44.6277 19.9127L48.7834 24.6099L44.585 28.0773Z" fill="#71B626"/>
<path d="M32.0603 30.6419L34.1954 33.3214C33.3957 34.6025 32.5145 36.0971 31.544 37.5319C31.3324 37.8436 30.7986 38.0187 30.4085 38.0315C28.8168 38.087 27.2233 38.0187 25.6316 38.0657C24.37 38.1041 24.1992 37.154 24.172 36.159C24.1448 35.1641 24.4593 34.3378 25.5889 34.3463C26.7186 34.3548 27.8231 34.4189 28.9294 34.3079C29.4424 34.2346 29.9147 33.962 30.261 33.5392C30.9093 32.6745 31.4256 31.6817 32.0603 30.6419Z" fill="#71B626"/>
<path d="M41.1533 53.7883H45.9884V56.4892H41.1533V53.7883Z" fill="#71B626"/>
<path d="M49.5 53.7646H54.3176V56.4975H49.5V53.7646Z" fill="#71B626"/>
<path d="M24.1421 53.7883H28.9247V56.4828H24.1421V53.7883Z" fill="#71B626"/>
<path d="M37.2674 56.502H32.4653V53.8011H37.2674V56.502Z" fill="#71B626"/>
<path d="M28.9577 49.5456V52.0544H24.1421V49.5456H28.9577Z" fill="#71B626"/>
<path d="M32.4424 52.0583V49.541H37.2774V52.0583H32.4424Z" fill="#71B626"/>
<path d="M46.01 49.5631V52.0804H41.1245V49.5631H46.01Z" fill="#71B626"/>
<path d="M49.4922 49.4855H54.3273V52.0476H49.4922V49.4855Z" fill="#71B626"/>
<path d="M18.7186 54.4646C18.5001 54.4689 18.283 54.424 18.0808 54.3327C17.8785 54.2414 17.6954 54.1056 17.5425 53.9337C17.3897 53.7618 17.2704 53.5573 17.1919 53.3329C17.1134 53.1084 17.0775 52.8687 17.0862 52.6284C17.0862 51.6377 17.8918 50.7068 18.7497 50.8136C19.6736 50.9289 20.2831 51.5011 20.3219 52.5985C20.3367 52.8391 20.306 53.0805 20.2319 53.3074C20.1577 53.5343 20.0418 53.7419 19.8912 53.9172C19.7406 54.0924 19.5587 54.2315 19.3569 54.3257C19.1552 54.4199 18.9378 54.4672 18.7186 54.4646Z" fill="#71B626"/>
</svg>
