<svg width="80" height="80" viewBox="0 0 80 80" fill="none" xmlns="http://www.w3.org/2000/svg">
<path d="M61.1255 21.4424C63.0676 24.0048 64.0164 27.1836 63.7967 30.3913C63.577 33.599 62.2035 36.6187 59.9301 38.8924L55.2213 43.5961C54.8811 43.9359 54.4198 44.1268 53.9389 44.1268C53.458 44.1268 52.9967 43.9359 52.6564 43.5961L36.4006 27.3438C36.0608 27.0035 35.8699 26.5423 35.8699 26.0614C35.8699 25.5805 36.0608 25.1193 36.4006 24.779L41.107 20.0729C43.3806 17.7993 46.4003 16.4255 49.6082 16.2053C52.8161 15.9852 55.9953 16.9335 58.5581 18.8752L65.9238 11.51C66.2659 11.1793 66.7243 10.9962 67.2001 11.0001C67.6759 11.004 68.1312 11.1946 68.4679 11.5309C68.8045 11.8672 68.9956 12.3223 68.9999 12.7981C69.0043 13.2739 68.8216 13.7324 68.4911 14.0748L61.1255 21.4424ZM53.9389 39.749L57.3628 36.3252C59.178 34.5102 60.1978 32.0484 60.1978 29.4815C60.1978 26.9145 59.178 24.4528 57.3628 22.6377C56.464 21.7389 55.397 21.026 54.2226 20.5396C53.0483 20.0532 51.7897 19.8029 50.5186 19.8029C47.9515 19.8029 45.4896 20.8226 43.6744 22.6377L40.2529 26.0614L53.9413 39.7465L53.9389 39.749ZM37.0201 33.2693C37.36 33.6096 37.5508 34.0708 37.5508 34.5517C37.5508 35.0326 37.36 35.4938 37.0201 35.8341L31.8757 40.9805L39.0067 48.111L44.1486 42.967C44.3161 42.7938 44.5164 42.6556 44.7379 42.5606C44.9594 42.4656 45.1975 42.4157 45.4385 42.4137C45.6795 42.4117 45.9184 42.4577 46.1414 42.5491C46.3644 42.6404 46.5669 42.7753 46.7373 42.9457C46.9076 43.1162 47.0422 43.3189 47.1334 43.5419C47.2245 43.765 47.2703 44.004 47.2681 44.2449C47.2659 44.4859 47.2157 44.724 47.1205 44.9453C47.0253 45.1667 46.887 45.3669 46.7136 45.5342L41.574 50.6782L43.5752 52.6768C43.7438 52.8453 43.8776 53.0454 43.9689 53.2657C44.0601 53.4859 44.1071 53.722 44.1071 53.9604C44.1071 54.1988 44.0601 54.4349 43.9689 54.6551C43.8776 54.8753 43.7438 55.0754 43.5752 55.244L38.8712 59.9501C36.5973 62.2233 33.5774 63.5967 30.3695 63.8164C27.1617 64.0361 23.9827 63.0873 21.4201 61.1453L14.052 68.513C13.708 68.8335 13.2529 69.008 12.7828 68.9997C12.3126 68.9914 11.864 68.801 11.5315 68.4685C11.199 68.136 11.0086 67.6875 11.0003 67.2173C10.992 66.7472 11.1665 66.2922 11.4871 65.9482L18.8527 58.5782C16.9109 56.0154 15.9625 52.8365 16.1827 49.6288C16.4029 46.4211 17.7768 43.4015 20.0505 41.1281L24.7545 36.4245C25.0947 36.0846 25.556 35.8937 26.0369 35.8937C26.5179 35.8937 26.9791 36.0846 27.3194 36.4245L29.3108 38.4133L34.4576 33.2693C34.7979 32.9295 35.2591 32.7386 35.7401 32.7386C36.221 32.7386 36.6822 32.9295 37.0225 33.2693H37.0201ZM22.6299 57.3998C24.4467 59.2075 26.9062 60.221 29.4692 60.2178C32.0321 60.2146 34.4892 59.1951 36.3014 57.3829L39.7229 53.9616L26.0345 40.274L22.613 43.6953C20.801 45.5077 19.7819 47.9648 19.7791 50.5276C19.7764 53.0904 20.7903 55.5497 22.5985 57.3659L22.613 57.3829L22.6299 57.3974V57.3998Z" fill="#71B625"/>
<path d="M61 52L53 60M53 52L61 60" stroke="#71B625" stroke-width="3" stroke-linecap="round" stroke-linejoin="round"/>
<rect width="80" height="80" rx="5" fill="#AFFFCF" fill-opacity="0.2"/>
</svg>
