<svg width="20" height="20" viewBox="0 0 20 20" fill="none" xmlns="http://www.w3.org/2000/svg">
<path fill-rule="evenodd" clip-rule="evenodd" d="M10 0C15.514 0 20 4.486 20 10C20 15.514 15.514 20 10 20C4.486 20 0 15.514 0 10C0 4.486 4.486 0 10 0Z" fill="#66B127"/>
<path fill-rule="evenodd" clip-rule="evenodd" d="M14.1485 6.98559C14.4569 7.29401 14.4569 7.79296 14.1485 8.10138L9.15269 13.0972C8.99901 13.2519 8.7969 13.3287 8.5948 13.3287C8.39375 13.3287 8.19059 13.2519 8.0369 13.0972L5.53796 10.5993C5.22954 10.2909 5.22954 9.7919 5.53796 9.48348C5.84638 9.17506 6.34532 9.17506 6.65375 9.48348L8.5948 11.4224L13.0327 6.98559C13.3411 6.67717 13.8401 6.67717 14.1485 6.98559Z" fill="white"/>
</svg>
