<svg width="22" height="20" viewBox="0 0 22 20" fill="none" xmlns="http://www.w3.org/2000/svg">
<path d="M5.72503 0.23938C4.22168 0.23938 2.91475 1.32141 2.56334 2.85633L0.448466 12.0848C0.315026 12.6671 0.30904 13.2736 0.430957 13.8587C0.552874 14.4438 0.799518 14.9922 1.15233 15.4626C1.50513 15.9331 1.95491 16.3133 2.4678 16.5747C2.9807 16.8361 3.54334 16.9719 4.11339 16.9718H17.8006C18.3704 16.9715 18.9326 16.8355 19.4452 16.574C19.9577 16.3126 20.4071 15.9324 20.7597 15.4621C21.1122 14.9918 21.3587 14.4437 21.4806 13.8589C21.6025 13.2742 21.5966 12.668 21.4634 12.0859L19.3506 2.85633C19.1797 2.11035 18.7748 1.44655 18.201 0.971825C17.6273 0.497104 16.9182 0.239104 16.1879 0.23938H5.72396H5.72503ZM4.11127 3.24786C4.19852 2.86726 4.40515 2.52858 4.69788 2.28637C4.99062 2.04415 5.35242 1.91251 5.72503 1.91262H16.189C16.9555 1.91262 17.6222 2.46479 17.8017 3.24786L19.9165 12.4763C19.9936 12.8127 19.9971 13.163 19.9267 13.5009C19.8562 13.8388 19.7138 14.1556 19.5099 14.4273C19.3061 14.699 19.0463 14.9185 18.75 15.0695C18.4538 15.2204 18.1288 15.2987 17.7995 15.2985H4.11445C3.78529 15.2985 3.46042 15.2201 3.16428 15.0691C2.86815 14.9181 2.60846 14.6985 2.40478 14.4268C2.20109 14.1552 2.0587 13.8385 1.98833 13.5006C1.91797 13.1628 1.92145 12.8126 1.99852 12.4763L4.11127 3.24786ZM5.38316 18.0873C5.17198 18.0873 4.96945 18.1754 4.82012 18.3323C4.67079 18.4892 4.5869 18.702 4.5869 18.9239C4.5869 19.1458 4.67079 19.3586 4.82012 19.5155C4.96945 19.6724 5.17198 19.7605 5.38316 19.7605H16.5308C16.742 19.7605 16.9445 19.6724 17.0939 19.5155C17.2432 19.3586 17.3271 19.1458 17.3271 18.9239C17.3271 18.702 17.2432 18.4892 17.0939 18.3323C16.9445 18.1754 16.742 18.0873 16.5308 18.0873H5.38316Z" fill="#66B127"/>
</svg>
