<svg width="21" height="21" viewBox="0 0 21 21" fill="none" xmlns="http://www.w3.org/2000/svg">
<path d="M20.5 20.96H14.6429V15.1028H20.5V20.96ZM16.1071 19.4957H19.0357V16.5671H16.1071V19.4957ZM13.1786 18.7635H4.39286C3.2278 18.7635 2.11046 18.3007 1.28664 17.4769C0.462818 16.6531 0 15.5357 0 14.3707C0 13.2056 0.462818 12.0883 1.28664 11.2645C2.11046 10.4406 3.2278 9.97781 4.39286 9.97781H5.85714V11.4421H4.39286C3.61615 11.4421 2.87126 11.7506 2.32204 12.2999C1.77283 12.8491 1.46429 13.594 1.46429 14.3707C1.46429 15.1474 1.77283 15.8923 2.32204 16.4415C2.87126 16.9907 3.61615 17.2992 4.39286 17.2992H13.1786V18.7635Z" fill="#C5C5C5"/>
<path d="M13.1784 13.6377H7.32129V7.78055H13.1784V13.6377ZM8.78557 12.1734H11.7141V9.24483H8.78557V12.1734Z" fill="#C5C5C5"/>
<path d="M16.1071 11.4414H14.6429V9.97712H16.1071C16.8838 9.97712 17.6287 9.66857 18.178 9.11936C18.7272 8.57014 19.0357 7.82525 19.0357 7.04854C19.0357 6.27184 18.7272 5.52695 18.178 4.97773C17.6287 4.42852 16.8838 4.11997 16.1071 4.11997H7.32143V2.65569H16.1071C17.2722 2.65569 18.3895 3.11851 19.2134 3.94233C20.0372 4.76615 20.5 5.88349 20.5 7.04854C20.5 8.2136 20.0372 9.33094 19.2134 10.1548C18.3895 10.9786 17.2722 11.4414 16.1071 11.4414ZM5.85714 6.3164H0V0.459259H5.85714V6.3164ZM1.46429 4.85212H4.39286V1.92354H1.46429V4.85212Z" fill="#C5C5C5"/>
</svg>
