<svg width="17" height="18" viewBox="0 0 17 18" fill="none" xmlns="http://www.w3.org/2000/svg">
<path d="M8.5 17.5C13.1944 17.5 17 13.6944 17 9C17 4.30558 13.1944 0.5 8.5 0.5C3.80558 0.5 0 4.30558 0 9C0 13.6944 3.80558 17.5 8.5 17.5Z" fill="#DC3938"/>
<path d="M9.38187 8.99911L11.2945 7.08713C11.5357 6.84605 11.5357 6.44703 11.2945 6.20595C11.0534 5.96488 10.6542 5.96488 10.413 6.20595L8.50039 8.11793L6.58774 6.20595C6.34658 5.96488 5.94742 5.96488 5.70626 6.20595C5.4651 6.44703 5.4651 6.84605 5.70626 7.08713L7.61891 8.99911L5.70626 10.9111C5.4651 11.1522 5.4651 11.5512 5.70626 11.7923C5.831 11.917 5.989 11.9751 6.147 11.9751C6.305 11.9751 6.463 11.917 6.58774 11.7923L8.50039 9.88028L10.413 11.7923C10.5378 11.917 10.6958 11.9751 10.8538 11.9751C11.0118 11.9751 11.1698 11.917 11.2945 11.7923C11.5357 11.5512 11.5357 11.1522 11.2945 10.9111L9.38187 8.99911Z" fill="white"/>
</svg>
