<svg width="36" height="36" viewBox="0 0 36 36" fill="none" xmlns="http://www.w3.org/2000/svg">
<rect width="36" height="36" rx="5" fill="#AFFFCF" fill-opacity="0.2"/>
<path d="M12.0851 10.9541C11.9727 10.9541 11.8808 11.0532 11.8808 11.1743V12.4954C11.8808 12.6165 11.9727 12.7156 12.0851 12.7156H21.8892C22.0016 12.7156 22.0935 12.6165 22.0935 12.4954V11.1743C22.0935 11.0532 22.0016 10.9541 21.8892 10.9541H12.0851ZM16.9871 16.4587V15.1376C16.9871 15.0165 16.8952 14.9174 16.7829 14.9174H12.0851C11.9727 14.9174 11.8808 15.0165 11.8808 15.1376V16.4587C11.8808 16.5798 11.9727 16.6789 12.0851 16.6789H16.7829C16.8952 16.6789 16.9871 16.5798 16.9871 16.4587ZM15.7616 27.3578H9.83828V7.98165H24.136V17.4495C24.136 17.5706 24.2279 17.6697 24.3403 17.6697H25.77C25.8824 17.6697 25.9743 17.5706 25.9743 17.4495V6.88073C25.9743 6.39358 25.6092 6 25.1573 6H8.81701C8.3651 6 8 6.39358 8 6.88073V28.4587C8 28.9459 8.3651 29.3394 8.81701 29.3394H15.7616C15.874 29.3394 15.9659 29.2404 15.9659 29.1193V27.578C15.9659 27.4569 15.874 27.3578 15.7616 27.3578ZM18.4195 24.1761C18.4654 23.2266 18.8331 22.3376 19.4612 21.6605C20.1301 20.9394 21.0441 20.5321 21.9913 20.5321C22.9462 20.5321 23.8449 20.9339 24.5215 21.6605C24.6032 21.7486 24.6824 21.8422 24.7564 21.9385L24.1666 22.4312C24.1362 22.4566 24.1131 22.4907 24.0998 22.5296C24.0866 22.5685 24.0838 22.6106 24.0918 22.6512C24.0998 22.6917 24.1183 22.729 24.1451 22.7587C24.1719 22.7885 24.2059 22.8094 24.2432 22.8193L26.6253 23.4385C26.753 23.4716 26.8756 23.367 26.8781 23.2266L26.8934 20.6009C26.8938 20.5596 26.8833 20.5189 26.8633 20.4837C26.8432 20.4484 26.8143 20.42 26.78 20.4016C26.7456 20.3832 26.7071 20.3756 26.6689 20.3797C26.6307 20.3838 26.5944 20.3994 26.5641 20.4248L26.0458 20.8596C25.0909 19.5853 23.6279 18.7706 21.9913 18.7706C19.1854 18.7706 16.8952 21.1624 16.7829 24.1569C16.7778 24.2807 16.8723 24.3853 16.9871 24.3853H18.2152C18.325 24.3853 18.4144 24.2945 18.4195 24.1761ZM26.9956 24.3853H25.7675C25.6577 24.3853 25.5683 24.4761 25.5632 24.5945C25.5173 25.544 25.1496 26.433 24.5215 27.1101C23.8526 27.8312 22.9386 28.2385 21.9913 28.2385C21.0365 28.2385 20.1378 27.8367 19.4612 27.1101C19.3795 27.022 19.3003 26.9284 19.2263 26.8321L19.8161 26.3394C19.8465 26.3141 19.8696 26.28 19.8828 26.2411C19.8961 26.2022 19.8989 26.16 19.8909 26.1195C19.8829 26.0789 19.8644 26.0416 19.8376 26.0119C19.8108 25.9822 19.7768 25.9612 19.7395 25.9514L17.3574 25.3321C17.2297 25.2991 17.1071 25.4037 17.1046 25.544L17.0893 28.1697C17.0889 28.2111 17.0994 28.2517 17.1194 28.287C17.1395 28.3222 17.1684 28.3507 17.2027 28.3691C17.2371 28.3875 17.2756 28.395 17.3138 28.3909C17.352 28.3868 17.3883 28.3712 17.4186 28.3459L17.9369 27.911C18.8918 29.1853 20.3548 30 21.9913 30C24.7973 30 27.0875 27.6083 27.1998 24.6138C27.2049 24.4899 27.1104 24.3853 26.9956 24.3853Z" fill="#66B127"/>
</svg>
