<svg width="25" height="27" viewBox="0 0 25 27" fill="none" xmlns="http://www.w3.org/2000/svg">
<path d="M7.55208 2.34375H7.29167C7.4349 2.34375 7.55208 2.22656 7.55208 2.08333V2.34375H17.4479V2.08333C17.4479 2.22656 17.5651 2.34375 17.7083 2.34375H17.4479V4.6875H19.7917V2.08333C19.7917 0.934245 18.8574 0 17.7083 0H7.29167C6.14258 0 5.20833 0.934245 5.20833 2.08333V4.6875H7.55208V2.34375ZM23.9583 4.6875H1.04167C0.465495 4.6875 0 5.15299 0 5.72917V6.77083C0 6.91406 0.117187 7.03125 0.260417 7.03125H2.22656L3.0306 24.056C3.08268 25.166 4.00065 26.0417 5.11068 26.0417H19.8893C21.0026 26.0417 21.9173 25.1693 21.9694 24.056L22.7734 7.03125H24.7396C24.8828 7.03125 25 6.91406 25 6.77083V5.72917C25 5.15299 24.5345 4.6875 23.9583 4.6875ZM19.6387 23.6979H5.36133L4.57357 7.03125H20.4264L19.6387 23.6979Z" fill="#DC3938"/>
</svg>
