<svg width="30" height="32" viewBox="0 0 30 32" fill="none" xmlns="http://www.w3.org/2000/svg">
<path d="M2.5 20V12C2.5 9.87827 3.29018 7.84344 4.6967 6.34315C6.10322 4.84286 8.01088 4 10 4H20C21.9891 4 23.8968 4.84286 25.3033 6.34315C26.7098 7.84344 27.5 9.87827 27.5 12V20C27.5 22.1217 26.7098 24.1566 25.3033 25.6569C23.8968 27.1571 21.9891 28 20 28H10C8.01088 28 6.10322 27.1571 4.6967 25.6569C3.29018 24.1566 2.5 22.1217 2.5 20V20Z" stroke="white" stroke-width="1.5"/>
<path d="M15 16H18.125C18.6223 16 19.0992 15.7893 19.4508 15.4142C19.8025 15.0391 20 14.5304 20 14C20 13.4696 19.8025 12.9609 19.4508 12.5858C19.0992 12.2107 18.6223 12 18.125 12H15M15 12V20V12ZM11.25 12V20V12Z" stroke="white" stroke-width="1.5" stroke-linecap="round" stroke-linejoin="round"/>
</svg>
