<svg width="31" height="28" viewBox="0 0 31 28" fill="none" xmlns="http://www.w3.org/2000/svg">
<path d="M8.313 0.776795C6.16019 0.776795 4.28865 2.25588 3.78541 4.35405L0.756888 16.969C0.565801 17.7649 0.557228 18.594 0.731815 19.3938C0.906402 20.1936 1.2596 20.9432 1.76482 21.5863C2.27005 22.2294 2.91414 22.7492 3.64861 23.1065C4.38308 23.4638 5.1888 23.6494 6.00511 23.6492H25.6054C26.4213 23.6489 27.2265 23.463 27.9604 23.1055C28.6944 22.7481 29.338 22.2284 29.8428 21.5856C30.3477 20.9428 30.7007 20.1935 30.8752 19.3941C31.0497 18.5948 31.0413 17.7661 30.8506 16.9705L27.8251 4.35405C27.5803 3.33433 27.0004 2.42694 26.1788 1.77801C25.3572 1.12909 24.3417 0.776418 23.296 0.776795H8.31147H8.313ZM6.00207 4.88926C6.12702 4.36899 6.42291 3.90603 6.84211 3.57493C7.26131 3.24384 7.77942 3.06388 8.313 3.06404H23.2975C24.3952 3.06404 25.35 3.81883 25.6069 4.88926L28.6354 17.5042C28.7458 17.9639 28.7508 18.4428 28.6499 18.9047C28.5491 19.3667 28.345 19.7996 28.0532 20.171C27.7613 20.5424 27.3893 20.8426 26.965 21.0489C26.5408 21.2552 26.0754 21.3622 25.6039 21.362H6.00663C5.53527 21.362 5.07005 21.2548 4.64598 21.0484C4.22191 20.842 3.85004 20.5418 3.55835 20.1704C3.26667 19.7991 3.06277 19.3662 2.962 18.9043C2.86123 18.4425 2.86622 17.9638 2.97659 17.5042L6.00207 4.88926ZM7.82344 25.1741C7.52103 25.1741 7.231 25.2946 7.01716 25.509C6.80332 25.7235 6.68319 26.0144 6.68319 26.3177C6.68319 26.621 6.80332 26.9119 7.01716 27.1264C7.231 27.3408 7.52103 27.4613 7.82344 27.4613H23.787C24.0895 27.4613 24.3795 27.3408 24.5933 27.1264C24.8072 26.9119 24.9273 26.621 24.9273 26.3177C24.9273 26.0144 24.8072 25.7235 24.5933 25.509C24.3795 25.2946 24.0895 25.1741 23.787 25.1741H7.82344Z" fill="#66B127"/>
</svg>
