<svg width="20" height="26" viewBox="0 0 20 26" fill="none" xmlns="http://www.w3.org/2000/svg">
<path d="M4.25528 5.37015C4.13826 5.37015 4.04251 5.47336 4.04251 5.5995V6.97565C4.04251 7.1018 4.13826 7.20501 4.25528 7.20501H14.4679C14.585 7.20501 14.6807 7.1018 14.6807 6.97565V5.5995C14.6807 5.47336 14.585 5.37015 14.4679 5.37015H4.25528ZM9.36161 11.1041V9.72794C9.36161 9.6018 9.26586 9.49859 9.14884 9.49859H4.25528C4.13826 9.49859 4.04251 9.6018 4.04251 9.72794V11.1041C4.04251 11.2302 4.13826 11.3334 4.25528 11.3334H9.14884C9.26586 11.3334 9.36161 11.2302 9.36161 11.1041ZM8.08502 22.4573H1.91487V2.27381H16.8083V12.1362C16.8083 12.2623 16.9041 12.3656 17.0211 12.3656H18.5104C18.6275 12.3656 18.7232 12.2623 18.7232 12.1362V1.12703C18.7232 0.619572 18.3429 0.209595 17.8722 0.209595H0.851055C0.380315 0.209595 0 0.619572 0 1.12703V23.6041C0 24.1115 0.380315 24.5215 0.851055 24.5215H8.08502C8.20204 24.5215 8.29779 24.4183 8.29779 24.2922V22.6867C8.29779 22.5605 8.20204 22.4573 8.08502 22.4573ZM10.8536 19.1431C10.9015 18.154 11.2845 17.2279 11.9387 16.5227C12.6355 15.7715 13.5876 15.3472 14.5743 15.3472C15.569 15.3472 16.5051 15.7658 17.2099 16.5227C17.295 16.6144 17.3775 16.7119 17.4546 16.8122L16.8403 17.3254C16.8086 17.3518 16.7845 17.3874 16.7707 17.4279C16.7569 17.4684 16.754 17.5123 16.7623 17.5546C16.7707 17.5968 16.7899 17.6356 16.8178 17.6666C16.8457 17.6976 16.8811 17.7194 16.92 17.7297L19.4014 18.3747C19.5344 18.4091 19.662 18.3002 19.6647 18.154L19.6806 15.4189C19.681 15.3758 19.6701 15.3335 19.6492 15.2967C19.6283 15.26 19.5983 15.2304 19.5625 15.2112C19.5266 15.1921 19.4866 15.1842 19.4468 15.1885C19.407 15.1927 19.3692 15.209 19.3376 15.2354L18.7977 15.6884C17.803 14.361 16.2791 13.5123 14.5743 13.5123C11.6515 13.5123 9.26586 16.0037 9.14884 19.123C9.14352 19.252 9.24193 19.361 9.36161 19.361H10.6408C10.7552 19.361 10.8483 19.2664 10.8536 19.1431ZM19.787 19.361H18.5078C18.3934 19.361 18.3003 19.4556 18.295 19.5789C18.2472 20.568 17.8642 21.494 17.2099 22.1993C16.5131 22.9504 15.561 23.3747 14.5743 23.3747C13.5796 23.3747 12.6435 22.9562 11.9387 22.1993C11.8536 22.1075 11.7712 22.0101 11.694 21.9097L12.3084 21.3965C12.3401 21.3701 12.3642 21.3346 12.378 21.294C12.3917 21.2535 12.3946 21.2096 12.3863 21.1674C12.378 21.1251 12.3587 21.0863 12.3308 21.0553C12.303 21.0244 12.2675 21.0025 12.2286 20.9923L9.74724 20.3472C9.61426 20.3128 9.4866 20.4217 9.48394 20.568L9.46799 23.3031C9.46761 23.3461 9.47849 23.3885 9.49939 23.4252C9.5203 23.4619 9.55038 23.4916 9.58618 23.5107C9.62199 23.5299 9.66208 23.5378 9.70185 23.5335C9.74162 23.5292 9.77948 23.5129 9.81107 23.4865L10.351 23.0336C11.3456 24.361 12.8695 25.2096 14.5743 25.2096C17.4972 25.2096 19.8828 22.7182 19.9998 19.5989C20.0051 19.4699 19.9067 19.361 19.787 19.361Z" fill="#C5C5C5"/>
</svg>
