<svg width="36" height="36" viewBox="0 0 36 36" fill="none" xmlns="http://www.w3.org/2000/svg">
<rect width="36" height="36" rx="5" fill="#AFFFCF" fill-opacity="0.2"/>
<path d="M17.7903 21.6767C19.5924 21.6767 21.0532 20.1504 21.0532 18.2675C21.0532 16.3847 19.5924 14.8583 17.7903 14.8583C15.9882 14.8583 14.5273 16.3847 14.5273 18.2675C14.5273 20.1504 15.9882 21.6767 17.7903 21.6767Z" stroke="#66B127" stroke-width="2" stroke-linecap="round" stroke-linejoin="round"/>
<path d="M17.7889 28.4951V28.5065M8 14.8583V14.8697M27.5777 14.8583V14.8697M13.4383 27.4724C11.954 26.7159 10.677 25.5795 9.72614 24.1688C8.77529 22.758 8.18149 21.1189 8 19.4039M22.1395 27.4724C23.6237 26.7159 24.9007 25.5795 25.8516 24.1688C26.8024 22.758 27.3962 21.1189 27.5777 19.4039M11.4805 10.3127C13.2295 8.81712 15.42 8 17.6801 8C19.9402 8 22.1306 8.81712 23.8797 10.3127" stroke="#66B127" stroke-width="2" stroke-linecap="round" stroke-linejoin="round"/>
</svg>
