<svg width="36" height="36" viewBox="0 0 36 36" fill="none" xmlns="http://www.w3.org/2000/svg">
<rect width="36" height="36" rx="5" fill="#AFFFCF" fill-opacity="0.2"/>
<g clip-path="url(#clip0_1163_4142)">
<path d="M9.5 22.5C8 21.5 12 17.5 14.75 20.0367C15.0322 20.0403 15.221 19.4575 15.5 19.5C16.5416 18.8319 17.8459 19.083 19.0833 19.0833H19.3585C17.939 18.3238 16.3596 17.9117 14.75 17.8808C12.5508 17.8808 8.25 19.04 8.25 21.7592V23.4167H12.9614C13.2446 22.6172 12.9334 23.1311 13.5 22.5H9.5Z" fill="#71B626"/>
<path d="M22.3333 7.16667H17.805C17.5832 6.5334 17.17 5.98471 16.6227 5.59651C16.0754 5.20831 15.421 4.99979 14.75 4.99979C14.079 4.99979 13.4246 5.20831 12.8773 5.59651C12.33 5.98471 11.9168 6.5334 11.695 7.16667H7.16667C6.59256 7.16839 6.04245 7.39721 5.6365 7.80317C5.23054 8.20913 5.00171 8.75923 5 9.33334V24.5C5.00171 25.0741 5.23054 25.6242 5.6365 26.0302C6.04245 26.4361 6.59256 26.665 7.16667 26.6667H12.7361C12.5318 25.9589 12.5318 25.7078 12.7361 25H6.5V8.75962H23V19.0833H24.5V9.33334C24.4983 8.75923 24.2695 8.20913 23.8635 7.80317C23.4575 7.39721 22.9074 7.16839 22.3333 7.16667ZM14.75 8.52084C14.5349 8.51942 14.3291 8.43336 14.177 8.28129C14.025 8.12923 13.9389 7.92339 13.9375 7.70834C13.9375 7.49285 14.0231 7.28619 14.1755 7.13381C14.3278 6.98144 14.5345 6.89584 14.75 6.89584C14.9655 6.89584 15.1722 6.98144 15.3245 7.13381C15.4769 7.28619 15.5625 7.49285 15.5625 7.70834C15.5611 7.92339 15.475 8.12923 15.323 8.28129C15.1709 8.43336 14.9651 8.51942 14.75 8.52084Z" fill="#71B626"/>
<circle cx="15" cy="14" r="2.5" stroke="#71B626"/>
<path d="M23.9799 27.5407H23.1898C22.9753 27.5407 22.7974 27.3628 22.7974 27.1483C22.7974 26.9337 22.9753 26.7558 23.1898 26.7558H23.9799C25.3509 26.7558 26.4654 25.6413 26.4654 24.2703C26.4654 22.8994 25.3509 21.7849 23.9799 21.7849H23.195C22.9805 21.7849 22.8026 21.607 22.8026 21.3924C22.8026 21.1779 22.9753 21 23.195 21H23.9799C25.7852 21 27.2503 22.4651 27.2503 24.2703C27.2503 26.0756 25.7852 27.5407 23.9799 27.5407Z" fill="#71B626"/>
<path d="M20.0552 27.5407H19.2703C17.4651 27.5407 16 26.0756 16 24.2703C16 22.4651 17.4651 21 19.2703 21H20.0552C20.2698 21 20.4477 21.1779 20.4477 21.3924C20.4477 21.607 20.2698 21.7849 20.0552 21.7849H19.2703C17.8994 21.7849 16.7849 22.8994 16.7849 24.2703C16.7849 25.6413 17.8994 26.7558 19.2703 26.7558H20.0552C20.2698 26.7558 20.4477 26.9337 20.4477 27.1483C20.4477 27.3628 20.2698 27.5407 20.0552 27.5407Z" fill="#71B626"/>
<path d="M23.7181 24.6628H19.5321C19.3176 24.6628 19.1396 24.4849 19.1396 24.2703C19.1396 24.0558 19.3176 23.8779 19.5321 23.8779H23.7181C23.9327 23.8779 24.1106 24.0558 24.1106 24.2703C24.1106 24.4849 23.9327 24.6628 23.7181 24.6628Z" fill="#71B626"/>
</g>
<defs>
<clipPath id="clip0_1163_4142">
<rect width="26" height="26" fill="white" transform="translate(5 5)"/>
</clipPath>
</defs>
</svg>
