<svg width="27" height="23" viewBox="0 0 27 23" fill="none" xmlns="http://www.w3.org/2000/svg">
<path d="M1.95184 0.333252V3.59375H26.8701V19.6566H11.6276V17.2745H5.24658L5.07984 19.6878H2.38955C1.33398 20.3682 2.90021 22.3201 0.666992 22.2962V0.529775L1.95184 0.333252ZM25.5912 18.3851V5.08406H2.03372V7.56442H5.0441V13.9991H2.04266V18.3479H3.8069C3.98705 15.9658 4.07935 15.8854 6.42721 15.8824C7.65598 15.8824 8.88475 15.8824 10.1135 15.8824C12.6445 15.8824 12.6445 15.8824 13.0301 18.3881L25.5912 18.3851ZM1.95184 8.89095V12.5639H3.87687V8.89095H1.95184Z" fill="#71B626"/>
<path d="M24.5501 13.8248L21.8166 16.5047C21.6142 16.2709 21.4176 16.0297 21.2062 15.8034C21.0216 15.6069 20.7685 15.2407 20.6345 15.2779C20.3665 15.3508 20.1551 15.6412 19.9288 15.8526C19.7025 16.064 19.4896 16.2873 19.2708 16.5047C19.0609 16.2769 18.8524 16.0491 18.641 15.8228C18.4549 15.6263 18.2197 15.2451 18.0872 15.2779C17.8162 15.3449 17.5899 15.6233 17.3636 15.8332C17.1373 16.0431 16.9363 16.2799 16.7234 16.5047C16.5075 16.2858 16.2961 16.058 16.0743 15.8481C15.6276 15.4238 15.1884 15.0054 14.7448 14.5856C14.5483 14.3995 14.1656 14.1687 14.1969 14.0362C14.2624 13.7653 14.5363 13.5345 14.7478 13.3097C14.9592 13.0849 15.1944 12.8854 15.4237 12.674C15.2063 12.4566 14.977 12.2422 14.7701 12.0174C14.5631 11.7926 14.2698 11.5707 14.1969 11.3102C14.1612 11.1762 14.5274 10.9261 14.7254 10.74C14.9502 10.5286 15.1899 10.3306 15.4237 10.1266C15.1587 9.89732 14.8758 9.67995 14.6361 9.4343C14.4485 9.24075 14.1895 8.98765 14.1895 8.77624C14.1895 8.56483 14.5066 8.36533 14.6956 8.18071C15.1512 7.71819 15.6113 7.25914 16.0758 6.80356C16.2678 6.61448 16.5224 6.25717 16.6624 6.29588C16.9289 6.37478 17.1284 6.67552 17.3547 6.8914L18.0276 7.52861C18.2316 7.29636 18.4311 7.05815 18.6425 6.83185C18.8286 6.63533 19.0772 6.2661 19.2097 6.30183C19.4792 6.37329 19.6936 6.66212 19.9199 6.87205C20.1462 7.08197 20.3561 7.30976 20.575 7.52861C20.7864 7.30231 20.9859 7.06559 21.2122 6.85418C21.4385 6.64277 21.6663 6.36734 21.9372 6.30183C22.0683 6.26908 22.2946 6.65915 22.4896 6.84525C22.9586 7.29189 23.4424 7.73109 23.9025 8.18518C24.093 8.37426 24.3729 8.60949 24.3714 8.8209C24.37 9.03232 24.0737 9.25564 23.8935 9.45067C23.6538 9.70377 23.3933 9.93454 23.1491 10.1742C23.3963 10.3663 23.6583 10.5405 23.8861 10.7534C24.0826 10.9365 24.3729 11.1583 24.3774 11.3698C24.3819 11.5812 24.1064 11.8164 23.9188 12.0144C23.6791 12.266 23.4067 12.4879 23.1491 12.7216C23.3873 12.9196 23.6241 13.1206 23.8667 13.3171C24.0722 13.4779 24.2881 13.6313 24.5501 13.8248ZM16.7964 13.859H21.7452V8.94596H16.7964V13.859Z" fill="#71B626"/>
<path d="M11.4758 8.81946C10.6049 9.40606 10.0957 10.0105 9.60141 9.9986C9.18901 9.98818 8.41036 9.15594 8.47885 8.86562C8.60837 8.35793 9.22325 7.74007 9.72647 7.63586C10.1046 7.55695 10.6332 8.21501 11.4758 8.81946Z" fill="#71B626"/>
</svg>
