<svg width="23" height="22" viewBox="0 0 23 22" fill="none" xmlns="http://www.w3.org/2000/svg">
<path d="M11.0007 0C11.3001 3.94931e-05 11.589 0.109953 11.8127 0.308893C12.0365 0.507833 12.1794 0.781963 12.2144 1.07929L12.223 1.2223V20.7791C12.2226 21.0906 12.1033 21.3902 11.8895 21.6168C11.6756 21.8433 11.3833 21.9796 11.0723 21.9979C10.7613 22.0162 10.4551 21.915 10.2162 21.715C9.97727 21.5151 9.82373 21.2314 9.78694 20.9221L9.77838 20.7791V1.2223C9.77838 0.898124 9.90716 0.587228 10.1364 0.358003C10.3656 0.128777 10.6765 0 11.0007 0ZM6.11149 3.66689C6.41087 3.66693 6.69983 3.77685 6.92355 3.97579C7.14727 4.17473 7.2902 4.44886 7.32523 4.74618L7.33379 4.88919V17.1122C7.33344 17.4237 7.21415 17.7234 7.00029 17.9499C6.78642 18.1764 6.49413 18.3127 6.18312 18.331C5.87212 18.3493 5.56588 18.2481 5.32698 18.0481C5.08808 17.8482 4.93454 17.5645 4.89775 17.2552L4.88919 17.1122V4.88919C4.88919 4.56502 5.01797 4.25412 5.24719 4.0249C5.47642 3.79567 5.78732 3.66689 6.11149 3.66689ZM15.8899 3.66689C16.1893 3.66693 16.4782 3.77685 16.7019 3.97579C16.9257 4.17473 17.0686 4.44886 17.1036 4.74618L17.1122 4.88919V17.1122C17.1118 17.4237 16.9925 17.7234 16.7787 17.9499C16.5648 18.1764 16.2725 18.3127 15.9615 18.331C15.6505 18.3493 15.3443 18.2481 15.1054 18.0481C14.8665 17.8482 14.7129 17.5645 14.6761 17.2552L14.6676 17.1122V4.88919C14.6676 4.56502 14.7964 4.25412 15.0256 4.0249C15.2548 3.79567 15.5657 3.66689 15.8899 3.66689ZM1.2223 7.33378C1.52168 7.33382 1.81063 7.44374 2.03436 7.64268C2.25808 7.84162 2.40101 8.11575 2.43604 8.41307L2.4446 8.55608V13.4453C2.44425 13.7568 2.32496 14.0565 2.11109 14.283C1.89723 14.5095 1.60493 14.6459 1.29393 14.6641C0.982927 14.6824 0.676689 14.5812 0.437787 14.3812C0.198885 14.1813 0.0453517 13.8976 0.00855605 13.5883L0 13.4453V8.55608C0 8.23191 0.128777 7.92101 0.358003 7.69179C0.587228 7.46256 0.898124 7.33378 1.2223 7.33378ZM20.7791 7.33378C21.0784 7.33382 21.3674 7.44374 21.5911 7.64268C21.8148 7.84162 21.9578 8.11575 21.9928 8.41307L22.0014 8.55608V13.4453C22.001 13.7568 21.8817 14.0565 21.6679 14.283C21.454 14.5095 21.1617 14.6459 20.8507 14.6641C20.5397 14.6824 20.2335 14.5812 19.9946 14.3812C19.7556 14.1813 19.6021 13.8976 19.5653 13.5883L19.5568 13.4453V8.55608C19.5568 8.23191 19.6855 7.92101 19.9148 7.69179C20.144 7.46256 20.4549 7.33378 20.7791 7.33378Z" fill="#66B127"/>
</svg>
