<svg width="26" height="26" viewBox="0 0 26 26" fill="none" xmlns="http://www.w3.org/2000/svg">
<path d="M19.8913 2.85996C21.668 2.85996 23.1413 4.33329 23.1413 6.10996C23.1413 7.89746 21.668 9.35996 19.8913 9.35996C18.1038 9.35996 16.6413 7.89746 16.6413 6.10996C16.6413 5.78496 16.6955 5.48163 16.793 5.19996C15.6338 4.64746 14.3555 4.33329 13.0013 4.33329C10.7028 4.33329 8.49836 5.24639 6.87304 6.8717C5.24773 8.49702 4.33464 10.7014 4.33464 13L4.37797 13.91L2.22214 14.1375L2.16797 13C2.16797 10.1268 3.30933 7.37128 5.34098 5.33964C7.37262 3.30799 10.1281 2.16663 13.0013 2.16663C14.8321 2.16663 16.5546 2.62163 18.0605 3.42329C18.5913 3.06579 19.2196 2.85996 19.8913 2.85996ZM19.8913 5.02663C19.604 5.02663 19.3284 5.14076 19.1253 5.34393C18.9221 5.54709 18.808 5.82264 18.808 6.10996C18.808 6.39728 18.9221 6.67283 19.1253 6.87599C19.3284 7.07916 19.604 7.19329 19.8913 7.19329C20.498 7.19329 20.9746 6.70579 20.9746 6.10996C20.9746 5.50329 20.498 5.02663 19.8913 5.02663ZM6.1113 16.64C7.8988 16.64 9.3613 18.1025 9.3613 19.89C9.3613 20.215 9.30714 20.5183 9.20964 20.8C10.3688 21.3525 11.6471 21.6666 13.0013 21.6666C15.2998 21.6666 17.5042 20.7535 19.1296 19.1282C20.7549 17.5029 21.668 15.2985 21.668 13L21.6246 12.09L23.7805 11.8625L23.8346 13C23.8346 15.8731 22.6933 18.6286 20.6616 20.6603C18.63 22.6919 15.8745 23.8333 13.0013 23.8333C11.1705 23.8333 9.44797 23.3783 7.94214 22.5766C7.4113 22.9341 6.78297 23.14 6.1113 23.14C4.33464 23.14 2.8613 21.6666 2.8613 19.89C2.8613 18.1025 4.33464 16.64 6.1113 16.64ZM6.1113 18.8066C5.50464 18.8066 5.02797 19.2941 5.02797 19.89C5.02797 20.4966 5.50464 20.9733 6.1113 20.9733C6.39862 20.9733 6.67417 20.8592 6.87733 20.656C7.0805 20.4528 7.19464 20.1773 7.19464 19.89C7.19464 19.6026 7.0805 19.3271 6.87733 19.1239C6.67417 18.9208 6.39862 18.8066 6.1113 18.8066Z" fill="#C5C5C5"/>
<circle cx="13" cy="13" r="3" stroke="#C5C5C5" stroke-width="2"/>
</svg>
