<svg width="21" height="26" viewBox="0 0 21 26" fill="none" xmlns="http://www.w3.org/2000/svg">
<path fill-rule="evenodd" clip-rule="evenodd" d="M20.6578 20.7154C20.6578 24.9318 14.8756 25.4192 10.5275 25.4192L10.2163 25.4189C7.44602 25.4122 0.394531 25.2373 0.394531 20.6898C0.394531 16.5595 5.94437 16.0075 10.2594 15.9866L10.8386 15.9863C13.6087 15.993 20.6578 16.1679 20.6578 20.7154ZM10.5275 17.9049C5.07658 17.9049 2.31341 18.8413 2.31341 20.6898C2.31341 22.555 5.07658 23.5003 10.5275 23.5003C15.9771 23.5003 18.739 22.5639 18.739 20.7154C18.739 18.8503 15.9771 17.9049 10.5275 17.9049ZM10.5275 0C14.2731 0 17.319 3.04717 17.319 6.79281C17.319 10.5385 14.2731 13.5844 10.5275 13.5844H10.4865C6.74856 13.5728 3.72058 10.5244 3.73333 6.78898C3.73333 3.04717 6.78055 0 10.5275 0ZM10.5275 1.82677C7.78859 1.82677 5.56011 4.05394 5.56011 6.79281C5.55119 9.52273 7.76301 11.7486 10.4904 11.7589L10.5275 12.6722V11.7589C13.2651 11.7589 15.4922 9.53041 15.4922 6.79281C15.4922 4.05394 13.2651 1.82677 10.5275 1.82677Z" fill="#71B626"/>
</svg>
