<svg width="506" height="336" viewBox="0 0 506 336" fill="none" xmlns="http://www.w3.org/2000/svg">
<path d="M506 253.277C505.988 270.096 504.343 286.874 501.087 303.374H497.013V304.393H297.633C285.764 316.085 270.555 323.798 254.111 326.463C237.667 329.129 220.801 326.616 205.847 319.271C190.894 311.927 178.593 300.115 170.647 285.469C162.701 270.824 159.503 254.071 161.496 237.528C163.489 220.985 170.573 205.47 181.77 193.132C192.966 180.794 207.72 172.242 223.989 168.66C240.258 165.079 257.238 166.644 272.579 173.14C287.92 179.636 300.862 190.741 309.615 204.919H401.457C390.054 173.287 368.888 146.102 341.021 127.295C313.154 108.487 280.029 99.032 246.435 100.296C212.841 101.559 180.519 113.477 154.143 134.325C127.767 155.172 108.703 183.87 99.7068 216.27C90.711 248.669 92.2497 283.09 104.1 314.557C115.951 346.024 137.5 372.906 165.631 391.316C193.763 409.726 227.018 418.71 260.591 416.97C294.163 415.23 326.313 402.855 352.391 381.635L353.769 380.616L368.267 368.152C377.504 360.489 389.157 356.349 401.157 356.467C413.839 356.317 426.159 360.694 435.905 368.811C439.438 371.887 442.505 375.46 445.012 379.418C448.826 385.743 450.629 393.08 450.179 400.453C449.73 407.827 447.05 414.89 442.495 420.705C442.312 421.046 442.069 421.351 441.776 421.604C440.412 423.191 438.952 424.692 437.403 426.099C437.174 426.441 436.89 426.745 436.564 426.997C396.11 469.71 342.038 496.984 283.652 504.128C225.265 511.271 166.215 497.838 116.66 466.138C67.1062 434.439 30.1469 386.455 12.1414 330.444C-5.86402 274.432 -3.78972 213.895 18.0074 159.248C39.8046 104.601 79.9616 59.261 131.569 31.0293C183.177 2.79761 243.008 -6.56065 300.769 4.56469C358.53 15.69 410.608 46.6033 448.043 91.9857C485.479 137.368 505.931 194.382 505.88 253.218L506 253.277Z" fill="url(#paint0_linear_86_3248)" fill-opacity="0.04"/>
<defs>
<linearGradient id="paint0_linear_86_3248" x1="-8.86674" y1="253.277" x2="497.373" y2="253.277" gradientUnits="userSpaceOnUse">
<stop stop-color="#73B725"/>
<stop offset="0.23" stop-color="#6EB526"/>
<stop offset="0.51" stop-color="#60AF2B"/>
<stop offset="0.8" stop-color="#49A432"/>
<stop offset="1" stop-color="#349B38"/>
</linearGradient>
</defs>
</svg>
