<svg width="1170" height="1153" viewBox="0 0 1170 1153" fill="none" xmlns="http://www.w3.org/2000/svg">
<path d="M1170 576.642C1169.97 615.53 1166.17 654.325 1158.64 692.477H1149.22V694.833H688.203C660.759 721.868 625.592 739.702 587.568 745.866C549.545 752.029 510.547 746.218 475.971 729.236C441.395 712.254 412.952 684.941 394.579 651.078C376.206 617.215 368.812 578.476 373.419 540.224C378.027 501.973 394.409 466.1 420.297 437.571C446.186 409.041 480.3 389.267 517.919 380.985C555.538 372.703 594.8 376.323 630.272 391.344C665.743 406.364 695.67 432.042 715.908 464.824H928.27C901.903 391.683 852.963 328.825 788.527 285.338C724.091 241.85 647.497 219.987 569.82 222.909C492.142 225.831 417.407 253.387 356.418 301.592C295.429 349.798 251.348 416.155 230.547 491.07C209.747 565.985 213.305 645.576 240.707 718.335C268.109 791.095 317.935 853.252 382.982 895.821C448.028 938.389 524.924 959.164 602.552 955.14C680.18 951.116 754.518 922.502 814.816 873.436L818.003 871.081L851.526 842.26C872.885 824.542 899.83 814.969 927.578 815.241C956.901 814.895 985.388 825.015 1007.92 843.785C1016.09 850.898 1023.18 859.159 1028.98 868.31C1037.8 882.936 1041.97 899.899 1040.93 916.949C1039.89 933.999 1033.69 950.331 1023.16 963.777C1022.74 964.566 1022.17 965.27 1021.5 965.856C1018.34 969.524 1014.97 972.995 1011.39 976.248C1010.86 977.04 1010.2 977.742 1009.45 978.326C915.907 1077.09 790.879 1140.15 655.874 1156.67C520.869 1173.19 384.33 1142.13 269.748 1068.83C155.167 995.532 69.7073 884.582 28.0741 755.069C-13.5591 625.556 -8.7628 485.579 41.6377 359.221C92.0383 232.864 184.891 128.027 304.222 62.7477C423.552 -2.53122 561.897 -24.1699 695.454 1.55471C829.011 27.2793 949.429 98.7586 1035.99 203.694C1122.55 308.63 1169.84 440.46 1169.72 576.503L1170 576.642Z" fill="url(#paint0_linear_86_3246)" fill-opacity="0.02"/>
<defs>
<linearGradient id="paint0_linear_86_3246" x1="-20.5022" y1="576.642" x2="1150.05" y2="576.642" gradientUnits="userSpaceOnUse">
<stop stop-color="#73B725"/>
<stop offset="0.23" stop-color="#6EB526"/>
<stop offset="0.51" stop-color="#60AF2B"/>
<stop offset="0.8" stop-color="#49A432"/>
<stop offset="1" stop-color="#349B38"/>
</linearGradient>
</defs>
</svg>
