<svg width="25" height="22" viewBox="0 0 25 22" fill="none" xmlns="http://www.w3.org/2000/svg">
<path d="M2.75 1.625V19.25H23.375C23.6734 19.25 23.9595 19.3685 24.1705 19.5795C24.3815 19.7905 24.5 20.0766 24.5 20.375C24.5 20.6734 24.3815 20.9595 24.1705 21.1705C23.9595 21.3815 23.6734 21.5 23.375 21.5H1.625C1.32663 21.5 1.04048 21.3815 0.829505 21.1705C0.618526 20.9595 0.5 20.6734 0.5 20.375L0.5 1.625C0.5 1.32663 0.618526 1.04048 0.829505 0.829505C1.04048 0.618526 1.32663 0.5 1.625 0.5C1.92337 0.5 2.20952 0.618526 2.4205 0.829505C2.63147 1.04048 2.75 1.32663 2.75 1.625ZM24.17 5.42L16.295 13.295C16.0841 13.5057 15.7981 13.624 15.5 13.624C15.2019 13.624 14.9159 13.5057 14.705 13.295L11 9.59L6.92 13.67C6.70661 13.8686 6.42453 13.9768 6.13305 13.9717C5.84158 13.9667 5.56341 13.8489 5.357 13.643C5.15113 13.4366 5.0333 13.1584 5.02827 12.8669C5.02323 12.5755 5.13139 12.2934 5.33 12.08L10.205 7.205C10.4159 6.99432 10.7019 6.87599 11 6.87599C11.2981 6.87599 11.5841 6.99432 11.795 7.205L15.5 10.91L22.58 3.83C22.7934 3.63139 23.0755 3.52323 23.3669 3.52827C23.6584 3.5333 23.9366 3.65114 24.143 3.857C24.3489 4.0634 24.4667 4.34158 24.4717 4.63305C24.4768 4.92453 24.3686 5.20661 24.17 5.42Z" fill="#000"/>
</svg>
