<svg width="53" height="53" viewBox="0 0 53 53" fill="none" xmlns="http://www.w3.org/2000/svg">
<path d="M37.7074 51H43.7021C45.6376 51 47.4939 50.2311 48.8625 48.8625C50.2311 47.4939 51 45.6376 51 43.7021V37.7074M51 15.2926V9.29787C51 7.36236 50.2311 5.50611 48.8625 4.1375C47.4939 2.76888 45.6376 2 43.7021 2H37.7074M15.2926 51H9.29787C7.36236 51 5.50611 50.2311 4.1375 48.8625C2.76888 47.4939 2 45.6376 2 43.7021V37.7074M2 15.2926V9.29787C2 7.36236 2.76888 5.50611 4.1375 4.1375C5.50611 2.76888 7.36236 2 9.29787 2H15.2926" stroke="black" stroke-width="2.5" stroke-linecap="round" stroke-linejoin="round"/>
<path d="M38.6146 23.8867V22.9242C38.6326 20.0547 37.5139 17.2947 35.5029 15.2477C33.4919 13.2007 30.7523 12.033 27.8829 12H27.7771C25.2958 12.0071 22.8919 12.864 20.9656 14.4278C19.0392 15.9917 17.7067 18.1682 17.1897 20.595C15.2829 20.595 13.4542 21.3525 12.1058 22.7008C10.7575 24.0491 10 25.8779 10 27.7847C10 29.6916 10.7575 31.5203 12.1058 32.8686C13.4542 34.217 15.2829 34.9745 17.1897 34.9745H37.0939C38.4674 34.9893 39.7992 34.5024 40.8392 33.6052C41.8792 32.7079 42.5561 31.4619 42.7427 30.101C42.9294 28.7402 42.613 27.358 41.8529 26.2138C41.0929 25.0696 39.9414 24.2422 38.6146 23.8867ZM37.0939 33.0495H17.1994C16.508 33.0495 15.8234 32.9133 15.1846 32.6487C14.5459 32.3842 13.9655 31.9964 13.4766 31.5075C12.9877 31.0186 12.5999 30.4382 12.3353 29.7995C12.0708 29.1607 11.9346 28.4761 11.9346 27.7847C11.9346 27.0933 12.0708 26.4087 12.3353 25.77C12.5999 25.1312 12.9877 24.5508 13.4766 24.062C13.9655 23.5731 14.5459 23.1853 15.1846 22.9207C15.8234 22.6561 16.508 22.5199 17.1994 22.5199H18.826L18.9318 21.6826C19.2459 19.4449 20.3974 17.4097 22.1538 15.9879C23.9101 14.5662 26.1405 13.8638 28.3946 14.0226C30.6486 14.1815 32.7585 15.1896 34.2981 16.8436C35.8377 18.4976 36.6924 20.6741 36.6897 22.9338V24.4257L36.6223 25.5325L37.527 25.6384C38.5111 25.6933 39.433 26.1368 40.09 26.8715C40.7471 27.6061 41.0853 28.5716 41.0305 29.5557C40.9756 30.5397 40.532 31.4617 39.7974 32.1187C39.0628 32.7757 38.0972 33.114 37.1131 33.0591L37.0939 33.0495Z" fill="black"/>
<path d="M37.5271 39.2865H27.1997V36.9766H25.2747V39.2865H14.9088C14.6535 39.2865 14.4087 39.3879 14.2282 39.5684C14.0477 39.7489 13.9463 39.9937 13.9463 40.249C13.9463 40.5043 14.0477 40.7491 14.2282 40.9296C14.4087 41.1101 14.6535 41.2115 14.9088 41.2115H37.5271C37.7824 41.2115 38.0272 41.1101 38.2077 40.9296C38.3882 40.7491 38.4896 40.5043 38.4896 40.249C38.4896 39.9937 38.3882 39.7489 38.2077 39.5684C38.0272 39.3879 37.7824 39.2865 37.5271 39.2865Z" fill="black"/>
</svg>
