<svg width="22" height="22" viewBox="0 0 22 22" fill="none" xmlns="http://www.w3.org/2000/svg">
<path d="M9.46 12.98L7.0675 10.5875C6.86583 10.3858 6.61393 10.2898 6.3118 10.2993C6.00893 10.3081 5.75667 10.4133 5.555 10.615C5.35333 10.8167 5.2525 11.0733 5.2525 11.385C5.2525 11.6967 5.35333 11.9533 5.555 12.155L8.69 15.29C8.89167 15.4917 9.14833 15.5925 9.46 15.5925C9.77167 15.5925 10.0283 15.4917 10.23 15.29L16.4725 9.0475C16.6742 8.84583 16.7706 8.59357 16.7618 8.2907C16.7523 7.98857 16.6467 7.73667 16.445 7.535C16.2433 7.33333 15.9867 7.2325 15.675 7.2325C15.3633 7.2325 15.1067 7.33333 14.905 7.535L9.46 12.98ZM11 22C9.47833 22 8.04833 21.7111 6.71 21.1332C5.37167 20.5561 4.2075 19.7725 3.2175 18.7825C2.2275 17.7925 1.44393 16.6283 0.8668 15.29C0.288933 13.9517 0 12.5217 0 11C0 9.47833 0.288933 8.04833 0.8668 6.71C1.44393 5.37167 2.2275 4.2075 3.2175 3.2175C4.2075 2.2275 5.37167 1.44357 6.71 0.8657C8.04833 0.288567 9.47833 0 11 0C12.5217 0 13.9517 0.288567 15.29 0.8657C16.6283 1.44357 17.7925 2.2275 18.7825 3.2175C19.7725 4.2075 20.5561 5.37167 21.1332 6.71C21.7111 8.04833 22 9.47833 22 11C22 12.5217 21.7111 13.9517 21.1332 15.29C20.5561 16.6283 19.7725 17.7925 18.7825 18.7825C17.7925 19.7725 16.6283 20.5561 15.29 21.1332C13.9517 21.7111 12.5217 22 11 22ZM11 19.8C13.4383 19.8 15.5148 18.9431 17.2293 17.2293C18.9431 15.5148 19.8 13.4383 19.8 11C19.8 8.56167 18.9431 6.48523 17.2293 4.7707C15.5148 3.0569 13.4383 2.2 11 2.2C8.56167 2.2 6.4856 3.0569 4.7718 4.7707C3.05727 6.48523 2.2 8.56167 2.2 11C2.2 13.4383 3.05727 15.5148 4.7718 17.2293C6.4856 18.9431 8.56167 19.8 11 19.8Z" fill="#3D9E47"/>
</svg>
