<svg width="29" height="30" viewBox="0 0 29 30" fill="none" xmlns="http://www.w3.org/2000/svg">
<path fill-rule="evenodd" clip-rule="evenodd" d="M15.6966 3.13351H27.5301C28.1184 3.13351 28.5937 3.60884 28.5937 4.19719V21.482C28.5937 22.0703 28.1184 22.5457 27.5301 22.5457H15.6966V24.1944L20.8821 27.5981C21.0017 27.6779 21.0383 27.8408 20.9585 27.9638L20.2306 29.1371V29.1405C20.1508 29.2635 19.9846 29.2967 19.8616 29.2169L14.5 25.7001L9.13839 29.2169C9.0154 29.2967 8.8492 29.2635 8.76942 29.1405V29.1371L8.04147 27.9338C7.96169 27.8109 7.99493 27.648 8.11792 27.5682L13.3166 24.1944V22.5457H1.46993C0.881581 22.5457 0.40625 22.0703 0.40625 21.482V4.19719C0.40625 3.60884 0.881581 3.13351 1.46993 3.13351H13.3034V1.00615C13.3034 0.859898 13.423 0.740234 13.5693 0.740234H15.4307C15.577 0.740234 15.6966 0.859898 15.6966 1.00615V3.13351ZM2.16132 20.7906H26.8387V4.77482H2.16132V20.7906ZM8.22956 17.4752C8.12651 17.5783 7.95699 17.5783 7.85394 17.4752L6.63071 16.252C6.52767 16.1489 6.52767 15.9794 6.63071 15.8764L11.4272 11.0799C11.5303 10.9768 11.6998 10.9768 11.8029 11.0799L14.6648 13.9451L20.7743 7.82899C20.8774 7.72594 21.0469 7.72594 21.1499 7.82899L22.3732 9.05222C22.4762 9.15526 22.4762 9.32478 22.3732 9.42783L14.851 16.9567C14.7479 17.0597 14.5784 17.0597 14.4753 16.9567L11.6134 14.0914L8.22956 17.4752Z" fill="#66B127"/>
</svg>
