<svg width="37" height="37" viewBox="0 0 37 37" fill="none" xmlns="http://www.w3.org/2000/svg">
<rect x="0.460938" y="0.5" width="36" height="36" rx="5" fill="#AFFFCF" fill-opacity="0.2"/>
<path d="M24.8913 8.85996C26.668 8.85996 28.1413 10.3333 28.1413 12.11C28.1413 13.8975 26.668 15.36 24.8913 15.36C23.1038 15.36 21.6413 13.8975 21.6413 12.11C21.6413 11.785 21.6955 11.4816 21.793 11.2C20.6338 10.6475 19.3555 10.3333 18.0013 10.3333C15.7028 10.3333 13.4984 11.2464 11.873 12.8717C10.2477 14.497 9.33464 16.7014 9.33464 19L9.37797 19.91L7.22214 20.1375L7.16797 19C7.16797 16.1268 8.30933 13.3713 10.341 11.3396C12.3726 9.30799 15.1281 8.16663 18.0013 8.16663C19.8321 8.16663 21.5546 8.62163 23.0605 9.42329C23.5913 9.06579 24.2196 8.85996 24.8913 8.85996ZM24.8913 11.0266C24.604 11.0266 24.3284 11.1408 24.1253 11.3439C23.9221 11.5471 23.808 11.8226 23.808 12.11C23.808 12.3973 23.9221 12.6728 24.1253 12.876C24.3284 13.0792 24.604 13.1933 24.8913 13.1933C25.498 13.1933 25.9746 12.7058 25.9746 12.11C25.9746 11.5033 25.498 11.0266 24.8913 11.0266ZM11.1113 22.64C12.8988 22.64 14.3613 24.1025 14.3613 25.89C14.3613 26.215 14.3071 26.5183 14.2096 26.8C15.3688 27.3525 16.6471 27.6666 18.0013 27.6666C20.2998 27.6666 22.5042 26.7535 24.1296 25.1282C25.7549 23.5029 26.668 21.2985 26.668 19L26.6246 18.09L28.7805 17.8625L28.8346 19C28.8346 21.8731 27.6933 24.6286 25.6616 26.6603C23.63 28.6919 20.8745 29.8333 18.0013 29.8333C16.1705 29.8333 14.448 29.3783 12.9421 28.5766C12.4113 28.9341 11.783 29.14 11.1113 29.14C9.33464 29.14 7.8613 27.6666 7.8613 25.89C7.8613 24.1025 9.33464 22.64 11.1113 22.64ZM11.1113 24.8066C10.5046 24.8066 10.028 25.2941 10.028 25.89C10.028 26.4966 10.5046 26.9733 11.1113 26.9733C11.3986 26.9733 11.6742 26.8592 11.8773 26.656C12.0805 26.4528 12.1946 26.1773 12.1946 25.89C12.1946 25.6026 12.0805 25.3271 11.8773 25.1239C11.6742 24.9208 11.3986 24.8066 11.1113 24.8066Z" fill="#66B127"/>
<circle cx="18" cy="19" r="3" stroke="#66B127" stroke-width="2"/>
</svg>
