<svg width="28" height="35" viewBox="0 0 28 35" fill="none" xmlns="http://www.w3.org/2000/svg">
<path d="M5.95739 7.22477C5.79356 7.22477 5.65952 7.36927 5.65952 7.54587V9.47248C5.65952 9.64908 5.79356 9.79358 5.95739 9.79358H20.2551C20.4189 9.79358 20.553 9.64908 20.553 9.47248V7.54587C20.553 7.36927 20.4189 7.22477 20.2551 7.22477H5.95739ZM13.1062 15.2523V13.3257C13.1062 13.1491 12.9722 13.0046 12.8084 13.0046H5.95739C5.79356 13.0046 5.65952 13.1491 5.65952 13.3257V15.2523C5.65952 15.4289 5.79356 15.5734 5.95739 15.5734H12.8084C12.9722 15.5734 13.1062 15.4289 13.1062 15.2523ZM11.319 31.1468H2.68082V2.88991H23.5317V16.6972C23.5317 16.8739 23.6657 17.0183 23.8295 17.0183H25.9146C26.0785 17.0183 26.2125 16.8739 26.2125 16.6972V1.2844C26.2125 0.573968 25.6801 0 25.021 0H1.19148C0.532441 0 0 0.573968 0 1.2844V32.7523C0 33.4627 0.532441 34.0367 1.19148 34.0367H11.319C11.4829 34.0367 11.6169 33.8922 11.6169 33.7156V31.4679C11.6169 31.2913 11.4829 31.1468 11.319 31.1468ZM15.1951 26.5069C15.2621 25.1221 15.7982 23.8257 16.7142 22.8383C17.6897 21.7867 19.0227 21.1927 20.404 21.1927C21.7966 21.1927 23.1072 21.7787 24.0939 22.8383C24.213 22.9667 24.3285 23.1032 24.4364 23.2437L23.5764 23.9622C23.532 23.9991 23.4982 24.0489 23.4789 24.1056C23.4596 24.1624 23.4556 24.2238 23.4673 24.283C23.4789 24.3421 23.5058 24.3964 23.5449 24.4398C23.584 24.4832 23.6336 24.5138 23.6881 24.5281L27.162 25.4312C27.3481 25.4794 27.5268 25.3268 27.5306 25.1221L27.5529 21.293C27.5534 21.2327 27.5382 21.1734 27.5089 21.122C27.4797 21.0706 27.4376 21.0291 27.3874 21.0023C27.3373 20.9755 27.2812 20.9644 27.2255 20.9704C27.1698 20.9764 27.1168 20.9992 27.0726 21.0361L26.3167 21.6703C24.9242 19.8119 22.7907 18.6239 20.404 18.6239C16.3121 18.6239 12.9722 22.1118 12.8084 26.4788C12.8009 26.6594 12.9387 26.8119 13.1062 26.8119H14.8972C15.0573 26.8119 15.1876 26.6795 15.1951 26.5069ZM27.7018 26.8119H25.9109C25.7508 26.8119 25.6205 26.9444 25.613 27.117C25.546 28.5017 25.0098 29.7982 24.0939 30.7856C23.1184 31.8372 21.7854 32.4312 20.404 32.4312C19.0115 32.4312 17.7009 31.8452 16.7142 30.7856C16.595 30.6571 16.4796 30.5206 16.3716 30.3802L17.2317 29.6617C17.2761 29.6247 17.3099 29.575 17.3291 29.5182C17.3484 29.4615 17.3525 29.4 17.3408 29.3409C17.3292 29.2818 17.3022 29.2274 17.2632 29.184C17.2241 29.1407 17.1745 29.1101 17.12 29.0958L13.6461 28.1927C13.46 28.1445 13.2812 28.297 13.2775 28.5017L13.2552 32.3308C13.2546 32.3912 13.2699 32.4504 13.2992 32.5019C13.3284 32.5533 13.3705 32.5948 13.4207 32.6216C13.4708 32.6484 13.5269 32.6594 13.5826 32.6534C13.6383 32.6475 13.6913 32.6247 13.7355 32.5877L14.4913 31.9536C15.8839 33.8119 18.0174 35 20.404 35C24.496 35 27.8359 31.512 27.9997 27.1451C28.0072 26.9644 27.8694 26.8119 27.7018 26.8119Z" fill="#66B127"/>
</svg>
