<svg width="36" height="36" viewBox="0 0 36 36" fill="none" xmlns="http://www.w3.org/2000/svg">
<rect width="36" height="36" rx="5" fill="#F9F9F9"/>
<path d="M24.4304 8.35996C26.207 8.35996 27.6804 9.83329 27.6804 11.61C27.6804 13.3975 26.207 14.86 24.4304 14.86C22.6429 14.86 21.1804 13.3975 21.1804 11.61C21.1804 11.285 21.2345 10.9816 21.332 10.7C20.1729 10.1475 18.8945 9.83329 17.5404 9.83329C15.2418 9.83329 13.0374 10.7464 11.4121 12.3717C9.78679 13.997 8.8737 16.2014 8.8737 18.5L8.91703 19.41L6.7612 19.6375L6.70703 18.5C6.70703 15.6268 7.8484 12.8713 9.88004 10.8396C11.9117 8.80799 14.6672 7.66663 17.5404 7.66663C19.3712 7.66663 21.0937 8.12163 22.5995 8.92329C23.1304 8.56579 23.7587 8.35996 24.4304 8.35996ZM24.4304 10.5266C24.143 10.5266 23.8675 10.6408 23.6643 10.8439C23.4612 11.0471 23.347 11.3226 23.347 11.61C23.347 11.8973 23.4612 12.1728 23.6643 12.376C23.8675 12.5792 24.143 12.6933 24.4304 12.6933C25.037 12.6933 25.5137 12.2058 25.5137 11.61C25.5137 11.0033 25.037 10.5266 24.4304 10.5266ZM10.6504 22.14C12.4379 22.14 13.9004 23.6025 13.9004 25.39C13.9004 25.715 13.8462 26.0183 13.7487 26.3C14.9079 26.8525 16.1862 27.1666 17.5404 27.1666C19.8389 27.1666 22.0433 26.2535 23.6686 24.6282C25.2939 23.0029 26.207 20.7985 26.207 18.5L26.1637 17.59L28.3195 17.3625L28.3737 18.5C28.3737 21.3731 27.2323 24.1286 25.2007 26.1603C23.169 28.1919 20.4135 29.3333 17.5404 29.3333C15.7095 29.3333 13.987 28.8783 12.4812 28.0766C11.9504 28.4341 11.322 28.64 10.6504 28.64C8.8737 28.64 7.40036 27.1666 7.40036 25.39C7.40036 23.6025 8.8737 22.14 10.6504 22.14ZM10.6504 24.3066C10.0437 24.3066 9.56703 24.7941 9.56703 25.39C9.56703 25.9966 10.0437 26.4733 10.6504 26.4733C10.9377 26.4733 11.2132 26.3592 11.4164 26.156C11.6196 25.9528 11.7337 25.6773 11.7337 25.39C11.7337 25.1026 11.6196 24.8271 11.4164 24.6239C11.2132 24.4208 10.9377 24.3066 10.6504 24.3066Z" fill="#919191"/>
<circle cx="17.5391" cy="18.5" r="3" stroke="#919191" stroke-width="2"/>
</svg>
