<svg width="151" height="20" viewBox="0 0 151 20" fill="none" xmlns="http://www.w3.org/2000/svg">
<path d="M39.68 16H41.28V4.8H39.68V16ZM49.5771 7.44C48.2331 7.44 47.1451 7.936 46.5211 8.8V7.52H45.0491V16H46.5851V11.632C46.5851 9.792 47.6411 8.816 49.2731 8.816C50.7291 8.816 51.5611 9.632 51.5611 11.296V16H53.0971V11.12C53.0971 8.624 51.6411 7.44 49.5771 7.44ZM62.4235 7.52L59.4475 14.32L56.5355 7.52H54.9355L58.6475 16H60.2155L63.9275 7.52H62.4235ZM73.4306 11.808C73.4306 9.2 71.6866 7.44 69.2386 7.44C66.7906 7.44 64.9826 9.248 64.9826 11.76C64.9826 14.288 66.8066 16.096 69.5426 16.096C70.9506 16.096 72.1186 15.616 72.8866 14.72L72.0386 13.728C71.4146 14.416 70.5826 14.752 69.5906 14.752C67.9106 14.752 66.7106 13.76 66.5186 12.272H73.3986C73.4146 12.128 73.4306 11.936 73.4306 11.808ZM69.2386 8.736C70.7266 8.736 71.7986 9.744 71.9586 11.168H66.5186C66.6786 9.728 67.7666 8.736 69.2386 8.736ZM80.7315 7.44C79.3875 7.44 78.2995 7.936 77.6755 8.8V7.52H76.2035V16H77.7395V11.632C77.7395 9.792 78.7955 8.816 80.4275 8.816C81.8835 8.816 82.7155 9.632 82.7155 11.296V16H84.2515V11.12C84.2515 8.624 82.7955 7.44 80.7315 7.44ZM92.0221 14.4C91.7021 14.656 91.2701 14.8 90.8221 14.8C89.9741 14.8 89.4941 14.288 89.4941 13.376V8.784H91.9261V7.52H89.4941V5.664H87.9581V7.52H86.5181V8.784H87.9581V13.44C87.9581 15.152 88.9341 16.096 90.6461 16.096C91.3341 16.096 92.0381 15.904 92.5021 15.504L92.0221 14.4ZM98.3499 16.096C100.894 16.096 102.75 14.288 102.75 11.76C102.75 9.232 100.894 7.44 98.3499 7.44C95.8059 7.44 93.9339 9.232 93.9339 11.76C93.9339 14.288 95.8059 16.096 98.3499 16.096ZM98.3499 14.752C96.7179 14.752 95.4859 13.568 95.4859 11.76C95.4859 9.952 96.7179 8.784 98.3499 8.784C99.9819 8.784 101.198 9.952 101.198 11.76C101.198 13.568 99.9819 14.752 98.3499 14.752ZM106.986 8.944V7.52H105.514V16H107.05V11.776C107.05 9.92 108.074 8.912 109.722 8.912C109.834 8.912 109.946 8.912 110.074 8.928V7.44C108.586 7.44 107.53 7.952 106.986 8.944ZM118.951 7.52L116.023 14.304L113.063 7.52H111.463L115.207 15.984L114.935 16.576C114.519 17.552 114.055 17.888 113.319 17.888C112.743 17.888 112.215 17.664 111.799 17.264L111.143 18.416C111.671 18.928 112.503 19.2 113.319 19.2C114.615 19.2 115.591 18.64 116.343 16.848L120.455 7.52H118.951Z" fill="#C5C5C5"/>
<path d="M16.8 0H1.86667C0.933335 0 0 0.840002 0 1.86667V4.67601C0 5.34801 0.401334 5.92668 0.933335 6.25335V16.8C0.933335 17.8267 1.96 18.6667 2.80001 18.6667H15.8667C16.7067 18.6667 17.7334 17.8267 17.7334 16.8V6.25335C18.2654 5.92668 18.6667 5.34801 18.6667 4.67601V1.86667C18.6667 0.840002 17.7334 0 16.8 0ZM15.8667 16.8H2.80001V6.53335H15.8667V16.8ZM16.8 4.66668H1.86667V1.86667H16.8V4.66668Z" fill="#C5C5C5"/>
<path d="M6.5332 9.33398H12.1332V11.2007H6.5332V9.33398Z" fill="#C5C5C5"/>
<path d="M137.303 6.26768C137.498 6.09628 137.761 6 138.036 6C138.311 6 138.575 6.09628 138.769 6.26768L143.899 10.7932L149.029 6.26768C149.224 6.10114 149.486 6.00899 149.758 6.01107C150.03 6.01316 150.29 6.10931 150.482 6.27882C150.674 6.44832 150.783 6.67763 150.785 6.91734C150.788 7.15705 150.683 7.388 150.494 7.56042L144.632 12.7323C144.437 12.9037 144.174 13 143.899 13C143.624 13 143.361 12.9037 143.166 12.7323L137.303 7.56042C137.109 7.38898 137 7.15648 137 6.91405C137 6.67163 137.109 6.43913 137.303 6.26768Z" fill="#C5C5C5"/>
</svg>
