<svg width="19" height="19" viewBox="0 0 19 19" fill="none" xmlns="http://www.w3.org/2000/svg">
<path d="M16.8 0H1.86667C0.933335 0 0 0.840002 0 1.86667V4.67601C0 5.34801 0.401334 5.92668 0.933335 6.25335V16.8C0.933335 17.8267 1.96 18.6667 2.80001 18.6667H15.8667C16.7067 18.6667 17.7334 17.8267 17.7334 16.8V6.25335C18.2654 5.92668 18.6667 5.34801 18.6667 4.67601V1.86667C18.6667 0.840002 17.7334 0 16.8 0ZM15.8667 16.8H2.80001V6.53335H15.8667V16.8ZM16.8 4.66668H1.86667V1.86667H16.8V4.66668Z" fill="#C5C5C5"/>
<path d="M6.5332 9.33398H12.1332V11.2007H6.5332V9.33398Z" fill="#C5C5C5"/>
</svg>
