<svg width="36" height="36" viewBox="0 0 36 36" fill="none" xmlns="http://www.w3.org/2000/svg">
<rect width="36" height="36" rx="5" fill="#F9F9F9"/>
<path d="M18.1367 29.467H8.12838C6.30261 29.466 5.37026 28.5347 5.36926 26.7179C5.36926 26.1649 5.3992 25.6108 5.36926 25.0598C5.19257 22.1959 5.67572 19.3988 6.16785 16.5968C6.66497 13.6999 7.12416 10.792 7.59133 7.88916C7.777 6.72522 8.53666 6.00749 9.70759 6.00549C15.2977 5.99817 20.8855 5.99817 26.471 6.00549C27.6249 6.00549 28.3956 6.6763 28.6012 7.88916C29.1073 10.8699 29.5865 13.8556 30.0756 16.8393C30.2443 17.8665 30.4479 18.8917 30.5657 19.9249C30.6925 21.0389 30.7724 22.1599 30.8093 23.28C30.8502 24.5068 30.8233 25.7356 30.8173 26.9634C30.8103 28.4858 29.848 29.459 28.3307 29.465C24.9327 29.4723 21.5347 29.473 18.1367 29.467ZM29.0734 19.7462C28.9436 18.8827 28.8268 18.0951 28.708 17.3085C28.2338 14.179 27.7547 11.0496 27.2905 7.91711C27.2336 7.53279 27.1128 7.36109 26.6776 7.36209C20.9896 7.37673 15.3017 7.37673 9.61376 7.36209C9.23542 7.36209 9.09168 7.45193 9.03777 7.86121C8.66044 10.7172 8.24717 13.5681 7.84987 16.4211C7.69714 17.5191 7.55739 18.6262 7.40865 19.7472L29.0734 19.7462ZM18.1047 27.762C21.6465 27.762 25.1922 27.7541 28.731 27.77C29.26 27.77 29.4587 27.5973 29.4517 27.0593C29.4284 25.3603 29.4284 23.6613 29.4517 21.9623C29.4597 21.3963 29.2311 21.2046 28.687 21.2056C21.6036 21.2149 14.5198 21.2149 7.4356 21.2056C6.91253 21.2056 6.71188 21.3943 6.72087 21.9323C6.74582 23.6104 6.72786 25.2894 6.73085 26.9684C6.73085 27.7191 6.77577 27.76 7.54042 27.761L18.1047 27.762Z" fill="#919191"/>
<path d="M13.5244 9.01892L13.5873 9.94029C14.328 9.94029 15.0587 9.97224 15.7834 9.92931C16.2825 9.89936 16.595 10.0551 16.8815 10.4843C17.9795 12.1125 19.1345 13.7006 20.2415 15.3228C20.4791 15.6712 20.7357 15.8009 21.1459 15.784C21.8447 15.754 22.5375 15.764 23.2333 15.784C23.8492 15.7989 24.0578 16.0405 24.0548 16.6684C24.0548 17.2194 23.7773 17.5079 23.2283 17.5119C22.23 17.5189 21.2198 17.5488 20.2196 17.4919C19.956 17.477 19.6286 17.2374 19.4669 17.0058C18.3449 15.3947 17.2518 13.7635 16.1667 12.1274C15.9551 11.807 15.7375 11.6403 15.3302 11.6702C14.7632 11.7122 14.1902 11.6812 13.5903 11.6812C13.5594 12.0645 13.5334 12.3989 13.5015 12.8102L11.3203 11.1711L13.5244 9.01892Z" fill="#919191"/>
<path d="M22.9278 12.8466V11.7036C21.6301 11.6976 20.2615 11.2723 19.4809 12.9464L18.4258 11.6018C19.3891 10.0605 20.9683 9.63023 22.8879 10.0195C22.9148 9.5953 22.9338 9.27985 22.9498 9.0293L25.087 11.2254L22.9278 12.8466Z" fill="#919191"/>
<path d="M16.4873 14.0455L17.5854 15.2983C17.1741 15.8973 16.7209 16.596 16.2218 17.2668C16.113 17.4126 15.8385 17.4944 15.6378 17.5004C14.8193 17.5264 13.9997 17.4944 13.1812 17.5164C12.5323 17.5344 12.4445 17.0902 12.4305 16.625C12.4165 16.1598 12.5782 15.7735 13.1592 15.7775C13.7402 15.7815 14.3082 15.8114 14.8772 15.7595C15.141 15.7252 15.3839 15.5978 15.562 15.4001C15.8954 14.9959 16.1609 14.5317 16.4873 14.0455Z" fill="#919191"/>
<path d="M21.1641 24.8672H23.6507V26.13H21.1641V24.8672Z" fill="#919191"/>
<path d="M25.457 24.8562H27.9347V26.1339H25.457V24.8562Z" fill="#919191"/>
<path d="M12.4141 24.8672H14.8737V26.127H12.4141V24.8672Z" fill="#919191"/>
<path d="M19.1649 26.1358H16.6953V24.873H19.1649V26.1358Z" fill="#919191"/>
<path d="M14.8907 22.8835V24.0565H12.4141V22.8835H14.8907Z" fill="#919191"/>
<path d="M16.6836 24.0584V22.8815H19.1702V24.0584H16.6836Z" fill="#919191"/>
<path d="M23.661 22.892V24.0689H21.1484V22.892H23.661Z" fill="#919191"/>
<path d="M25.4531 22.8555H27.9397V24.0534H25.4531V22.8555Z" fill="#919191"/>
<path d="M9.62534 25.1836C9.51292 25.1855 9.40129 25.1646 9.29728 25.1219C9.19327 25.0792 9.09907 25.0157 9.02047 24.9353C8.94186 24.855 8.8805 24.7594 8.84015 24.6544C8.7998 24.5495 8.78132 24.4374 8.78582 24.3251C8.78582 23.8619 9.20009 23.4267 9.64131 23.4766C10.1165 23.5305 10.4299 23.798 10.4499 24.3111C10.4575 24.4236 10.4417 24.5364 10.4036 24.6425C10.3654 24.7486 10.3058 24.8457 10.2284 24.9276C10.1509 25.0095 10.0574 25.0746 9.9536 25.1186C9.84983 25.1627 9.73806 25.1848 9.62534 25.1836Z" fill="#919191"/>
</svg>
