<svg width="23" height="20" viewBox="0 0 23 20" fill="none" xmlns="http://www.w3.org/2000/svg">
<path d="M14.7055 12.1278C14.8555 12.2792 15.0349 12.3508 15.2435 12.3427C15.4515 12.334 15.6305 12.2539 15.7805 12.1026C15.9305 11.9513 16.0055 11.7703 16.0055 11.5598C16.0055 11.35 15.9305 11.1694 15.7805 11.018L14.2305 9.47941C14.4139 9.19355 14.5515 8.89087 14.6435 8.57138C14.7349 8.25189 14.7805 7.91558 14.7805 7.56246C14.7805 6.57035 14.4349 5.73362 13.7435 5.05226C13.0515 4.37157 12.2305 4.03123 11.2805 4.03123C10.3305 4.03123 9.50985 4.37157 8.81852 5.05226C8.12652 5.73362 7.78052 6.57035 7.78052 7.56246C7.78052 8.55456 8.12652 9.3913 8.81852 10.0727C9.50985 10.7533 10.3305 11.0937 11.2805 11.0937C11.6305 11.0937 11.9599 11.0557 12.2685 10.9797C12.5765 10.9043 12.8805 10.7742 13.1805 10.5892L14.7055 12.1278ZM11.2805 9.5803C10.7305 9.5803 10.2599 9.38255 9.86852 8.98706C9.47652 8.59223 9.28052 8.11736 9.28052 7.56246C9.28052 7.00755 9.47652 6.53235 9.86852 6.13685C10.2599 5.74202 10.7305 5.54461 11.2805 5.54461C11.8139 5.54461 12.2805 5.74202 12.6805 6.13685C13.0805 6.53235 13.2805 7.00755 13.2805 7.56246C13.2805 8.11736 13.0849 8.59223 12.6935 8.98706C12.3015 9.38255 11.8305 9.5803 11.2805 9.5803ZM3.78052 15.6338C3.23052 15.6338 2.75985 15.4364 2.36852 15.0416C1.97652 14.6461 1.78052 14.1709 1.78052 13.616V2.51784C1.78052 1.96294 1.97652 1.48773 2.36852 1.09224C2.75985 0.697412 3.23052 0.5 3.78052 0.5H19.7805C20.3305 0.5 20.8015 0.697412 21.1935 1.09224C21.5849 1.48773 21.7805 1.96294 21.7805 2.51784V13.616C21.7805 14.1709 21.5849 14.6461 21.1935 15.0416C20.8015 15.4364 20.3305 15.6338 19.7805 15.6338H3.78052ZM3.28052 14.1205H20.2805V2.01338H3.28052V14.1205ZM1.78052 19.5C1.49718 19.5 1.25985 19.4031 1.06852 19.2094C0.876518 19.0164 0.780518 18.9375 0.780518 18.6517C0.780518 18.3658 0.876518 18.2578 1.06852 18.0647C1.25985 17.871 1.49718 17.7741 1.78052 17.7741H21.7805C22.0639 17.7741 22.3012 17.871 22.4925 18.0647C22.6845 18.2578 22.7805 18.3658 22.7805 18.6517C22.7805 18.9375 22.6845 19.0164 22.4925 19.2094C22.3012 19.4031 22.0639 19.5 21.7805 19.5H1.78052Z" fill="#C5C5C5"/>
</svg>
