<svg width="25" height="22" viewBox="0 0 25 22" fill="none" xmlns="http://www.w3.org/2000/svg">
<path d="M6.18479 0.00128198C4.45697 0.00128198 2.9549 1.18838 2.55101 2.87234L0.120352 12.9969C-0.0330126 13.6358 -0.039893 14.3012 0.100228 14.9431C0.24035 15.585 0.523822 16.1866 0.929309 16.7028C1.3348 17.2189 1.85173 17.636 2.44121 17.9228C3.03069 18.2096 3.67734 18.3585 4.33251 18.3584H20.0634C20.7183 18.3581 21.3645 18.2089 21.9536 17.9221C22.5426 17.6352 23.0592 17.2181 23.4644 16.7022C23.8696 16.1862 24.1528 15.5849 24.2929 14.9433C24.433 14.3018 24.4263 13.6367 24.2732 12.9981L21.8449 2.87234C21.6485 2.05393 21.1831 1.32566 20.5237 0.804848C19.8643 0.284031 19.0493 0.000979295 18.2099 0.00128198H6.18357H6.18479ZM4.33007 3.3019C4.43035 2.88433 4.66783 2.51277 5.00428 2.24703C5.34072 1.9813 5.75655 1.83687 6.18479 1.837H18.2112C19.0922 1.837 19.8584 2.44278 20.0647 3.3019L22.4953 13.4265C22.5839 13.7955 22.5879 14.1798 22.507 14.5505C22.426 14.9213 22.2623 15.2688 22.028 15.5669C21.7938 15.8649 21.4952 16.1058 21.1547 16.2714C20.8142 16.437 20.4406 16.5229 20.0622 16.5227H4.33373C3.95542 16.5227 3.58204 16.4366 3.24169 16.271C2.90133 16.1053 2.60287 15.8644 2.36877 15.5664C2.13467 15.2683 1.97102 14.9209 1.89015 14.5502C1.80927 14.1796 1.81328 13.7954 1.90186 13.4265L4.33007 3.3019ZM5.79188 19.5822C5.54917 19.5822 5.31639 19.6789 5.14477 19.8511C4.97314 20.0232 4.87673 20.2567 4.87673 20.5001C4.87673 20.7435 4.97314 20.977 5.14477 21.1491C5.31639 21.3212 5.54917 21.4179 5.79188 21.4179H18.6041C18.8468 21.4179 19.0796 21.3212 19.2512 21.1491C19.4228 20.977 19.5192 20.7435 19.5192 20.5001C19.5192 20.2567 19.4228 20.0232 19.2512 19.8511C19.0796 19.6789 18.8468 19.5822 18.6041 19.5822H5.79188Z" fill="#C5C5C5"/>
</svg>
