<svg width="23" height="24" viewBox="0 0 23 24" fill="none" xmlns="http://www.w3.org/2000/svg">
<path d="M20.445 22.2C20.6144 22.2 20.7769 22.1368 20.8967 22.0243C21.0164 21.9117 21.0837 21.7591 21.0837 21.6V9.6H15.335C14.6573 9.6 14.0075 9.34714 13.5283 8.89706C13.0491 8.44697 12.7799 7.83652 12.7799 7.2V1.8H5.1149C4.94549 1.8 4.78302 1.86321 4.66324 1.97574C4.54345 2.08826 4.47615 2.24087 4.47615 2.4V8.7C4.47615 8.93869 4.3752 9.16761 4.19552 9.3364C4.01583 9.50518 3.77213 9.6 3.51802 9.6C3.26391 9.6 3.0202 9.50518 2.84052 9.3364C2.66083 9.16761 2.55989 8.93869 2.55989 8.7V2.4C2.55989 1.76348 2.82908 1.15303 3.30823 0.702944C3.78739 0.252856 4.43727 0 5.1149 0H12.9997C13.0354 0 13.0699 0.00479996 13.1044 0.00839996C13.1294 0.0123119 13.1546 0.0151149 13.1798 0.0167999C13.4545 0.0347999 13.7253 0.0839999 13.977 0.1824C14.0498 0.2112 14.12 0.2496 14.189 0.2868L14.2529 0.3216L14.313 0.3504C14.3487 0.365685 14.3833 0.383329 14.4164 0.4032C14.5161 0.4668 14.6055 0.5424 14.6962 0.6192L14.7422 0.6552C14.7641 0.669925 14.785 0.685958 14.8048 0.7032L22.2514 7.6968C22.7306 8.14678 22.9999 8.75713 23 9.3936V21.6C23 22.2365 22.7308 22.847 22.2517 23.2971C21.7725 23.7471 21.1226 24 20.445 24H5.1149C4.43727 24 3.78739 23.7471 3.30823 23.2971C2.82908 22.847 2.55989 22.2365 2.55989 21.6V17.1C2.55989 16.8613 2.66083 16.6324 2.84052 16.4636C3.0202 16.2948 3.26391 16.2 3.51802 16.2C3.77213 16.2 4.01583 16.2948 4.19552 16.4636C4.3752 16.6324 4.47615 16.8613 4.47615 17.1V21.6C4.47615 21.7591 4.54345 21.9117 4.66324 22.0243C4.78302 22.1368 4.94549 22.2 5.1149 22.2H20.445ZM19.6504 7.8L14.6962 3.1452V7.2C14.6962 7.35913 14.7635 7.51174 14.8833 7.62426C15.0031 7.73679 15.1656 7.8 15.335 7.8H19.6504ZM0.963004 13.2H4.16316L6.15224 8.9388C6.2224 8.78802 6.33523 8.65819 6.47846 8.56343C6.62169 8.46868 6.78984 8.41263 6.96461 8.40137C7.13939 8.39011 7.31411 8.42408 7.46977 8.49958C7.62543 8.57508 7.75607 8.68923 7.84749 8.8296L7.85516 8.8416L7.91903 8.9652L11.0017 16.1976L12.8247 13.6776C12.8943 13.5544 12.9934 13.4482 13.1142 13.3672C13.2351 13.2862 13.3743 13.2326 13.5209 13.2108L13.5337 13.2084L13.6704 13.2H16.2254C16.4678 13.1988 16.7017 13.284 16.8799 13.4384C17.0581 13.5928 17.1673 13.805 17.1856 14.032C17.204 14.2591 17.1299 14.4842 16.9785 14.6621C16.8271 14.8399 16.6096 14.9572 16.3697 14.9904L16.357 14.9916L16.2254 15H14.2401L11.7119 18.7128C11.6331 18.8541 11.5157 18.9732 11.3717 19.0578C11.2278 19.1425 11.0624 19.1897 10.8927 19.1946C10.7229 19.1994 10.5548 19.1618 10.4056 19.0856C10.2564 19.0094 10.1314 18.8973 10.0435 18.7608L10.0371 18.75L9.97326 18.6288L6.98901 11.6268L5.66679 14.4612C5.60283 14.5984 5.50344 14.7184 5.37763 14.8104C5.25181 14.9024 5.10355 14.9634 4.94627 14.988L4.93094 14.9904L4.79042 15H0.963004C0.72058 15.0012 0.486701 14.916 0.308505 14.7616C0.130309 14.6072 0.0210463 14.3951 0.00273794 14.168C-0.0155704 13.9409 0.0584372 13.7158 0.209844 13.5379C0.361252 13.3601 0.578801 13.2428 0.818646 13.2096L0.831421 13.2084L0.963004 13.2Z" fill="#DC3938"/>
</svg>
