<svg width="17" height="18" viewBox="0 0 17 18" fill="none" xmlns="http://www.w3.org/2000/svg">
<path fill-rule="evenodd" clip-rule="evenodd" d="M8.5 0.5C13.1869 0.5 17 4.3131 17 9C17 13.6869 13.1869 17.5 8.5 17.5C3.8131 17.5 0 13.6869 0 9C0 4.3131 3.8131 0.5 8.5 0.5Z" fill="#66B127"/>
<path fill-rule="evenodd" clip-rule="evenodd" d="M12.0265 6.43771C12.2887 6.69987 12.2887 7.12397 12.0265 7.38613L7.7801 11.6325C7.64947 11.7641 7.47768 11.8294 7.30589 11.8294C7.135 11.8294 6.96231 11.7641 6.83168 11.6325L4.70757 9.50934C4.44542 9.24718 4.44542 8.82308 4.70757 8.56092C4.96973 8.29876 5.39384 8.29876 5.656 8.56092L7.30589 10.209L11.0781 6.43771C11.3403 6.17555 11.7644 6.17555 12.0265 6.43771Z" fill="white"/>
</svg>
