<svg width="70" height="78" viewBox="0 0 70 78" fill="none" xmlns="http://www.w3.org/2000/svg">
<rect y="0.499939" width="70" height="77" rx="5" fill="#AFFFCF" fill-opacity="0.2"/>
<path d="M49.9824 48.8718C48.9168 48.8693 47.8742 49.2134 46.9858 49.861L40.1147 42.2775L37.9961 44.6086L44.8882 52.169C44.6246 52.6878 44.4232 53.2419 44.2889 53.8176H25.797C25.6474 53.2322 25.4159 52.676 25.1108 52.169L46.9858 28.0996C47.8742 28.7472 48.9168 29.0914 49.9824 29.0888C51.1043 29.0937 52.205 28.752 53.1592 28.1026C54.1133 27.4532 54.8826 26.5221 55.3796 25.4153C55.8765 24.3086 56.0811 23.0705 55.9701 21.8421C55.8591 20.6137 55.437 19.4442 54.7517 18.4667C54.0664 17.4893 53.1456 16.7431 52.0939 16.3131C51.0422 15.8831 49.902 15.7866 48.8029 16.0345C47.7038 16.2824 46.69 16.8647 45.8769 17.7153C45.0638 18.5659 44.484 19.6506 44.2035 20.8458H25.8599C25.508 19.434 24.747 18.187 23.6923 17.2944C22.6377 16.4017 21.3471 15.9122 20.0166 15.9001C18.4271 15.9001 16.9027 16.5948 15.7788 17.8315C14.6549 19.0682 14.0235 20.7455 14.0235 22.4944C14.0235 24.2434 14.6549 25.9207 15.7788 27.1573C16.9027 28.394 18.4271 29.0888 20.0166 29.0888C21.0823 29.0914 22.1248 28.7472 23.0132 28.0996L29.8844 35.6831L32.0029 33.352L25.1108 25.7916C25.3744 25.2729 25.5759 24.7187 25.7101 24.143H44.202C44.3516 24.7284 44.5832 25.2846 44.8882 25.7916L23.0132 49.861C22.1248 49.2134 21.0823 48.8693 20.0166 48.8718C18.8947 48.8669 17.794 49.2086 16.8399 49.858C15.8857 50.5074 15.1164 51.4385 14.6195 52.5453C14.1225 53.6521 13.9179 54.8901 14.0289 56.1185C14.1399 57.3469 14.5621 58.5164 15.2473 59.4939C15.9326 60.4713 16.8535 61.2175 17.9051 61.6475C18.9568 62.0775 20.0971 62.174 21.1962 61.9261C22.2952 61.6783 23.309 61.0959 24.1221 60.2453C24.9352 59.3947 25.515 58.31 25.7955 57.1148H44.1391C44.416 58.314 44.9931 59.4037 45.8048 60.2601C46.6165 61.1164 47.6303 61.7051 48.7308 61.9591C49.8314 62.2132 50.9747 62.1225 52.0307 61.6973C53.0868 61.2721 54.0133 60.5295 54.7049 59.5538C55.3965 58.5782 55.8256 57.4086 55.9432 56.1781C56.0609 54.9475 55.8625 53.7054 55.3706 52.5927C54.8787 51.48 54.113 50.5415 53.1605 49.8837C52.208 49.226 51.1069 48.8754 49.9824 48.8718ZM49.9824 19.1973C50.5751 19.1973 51.1544 19.3906 51.6472 19.7529C52.14 20.1152 52.5241 20.6302 52.7509 21.2327C52.9777 21.8351 53.037 22.4981 52.9214 23.1377C52.8058 23.7773 52.5204 24.3648 52.1013 24.8259C51.6822 25.287 51.1483 25.601 50.567 25.7283C49.9857 25.8555 49.3832 25.7902 48.8357 25.5406C48.2881 25.2911 47.8201 24.8685 47.4909 24.3262C47.1616 23.784 46.9858 23.1466 46.9858 22.4944C46.9882 21.6208 47.3047 20.7836 47.8661 20.1659C48.4276 19.5481 49.1884 19.1999 49.9824 19.1973ZM20.0166 25.7916C19.4239 25.7916 18.8446 25.5982 18.3518 25.2359C17.859 24.8736 17.4749 24.3587 17.2481 23.7562C17.0213 23.1537 16.962 22.4908 17.0776 21.8512C17.1932 21.2116 17.4786 20.6241 17.8977 20.163C18.3168 19.7019 18.8507 19.3878 19.432 19.2606C20.0133 19.1334 20.6158 19.1987 21.1634 19.4482C21.7109 19.6978 22.1789 20.1204 22.5082 20.6626C22.8374 21.2048 23.0132 21.8423 23.0132 22.4944C23.0108 23.3681 22.6943 24.2052 22.1329 24.823C21.5714 25.4408 20.8106 25.789 20.0166 25.7916ZM20.0166 58.7634C19.4239 58.7634 18.8446 58.57 18.3518 58.2077C17.859 57.8454 17.4749 57.3304 17.2481 56.728C17.0213 56.1255 16.962 55.4625 17.0776 54.8229C17.1932 54.1833 17.4786 53.5958 17.8977 53.1347C18.3168 52.6736 18.8507 52.3596 19.432 52.2324C20.0133 52.1051 20.6158 52.1704 21.1634 52.42C21.7109 52.6695 22.1789 53.0921 22.5082 53.6344C22.8374 54.1766 23.0132 54.8141 23.0132 55.4662C23.0108 56.3398 22.6943 57.177 22.1329 57.7948C21.5714 58.4125 20.8106 58.7607 20.0166 58.7634ZM49.9824 58.7634C49.3898 58.7634 48.8104 58.57 48.3176 58.2077C47.8248 57.8454 47.4407 57.3304 47.2139 56.728C46.9871 56.1255 46.9278 55.4625 47.0434 54.8229C47.159 54.1833 47.4444 53.5958 47.8635 53.1347C48.2826 52.6736 48.8165 52.3596 49.3978 52.2324C49.9791 52.1051 50.5816 52.1704 51.1292 52.42C51.6767 52.6695 52.1447 53.0921 52.474 53.6344C52.8033 54.1766 52.979 54.8141 52.979 55.4662C52.9766 56.3398 52.6602 57.177 52.0987 57.7948C51.5372 58.4125 50.7764 58.7607 49.9824 58.7634Z" fill="#71B625"/>
</svg>
