<svg width="122" height="120" viewBox="0 0 122 120" fill="none" xmlns="http://www.w3.org/2000/svg">
<path d="M59.7553 119.51H62.2449C95.2467 119.51 122 92.7569 122 59.7551C122 26.7533 95.2467 0 62.2449 0H59.7553C26.7535 0 0.000225971 26.7532 0.000145573 59.755C6.51754e-05 92.7569 26.7534 119.51 59.7553 119.51Z" fill="#C6FB89" fill-opacity="0.12"/>
<path d="M91.017 34.0264H30.9852C29.848 34.0264 28.7573 34.4781 27.9532 35.2823C27.149 36.0864 26.6973 37.1771 26.6973 38.3143V81.1942C26.6973 82.3314 27.149 83.4221 27.9532 84.2262C28.7573 85.0304 29.848 85.4822 30.9852 85.4822H63.1451L64.3672 83.9814L66.3611 81.5372L66.1681 81.1942H30.9852V38.3143H91.017V56.6669C92.6458 57.7213 94.0938 59.0317 95.305 60.5475V38.3143C95.305 37.1771 94.8532 36.0864 94.0491 35.2823C93.2449 34.4781 92.1542 34.0264 91.017 34.0264Z" fill="#66B127"/>
<path d="M37.4141 46.8916H73.8619V50.322H37.4141V46.8916Z" fill="#66B127"/>
<path d="M37.4141 55.4668H60.998V58.8972H37.4141V55.4668Z" fill="#66B127"/>
<path d="M37.4141 70.4756H58.854V73.906H37.4141V70.4756Z" fill="#66B127"/>
<path d="M81.2831 58.1049C78.5395 58.0831 75.8532 58.8895 73.5751 60.4187C71.2971 61.9478 69.5333 64.1286 68.5143 66.6761C67.4954 69.2235 67.2686 72.0191 67.8636 74.6975C68.4586 77.3759 69.8478 79.8125 71.8496 81.6888L67.6902 86.7701L69.6198 94.5099L77.4668 84.9477C79.9507 85.6821 82.5941 85.6821 85.078 84.9477L92.925 94.5099L94.8546 86.7701L90.6952 81.6888C92.697 79.8125 94.0862 77.3759 94.6812 74.6975C95.2762 72.0191 95.0494 69.2235 94.0305 66.6761C93.0115 64.1286 91.2477 61.9478 88.9697 60.4187C86.6916 58.8895 84.0053 58.0831 81.2617 58.1049H81.2831ZM81.2831 81.0027C79.4612 80.9774 77.6874 80.4139 76.1848 79.3833C74.6823 78.3526 73.5179 76.9007 72.8382 75.2101C72.1585 73.5196 71.9937 71.6658 72.3647 69.8818C72.7356 68.0979 73.6257 66.4634 74.923 65.1839C76.2203 63.9045 77.8669 63.0371 79.6558 62.6908C81.4447 62.3446 83.296 62.5349 84.9771 63.2379C86.6581 63.941 88.0937 65.1253 89.1035 66.642C90.1133 68.1587 90.6522 69.94 90.6524 71.7621C90.6297 74.2282 89.6312 76.5849 87.8754 78.3166C86.1195 80.0484 83.7493 81.0142 81.2831 81.0027Z" fill="#66B127"/>
</svg>
