<svg width="24" height="21" viewBox="0 0 24 21" fill="none" xmlns="http://www.w3.org/2000/svg">
<path d="M1.75 5.66924C1.75 4.42441 1.75141 3.56183 1.83357 2.91232C1.91356 2.27993 2.05847 1.96416 2.26222 1.74759C2.45987 1.53749 2.73897 1.39224 3.31277 1.31024C3.91308 1.22445 4.71407 1.22266 5.88889 1.22266H18.1111C19.2859 1.22266 20.0869 1.22445 20.6872 1.31024C21.261 1.39224 21.5401 1.53749 21.7378 1.74759C21.9415 1.96416 22.0864 2.27993 22.1664 2.91232C22.2486 3.56183 22.25 4.42441 22.25 5.66924V16.6115H1.75V5.66924Z" stroke="#66B127" stroke-width="1.5"/>
<path d="M2.74074 16.6113C1.95414 16.6113 1.25 17.2264 1.25 18.065C1.25 19.2923 2.28578 20.2224 3.48148 20.2224H20.5185C21.7142 20.2224 22.75 19.2923 22.75 18.065C22.75 17.2264 22.0459 16.6113 21.2593 16.6113H2.74074Z" stroke="#66B127" stroke-width="1.5"/>
</svg>
