<svg width="25" height="25" viewBox="0 0 25 25" fill="none" xmlns="http://www.w3.org/2000/svg">
<path d="M20.6224 15.5C19.1024 15.5 17.8724 14.27 17.8724 12.75C17.8724 11.23 19.1024 10 20.6224 10C22.1424 10 23.3724 11.23 23.3724 12.75C23.3724 14.27 22.1424 15.5 20.6224 15.5ZM20.6224 11.5C19.9324 11.5 19.3724 12.06 19.3724 12.75C19.3724 13.44 19.9324 14 20.6224 14C21.3124 14 21.8724 13.44 21.8724 12.75C21.8724 12.06 21.3124 11.5 20.6224 11.5Z" fill="#71B626"/>
<path d="M20.6224 7.5C19.1024 7.5 17.8724 6.27 17.8724 4.75C17.8724 3.23 19.1024 2 20.6224 2C22.1424 2 23.3724 3.23 23.3724 4.75C23.3724 6.27 22.1424 7.5 20.6224 7.5ZM20.6224 3.5C19.9324 3.5 19.3724 4.06 19.3724 4.75C19.3724 5.44 19.9324 6 20.6224 6C21.3124 6 21.8724 5.44 21.8724 4.75C21.8724 4.06 21.3124 3.5 20.6224 3.5Z" fill="#71B626"/>
<path d="M20.6224 23.5C19.1024 23.5 17.8724 22.27 17.8724 20.75C17.8724 19.23 19.1024 18 20.6224 18C22.1424 18 23.3724 19.23 23.3724 20.75C23.3724 22.27 22.1424 23.5 20.6224 23.5ZM20.6224 19.5C19.9324 19.5 19.3724 20.06 19.3724 20.75C19.3724 21.44 19.9324 22 20.6224 22C21.3124 22 21.8724 21.44 21.8724 20.75C21.8724 20.06 21.3124 19.5 20.6224 19.5Z" fill="#71B626"/>
<path d="M4.62244 15.5C3.10244 15.5 1.87244 14.27 1.87244 12.75C1.87244 11.23 3.10244 10 4.62244 10C6.14244 10 7.37244 11.23 7.37244 12.75C7.37244 14.27 6.14244 15.5 4.62244 15.5ZM4.62244 11.5C3.93244 11.5 3.37244 12.06 3.37244 12.75C3.37244 13.44 3.93244 14 4.62244 14C5.31244 14 5.87244 13.44 5.87244 12.75C5.87244 12.06 5.31244 11.5 4.62244 11.5Z" fill="#71B626"/>
<path d="M18.6224 13.5L6.62244 13.5C6.21244 13.5 5.87244 13.16 5.87244 12.75C5.87244 12.34 6.21244 12 6.62244 12L18.6224 12C19.0324 12 19.3724 12.34 19.3724 12.75C19.3724 13.16 19.0324 13.5 18.6224 13.5Z" fill="#71B626"/>
<path d="M18.6224 21.5H14.6224C12.2024 21.5 10.8724 20.17 10.8724 17.75L10.8724 7.75C10.8724 5.33 12.2024 4 14.6224 4L18.6224 4C19.0324 4 19.3724 4.34 19.3724 4.75C19.3724 5.16 19.0324 5.5 18.6224 5.5L14.6224 5.5C13.0424 5.5 12.3724 6.17 12.3724 7.75L12.3724 17.75C12.3724 19.33 13.0424 20 14.6224 20H18.6224C19.0324 20 19.3724 20.34 19.3724 20.75C19.3724 21.16 19.0324 21.5 18.6224 21.5Z" fill="#71B626"/>
</svg>
