<svg width="22" height="33" viewBox="0 0 22 33" fill="none" xmlns="http://www.w3.org/2000/svg">
<path d="M8.70117 30.4551C8.70117 31.6515 9.68006 32.6304 10.8765 32.6304C12.0729 32.6304 13.0518 31.6515 13.0518 30.4551H8.70117Z" fill="#616466"/>
<path d="M7.01536 25.016H14.6833C15.1184 22.6776 16.5867 20.3935 18.1094 18.0006C19.904 15.2271 21.7531 12.3449 21.7531 9.57134C21.7531 4.29623 16.8586 0 10.8765 0C4.89444 0 0 4.29623 0 9.57134C0 12.3449 1.84901 15.2271 3.58925 18.0006C5.11197 20.3935 6.5803 22.6776 7.01536 25.016Z" fill="#FFCE31"/>
<path d="M7.83324 17.1842C7.88763 17.5105 7.99639 17.8368 8.05077 18.1631C8.21392 18.7613 8.32269 19.3051 8.48583 19.9033C8.97528 21.9698 9.41034 23.7101 9.79102 25.0696H10.1173C9.8454 23.7101 9.46472 21.9155 8.97528 19.8489C8.86651 19.3051 8.70336 18.7069 8.5946 18.1087C8.54022 17.8368 8.48583 17.5105 8.37707 17.2385C8.81213 17.1298 9.8454 16.8035 10.8787 15.6615C11.9119 16.8035 12.9452 17.1298 13.3803 17.2385C13.3259 17.5648 13.2715 17.8368 13.1627 18.1087C13.054 18.7069 12.8908 19.3051 12.7821 19.8489C12.2926 21.9155 11.9119 23.7101 11.64 25.0696H11.9663C12.2926 23.7101 12.7821 21.9698 13.2715 19.9033C13.3803 19.3595 13.5434 18.7613 13.7066 18.1631C13.761 17.8368 13.8697 17.5105 13.9241 17.1842C14.3592 17.1298 14.7398 17.021 15.0118 16.7491C15.338 16.4228 15.5012 16.0421 15.3924 15.6071C15.338 15.3895 15.2293 15.1176 14.903 15.0632C14.7398 15.0089 14.6311 15.0089 14.4679 15.0632C14.3048 15.1176 14.196 15.2264 14.1416 15.2808C13.8697 15.6071 13.761 15.9334 13.6522 16.2597L13.489 16.7491C13.489 16.7491 13.054 16.8035 12.0207 16.0965C11.4769 15.7158 11.3137 15.4439 11.1506 15.2808C11.3137 15.0632 11.4769 14.9001 11.64 14.6282C11.6944 14.465 11.7488 14.3563 11.8032 14.1387C11.8032 13.9756 11.8032 13.7581 11.6944 13.5949C11.5856 13.4318 11.4769 13.2686 11.205 13.1599C11.0962 13.1055 10.9874 13.1055 10.8787 13.1055C10.7699 13.1055 10.6611 13.1055 10.5524 13.1599C10.3348 13.2686 10.1717 13.4318 10.0629 13.5949C9.95417 13.7581 9.95417 13.9756 9.95417 14.1387C9.95417 14.3019 10.0085 14.465 10.1173 14.6282C10.2261 14.9001 10.3892 15.1176 10.6068 15.2808C10.4436 15.4439 10.2805 15.7158 9.73664 16.0965C8.75775 16.7491 8.2683 16.7491 8.2683 16.7491L8.10516 16.2597C7.99639 15.9334 7.88763 15.6071 7.61571 15.2808C7.56133 15.2264 7.45256 15.1176 7.28942 15.0632C7.12627 15.0089 6.96312 15.0089 6.85436 15.0632C6.52806 15.172 6.41929 15.4439 6.36491 15.6071C6.31053 16.0421 6.47368 16.4228 6.74559 16.7491C7.07189 17.021 7.45256 17.1298 7.83324 17.1842ZM14.1416 16.3684C14.2504 16.0965 14.3592 15.7702 14.5767 15.6071C14.6311 15.5527 14.6855 15.5527 14.6855 15.5527H14.7942C14.8486 15.5527 14.903 15.6071 14.9574 15.7702C15.0118 15.9877 14.903 16.314 14.6855 16.4772C14.5223 16.586 14.3048 16.6947 14.0872 16.7491C14.0872 16.586 14.0872 16.4772 14.1416 16.3684ZM10.5524 13.7581C10.6611 13.6493 10.7699 13.5405 10.8787 13.5405C10.9874 13.5405 11.0962 13.5949 11.205 13.7581C11.3137 13.9212 11.2593 14.1387 11.1506 14.3563C11.0962 14.5194 10.9874 14.6826 10.8787 14.7913C10.7699 14.6282 10.6611 14.5194 10.6068 14.3563C10.498 14.1931 10.4436 13.9756 10.5524 13.7581ZM6.85436 15.6615C6.85436 15.5527 6.90874 15.4983 7.0175 15.4439H7.12627C7.12627 15.4439 7.18065 15.4983 7.23503 15.4983C7.39818 15.6615 7.56133 15.9877 7.6701 16.2597C7.72448 16.3684 7.72448 16.4772 7.77886 16.586C7.56133 16.5316 7.3438 16.4772 7.18065 16.314C6.96312 16.2053 6.85436 15.9334 6.85436 15.6615Z" fill="#C79127"/>
<path d="M7.0166 26.1045H14.7933V27.0834H7.0166V26.1045ZM7.56043 28.0623H14.2495V29.0412H7.56043V28.0623Z" fill="#94989B"/>
<path d="M7.56055 27.082H14.2496V28.0609H7.56055V27.082Z" fill="#616466"/>
<path d="M14.7934 26.1045L7.56055 28.0623V29.0955L14.7934 27.0834V26.1045ZM8.10437 30.0744H13.7058V31.0533H8.10437V30.0744Z" fill="#94989B"/>
<path d="M8.10449 29.0947H13.7059V30.0736H8.10449V29.0947Z" fill="#616466"/>
<path d="M14.2497 28.0625L8.10449 30.0747V31.1079L14.2497 29.0958V28.0625Z" fill="#94989B"/>
</svg>
