<svg width="27" height="28" viewBox="0 0 27 28" fill="none" xmlns="http://www.w3.org/2000/svg">
<path d="M26.6282 13.9949C26.6282 17.4851 25.2417 20.8323 22.7738 23.3003C20.3058 25.7682 16.9586 27.1547 13.4684 27.1547C9.97819 27.1547 6.63095 25.7682 4.16301 23.3003C1.69507 20.8323 0.308594 17.4851 0.308594 13.9949C0.308594 10.5047 1.69507 7.15744 4.16301 4.6895C6.63095 2.22156 9.97819 0.835083 13.4684 0.835083C16.9586 0.835083 20.3058 2.22156 22.7738 4.6895C25.2417 7.15744 26.6282 10.5047 26.6282 13.9949ZM14.5036 7.11377L14.4949 7.10499C14.224 6.83655 13.8585 6.68531 13.4772 6.68388H13.4596C13.0755 6.68564 12.7076 6.8391 12.4361 7.11084L6.58728 12.9596C6.31272 13.2338 6.15832 13.6058 6.15804 13.9938C6.15777 14.3819 6.31164 14.7541 6.58581 15.0287C6.85999 15.3032 7.232 15.4576 7.62002 15.4579C8.00803 15.4582 8.38027 15.3043 8.65483 15.0301L12.0062 11.6758V19.8437C12.0062 20.2315 12.1602 20.6034 12.4345 20.8776C12.7087 21.1518 13.0806 21.3059 13.4684 21.3059C13.8562 21.3059 14.2281 21.1518 14.5023 20.8776C14.7765 20.6034 14.9306 20.2315 14.9306 19.8437V11.6758L18.2819 15.0301C18.4168 15.1698 18.5782 15.2812 18.7566 15.3578C18.935 15.4344 19.1268 15.4748 19.321 15.4764C19.5151 15.4781 19.7077 15.4411 19.8874 15.3676C20.0671 15.2941 20.2303 15.1855 20.3676 15.0482C20.5049 14.9109 20.6135 14.7477 20.687 14.568C20.7605 14.3883 20.7975 14.1958 20.7958 14.0016C20.7941 13.8075 20.7538 13.6156 20.6772 13.4372C20.6005 13.2588 20.4892 13.0974 20.3495 12.9626L14.5007 7.11377H14.5036Z" fill="#66B127"/>
</svg>
