<svg width="26" height="24" viewBox="0 0 26 24" fill="none" xmlns="http://www.w3.org/2000/svg">
<path d="M13.1382 23.467H3.12985C1.30407 23.466 0.37172 22.5347 0.370722 20.7179C0.370722 20.1649 0.400669 19.6108 0.370722 19.0598C0.194034 16.1959 0.67718 13.3988 1.16931 10.5968C1.66643 7.69989 2.12562 4.79203 2.59279 1.88916C2.77847 0.725218 3.53812 0.00748677 4.70905 0.0054903C10.2992 -0.0018301 15.887 -0.0018301 21.4724 0.0054903C22.6264 0.0054903 23.397 0.676305 23.6027 1.88916C24.1088 4.86989 24.5879 7.85562 25.0771 10.8393C25.2458 11.8665 25.4494 12.8917 25.5672 13.9249C25.694 15.0389 25.7738 16.1599 25.8108 17.28C25.8517 18.5068 25.8247 19.7356 25.8187 20.9634C25.8118 22.4858 24.8495 23.459 23.3321 23.465C19.9341 23.4723 16.5362 23.473 13.1382 23.467ZM24.0748 13.7462C23.9451 12.8827 23.8283 12.0951 23.7095 11.3085C23.2353 8.17904 22.7562 5.04958 22.292 1.91711C22.2351 1.53279 22.1143 1.36109 21.6791 1.36209C15.9911 1.37673 10.3032 1.37673 4.61522 1.36209C4.23689 1.36209 4.09314 1.45193 4.03924 1.86121C3.6619 4.71716 3.24864 7.56812 2.85134 10.4211C2.69861 11.5191 2.55885 12.6262 2.41012 13.7472L24.0748 13.7462ZM13.1062 21.762C16.648 21.762 20.1937 21.7541 23.7324 21.77C24.2615 21.77 24.4601 21.5973 24.4532 21.0593C24.4299 19.3603 24.4299 17.6613 24.4532 15.9623C24.4611 15.3963 24.2325 15.2046 23.6885 15.2056C16.605 15.2149 9.52122 15.2149 2.43707 15.2056C1.91399 15.2056 1.71335 15.3943 1.72233 15.9323C1.74729 17.6104 1.72932 19.2894 1.73232 20.9684C1.73232 21.7191 1.77724 21.76 2.54188 21.761L13.1062 21.762Z" fill="#71B626"/>
<path d="M8.52686 3.0188L8.58975 3.94017C9.33044 3.94017 10.0611 3.97211 10.7859 3.92919C11.285 3.89924 11.5974 4.05497 11.8839 4.48421C12.982 6.11233 14.1369 7.70052 15.244 9.32266C15.4816 9.67104 15.7381 9.80081 16.1484 9.78384C16.8472 9.75389 17.5399 9.76388 18.2357 9.78384C18.8516 9.79882 19.0602 10.0404 19.0572 10.6683C19.0572 11.2193 18.7797 11.5078 18.2307 11.5118C17.2325 11.5188 16.2223 11.5487 15.222 11.4918C14.9585 11.4768 14.6311 11.2373 14.4694 11.0057C13.3473 9.39453 12.2543 7.76341 11.1692 6.1273C10.9576 5.80687 10.7399 5.64017 10.3327 5.67011C9.76567 5.71204 9.19268 5.68109 8.59274 5.68109C8.5618 6.06442 8.53584 6.39882 8.5039 6.8101L6.32275 5.17099L8.52686 3.0188Z" fill="#71B626"/>
<path d="M17.9293 6.84655V5.70357C16.6316 5.69758 15.263 5.27233 14.4824 6.94637L13.4272 5.60175C14.3905 4.06047 15.9698 3.63023 17.8894 4.01955C17.9163 3.5953 17.9353 3.27985 17.9512 3.0293L20.0885 5.22542L17.9293 6.84655Z" fill="#71B626"/>
<path d="M11.4878 8.04565L12.5859 9.29844C12.1746 9.89738 11.7214 10.5961 11.2223 11.267C11.1135 11.4127 10.839 11.4946 10.6383 11.5005C9.81977 11.5265 9.00022 11.4946 8.18167 11.5165C7.53281 11.5345 7.44497 11.0903 7.43099 10.6251C7.41702 10.1599 7.57873 9.7736 8.15971 9.77759C8.74068 9.78159 9.30868 9.81153 9.87767 9.75963C10.1415 9.72537 10.3844 9.59791 10.5625 9.40026C10.8959 8.99598 11.1614 8.5318 11.4878 8.04565Z" fill="#71B626"/>
<path d="M16.1646 18.8672H18.6512V20.13H16.1646V18.8672Z" fill="#71B626"/>
<path d="M20.457 18.8562H22.9347V20.1339H20.457V18.8562Z" fill="#71B626"/>
<path d="M7.41602 18.8672H9.87567V20.127H7.41602V18.8672Z" fill="#71B626"/>
<path d="M14.1664 20.1358H11.6968V18.873H14.1664V20.1358Z" fill="#71B626"/>
<path d="M9.89264 16.8835V18.0565H7.41602V16.8835H9.89264Z" fill="#71B626"/>
<path d="M11.6846 18.0585V16.8816H14.1712V18.0585H11.6846Z" fill="#71B626"/>
<path d="M18.6625 16.8918V18.0688H16.1499V16.8918H18.6625Z" fill="#71B626"/>
<path d="M20.4531 16.8555H22.9397V18.0534H20.4531V16.8555Z" fill="#71B626"/>
<path d="M4.6268 19.1836C4.51439 19.1855 4.40276 19.1646 4.29875 19.1219C4.19473 19.0792 4.10054 19.0157 4.02193 18.9353C3.94333 18.855 3.88197 18.7594 3.84162 18.6544C3.80127 18.5495 3.78278 18.4374 3.78728 18.3251C3.78728 17.8619 4.20155 17.4267 4.64277 17.4766C5.11793 17.5305 5.43138 17.798 5.45134 18.3111C5.45892 18.4236 5.44315 18.5364 5.40503 18.6425C5.36691 18.7486 5.30726 18.8457 5.22982 18.9276C5.15239 19.0095 5.05884 19.0746 4.95507 19.1186C4.85129 19.1627 4.73953 19.1848 4.6268 19.1836Z" fill="#71B626"/>
</svg>
