<svg width="25" height="25" viewBox="0 0 25 25" fill="none" xmlns="http://www.w3.org/2000/svg">
<path d="M8.03418 10.7143H16.9628V14.2857H8.03418V10.7143Z" fill="#878787"/>
<path d="M24.4563 11.1848L13.8152 0.543752C13.6425 0.371021 13.4375 0.234073 13.2118 0.140763C12.9861 0.0474539 12.7442 -0.000381053 12.5 2.28585e-06C12.0241 2.28585e-06 11.5473 0.181252 11.1848 0.543752L0.54375 11.1848C0.18125 11.5473 0 12.0232 0 12.5C0 12.9768 0.18125 13.4527 0.54375 13.8152L11.1839 24.4554C11.5473 24.8188 12.0241 25 12.5 25C12.9759 25 13.4527 24.8188 13.8152 24.4563L24.4554 13.8161C24.8187 13.4527 25 12.9768 25 12.5C25 12.0232 24.8188 11.5473 24.4563 11.1848ZM12.5 23.2464L1.75446 12.5L12.5 1.75357L23.2464 12.5L12.5 23.2464Z" fill="#878787"/>
</svg>
