<svg width="20" height="20" viewBox="0 0 20 20" fill="none" xmlns="http://www.w3.org/2000/svg">
<path d="M10 20C15.5228 20 20 15.5228 20 10C20 4.47715 15.5228 0 10 0C4.47715 0 0 4.47715 0 10C0 15.5228 4.47715 20 10 20Z" fill="#DC3938"/>
<path d="M11.037 9.99878L13.2872 7.74939C13.5709 7.46577 13.5709 6.99633 13.2872 6.71271C13.0035 6.4291 12.5339 6.4291 12.2502 6.71271L10 8.9621L7.74982 6.71271C7.46611 6.4291 6.99651 6.4291 6.71279 6.71271C6.42907 6.99633 6.42907 7.46577 6.71279 7.74939L8.96296 9.99878L6.71279 12.2482C6.42907 12.5318 6.42907 13.0012 6.71279 13.2848C6.85954 13.4315 7.04542 13.5 7.23131 13.5C7.41719 13.5 7.60307 13.4315 7.74982 13.2848L10 11.0355L12.2502 13.2848C12.3969 13.4315 12.5828 13.5 12.7687 13.5C12.9546 13.5 13.1405 13.4315 13.2872 13.2848C13.5709 13.0012 13.5709 12.5318 13.2872 12.2482L11.037 9.99878Z" fill="white"/>
</svg>
