<svg width="23" height="24" viewBox="0 0 23 24" fill="none" xmlns="http://www.w3.org/2000/svg">
<path fill-rule="evenodd" clip-rule="evenodd" d="M0.636718 13.0434C0.636718 10.3863 2.79846 8.2246 5.45556 8.2246L6.468 8.2246C6.91773 8.2246 7.28273 8.58959 7.28273 9.03932C7.28273 9.48905 6.91773 9.85405 6.468 9.85405L5.45556 9.85405C3.69575 9.85405 2.26617 11.2847 2.26617 13.0434L2.26617 18.3392C2.26617 20.0957 3.69575 21.5253 5.45556 21.5253L17.545 21.5253C19.3038 21.5253 20.7333 20.0957 20.7333 18.3392L20.7333 13.0315C20.7333 11.2804 19.3081 9.85405 17.557 9.85405L16.5326 9.85405C16.0829 9.85405 15.7179 9.48905 15.7179 9.03932C15.7179 8.58959 16.0829 8.22459 16.5326 8.22459L17.557 8.22459C20.2076 8.22459 22.3628 10.382 22.3628 13.0315L22.3628 18.3392C22.3628 20.9941 20.2021 23.1548 17.545 23.1548L5.45556 23.1548C2.79846 23.1548 0.636719 20.9941 0.636719 18.3392L0.636718 13.0434ZM7.75635 4.266L10.9229 1.0853C10.9511 1.05692 10.9804 1.03151 11.0113 1.00826L10.9229 1.0853C10.9609 1.04681 11.0023 1.01258 11.0466 0.982885C11.0666 0.969814 11.0873 0.957206 11.1086 0.945521C11.1252 0.93604 11.1426 0.927314 11.1602 0.919224C11.1758 0.912366 11.1914 0.905783 11.2073 0.899681C11.2279 0.891491 11.2492 0.88432 11.2707 0.878029C11.2876 0.873289 11.3045 0.868932 11.3216 0.865113C11.3424 0.86026 11.3632 0.856439 11.3843 0.853433C11.3979 0.851732 11.4123 0.850068 11.4267 0.848784C11.4515 0.846297 11.4756 0.845224 11.4998 0.845224L11.5671 0.850762L11.6103 0.852992C11.6121 0.853242 11.6139 0.853498 11.6158 0.85376L11.4998 0.845224C11.5601 0.845224 11.6198 0.8519 11.6778 0.864879C11.695 0.868932 11.7119 0.873289 11.7286 0.878166C11.7504 0.884319 11.7716 0.891491 11.7925 0.899524C11.8081 0.905783 11.8237 0.912367 11.839 0.919413C11.8569 0.927314 11.8743 0.936039 11.8913 0.945389C11.9122 0.957205 11.9329 0.969813 11.953 0.983291C11.9649 0.990916 11.9767 0.999281 11.9882 1.00797C12.0222 1.03383 12.0543 1.06202 12.0839 1.09251L15.2442 4.26599C15.4028 4.4246 15.4821 4.63316 15.4821 4.84065C15.4821 5.04922 15.4028 5.25888 15.2421 5.41748C14.9227 5.73468 14.4078 5.73359 14.0906 5.4153L12.3145 3.63387L12.3145 14.7405C12.3145 15.1902 11.9495 15.5552 11.4998 15.5552C11.05 15.5552 10.685 15.1902 10.685 14.7405L10.685 3.6317L8.91001 5.4153C8.59281 5.73359 8.0779 5.73576 7.75853 5.41748C7.43915 5.10028 7.43915 4.58537 7.75635 4.266Z" fill="#86A8BB"/>
</svg>
