<svg width="17" height="17" viewBox="0 0 17 17" fill="none" xmlns="http://www.w3.org/2000/svg">
<path fill-rule="evenodd" clip-rule="evenodd" d="M8.5 0C13.1869 0 17 3.8131 17 8.5C17 13.1869 13.1869 17 8.5 17C3.8131 17 0 13.1869 0 8.5C0 3.8131 3.8131 0 8.5 0Z" fill="#66B127"/>
<path fill-rule="evenodd" clip-rule="evenodd" d="M12.0263 5.93771C12.2885 6.19987 12.2885 6.62397 12.0263 6.88613L7.77989 11.1325C7.64926 11.2641 7.47747 11.3294 7.30568 11.3294C7.13478 11.3294 6.9621 11.2641 6.83147 11.1325L4.70736 9.00934C4.4452 8.74718 4.4452 8.32308 4.70736 8.06092C4.96952 7.79876 5.39362 7.79876 5.65578 8.06092L7.30568 9.70902L11.0779 5.93771C11.34 5.67555 11.7642 5.67555 12.0263 5.93771Z" fill="white"/>
</svg>
