<svg width="17" height="17" viewBox="0 0 17 17" fill="none" xmlns="http://www.w3.org/2000/svg">
<path d="M8.5 17C13.1944 17 17 13.1944 17 8.5C17 3.80558 13.1944 0 8.5 0C3.80558 0 0 3.80558 0 8.5C0 13.1944 3.80558 17 8.5 17Z" fill="#DC3938"/>
<path d="M9.38145 8.49911L11.2941 6.58713C11.5353 6.34605 11.5353 5.94703 11.2941 5.70595C11.0529 5.46488 10.6538 5.46488 10.4126 5.70595L8.49996 7.61793L6.58731 5.70595C6.34615 5.46488 5.94699 5.46488 5.70583 5.70595C5.46467 5.94703 5.46467 6.34605 5.70583 6.58713L7.61848 8.49911L5.70583 10.4111C5.46467 10.6522 5.46467 11.0512 5.70583 11.2923C5.83057 11.417 5.98857 11.4751 6.14657 11.4751C6.30458 11.4751 6.46258 11.417 6.58731 11.2923L8.49996 9.38028L10.4126 11.2923C10.5374 11.417 10.6954 11.4751 10.8534 11.4751C11.0114 11.4751 11.1694 11.417 11.2941 11.2923C11.5353 11.0512 11.5353 10.6522 11.2941 10.4111L9.38145 8.49911Z" fill="white"/>
</svg>
