<svg width="24" height="25" viewBox="0 0 24 25" fill="none" xmlns="http://www.w3.org/2000/svg">
<path d="M12 20C11.4533 20 11 19.6978 11 19.3333V16.6667C11 16.3022 11.4533 16 12 16C12.5467 16 13 16.3022 13 16.6667V19.3333C13 19.6978 12.5467 20 12 20Z" fill="#71B626"/>
<path d="M12 25C10.3418 25 9 23.6582 9 22C9 20.3418 10.3418 19 12 19C13.6582 19 15 20.3418 15 22C15 23.6582 13.6582 25 12 25ZM12 20.6364C11.2473 20.6364 10.6364 21.2473 10.6364 22C10.6364 22.7527 11.2473 23.3636 12 23.3636C12.7527 23.3636 13.3636 22.7527 13.3636 22C13.3636 21.2473 12.7527 20.6364 12 20.6364Z" fill="#71B626"/>
<path d="M19.1818 23H14.8182C14.3709 23 14 22.5467 14 22C14 21.4533 14.3709 21 14.8182 21H19.1818C19.6291 21 20 21.4533 20 22C20 22.5467 19.6291 23 19.1818 23Z" fill="#71B626"/>
<path d="M9.18182 23H4.81818C4.37091 23 4 22.5467 4 22C4 21.4533 4.37091 21 4.81818 21H9.18182C9.62909 21 10 21.4533 10 22C10 22.5467 9.62909 23 9.18182 23Z" fill="#71B626"/>
<path d="M15.6129 17H8.3871C5.06323 17 4 15.9368 4 12.6129V5.3871C4 2.06323 5.06323 1 8.3871 1H9.47095C10.8439 1 11.2878 1.46453 11.8245 2.17679L12.9084 3.62198C13.1148 3.89036 13.1149 3.89037 13.4452 3.89037H15.6129C18.9368 3.89037 20 4.9536 20 8.27747V12.6129C20 15.9368 18.9368 17 15.6129 17ZM8.3871 2.54839C5.92 2.54839 5.54839 2.92 5.54839 5.3871V12.6129C5.54839 15.08 5.92 15.4516 8.3871 15.4516H15.6129C18.08 15.4516 18.4516 15.08 18.4516 12.6129V8.27747C18.4516 5.81037 18.08 5.43876 15.6129 5.43876H13.4452C12.4233 5.43876 12.0516 5.05672 11.68 4.56124L10.5858 3.10585C10.2245 2.62069 10.1729 2.54839 9.47095 2.54839H8.3871Z" fill="#71B626"/>
</svg>
