<svg width="20" height="23" viewBox="0 0 20 23" fill="none" xmlns="http://www.w3.org/2000/svg">
<path d="M14.4155 15.1487C15.0599 14.7849 15.7976 14.5779 16.5832 14.5779H16.5859C16.6658 14.5779 16.7031 14.4771 16.6445 14.4212C15.8275 13.6508 14.8942 13.0286 13.8828 12.58C13.8722 12.5745 13.8615 12.5717 13.8509 12.5661C15.5047 11.3041 16.5806 9.25316 16.5806 6.93917C16.5806 3.10584 13.6298 0 9.98938 0C6.34891 0 3.40085 3.10584 3.40085 6.93917C3.40085 9.25316 4.47675 11.3041 6.1332 12.5661C6.12255 12.5717 6.1119 12.5745 6.10125 12.58C4.91084 13.1089 3.84293 13.8672 2.92416 14.8353C2.01069 15.7933 1.28345 16.929 0.78302 18.179C0.290646 19.403 0.0249174 20.7144 6.65937e-05 22.0431C-0.000644203 22.0729 0.00434121 22.1026 0.0147292 22.1304C0.0251172 22.1583 0.0406975 22.1836 0.0605522 22.205C0.0804068 22.2264 0.104134 22.2434 0.130336 22.2549C0.156537 22.2665 0.184683 22.2725 0.213115 22.2725H1.80832C1.92283 22.2725 2.0187 22.1746 2.02136 22.0543C2.07463 19.8942 2.89753 17.8712 4.35425 16.3378C5.8589 14.7513 7.86156 13.8783 9.99204 13.8783C11.502 13.8783 12.9508 14.3176 14.1998 15.1403C14.2318 15.1614 14.2687 15.1734 14.3065 15.1749C14.3444 15.1763 14.382 15.1673 14.4155 15.1487ZM9.99204 11.7518C8.77234 11.7518 7.62454 11.251 6.75903 10.3416C6.33319 9.89534 5.99559 9.36496 5.76569 8.78102C5.53579 8.19707 5.41813 7.5711 5.41949 6.93917C5.41949 5.65487 5.89619 4.44611 6.75903 3.53674C7.62188 2.62737 8.76968 2.12652 9.99204 2.12652C11.2144 2.12652 12.3595 2.62737 13.2251 3.53674C13.6509 3.983 13.9885 4.51338 14.2184 5.09733C14.4483 5.68127 14.566 6.30724 14.5646 6.93917C14.5646 8.22348 14.0879 9.43224 13.2251 10.3416C12.3595 11.251 11.2117 11.7518 9.99204 11.7518ZM19.787 18.4112H17.5499V16.0608C17.5499 15.9377 17.4541 15.837 17.3369 15.837H15.8456C15.7284 15.837 15.6325 15.9377 15.6325 16.0608V18.4112H13.3955C13.2783 18.4112 13.1824 18.5119 13.1824 18.635V20.2019C13.1824 20.3251 13.2783 20.4258 13.3955 20.4258H15.6325V22.7762C15.6325 22.8993 15.7284 23 15.8456 23H17.3369C17.4541 23 17.5499 22.8993 17.5499 22.7762V20.4258H19.787C19.9041 20.4258 20 20.3251 20 20.2019V18.635C20 18.5119 19.9041 18.4112 19.787 18.4112Z" fill="rgba(0,0,0,0.3)"/>
</svg>
