<svg width="22" height="24" viewBox="0 0 22 24" fill="none" xmlns="http://www.w3.org/2000/svg">
<path d="M21.1984 23.0853H15.1417V16.5782H21.1984V23.0853ZM16.6559 21.4585H19.6842V18.205H16.6559V21.4585ZM13.6276 20.6451H4.54252C3.33777 20.6451 2.18236 20.1309 1.33047 19.2157C0.478585 18.3005 0 17.0592 0 15.7648C0 14.4705 0.478585 13.2292 1.33047 12.314C2.18236 11.3987 3.33777 10.8846 4.54252 10.8846H6.05669V12.5113H4.54252C3.73935 12.5113 2.96908 12.8541 2.40115 13.4642C1.83323 14.0744 1.51417 14.9019 1.51417 15.7648C1.51417 16.6277 1.83323 17.4553 2.40115 18.0654C2.96908 18.6756 3.73935 19.0184 4.54252 19.0184H13.6276V20.6451Z" fill="#6C6B75"/>
<path d="M13.627 14.9506H7.57031V8.44351H13.627V14.9506ZM9.08449 13.3238H12.1128V10.0703H9.08449V13.3238Z" fill="#6C6B75"/>
<path d="M16.6559 12.5106H15.1417V10.8838H16.6559C17.4591 10.8838 18.2293 10.541 18.7973 9.93086C19.3652 9.3207 19.6842 8.49316 19.6842 7.63027C19.6842 6.76738 19.3652 5.93983 18.7973 5.32968C18.2293 4.71953 17.4591 4.37675 16.6559 4.37675H7.57086V2.74999H16.6559C17.8607 2.74999 19.0161 3.26416 19.8679 4.17939C20.7198 5.09462 21.1984 6.33594 21.1984 7.63027C21.1984 8.9246 20.7198 10.1659 19.8679 11.0811C19.0161 11.9964 17.8607 12.5106 16.6559 12.5106ZM6.05669 6.81689H0V0.309845H6.05669V6.81689ZM1.51417 5.19013H4.54252V1.93661H1.51417V5.19013Z" fill="#6C6B75"/>
</svg>
