<svg width="25" height="25" viewBox="0 0 25 25" fill="none" xmlns="http://www.w3.org/2000/svg">
<path fill-rule="evenodd" clip-rule="evenodd" d="M5.44872 14.1026C10.6654 14.1026 10.8974 15.8718 10.8974 19.5513C10.8974 21.3949 10.8974 22.7064 10.1231 23.6667C9.23205 24.7731 7.61026 25 5.44872 25C3.28718 25 1.66538 24.7731 0.774359 23.6667C0 22.7064 0 21.3962 0 19.5833L0.961538 19.5513H0C0 15.8718 0.232052 14.1026 5.44872 14.1026ZM19.5513 14.1026C24.768 14.1026 25 15.8718 25 19.5513C25 21.3949 25 22.7064 24.2256 23.6667C23.3346 24.7731 21.7128 25 19.5513 25C17.3897 25 15.7679 24.7731 14.8769 23.6667C14.1026 22.7064 14.1026 21.3962 14.1026 19.5833L15.0641 19.5513H14.1026C14.1026 15.8718 14.3346 14.1026 19.5513 14.1026ZM5.71303 16.0262L5.44872 16.0256C2.10388 16.0256 1.93235 16.2657 1.92355 19.0731L1.92409 20.1669C1.93017 21.2835 1.97271 22.0901 2.27051 22.4615C2.61026 22.8821 3.61923 23.0769 5.44872 23.0769C7.27821 23.0769 8.28718 22.8808 8.62692 22.4603C8.97436 22.0282 8.97436 21.0026 8.97436 19.5821C8.97436 16.3767 8.97436 16.0413 5.71303 16.0262ZM19.8156 16.0262L19.5513 16.0256C16.2064 16.0256 16.0349 16.2657 16.0261 19.0731L16.0267 20.1669C16.0327 21.2835 16.0753 22.0901 16.3731 22.4615C16.7128 22.8821 17.7218 23.0769 19.5513 23.0769C21.3808 23.0769 22.3897 22.8808 22.7295 22.4603C23.0769 22.0282 23.0769 21.0026 23.0769 19.5821C23.0769 16.3767 23.0769 16.0413 19.8156 16.0262ZM5.44872 0C10.6654 0 10.8974 1.76923 10.8974 5.44872C10.8974 7.29231 10.8974 8.60385 10.1231 9.5641C9.23205 10.6705 7.61026 10.8974 5.44872 10.8974C3.28718 10.8974 1.66538 10.6705 0.774359 9.5641C0 8.60385 0 7.29359 0 5.48077L0.961538 5.44872H0C0 1.76923 0.232052 0 5.44872 0ZM19.5513 0C24.768 0 25 1.76923 25 5.44872C25 7.29231 25 8.60385 24.2256 9.5641C23.3346 10.6705 21.7128 10.8974 19.5513 10.8974C17.3897 10.8974 15.7679 10.6705 14.8769 9.5641C14.1026 8.60385 14.1026 7.29359 14.1026 5.48077L15.0641 5.44872H14.1026C14.1026 1.76923 14.3346 0 19.5513 0ZM5.71303 1.92365L5.44872 1.92308C2.10388 1.92308 1.93235 2.16309 1.92355 4.97058L1.92409 6.06433C1.93017 7.18095 1.97271 7.98755 2.27051 8.35897C2.61026 8.77949 3.61923 8.97436 5.44872 8.97436C7.27821 8.97436 8.28718 8.77821 8.62692 8.35769C8.97436 7.92564 8.97436 6.9 8.97436 5.47949C8.97436 2.2741 8.97436 1.93874 5.71303 1.92365ZM19.8156 1.92365L19.5513 1.92308C16.2064 1.92308 16.0349 2.16309 16.0261 4.97058L16.0267 6.06433C16.0327 7.18095 16.0753 7.98755 16.3731 8.35897C16.7128 8.77949 17.7218 8.97436 19.5513 8.97436C21.3808 8.97436 22.3897 8.77821 22.7295 8.35769C23.0769 7.92564 23.0769 6.9 23.0769 5.47949C23.0769 2.2741 23.0769 1.93874 19.8156 1.92365Z" fill="#71B626"/>
</svg>
