<svg width="52" height="52" viewBox="0 0 52 52" fill="none" xmlns="http://www.w3.org/2000/svg">
<rect width="52" height="52" rx="5" fill="#AFFFCF" fill-opacity="0.2"/>
<path d="M24.9161 29.6374C26.502 28.6114 27.7066 27.1155 28.3516 25.371C28.9966 23.6264 29.0478 21.726 28.4976 19.951C27.9473 18.1759 26.8249 16.6205 25.2965 15.515C23.768 14.4094 21.9146 13.8125 20.0107 13.8125C18.1068 13.8125 16.2535 14.4094 14.725 15.515C13.1965 16.6205 12.0741 18.1759 11.5239 19.951C10.9737 21.726 11.0248 23.6264 11.6699 25.371C12.3149 27.1155 13.5195 28.6114 15.1054 29.6374C12.4 30.6063 10.0642 32.3588 8.41219 34.6592C8.30452 34.7807 8.22412 34.9228 8.17616 35.0764C8.1282 35.2299 8.11374 35.3915 8.13371 35.5508C8.15367 35.7101 8.20762 35.8636 8.29209 36.0014C8.37656 36.1392 8.48969 36.2583 8.6242 36.351C8.75872 36.4437 8.91166 36.508 9.07319 36.5398C9.23473 36.5715 9.4013 36.57 9.56221 36.5354C9.72312 36.5007 9.87481 36.4337 10.0075 36.3386C10.1403 36.2434 10.2511 36.1223 10.333 35.983C11.4253 34.4718 12.8747 33.2386 14.559 32.3873C16.2433 31.536 18.1131 31.0916 20.0107 31.0916C21.9084 31.0916 23.7782 31.536 25.4625 32.3873C27.1468 33.2386 28.5962 34.4718 29.6885 35.983C29.7703 36.1223 29.8812 36.2434 30.0139 36.3386C30.1466 36.4337 30.2983 36.5007 30.4592 36.5354C30.6202 36.57 30.7867 36.5715 30.9483 36.5398C31.1098 36.508 31.2627 36.4437 31.3972 36.351C31.5318 36.2583 31.6449 36.1392 31.7294 36.0014C31.8138 35.8636 31.8678 35.7101 31.8877 35.5508C31.9077 35.3915 31.8932 35.2299 31.8453 35.0764C31.7973 34.9228 31.7169 34.7807 31.6093 34.6592C29.9573 32.3588 27.6215 30.6063 24.9161 29.6374ZM13.5096 22.4572C13.5096 21.205 13.8909 19.9809 14.6053 18.9397C15.3196 17.8986 16.3349 17.0871 17.5229 16.6079C18.7108 16.1287 20.0179 16.0033 21.279 16.2476C22.5401 16.4919 23.6985 17.0949 24.6077 17.9803C25.5169 18.8658 26.1361 19.9939 26.3869 21.222C26.6377 22.4502 26.509 23.7232 26.017 24.8801C25.5249 26.0369 24.6916 27.0257 23.6225 27.7214C22.5534 28.4171 21.2965 28.7884 20.0107 28.7884C18.2865 28.7884 16.633 28.1214 15.4138 26.9341C14.1946 25.7467 13.5096 24.1363 13.5096 22.4572ZM43.3703 36.2564C43.2446 36.3445 43.1022 36.4074 42.9513 36.4414C42.8005 36.4753 42.6441 36.4797 42.4915 36.4543C42.3389 36.4288 42.193 36.3741 42.0623 36.2932C41.9316 36.2123 41.8187 36.1068 41.7303 35.983C40.6372 34.4725 39.1877 33.2398 37.5035 32.3884C35.8194 31.5371 33.95 31.092 32.0525 31.0907C31.739 31.0907 31.4384 30.9694 31.2167 30.7536C30.995 30.5377 30.8705 30.2449 30.8705 29.9396C30.8705 29.6343 30.995 29.3415 31.2167 29.1256C31.4384 28.9097 31.739 28.7884 32.0525 28.7884C33.7767 28.7884 35.4303 28.1214 36.6495 26.9341C37.8687 25.7467 38.5536 24.1363 38.5536 22.4572C38.5536 20.778 37.8687 19.1677 36.6495 17.9803C35.4303 16.793 33.7767 16.1259 32.0525 16.1259C31.4588 16.1298 30.868 16.2071 30.2943 16.3562C30.1449 16.3979 29.9885 16.4105 29.8341 16.3933C29.6796 16.3761 29.5302 16.3294 29.3944 16.2559C29.2585 16.1824 29.1388 16.0835 29.0423 15.9649C28.9457 15.8463 28.8741 15.7103 28.8315 15.5648C28.749 15.271 28.7878 14.9574 28.9397 14.6912C29.0916 14.425 29.3444 14.2272 29.6442 14.1402C30.4296 13.9343 31.2391 13.8279 32.0525 13.8237C33.9584 13.817 35.8156 14.4097 37.3478 15.5135C38.88 16.6174 40.0054 18.1734 40.5566 19.9502C41.1077 21.727 41.0552 23.6296 40.4068 25.375C39.7584 27.1204 38.5488 28.6153 36.9579 29.6374C39.665 30.6102 42.0045 32.3616 43.6658 34.6592C43.8432 34.9095 43.9116 35.2179 43.8563 35.5172C43.8009 35.8164 43.6262 36.0822 43.3703 36.2564Z" fill="#71B626"/>
</svg>
