<svg width="25" height="22" viewBox="0 0 25 22" fill="none" xmlns="http://www.w3.org/2000/svg">
<path d="M6.18479 2.42509e-07C4.45697 2.42509e-07 2.9549 1.1871 2.55101 2.87106L0.120352 12.9956C-0.0330126 13.6345 -0.039893 14.2999 0.100228 14.9418C0.24035 15.5837 0.523822 16.1853 0.929309 16.7015C1.3348 17.2176 1.85173 17.6348 2.44121 17.9215C3.03069 18.2083 3.67734 18.3573 4.33251 18.3571H20.0634C20.7183 18.3568 21.3645 18.2077 21.9536 17.9208C22.5426 17.6339 23.0592 17.2168 23.4644 16.7009C23.8696 16.185 24.1528 15.5836 24.2929 14.942C24.433 14.3005 24.4263 13.6354 24.2732 12.9969L21.8449 2.87106C21.6485 2.05265 21.1831 1.32438 20.5237 0.803566C19.8643 0.28275 19.0493 -0.000302444 18.2099 2.42509e-07H6.18357H6.18479ZM4.33007 3.30061C4.43035 2.88305 4.66783 2.51148 5.00428 2.24575C5.34072 1.98002 5.75655 1.83559 6.18479 1.83571H18.2112C19.0922 1.83571 19.8584 2.4415 20.0647 3.30061L22.4953 13.4252C22.5839 13.7942 22.5879 14.1785 22.507 14.5492C22.426 14.92 22.2623 15.2675 22.028 15.5656C21.7938 15.8637 21.4952 16.1045 21.1547 16.2701C20.8142 16.4357 20.4406 16.5216 20.0622 16.5214H4.33373C3.95542 16.5214 3.58204 16.4354 3.24169 16.2697C2.90133 16.1041 2.60287 15.8631 2.36877 15.5651C2.13467 15.267 1.97102 14.9196 1.89015 14.549C1.80927 14.1783 1.81328 13.7941 1.90186 13.4252L4.33007 3.30061ZM5.79188 19.581C5.54917 19.581 5.31639 19.6777 5.14477 19.8498C4.97314 20.0219 4.87673 20.2554 4.87673 20.4988C4.87673 20.7422 4.97314 20.9757 5.14477 21.1478C5.31639 21.32 5.54917 21.4167 5.79188 21.4167H18.6041C18.8468 21.4167 19.0796 21.32 19.2512 21.1478C19.4228 20.9757 19.5192 20.7422 19.5192 20.4988C19.5192 20.2554 19.4228 20.0219 19.2512 19.8498C19.0796 19.6777 18.8468 19.581 18.6041 19.581H5.79188Z" fill="#C5C5C5"/>
</svg>
