<svg width="62" height="62" viewBox="0 0 62 62" fill="none" xmlns="http://www.w3.org/2000/svg">
<rect width="61.1" height="61.1" rx="16" fill="#E3E3E3"/>
<rect x="1.88" y="1.88" width="57.34" height="57.34" rx="13.16" stroke="#9F9F9F" stroke-width="3.76"/>
<rect x="13.2402" y="16" width="34" height="30" rx="8" fill="#E3E3E3"/>
<path d="M23.8904 20C22.9692 20.0007 22.0755 20.3036 21.3558 20.8592C20.636 21.4147 20.1329 22.19 19.9287 23.058L17.3413 34.058C17.2061 34.633 17.2065 35.23 17.3426 35.8048C17.4787 36.3796 17.747 36.9174 18.1275 37.3783C18.508 37.8393 18.991 38.2116 19.5407 38.4676C20.0904 38.7236 20.6927 38.8567 21.303 38.8571H39.1759C39.7862 38.8569 40.3887 38.724 40.9386 38.4681C41.4885 38.2122 41.9718 37.8399 42.3525 37.3789C42.7331 36.9179 43.0015 36.38 43.1377 35.8052C43.2739 35.2303 43.2744 34.6331 43.1392 34.058L40.5534 23.058C40.349 22.189 39.8449 21.4129 39.1238 20.8572C38.4027 20.3015 37.5075 19.9992 36.5852 20H23.8904ZM21.5128 23.4069C21.6351 22.8858 21.9371 22.4204 22.3691 22.087C22.801 21.7535 23.3375 21.5717 23.8904 21.5714H36.5868C37.14 21.5714 37.6768 21.753 38.1092 22.0865C38.5415 22.42 38.8437 22.8856 38.9661 23.4069L41.5535 34.4069C41.6346 34.752 41.6342 35.1103 41.5523 35.4553C41.4705 35.8002 41.3093 36.1229 41.0808 36.3995C40.8522 36.676 40.5622 36.8993 40.2321 37.0527C39.9021 37.2061 39.5405 37.2858 39.1743 37.2857H21.303C20.9368 37.2855 20.5755 37.2057 20.2456 37.0522C19.9158 36.8987 19.6259 36.6754 19.3976 36.3989C19.1692 36.1223 19.0082 35.7997 18.9264 35.4549C18.8447 35.11 18.8443 34.7519 18.9253 34.4069L21.5128 23.4069ZM22.9211 40.4286C22.7055 40.4286 22.4986 40.5114 22.3461 40.6587C22.1936 40.8061 22.108 41.0059 22.108 41.2143C22.108 41.4227 22.1936 41.6225 22.3461 41.7699C22.4986 41.9172 22.7055 42 22.9211 42H37.5577C37.7734 42 37.9802 41.9172 38.1327 41.7699C38.2852 41.6225 38.3709 41.4227 38.3709 41.2143C38.3709 41.0059 38.2852 40.8061 38.1327 40.6587C37.9802 40.5114 37.7734 40.4286 37.5577 40.4286H22.9211Z" fill="#646363"/>
</svg>
