<svg width="26" height="21" viewBox="0 0 26 21" fill="none" xmlns="http://www.w3.org/2000/svg">
<path d="M6.65015 1.39516e-06C5.72895 0.000628206 4.83528 0.289783 4.11554 0.8201C3.3958 1.35042 2.89265 2.09046 2.68851 2.919L0.101084 13.419C-0.034141 13.9678 -0.0336875 14.5377 0.102411 15.0864C0.238509 15.635 0.50676 16.1484 0.887275 16.5884C1.26779 17.0284 1.75081 17.3838 2.30051 17.6281C2.85022 17.8725 3.45251 17.9996 4.06273 18H21.9356C22.546 17.9998 23.1485 17.8729 23.6984 17.6286C24.2483 17.3843 24.7315 17.029 25.1122 16.589C25.4929 16.1489 25.7613 15.6355 25.8975 15.0867C26.0337 14.538 26.0342 13.968 25.8989 13.419L23.3131 2.919C23.1087 2.08946 22.6046 1.34866 21.8835 0.818229C21.1625 0.287801 20.2673 -0.000732129 19.345 1.39516e-06H6.65015ZM4.27252 3.252C4.3949 2.75466 4.69683 2.31043 5.12882 1.99211C5.56081 1.67379 6.09723 1.50027 6.65015 1.5H19.3466C19.8998 1.49993 20.4366 1.67329 20.8689 1.99164C21.3012 2.30999 21.6034 2.75441 21.7259 3.252L24.3133 13.752C24.3944 14.0814 24.3939 14.4235 24.3121 14.7528C24.2303 15.082 24.0691 15.3901 23.8406 15.654C23.612 15.918 23.3219 16.1311 22.9919 16.2776C22.6618 16.424 22.3003 16.5 21.934 16.5H4.06273C3.69661 16.4998 3.33523 16.4236 3.00538 16.2771C2.67554 16.1305 2.38569 15.9174 2.15732 15.6535C1.92895 15.3895 1.76792 15.0815 1.68617 14.7524C1.60443 14.4232 1.60406 14.0813 1.68509 13.752L4.27252 3.252ZM5.68088 19.5C5.46522 19.5 5.2584 19.579 5.1059 19.7197C4.95341 19.8603 4.86774 20.0511 4.86774 20.25C4.86774 20.4489 4.95341 20.6397 5.1059 20.7803C5.2584 20.921 5.46522 21 5.68088 21H20.3175C20.5332 21 20.74 20.921 20.8925 20.7803C21.045 20.6397 21.1306 20.4489 21.1306 20.25C21.1306 20.0511 21.045 19.8603 20.8925 19.7197C20.74 19.579 20.5332 19.5 20.3175 19.5H5.68088Z" fill="#646363"/>
</svg>
