<svg width="112" height="113" viewBox="0 0 112 113" fill="none" xmlns="http://www.w3.org/2000/svg">
<g clip-path="url(#clip0_4031_14342)">
<path d="M38.9355 43.2998C38.9383 44.6845 38.4373 46.0233 37.5255 47.0677V87.1176C37.532 87.4057 37.4806 87.6923 37.3743 87.9603C37.268 88.2283 37.1088 88.4724 36.9063 88.6781C36.7038 88.8838 36.4621 89.047 36.1953 89.158C35.9285 89.269 35.6421 89.3256 35.353 89.3244H30.9424C30.3662 89.3244 29.8137 89.0962 29.4062 88.69C28.9988 88.2838 28.7699 87.7329 28.7699 87.1584V47.1086C28.1587 46.404 27.7277 45.5623 27.5137 44.6555C27.2997 43.7486 27.3091 42.8036 27.5411 41.9012C27.7731 40.9988 28.2208 40.1658 28.8459 39.4734C29.471 38.781 30.255 38.2498 31.1308 37.9252C32.0066 37.6005 32.9483 37.4921 33.8752 37.6092C34.8022 37.7264 35.687 38.0655 36.4539 38.5976C37.2208 39.1298 37.8471 39.8391 38.2793 40.6651C38.7115 41.4911 38.9366 42.4091 38.9355 43.3406V43.2998Z" fill="url(#paint0_linear_4031_14342)"/>
<path d="M61.6611 58.3062C61.6615 59.693 61.1609 61.0335 60.251 62.0824V87.1258C60.2554 87.4129 60.2024 87.6981 60.0952 87.9647C59.988 88.2313 59.8286 88.4739 59.6264 88.6785C59.4243 88.8831 59.1833 89.0456 58.9176 89.1565C58.6518 89.2674 58.3666 89.3245 58.0786 89.3244H53.668C53.3824 89.3255 53.0994 89.2702 52.8353 89.1618C52.5713 89.0533 52.3314 88.8938 52.1294 88.6924C51.9275 88.4911 51.7675 88.2519 51.6587 87.9886C51.5499 87.7253 51.4944 87.4432 51.4955 87.1585V62.0824C50.8845 61.378 50.4536 60.5367 50.2395 59.6302C50.0254 58.7238 50.0346 57.7791 50.2662 56.877C50.4978 55.9748 50.9449 55.1419 51.5694 54.4494C52.1939 53.757 52.9773 53.2255 53.8525 52.9004C54.7278 52.5752 55.669 52.4661 56.5957 52.5824C57.5225 52.6986 58.4072 53.0367 59.1744 53.5679C59.9417 54.099 60.5685 54.8074 61.0016 55.6325C61.4346 56.4576 61.6609 57.375 61.6611 58.3062Z" fill="url(#paint1_linear_4031_14342)"/>
<path d="M84.6065 28.6857C84.6137 29.7116 84.2868 30.7121 83.675 31.537C83.0633 32.3618 82.1996 32.9666 81.2138 33.2605C80.2279 33.5543 79.1731 33.5214 78.2076 33.1667C77.2421 32.8119 76.418 32.1545 75.8592 31.2931L58.381 44.6893C57.6902 45.2343 56.8352 45.5308 55.9543 45.5308C55.0735 45.5308 54.2184 45.2343 53.5277 44.6893L37.1972 32.1104C36.5245 32.7552 35.6765 33.1884 34.7586 33.3561C33.8408 33.5238 32.8938 33.4186 32.0355 33.0535C31.1772 32.6884 30.4457 32.0796 29.932 31.3029C29.4183 30.5262 29.1452 29.616 29.1467 28.6857C29.12 28.0461 29.2234 27.4077 29.4506 26.8089C29.6777 26.2101 30.024 25.6632 30.4685 25.2012C30.913 24.7393 31.4467 24.3717 32.0374 24.1206C32.628 23.8694 33.2635 23.74 33.9057 23.74C34.5478 23.74 35.1833 23.8694 35.7739 24.1206C36.3646 24.3717 36.8983 24.7393 37.3428 25.2012C37.7873 25.6632 38.1336 26.2101 38.3607 26.8089C38.5879 27.4077 38.6913 28.0461 38.6646 28.6857C38.6666 29.1398 38.6003 29.5917 38.4679 30.0262L55.028 42.7359C55.2915 42.9407 55.6161 43.0519 55.9502 43.0519C56.2844 43.0519 56.609 42.9407 56.8725 42.7359L75.0886 28.7593V28.6857C75.062 28.0461 75.1653 27.4077 75.3925 26.8089C75.6196 26.2101 75.9659 25.6632 76.4104 25.2012C76.855 24.7393 77.3886 24.3717 77.9793 24.1206C78.5699 23.8694 79.2054 23.74 79.8476 23.74C80.4897 23.74 81.1252 23.8694 81.7159 24.1206C82.3065 24.3717 82.8402 24.7393 83.2847 25.2012C83.7293 25.6632 84.0755 26.2101 84.3027 26.8089C84.5298 27.4077 84.6332 28.0461 84.6065 28.6857Z" fill="url(#paint2_linear_4031_14342)"/>
<path d="M85.6401 43.3C85.6429 44.6847 85.1419 46.0234 84.23 47.0679V87.1178C84.2355 87.4063 84.1831 87.693 84.0758 87.9611C83.9686 88.2292 83.8087 88.4731 83.6055 88.6787C83.4024 88.8843 83.1601 89.0474 82.8928 89.1583C82.6256 89.2692 82.3388 89.3257 82.0494 89.3246H77.6388C77.0626 89.3246 76.51 89.0964 76.1026 88.6902C75.6952 88.284 75.4663 87.7331 75.4663 87.1586V47.1088C74.8572 46.4035 74.4283 45.5619 74.216 44.6556C74.0038 43.7493 74.0146 42.8053 74.2474 41.9041C74.4803 41.0028 74.9283 40.1711 75.5533 39.4799C76.1784 38.7886 76.9618 38.2584 77.8368 37.9343C78.7119 37.6102 79.6525 37.5019 80.5786 37.6187C81.5047 37.7355 82.3887 38.0739 83.1552 38.605C83.9218 39.1361 84.5481 39.8442 84.9808 40.6688C85.4135 41.4934 85.6397 42.4102 85.6401 43.3408V43.3Z" fill="url(#paint3_linear_4031_14342)"/>
</g>
<rect x="-2" y="2" width="107.86" height="107.86" rx="13.04" transform="matrix(-1 0 0 1 107.96 0.23999)" stroke="#4B4B4B" stroke-width="4"/>
<defs>
<linearGradient id="paint0_linear_4031_14342" x1="42.6915" y1="63.0458" x2="26.4022" y2="63.0509" gradientUnits="userSpaceOnUse">
<stop stop-color="#3D9E47"/>
<stop offset="1" stop-color="#6FB544"/>
</linearGradient>
<linearGradient id="paint1_linear_4031_14342" x1="65.417" y1="70.6479" x2="49.1278" y2="70.655" gradientUnits="userSpaceOnUse">
<stop stop-color="#3D9E47"/>
<stop offset="1" stop-color="#6FB544"/>
</linearGradient>
<linearGradient id="paint2_linear_4031_14342" x1="102.608" y1="34.4678" x2="24.5547" y2="34.7457" gradientUnits="userSpaceOnUse">
<stop stop-color="#3D9E47"/>
<stop offset="1" stop-color="#6FB544"/>
</linearGradient>
<linearGradient id="paint3_linear_4031_14342" x1="89.3961" y1="63.0508" x2="73.1068" y2="63.0559" gradientUnits="userSpaceOnUse">
<stop stop-color="#3D9E47"/>
<stop offset="1" stop-color="#6FB544"/>
</linearGradient>
<clipPath id="clip0_4031_14342">
<rect width="58.28" height="65.5517" fill="white" transform="translate(27.3599 23.74)"/>
</clipPath>
</defs>
</svg>
