<?xml version="1.0" standalone="no"?>
<!DOCTYPE svg PUBLIC "-//W3C//DTD SVG 20010904//EN"
 "http://www.w3.org/TR/2001/REC-SVG-20010904/DTD/svg10.dtd">
<svg version="1.0" xmlns="http://www.w3.org/2000/svg"
 width="500.000000pt" height="500.000000pt" viewBox="0 0 500.000000 500.000000"
 preserveAspectRatio="xMidYMid meet">

<g transform="translate(0.000000,500.000000) scale(0.100000,-0.100000)"
fill="#000000" stroke="none">
<path d="M680 4991 c0 -13 -22 -20 -119 -35 -79 -13 -121 -30 -235 -93 -31
-17 -153 -140 -171 -172 -8 -14 -24 -45 -35 -68 -11 -23 -25 -45 -29 -48 -5
-3 -12 -24 -16 -48 -10 -62 -27 -117 -37 -117 -4 0 -8 -857 -8 -1905 0 -1170
4 -1905 9 -1905 5 0 17 -35 27 -77 9 -43 22 -85 29 -93 7 -8 16 -26 20 -40 4
-14 16 -36 27 -50 10 -14 33 -43 49 -65 40 -53 135 -133 179 -152 19 -8 42
-21 50 -28 8 -7 33 -16 55 -20 21 -4 53 -14 70 -23 28 -16 179 -17 1919 -20
1144 -1 1913 1 1950 7 161 25 333 119 416 227 69 90 111 171 129 249 7 28 18
55 26 61 13 10 15 260 15 1928 0 1879 0 1916 -19 1935 -11 11 -23 41 -27 67
-6 44 -36 110 -79 179 -24 38 -159 175 -173 175 -5 0 -20 8 -33 19 -13 10 -35
22 -49 26 -14 4 -32 14 -41 22 -9 7 -61 21 -115 29 -57 9 -104 22 -110 30 -10
12 -270 14 -1843 14 -1068 0 -1831 -4 -1831 -9z m3720 -171 c62 -12 170 -50
170 -60 0 -4 11 -10 24 -14 46 -11 196 -183 196 -225 0 -6 9 -28 20 -48 20
-37 20 -57 20 -1968 0 -1858 -1 -1932 -18 -1965 -11 -19 -22 -47 -25 -62 -7
-27 -72 -115 -117 -158 -35 -32 -103 -80 -116 -80 -5 0 -27 -10 -49 -22 l-40
-23 -1955 0 -1955 0 -36 23 c-20 12 -42 22 -49 22 -27 0 -160 121 -202 185
-15 22 -30 54 -34 70 -4 17 -14 41 -23 55 -14 22 -16 206 -16 1955 0 1749 2
1933 16 1955 9 14 19 37 23 52 12 50 92 161 141 197 69 50 109 72 139 78 17 3
40 11 52 18 12 8 36 15 55 18 68 8 3735 6 3779 -3z"/>
</g>
</svg>
