<svg width="40" height="26" viewBox="0 0 40 26" fill="none" xmlns="http://www.w3.org/2000/svg">
<rect width="39.3674" height="25.1984" rx="8" fill="white"/>
<path fill-rule="evenodd" clip-rule="evenodd" d="M29.0403 6.99789H31.4228C31.9408 6.99789 32.4538 7.09992 32.9323 7.29816C33.4109 7.49639 33.8458 7.78695 34.2121 8.15323C34.5784 8.51952 34.8689 8.95437 35.0671 9.43295C35.2654 9.91153 35.3674 10.4245 35.3674 10.9425V17.2538C35.3645 18.2991 34.948 19.3007 34.2088 20.0399C33.4697 20.779 32.4681 21.1955 31.4228 21.1984H7.94459C6.90021 21.1926 5.90025 20.7752 5.16175 20.0367C4.42325 19.2982 4.0058 18.2982 4 17.2538V10.9425C4.00291 9.89721 4.41944 8.89558 5.15856 8.15646C5.89769 7.41733 6.89932 7.0008 7.94459 6.99789H10.3113V5.51472C10.3113 5.30549 10.3945 5.10483 10.5424 4.95687C10.6904 4.80892 10.891 4.72581 11.1003 4.72581C11.3095 4.72581 11.5102 4.80892 11.6581 4.95687C11.8061 5.10483 11.8892 5.30549 11.8892 5.51472V6.99789H27.4624V4.78892C27.4624 4.57968 27.5456 4.37902 27.6935 4.23107C27.8415 4.08312 28.0421 4 28.2514 4C28.4606 4 28.6613 4.08312 28.8092 4.23107C28.9572 4.37902 29.0403 4.57968 29.0403 4.78892V6.99789ZM33.0964 18.9274C33.5402 18.4835 33.7896 17.8815 33.7896 17.2538V10.9425C33.7896 10.3148 33.5402 9.71279 33.0964 9.26894C32.6525 8.82508 32.0505 8.57573 31.4228 8.57573H7.94459C7.31689 8.57573 6.7149 8.82508 6.27104 9.26894C5.82719 9.71279 5.57784 10.3148 5.57784 10.9425V17.2538C5.58238 17.8801 5.83319 18.4795 6.27607 18.9224C6.71894 19.3652 7.31829 19.616 7.94459 19.6206H31.4228C32.0505 19.6206 32.6525 19.3712 33.0964 18.9274ZM9.42764 14.0918C9.42764 14.7454 8.89782 15.2752 8.24426 15.2752C7.5907 15.2752 7.06088 14.7454 7.06088 14.0918C7.06088 13.4383 7.5907 12.9084 8.24426 12.9084C8.89782 12.9084 9.42764 13.4383 9.42764 14.0918ZM13.766 15.2752C14.4195 15.2752 14.9494 14.7454 14.9494 14.0918C14.9494 13.4383 14.4195 12.9084 13.766 12.9084C13.1124 12.9084 12.5826 13.4383 12.5826 14.0918C12.5826 14.7454 13.1124 15.2752 13.766 15.2752ZM22.0506 16.4585H29.9397C30.5674 16.4585 31.1694 16.2092 31.6133 15.7653C32.0571 15.3215 32.3065 14.7195 32.3065 14.0918C32.3065 13.4641 32.0571 12.8621 31.6133 12.4182C31.1694 11.9744 30.5674 11.725 29.9397 11.725H22.0506C21.4229 11.725 20.8209 11.9744 20.377 12.4182C19.9332 12.8621 19.6838 13.4641 19.6838 14.0918C19.6838 14.7195 19.9332 15.3215 20.377 15.7653C20.8209 16.2092 21.4229 16.4585 22.0506 16.4585ZM21.4927 13.5339C21.6407 13.386 21.8413 13.3028 22.0506 13.3028H29.9397C30.149 13.3028 30.3496 13.386 30.4976 13.5339C30.6455 13.6819 30.7287 13.8825 30.7287 14.0918C30.7287 14.301 30.6455 14.5017 30.4976 14.6496C30.3496 14.7976 30.149 14.8807 29.9397 14.8807H22.0506C21.8413 14.8807 21.6407 14.7976 21.4927 14.6496C21.3448 14.5017 21.2616 14.301 21.2616 14.0918C21.2616 13.8825 21.3448 13.6819 21.4927 13.5339Z" fill="#646363"/>
</svg>
