<svg width="21" height="12" viewBox="0 0 21 12" fill="none" xmlns="http://www.w3.org/2000/svg">
<path fill-rule="evenodd" clip-rule="evenodd" d="M16.2268 1.94272H17.7708C18.1064 1.94272 18.4388 2.00884 18.749 2.1373C19.0591 2.26576 19.3409 2.45405 19.5783 2.69141C19.8156 2.92878 20.0039 3.21057 20.1324 3.52071C20.2608 3.83084 20.327 4.16324 20.327 4.49893V8.58886C20.3251 9.26623 20.0552 9.91531 19.5762 10.3943C19.0972 10.8733 18.4481 11.1432 17.7708 11.1451H2.55621C1.87942 11.1413 1.23142 10.8708 0.752849 10.3922C0.274279 9.91365 0.00375854 9.26565 0 8.58886V4.49893C0.00188871 3.82156 0.271809 3.17247 0.750782 2.6935C1.22976 2.21453 1.87884 1.94461 2.55621 1.94272H4.08993V0.981584C4.08993 0.845994 4.1438 0.715958 4.23967 0.620082C4.33555 0.524205 4.46558 0.470342 4.60117 0.470342C4.73676 0.470342 4.8668 0.524205 4.96268 0.620082C5.05855 0.715958 5.11242 0.845994 5.11242 0.981584V1.94272H15.2043V0.511242C15.2043 0.375652 15.2582 0.245615 15.3541 0.149739C15.4499 0.0538624 15.58 0 15.7156 0C15.8512 0 15.9812 0.0538624 16.0771 0.149739C16.1729 0.245615 16.2268 0.375652 16.2268 0.511242V1.94272ZM18.8553 9.67337C19.1429 9.38574 19.3045 8.99563 19.3045 8.58886V4.49893C19.3045 4.09216 19.1429 3.70205 18.8553 3.41442C18.5676 3.12679 18.1775 2.9652 17.7708 2.9652H2.55621C2.14944 2.9652 1.75933 3.12679 1.4717 3.41442C1.18407 3.70205 1.02248 4.09216 1.02248 4.49893V8.58886C1.02543 8.99472 1.18796 9.38312 1.47495 9.67011C1.76195 9.95711 2.15035 10.1196 2.55621 10.1226H17.7708C18.1775 10.1226 18.5676 9.961 18.8553 9.67337ZM3.51744 6.53985C3.51744 6.96337 3.17411 7.30671 2.75058 7.30671C2.32705 7.30671 1.98372 6.96337 1.98372 6.53985C1.98372 6.11632 2.32705 5.77299 2.75058 5.77299C3.17411 5.77299 3.51744 6.11632 3.51744 6.53985ZM6.32826 7.30671C6.75179 7.30671 7.09512 6.96337 7.09512 6.53985C7.09512 6.11632 6.75179 5.77299 6.32826 5.77299C5.90473 5.77299 5.5614 6.11632 5.5614 6.53985C5.5614 6.96337 5.90473 7.30671 6.32826 7.30671ZM11.6971 8.0735H16.8096C17.2163 8.0735 17.6064 7.91191 17.8941 7.62428C18.1817 7.33665 18.3433 6.94654 18.3433 6.53977C18.3433 6.133 18.1817 5.74289 17.8941 5.45526C17.6064 5.16763 17.2163 5.00605 16.8096 5.00605H11.6971C11.2904 5.00605 10.9003 5.16763 10.6126 5.45526C10.325 5.74289 10.1634 6.133 10.1634 6.53977C10.1634 6.94654 10.325 7.33665 10.6126 7.62428C10.9003 7.91191 11.2904 8.0735 11.6971 8.0735ZM11.3356 6.17827C11.4315 6.08239 11.5615 6.02853 11.6971 6.02853H16.8096C16.9451 6.02853 17.0752 6.08239 17.1711 6.17827C17.2669 6.27415 17.3208 6.40418 17.3208 6.53977C17.3208 6.67536 17.2669 6.8054 17.1711 6.90127C17.0752 6.99715 16.9451 7.05101 16.8096 7.05101H11.6971C11.5615 7.05101 11.4315 6.99715 11.3356 6.90127C11.2398 6.8054 11.1859 6.67536 11.1859 6.53977C11.1859 6.40418 11.2398 6.27415 11.3356 6.17827Z" fill="#646363"/>
</svg>
