<svg width="33" height="25" viewBox="0 0 33 25" fill="none" xmlns="http://www.w3.org/2000/svg">
<rect width="32.7197" height="24.9948" rx="8" fill="white"/>
<path fill-rule="evenodd" clip-rule="evenodd" d="M28.6501 12.8604L26.2322 5.08921C26.1349 4.77388 25.9391 4.49801 25.6736 4.302C25.4081 4.106 25.0868 4.00016 24.7568 4H7.96287C7.63285 4.00016 7.31156 4.106 7.04605 4.302C6.78054 4.49801 6.58477 4.77388 6.48741 5.08921L4.06952 12.8682C4.02368 13.0158 4.00025 13.1694 4 13.3239V19.4498C4 19.8595 4.16277 20.2525 4.45251 20.5422C4.74225 20.832 5.13522 20.9948 5.54498 20.9948H27.1747C27.5844 20.9948 27.9774 20.832 28.2671 20.5422C28.5569 20.2525 28.7196 19.8595 28.7196 19.4498V13.3162C28.7194 13.1617 28.696 13.008 28.6501 12.8604ZM27.1747 19.4498H5.54498V13.3162L7.96287 5.54498H24.7568L27.1747 13.3162V19.4498ZM7.95535 15.5873H9.34583V17.9048H7.95535V15.5873ZM13.2081 15.5873H11.8176V17.9048H13.2081V15.5873ZM15.6723 15.5873H17.0627V17.9048H15.6723V15.5873ZM20.9173 15.5873H19.5269V17.9048H20.9173V15.5873ZM23.3896 15.5873H24.7801V17.9048H23.3896V15.5873ZM25.5676 12.4974H7.26736V13.5789H25.5676V12.4974Z" fill="#646363"/>
</svg>
