<svg width="27" height="22" viewBox="0 0 27 22" fill="none" xmlns="http://www.w3.org/2000/svg">
<path d="M6.90593 1.46159e-06C5.94929 0.000658121 5.02126 0.303582 4.27383 0.859153C3.52641 1.41472 3.00391 2.19 2.79192 3.058L0.104972 14.058C-0.0354541 14.633 -0.0349832 15.23 0.106349 15.8048C0.247682 16.3796 0.526251 16.9174 0.921401 17.3783C1.31655 17.8393 1.81815 18.2116 2.38899 18.4676C2.95984 18.7236 3.5853 18.8567 4.21898 18.8571H22.7793C23.4132 18.8569 24.0388 18.724 24.6099 18.4681C25.1809 18.2122 25.6827 17.8399 26.0781 17.3789C26.4734 16.9179 26.7521 16.38 26.8936 15.8052C27.035 15.2303 27.0355 14.6331 26.895 14.058L24.2098 3.058C23.9975 2.18895 23.474 1.41288 22.7252 0.857192C21.9764 0.301505 21.0468 -0.000766993 20.089 1.46159e-06H6.90593ZM4.43684 3.40686C4.56393 2.88584 4.87748 2.42045 5.32608 2.08697C5.77469 1.75349 6.33174 1.57171 6.90593 1.57143H20.0907C20.6652 1.57136 21.2226 1.75297 21.6716 2.08648C22.1205 2.41999 22.4343 2.88558 22.5615 3.40686L25.2484 14.4069C25.3326 14.752 25.3322 15.1103 25.2472 15.4553C25.1622 15.8002 24.9948 16.1229 24.7575 16.3995C24.5202 16.676 24.2189 16.8993 23.8762 17.0527C23.5335 17.2061 23.158 17.2858 22.7776 17.2857H4.21898C3.83879 17.2855 3.46351 17.2057 3.12098 17.0522C2.77844 16.8987 2.47744 16.6754 2.24029 16.3989C2.00314 16.1223 1.83592 15.7997 1.75103 15.4549C1.66613 15.11 1.66575 14.7519 1.7499 14.4069L4.43684 3.40686ZM5.89938 20.4286C5.67543 20.4286 5.46064 20.5114 5.30228 20.6587C5.14393 20.8061 5.05496 21.0059 5.05496 21.2143C5.05496 21.4227 5.14393 21.6225 5.30228 21.7699C5.46064 21.9172 5.67543 22 5.89938 22H21.0989C21.3229 22 21.5377 21.9172 21.696 21.7699C21.8544 21.6225 21.9434 21.4227 21.9434 21.2143C21.9434 21.0059 21.8544 20.8061 21.696 20.6587C21.5377 20.5114 21.3229 20.4286 21.0989 20.4286H5.89938Z" fill="#646363"/>
</svg>
