<svg width="21" height="21" viewBox="0 0 21 21" fill="none" xmlns="http://www.w3.org/2000/svg">
<path d="M14.3549 15.0956C14.1415 14.8494 14.0348 14.5699 14.0348 14.2571C14.0348 13.945 14.1415 13.6848 14.3549 13.4765L16.5076 11.3746H8.15834C7.82864 11.3746 7.55246 11.2655 7.32981 11.0474C7.10639 10.83 6.99468 10.5603 6.99468 10.2384C6.99468 9.91647 7.10639 9.64644 7.32981 9.42829C7.55246 9.2109 7.82864 9.1022 8.15834 9.1022H16.5076L14.3549 7.00026C14.1221 6.77302 14.0058 6.50336 14.0058 6.19129C14.0058 5.87846 14.1221 5.60842 14.3549 5.38119C14.5682 5.15395 14.8351 5.04033 15.1555 5.04033C15.4751 5.04033 15.7416 5.14448 15.9549 5.35278L20.1441 9.44306C20.2604 9.55668 20.3431 9.67977 20.3919 9.81232C20.44 9.94488 20.4641 10.0869 20.4641 10.2384C20.4641 10.3899 20.44 10.5319 20.3919 10.6645C20.3431 10.797 20.2604 10.9201 20.1441 11.0337L15.9549 15.124C15.7028 15.3702 15.4266 15.4789 15.1264 15.4501C14.8254 15.4221 14.5682 15.3039 14.3549 15.0956ZM2.34002 20.4641C1.70001 20.4641 1.15192 20.2418 0.695766 19.7971C0.240385 19.3518 0.0126953 18.8166 0.0126953 18.1917V2.28507C0.0126953 1.66017 0.240385 1.12502 0.695766 0.679638C1.15192 0.235009 1.70001 0.0126953 2.34002 0.0126953H9.32201C9.65171 0.0126953 9.92828 0.121391 10.1517 0.338781C10.3743 0.55693 10.4857 0.826964 10.4857 1.14888C10.4857 1.4708 10.3743 1.74046 10.1517 1.95785C9.92828 2.176 9.65171 2.28507 9.32201 2.28507H2.34002V18.1917H9.32201C9.65171 18.1917 9.92828 18.3008 10.1517 18.5189C10.3743 18.7363 10.4857 19.006 10.4857 19.3279C10.4857 19.6498 10.3743 19.9195 10.1517 20.1369C9.92828 20.355 9.65171 20.4641 9.32201 20.4641H2.34002Z" fill="#CF142B"/>
</svg>
