<svg width="28" height="28" viewBox="0 0 28 28" fill="none" xmlns="http://www.w3.org/2000/svg">
<path d="M14.2386 6.59766C13.2941 6.59766 12.3707 6.87775 11.5854 7.40251C10.8 7.92728 10.1879 8.67315 9.82642 9.5458C9.46496 10.4184 9.37038 11.3787 9.55466 12.3051C9.73893 13.2315 10.1938 14.0824 10.8617 14.7503C11.5296 15.4182 12.3805 15.8731 13.3069 16.0574C14.2333 16.2416 15.1936 16.1471 16.0662 15.7856C16.9389 15.4241 17.6847 14.812 18.2095 14.0266C18.7343 13.2413 19.0144 12.3179 19.0144 11.3734C19.0144 10.1068 18.5112 8.89206 17.6156 7.99644C16.72 7.10081 15.5052 6.59766 14.2386 6.59766Z" fill="#B5B5B5"/>
<path d="M14.2383 0.866211C11.5935 0.866211 9.00818 1.65047 6.80916 3.11981C4.61013 4.58915 2.8962 6.67758 1.8841 9.12101C0.872005 11.5644 0.607193 14.2531 1.12316 16.847C1.63912 19.441 2.91269 21.8236 4.7828 23.6937C6.65292 25.5639 9.03559 26.8374 11.6295 27.3534C14.2234 27.8694 16.9121 27.6045 19.3555 26.5924C21.799 25.5803 23.8874 23.8664 25.3567 21.6674C26.8261 19.4684 27.6103 16.883 27.6103 14.2383C27.6063 10.693 26.1962 7.29414 23.6893 4.78726C21.1824 2.28039 17.7835 0.870256 14.2383 0.866211V0.866211ZM21.8718 22.7639C21.8528 21.5111 21.3423 20.3159 20.4505 19.4358C19.5586 18.5557 18.3567 18.0612 17.1037 18.0589H11.3728C10.1199 18.0612 8.91795 18.5557 8.02608 19.4358C7.13422 20.3159 6.62378 21.5111 6.60474 22.7639C4.87264 21.2173 3.65117 19.181 3.10206 16.9248C2.55295 14.6685 2.7021 12.2987 3.52978 10.1291C4.35745 7.95949 5.8246 6.09246 7.73695 4.77521C9.6493 3.45797 11.9166 2.75265 14.2388 2.75265C16.5609 2.75265 18.8282 3.45797 20.7406 4.77521C22.6529 6.09246 24.1201 7.95949 24.9477 10.1291C25.7754 12.2987 25.9246 14.6685 25.3755 16.9248C24.8263 19.181 23.6049 21.2173 21.8728 22.7639H21.8718Z" fill="#B5B5B5"/>
</svg>
