<svg width="26" height="26" viewBox="0 0 26 26" fill="none" xmlns="http://www.w3.org/2000/svg">
<path d="M24.9546 9.98972L22.7521 9.28179L22.2802 8.1019L23.3814 6.05676C23.6174 5.5848 23.5387 4.95553 23.1454 4.56223L21.2576 2.67441C20.8643 2.28112 20.235 2.20246 19.7631 2.43844L17.7179 3.53966L16.538 3.06771L15.8301 0.865251C15.6728 0.393296 15.2008 0 14.6502 0H11.9758C11.4252 0 10.9532 0.393296 10.8746 0.943911L10.1666 3.14637C9.69469 3.22503 9.30139 3.38235 8.9081 3.61832L6.86296 2.51709C6.391 2.28112 5.76173 2.35978 5.36843 2.75307L3.48061 4.64089C3.08732 5.03419 3.00866 5.66346 3.24463 6.13542L4.2672 8.1019C4.10989 8.4952 3.95257 8.96715 3.79525 9.36045L1.59279 10.0684C1.12084 10.2257 0.727539 10.6977 0.727539 11.2483V13.9227C0.727539 14.4733 1.12084 14.9453 1.67145 15.1026L3.87391 15.8105L4.34586 16.9904L3.24463 19.0355C3.00866 19.5075 3.08732 20.1368 3.48061 20.5301L5.36843 22.4179C5.76173 22.8112 6.391 22.8898 6.86296 22.6539L8.9081 21.5526L10.088 22.0246L10.7959 24.3057C10.9532 24.7777 11.4252 25.1709 11.9758 25.1709H14.6502C15.2008 25.1709 15.6728 24.7777 15.8301 24.3057L16.538 22.0246L17.7179 21.5526L19.7631 22.6539C20.235 22.8898 20.8643 22.8112 21.2576 22.4179L23.1454 20.5301C23.5387 20.1368 23.6174 19.5075 23.3814 19.0355L22.2802 16.9904L22.7521 15.8105L25.0332 15.1026C25.5052 14.9453 25.8985 14.4733 25.8985 13.9227V11.2483C25.8985 10.6977 25.5052 10.147 24.9546 9.98972ZM24.3253 13.6867L21.4936 14.552L21.4149 14.9453L20.707 16.5971L20.471 16.9904L21.8869 19.5861L20.3137 21.1593L17.7179 19.7435L17.3246 19.9794C16.774 20.2941 16.2234 20.5301 15.6728 20.6874L15.2795 20.766L14.4142 23.5978H12.2118L11.3465 20.766L10.9532 20.6874L9.30139 19.9794L8.9081 19.7435L6.31234 21.1593L4.73916 19.5861L6.15502 16.9904L5.91905 16.5971C5.60441 16.0465 5.36843 15.4959 5.21111 14.9453L5.13245 14.552L2.30072 13.6867V11.4842L4.97514 10.6977L5.13245 10.3044C5.28977 9.67508 5.52575 9.12447 5.84039 8.57385L6.07637 8.18056L4.73916 5.5848L6.31234 4.01162L8.82944 5.42749L9.22273 5.19151C9.77335 4.87687 10.324 4.64089 10.9532 4.48357L11.3465 4.32626L12.2118 1.57318H14.4142L15.2795 4.32626L15.6728 4.48357C16.2234 4.64089 16.774 4.87687 17.3246 5.19151L17.7179 5.42749L20.3137 4.01162L21.8869 5.5848L20.471 8.18056L20.707 8.57385C21.0216 9.12447 21.2576 9.67508 21.4149 10.2257L21.4936 10.619L24.3253 11.4842V13.6867Z" fill="#1A77F2"/>
</svg>
