<svg width="23" height="28" viewBox="0 0 23 28" fill="none" xmlns="http://www.w3.org/2000/svg">
<path d="M4.89357 5.77982C4.75899 5.77982 4.64889 5.89541 4.64889 6.0367V7.57798C4.64889 7.71927 4.75899 7.83486 4.89357 7.83486H16.6381C16.7727 7.83486 16.8828 7.71927 16.8828 7.57798V6.0367C16.8828 5.89541 16.7727 5.77982 16.6381 5.77982H4.89357ZM10.7658 12.2018V10.6606C10.7658 10.5193 10.6557 10.4037 10.5212 10.4037H4.89357C4.75899 10.4037 4.64889 10.5193 4.64889 10.6606V12.2018C4.64889 12.3431 4.75899 12.4587 4.89357 12.4587H10.5212C10.6557 12.4587 10.7658 12.3431 10.7658 12.2018ZM9.29778 24.9174H2.20211V2.31193H19.3296V13.3578C19.3296 13.4991 19.4397 13.6147 19.5743 13.6147H21.287C21.4216 13.6147 21.5317 13.4991 21.5317 13.3578V1.02752C21.5317 0.459174 21.0943 0 20.553 0H0.978713C0.437362 0 0 0.459174 0 1.02752V26.2018C0 26.7702 0.437362 27.2294 0.978713 27.2294H9.29778C9.43235 27.2294 9.54245 27.1138 9.54245 26.9725V25.1743C9.54245 25.033 9.43235 24.9174 9.29778 24.9174ZM12.4817 21.2055C12.5367 20.0977 12.9771 19.0605 13.7295 18.2706C14.5308 17.4294 15.6258 16.9541 16.7605 16.9541C17.9043 16.9541 18.9809 17.4229 19.7914 18.2706C19.8893 18.3734 19.9841 18.4826 20.0728 18.595L19.3663 19.1697C19.3299 19.1993 19.3021 19.2391 19.2863 19.2845C19.2704 19.3299 19.2671 19.3791 19.2767 19.4264C19.2863 19.4737 19.3084 19.5172 19.3405 19.5518C19.3725 19.5865 19.4133 19.611 19.458 19.6225L22.3116 20.345C22.4645 20.3835 22.6113 20.2615 22.6144 20.0977L22.6327 17.0344C22.6332 16.9861 22.6207 16.9387 22.5966 16.8976C22.5726 16.8565 22.538 16.8233 22.4968 16.8018C22.4556 16.7804 22.4095 16.7715 22.3638 16.7763C22.3181 16.7811 22.2745 16.7993 22.2382 16.8289L21.6173 17.3362C20.4735 15.8495 18.721 14.8991 16.7605 14.8991C13.3992 14.8991 10.6557 17.6894 10.5212 21.183C10.5151 21.3275 10.6282 21.4495 10.7658 21.4495H12.237C12.3685 21.4495 12.4755 21.3436 12.4817 21.2055ZM22.7551 21.4495H21.284C21.1524 21.4495 21.0454 21.5555 21.0393 21.6936C20.9842 22.8014 20.5438 23.8385 19.7914 24.6284C18.9901 25.4697 17.8952 25.945 16.7605 25.945C15.6166 25.945 14.54 25.4761 13.7295 24.6284C13.6316 24.5257 13.5368 24.4165 13.4481 24.3041L14.1546 23.7294C14.1911 23.6998 14.2188 23.66 14.2347 23.6146C14.2505 23.5692 14.2538 23.52 14.2443 23.4727C14.2347 23.4254 14.2126 23.3819 14.1805 23.3472C14.1484 23.3125 14.1076 23.2881 14.0629 23.2766L11.2093 22.5541C11.0564 22.5156 10.9096 22.6376 10.9065 22.8014L10.8882 25.8647C10.8877 25.9129 10.9003 25.9603 10.9243 26.0015C10.9483 26.0426 10.9829 26.0758 11.0241 26.0973C11.0653 26.1187 11.1114 26.1275 11.1571 26.1227C11.2029 26.118 11.2464 26.0997 11.2827 26.0702L11.9036 25.5628C13.0475 27.0495 14.8 28 16.7605 28C20.1217 28 22.8652 25.2096 22.9998 21.7161C23.0059 21.5716 22.8927 21.4495 22.7551 21.4495Z" fill="#66B127"/>
</svg>
