<svg width="30" height="31" viewBox="0 0 30 31" fill="none" xmlns="http://www.w3.org/2000/svg">
<path d="M15.0018 20.2076C17.395 20.2076 19.3351 18.1756 19.3351 15.669C19.3351 13.1624 17.395 11.1304 15.0018 11.1304C12.6086 11.1304 10.6685 13.1624 10.6685 15.669C10.6685 18.1756 12.6086 20.2076 15.0018 20.2076Z" stroke="#71B626" stroke-width="3" stroke-linecap="round" stroke-linejoin="round"/>
<path d="M15 29.2849V29.3M2 11.1303V11.1455M28 11.1303V11.1455M9.22222 27.9233C7.25105 26.9163 5.55515 25.4033 4.29238 23.5252C3.02962 21.6472 2.24102 19.465 2 17.1819M20.7778 27.9233C22.7489 26.9163 24.4448 25.4033 25.7076 23.5252C26.9704 21.6472 27.759 19.465 28 17.1819M6.62222 5.07884C8.94502 3.08783 11.8541 2 14.8556 2C17.8571 2 20.7661 3.08783 23.0889 5.07884" stroke="#71B626" stroke-width="3" stroke-linecap="round" stroke-linejoin="round"/>
</svg>
