<svg width="28" height="27" viewBox="0 0 28 27" fill="none" xmlns="http://www.w3.org/2000/svg">
<path d="M13.5008 0C13.8683 4.84688e-05 14.2229 0.134943 14.4975 0.379096C14.772 0.62325 14.9474 0.959682 14.9904 1.32458L15.0009 1.50009V25.5016C15.0005 25.8839 14.8541 26.2517 14.5916 26.5297C14.3292 26.8077 13.9704 26.975 13.5887 26.9974C13.2071 27.0198 12.8312 26.8956 12.538 26.6502C12.2448 26.4048 12.0564 26.0567 12.0112 25.6771L12.0007 25.5016V1.50009C12.0007 1.10224 12.1588 0.720689 12.4401 0.439367C12.7214 0.158045 13.103 0 13.5008 0ZM7.50046 4.50028C7.86789 4.50033 8.22252 4.63522 8.49708 4.87937C8.77165 5.12353 8.94707 5.45996 8.99006 5.82486L9.00056 6.00037V21.0013C9.00013 21.3836 8.85373 21.7514 8.59126 22.0294C8.32879 22.3074 7.97006 22.4747 7.58838 22.4971C7.20669 22.5196 6.83085 22.3954 6.53766 22.15C6.24446 21.9046 6.05603 21.5565 6.01087 21.1768L6.00037 21.0013V6.00037C6.00037 5.60252 6.15842 5.22097 6.43974 4.93964C6.72106 4.65832 7.10261 4.50028 7.50046 4.50028ZM19.5012 4.50028C19.8686 4.50033 20.2233 4.63522 20.4978 4.87937C20.7724 5.12353 20.9478 5.45996 20.9908 5.82486L21.0013 6.00037V21.0013C21.0009 21.3836 20.8545 21.7514 20.592 22.0294C20.3295 22.3074 19.9708 22.4747 19.5891 22.4971C19.2074 22.5196 18.8316 22.3954 18.5384 22.15C18.2452 21.9046 18.0568 21.5565 18.0116 21.1768L18.0011 21.0013V6.00037C18.0011 5.60252 18.1592 5.22097 18.4405 4.93964C18.7218 4.65832 19.1034 4.50028 19.5012 4.50028ZM1.50009 9.00055C1.86752 9.0006 2.22214 9.1355 2.49671 9.37965C2.77128 9.6238 2.9467 9.96024 2.98969 10.3251L3.00019 10.5006V16.501C2.99976 16.8834 2.85336 17.2511 2.59089 17.5291C2.32842 17.8072 1.96969 17.9745 1.58801 17.9969C1.20632 18.0193 0.830482 17.8951 0.537284 17.6497C0.244087 17.4043 0.0556589 17.0562 0.0105006 16.6765L0 16.501V10.5006C0 10.1028 0.158045 9.72124 0.439367 9.43992C0.720689 9.1586 1.10224 9.00055 1.50009 9.00055ZM25.5016 9.00055C25.869 9.0006 26.2236 9.1355 26.4982 9.37965C26.7728 9.6238 26.9482 9.96024 26.9912 10.3251L27.0017 10.5006V16.501C27.0012 16.8834 26.8548 17.2511 26.5924 17.5291C26.3299 17.8072 25.9712 17.9745 25.5895 17.9969C25.2078 18.0193 24.832 17.8951 24.5388 17.6497C24.2456 17.4043 24.0571 17.0562 24.012 16.6765L24.0015 16.501V10.5006C24.0015 10.1028 24.1595 9.72124 24.4409 9.43992C24.7222 9.1586 25.1037 9.00055 25.5016 9.00055Z" fill="#71B626"/>
</svg>
