<svg width="22" height="23" viewBox="0 0 22 23" fill="none" xmlns="http://www.w3.org/2000/svg">
<path d="M10.7903 14.6768C12.5924 14.6768 14.0532 13.1505 14.0532 11.2676C14.0532 9.38475 12.5924 7.8584 10.7903 7.8584C8.98822 7.8584 7.52734 9.38475 7.52734 11.2676C7.52734 13.1505 8.98822 14.6768 10.7903 14.6768Z" stroke="#66B127" stroke-width="2" stroke-linecap="round" stroke-linejoin="round"/>
<path d="M10.7889 21.4951V21.5065M1 7.85829V7.86965M20.5777 7.85829V7.86965M6.43825 20.4724C4.95398 19.7159 3.67699 18.5795 2.72614 17.1688C1.77529 15.758 1.18149 14.1189 1 12.4039M15.1395 20.4724C16.6237 19.7159 17.9007 18.5795 18.8516 17.1688C19.8024 15.758 20.3962 14.1189 20.5777 12.4039M4.48048 3.31268C6.22952 1.81712 8.41999 1 10.6801 1C12.9402 1 15.1306 1.81712 16.8797 3.31268" stroke="#66B127" stroke-width="2" stroke-linecap="round" stroke-linejoin="round"/>
</svg>
