<svg width="26" height="26" viewBox="0 0 26 26" fill="none" xmlns="http://www.w3.org/2000/svg">
<path d="M22.75 13V17.875H3.25V4.875H8.9375V3.25H3.25C2.81902 3.25 2.4057 3.4212 2.10095 3.72595C1.7962 4.0307 1.625 4.44402 1.625 4.875V17.875C1.625 18.306 1.7962 18.7193 2.10095 19.024C2.4057 19.3288 2.81902 19.5 3.25 19.5H9.75V22.75H6.5V24.375H19.5V22.75H16.25V19.5H22.75C23.181 19.5 23.5943 19.3288 23.899 19.024C24.2038 18.7193 24.375 18.306 24.375 17.875V13H22.75ZM14.625 22.75H11.375V19.5H14.625V22.75Z" fill="#C5C5C5"/>
<path d="M14.625 14.625H14.6169C14.4418 14.6231 14.272 14.5648 14.1328 14.4587C13.9935 14.3525 13.8923 14.2042 13.8442 14.0359L12.3874 8.93747H8.9375V7.31247H13C13.1766 7.31237 13.3484 7.36981 13.4895 7.4761C13.6305 7.58239 13.7331 7.73174 13.7816 7.90153L14.6542 10.9565L17.0991 3.01028C17.1518 2.84538 17.2552 2.70129 17.3945 2.59847C17.5337 2.49564 17.7019 2.43931 17.875 2.43747C18.0462 2.43489 18.2137 2.48757 18.3525 2.58768C18.4914 2.68779 18.5944 2.83 18.6461 2.99322L20.085 7.31247H24.375V8.93747H19.5C19.3294 8.93751 19.1631 8.88385 19.0247 8.7841C18.8863 8.68435 18.7828 8.54357 18.7289 8.38172L17.9059 5.91172L15.4017 14.0513C15.3507 14.2175 15.2476 14.3628 15.1078 14.4661C14.968 14.5693 14.7988 14.625 14.625 14.625Z" fill="#C5C5C5"/>
</svg>
