<svg width="20" height="19" viewBox="0 0 20 19" fill="none" xmlns="http://www.w3.org/2000/svg">
<path d="M16.7606 4.80191C14.1892 4.54437 11.6024 4.4117 9.02334 4.4117C7.49442 4.4117 5.9655 4.48974 4.43658 4.64582L2.86133 4.80191" stroke="white" stroke-linecap="round" stroke-linejoin="round"/>
<path d="M7.10742 4.01368L7.2773 2.99134C7.40085 2.24994 7.49351 1.69585 8.7985 1.69585H10.8216C12.1266 1.69585 12.227 2.28116 12.3428 2.99914L12.5127 4.01368" stroke="white" stroke-linecap="round" stroke-linejoin="round"/>
<path d="M15.1004 7.26801L14.5985 15.1268C14.5135 16.3521 14.444 17.3042 12.2896 17.3042H7.33223C5.17784 17.3042 5.10834 16.3521 5.0234 15.1268L4.52148 7.26801" stroke="white" stroke-linecap="round" stroke-linejoin="round"/>
<path d="M8.52148 13.0119H11.0928" stroke="white" stroke-linecap="round" stroke-linejoin="round"/>
<path d="M7.88086 9.89021H11.7418" stroke="white" stroke-linecap="round" stroke-linejoin="round"/>
</svg>
