<svg width="24" height="21" viewBox="0 0 24 21" fill="none" xmlns="http://www.w3.org/2000/svg">
<path d="M1.75 5.19658C1.75 3.95176 1.75141 3.08918 1.83357 2.43966C1.91356 1.80727 2.05847 1.4915 2.26222 1.27493C2.45987 1.06484 2.73897 0.919586 3.31277 0.837585C3.91308 0.751795 4.71407 0.75 5.88889 0.75H18.1111C19.2859 0.75 20.0869 0.751795 20.6872 0.837585C21.261 0.919586 21.5401 1.06484 21.7378 1.27493C21.9415 1.4915 22.0864 1.80727 22.1664 2.43966C22.2486 3.08918 22.25 3.95176 22.25 5.19658V16.1389H1.75V5.19658Z" stroke="#66B127" stroke-width="1.5"/>
<path d="M2.74074 16.1389C1.95414 16.1389 1.25 16.7539 1.25 17.5926C1.25 18.8199 2.28578 19.75 3.48148 19.75H20.5185C21.7142 19.75 22.75 18.8199 22.75 17.5926C22.75 16.7539 22.0459 16.1389 21.2593 16.1389H2.74074Z" stroke="#66B127" stroke-width="1.5"/>
</svg>
