<svg width="25" height="27" viewBox="0 0 25 27" fill="none" xmlns="http://www.w3.org/2000/svg">
<path d="M24.8016 26.6466H17.7154V19.0335H24.8016V26.6466ZM19.487 24.7433H23.03V20.9368H19.487V24.7433ZM15.9439 23.7917H5.31462C3.9051 23.7917 2.5533 23.1901 1.55662 22.1193C0.559932 21.0485 0 19.5962 0 18.0819C0 16.5675 0.559932 15.1152 1.55662 14.0444C2.5533 12.9736 3.9051 12.3721 5.31462 12.3721H7.08617V14.2753H5.31462C4.37494 14.2753 3.47374 14.6764 2.80929 15.3902C2.14483 16.1041 1.77154 17.0723 1.77154 18.0819C1.77154 19.0914 2.14483 20.0596 2.80929 20.7735C3.47374 21.4874 4.37494 21.8884 5.31462 21.8884H15.9439V23.7917Z" fill="#71B626"/>
<path d="M15.9431 17.1292H8.85693V9.51611H15.9431V17.1292ZM10.6285 15.2259H14.1716V11.4194H10.6285V15.2259Z" fill="#71B626"/>
<path d="M19.487 14.2745H17.7154V12.3712H19.487C20.4266 12.3712 21.3278 11.9702 21.9923 11.2563C22.6567 10.5425 23.03 9.57425 23.03 8.5647C23.03 7.55514 22.6567 6.58694 21.9923 5.87307C21.3278 5.15921 20.4266 4.75817 19.487 4.75817H8.85771V2.8549H19.487C20.8965 2.8549 22.2483 3.45647 23.245 4.52726C24.2416 5.59806 24.8016 7.05037 24.8016 8.5647C24.8016 10.079 24.2416 11.5313 23.245 12.6021C22.2483 13.6729 20.8965 14.2745 19.487 14.2745ZM7.08617 7.61307H0V0H7.08617V7.61307ZM1.77154 5.7098H5.31462V1.90327H1.77154V5.7098Z" fill="#71B626"/>
</svg>
