<svg width="35" height="33" viewBox="0 0 35 33" fill="none" xmlns="http://www.w3.org/2000/svg">
<path fill-rule="evenodd" clip-rule="evenodd" d="M14.0808 0.351957L14.2537 0.176015L14.4264 0H17.5214C19.2236 0 20.6676 0.0200751 20.7302 0.0445236C20.761 0.0565478 20.7888 0.0653182 20.8139 0.0789999C21.0571 0.211346 21.0502 0.803251 21.0502 9.24524V17.9958H22.666C24.4158 17.9958 24.5767 18.0246 24.7141 18.3621C24.8359 18.6617 24.754 18.8697 24.3777 19.217C24.1931 19.3872 23.8193 19.7387 23.5469 19.998C21.1321 22.2965 18.0589 25.2039 17.7568 25.4759C17.1374 26.0334 17.0986 26.0172 15.9342 24.7173C14.7327 23.376 11.9142 20.1923 11.1751 19.3414C10.5598 18.633 10.512 18.4648 10.8331 18.1377L11.0349 17.9322L12.5579 17.9752L14.0808 18.0181V9.18508V0.351957ZM19.9238 18.8457V9.9964V1.14714H17.5655H15.2072V9.95783C15.2072 18.5216 15.2035 18.7733 15.0728 18.9378C14.9434 19.1008 14.894 19.1084 13.7422 19.1429L12.5461 19.1788L14.1315 20.9712C15.0034 21.957 15.9614 23.0378 16.2602 23.373C16.5591 23.7082 16.8959 24.0864 17.0086 24.2136L17.2135 24.4446L19.2251 22.5287C20.3315 21.4749 21.5828 20.2832 22.0058 19.8805L22.7749 19.1484L21.5349 19.1456C20.3892 19.1431 20.2807 19.1316 20.1093 18.9943L19.9238 18.8457ZM0.108398 13.35L0.292374 13.1795L0.476275 13.009H3.70548H6.93468L7.11858 13.1795C7.30128 13.3488 7.30256 13.3596 7.30256 14.6954V16.0407L7.10937 16.2092C6.91872 16.3753 6.89422 16.3778 5.27298 16.3986L3.62979 16.4198L3.6489 22.962L3.66801 29.5042L20.8845 29.5217L31.3686 29.5392L31.3882 23.1279C31.3989 19.6016 31.3908 16.6403 31.3702 16.5471L31.3327 16.3775H29.6298C28.4531 16.3775 27.9491 16.4198 27.7355 16.1909C27.5445 15.9863 27.5858 15.5649 27.5858 14.7027V13.3443L27.796 13.1766L28.0063 13.009H31.2654H34.5244L34.7084 13.1795L34.8923 13.35L34.8899 22.8509C34.8881 30.2099 34.867 32.3767 34.7963 32.462C34.746 32.5226 34.6313 32.6086 34.5413 32.653C34.3117 32.7664 0.725747 32.77 0.45739 32.6567C0.356972 32.6143 0.237369 32.5034 0.191581 32.4104C0.131929 32.289 0.108398 29.5701 0.108398 22.7955V13.35ZM6.06606 15.2663L6.08779 14.6933L6.1096 14.1203H3.70848H1.30743V22.8714V31.6226H20.8665H33.6933V22.8705V14.1184L31.239 14.1367L28.7848 14.155L28.7625 14.6698C28.7467 15.0347 28.7686 15.2012 28.8375 15.2418C28.8909 15.2731 29.6703 15.2993 30.5695 15.3C31.5053 15.3005 32.2638 15.3304 32.3433 15.3699C32.6634 15.5287 32.6654 15.5875 32.6068 23.1269C32.5542 29.8788 32.5428 30.3177 32.4168 30.462L32.2827 30.6155H20.8665H2.718L2.5748 30.4515C2.43571 30.2924 2.43151 30.071 2.43151 22.9464C2.43151 16.7203 2.44762 15.5849 2.53778 15.4705C2.63602 15.3458 2.77174 15.3332 4.35505 15.301L6.06606 15.2663Z" fill="#66B127"/>
</svg>
