<svg width="38" height="33" viewBox="0 0 38 33" fill="none" xmlns="http://www.w3.org/2000/svg">
<path fill-rule="evenodd" clip-rule="evenodd" d="M15.2508 3.47252C13.1927 5.38178 11.4718 7.01919 11.4264 7.11131C11.2972 7.37429 11.3284 7.55482 11.5367 7.74778L11.7292 7.92628H13.6156H15.5019V16.8651V25.8038L15.6913 26.0078L15.8807 26.2119H19.3721H22.8635L23.0656 26.0358L23.2677 25.8599L23.2876 16.9239L23.3076 7.98808L25.0111 7.99607C26.6189 8.00356 26.7234 7.99586 26.8723 7.85793C27.1387 7.61102 27.1553 7.374 26.9276 7.07002C26.8161 6.92111 25.0911 5.26923 23.0942 3.39909C19.9008 0.408247 19.4352 -0.00108842 19.2282 2.16839e-06C19.0229 0.00109276 18.5155 0.444019 15.2508 3.47252ZM24.1328 6.05926L24.955 6.84601L23.6832 6.82267C22.4481 6.79999 22.4063 6.80413 22.2319 6.96496L22.0524 7.13051L22.0132 16.0896L21.9739 25.0486H19.3851H16.7963L16.7563 16.033C16.7343 11.0744 16.7078 7.0104 16.6975 7.00182C16.5022 6.83998 16.1729 6.79533 14.9346 6.76298L13.5435 6.72663L16.3849 4.08805L19.2264 1.44947L21.2684 3.36099C22.3916 4.41232 23.6806 5.62651 24.1328 6.05926ZM0.986537 12.1036L0.793945 12.282V22.1699C0.793945 29.2617 0.818578 32.108 0.881023 32.2351C0.928956 32.3325 1.05416 32.4485 1.15928 32.4929C1.44021 32.6115 36.599 32.6077 36.8394 32.4891C36.9336 32.4426 37.0537 32.3525 37.1063 32.2891C37.1804 32.1998 37.2025 29.9316 37.2044 22.2279L37.2069 12.282L37.0143 12.1036L36.8218 11.9251H33.41H29.9984L29.7782 12.1006L29.5581 12.2761V13.6981C29.5581 15.61 29.3645 15.4514 31.6979 15.4514H33.4806L33.5198 15.6288C33.5414 15.7264 33.5498 18.8264 33.5386 22.5179L33.5181 29.2295L22.5431 29.2111L4.52026 29.1928L4.50025 22.3442L4.48025 15.4956L6.2004 15.4735C7.89755 15.4516 7.92321 15.449 8.12278 15.2751L8.32502 15.0988V13.6904C8.32502 12.2921 8.32369 12.2808 8.13243 12.1036L7.93992 11.9251H4.55948H1.17905L0.986537 12.1036ZM7.05337 13.6882L7.03062 14.2881L5.23948 14.3244C3.58201 14.3581 3.43994 14.3713 3.3371 14.5019C3.24272 14.6216 3.22586 15.8102 3.22586 22.3279C3.22586 29.7861 3.23025 30.0179 3.37585 30.1844L3.52576 30.3561H22.5242H34.4751L34.6154 30.1954C34.7473 30.0444 34.7593 29.5849 34.8143 22.5169C34.8757 14.6243 34.8736 14.5627 34.5385 14.3965C34.4552 14.3552 33.6612 14.3239 32.6816 14.3233C31.7403 14.3227 30.9244 14.2953 30.8684 14.2624C30.7964 14.2199 30.7734 14.0457 30.79 13.6637L30.8133 13.1248L33.3825 13.1056L35.9517 13.0864V22.2484V31.4103H22.5242H2.04912V22.2494V13.0884H4.56262H7.0762L7.05337 13.6882Z" fill="#DC3938"/>
</svg>
