<svg width="22" height="27" viewBox="0 0 22 27" fill="none" xmlns="http://www.w3.org/2000/svg">
<path fill-rule="evenodd" clip-rule="evenodd" d="M10.8878 0.00252959C14.684 0.00252959 17.7755 3.09406 17.7755 6.89412L17.7754 8.94379C20.0832 9.74697 21.7434 11.9441 21.7434 14.5226V20.0985C21.7434 23.3552 19.0952 26.0034 15.8386 26.0034H5.90485C2.64821 26.0034 0 23.3552 0 20.0985V14.5226C0 11.9446 1.65955 9.7478 3.96674 8.94424L3.96764 6.89412C3.97544 5.02204 4.69957 3.29427 6.00612 1.99941C7.31398 0.703259 9.04045 -0.0468725 10.8878 0.00252959ZM15.8386 10.5678H5.90485C3.72336 10.5678 1.95008 12.3411 1.95008 14.5226V20.0985C1.95008 22.28 3.72336 24.0533 5.90485 24.0533H15.8386C18.0188 24.0533 19.7933 22.28 19.7933 20.0985V14.5226C19.7933 12.3411 18.0188 10.5678 15.8386 10.5678ZM10.8714 14.8915C11.4097 14.8915 11.8465 15.3284 11.8465 15.8666V18.754C11.8465 19.2922 11.4097 19.729 10.8714 19.729C10.3332 19.729 9.89641 19.2922 9.89641 18.754V15.8666C9.89641 15.3284 10.3332 14.8915 10.8714 14.8915ZM10.8839 1.95261H10.8631C9.54617 1.95261 8.31242 2.45963 7.38028 3.38397C6.44164 4.31221 5.92292 5.55116 5.91772 6.87202L5.91655 8.617H15.8243L15.8254 6.89412C15.8254 4.16921 13.6088 1.95261 10.8839 1.95261Z" fill="#9F9F9F"/>
</svg>
