<svg width="25" height="24" viewBox="0 0 25 24" fill="none" xmlns="http://www.w3.org/2000/svg">
<path d="M15.1362 14.49C15.8129 14.1421 16.5875 13.944 17.4124 13.944H17.4152C17.4991 13.944 17.5382 13.8477 17.4767 13.7942C16.6189 13.0573 15.6389 12.4621 14.577 12.0331C14.5658 12.0277 14.5546 12.0251 14.5434 12.0197C16.2799 10.8127 17.4096 8.85085 17.4096 6.63747C17.4096 2.9708 14.3113 0 10.4888 0C6.66636 0 3.5709 2.9708 3.5709 6.63747C3.5709 8.85085 4.70059 10.8127 6.43986 12.0197C6.42868 12.0251 6.41749 12.0277 6.40631 12.0331C5.15638 12.5389 4.03508 13.2642 3.07037 14.1903C2.11123 15.1066 1.34763 16.1929 0.822171 17.3886C0.305179 18.5594 0.0261632 19.8138 6.99233e-05 21.0847C-0.000676413 21.1132 0.00455827 21.1417 0.0154657 21.1683C0.0263731 21.1949 0.0427324 21.2191 0.0635798 21.2395C0.0844271 21.26 0.109341 21.2762 0.136852 21.2873C0.164364 21.2984 0.193918 21.3041 0.223771 21.3041H1.89873C2.01897 21.3041 2.11964 21.2105 2.12243 21.0954C2.17836 19.0292 3.0424 17.0942 4.57196 15.6275C6.15185 14.11 8.25464 13.2749 10.4916 13.2749C12.0771 13.2749 13.5983 13.6951 14.9097 14.482C14.9434 14.5023 14.9821 14.5137 15.0219 14.5151C15.0616 14.5165 15.1011 14.5078 15.1362 14.49ZM10.4916 11.2409C9.21096 11.2409 8.00577 10.7618 7.09698 9.89197C6.64985 9.46511 6.29537 8.95779 6.05398 8.39923C5.81258 7.84068 5.68904 7.24192 5.69046 6.63747C5.69046 5.409 6.19099 4.2528 7.09698 3.38297C8.00297 2.51314 9.20816 2.03406 10.4916 2.03406C11.7751 2.03406 12.9775 2.51314 13.8863 3.38297C14.3334 3.80983 14.6879 4.31715 14.9293 4.87571C15.1707 5.43426 15.2943 6.03301 15.2928 6.63747C15.2928 7.86594 14.7923 9.02214 13.8863 9.89197C12.9775 10.7618 11.7723 11.2409 10.4916 11.2409Z" fill="#66B127"/>
<path d="M19.4983 19.3549C18.8171 19.3549 18.2541 18.7918 18.2541 18.1106C18.2541 17.8904 18.3182 17.6857 18.4208 17.5053C18.3648 17.5009 18.3113 17.4885 18.2541 17.4885C17.7601 17.4918 17.2873 17.6894 16.9379 18.0387C16.5886 18.3881 16.391 18.8609 16.3877 19.3549C16.3877 20.3764 17.2325 21.2213 18.2541 21.2213C19.275 21.2213 20.1205 20.3764 20.1205 19.3549C20.1205 19.2976 20.108 19.2441 20.1037 19.1881C19.9232 19.2908 19.7186 19.3549 19.4983 19.3549Z" fill="#66B127"/>
<path d="M18.2549 15C13.5062 15 12.079 19.1166 12.0659 19.1583L12 19.3549L12.0653 19.5515C12.079 19.5932 13.5062 23.7098 18.2549 23.7098C23.0035 23.7098 24.4307 19.5932 24.4438 19.5515L24.5097 19.3549L24.4444 19.1583C24.4307 19.1166 23.0035 15 18.2549 15ZM18.2549 22.4655C14.9259 22.4655 13.6362 20.0728 13.3239 19.3549C13.6374 18.6345 14.9277 16.2443 18.2549 16.2443C21.5839 16.2443 22.8735 18.6369 23.1858 19.3549C22.8723 20.0753 21.582 22.4655 18.2549 22.4655Z" fill="#66B127"/>
</svg>
