<svg width="26" height="26" viewBox="0 0 26 26" fill="none" xmlns="http://www.w3.org/2000/svg">
<g clip-path="url(#clip0_833_4669)">
<path d="M24.9167 20.5833C24.9167 21.7326 24.4601 22.8348 23.6475 23.6475C22.8348 24.4601 21.7326 24.9167 20.5833 24.9167H18.4167V22.75H20.5833C21.158 22.75 21.7091 22.5217 22.1154 22.1154C22.5217 21.7091 22.75 21.158 22.75 20.5833C22.75 20.0087 22.5217 19.4576 22.1154 19.0513C21.7091 18.6449 21.158 18.4167 20.5833 18.4167H18.4167V16.25H20.5833C21.7326 16.25 22.8348 16.7065 23.6475 17.5192C24.4601 18.3319 24.9167 19.4341 24.9167 20.5833ZM9.75 20.5833C9.75 19.4341 10.2065 18.3319 11.0192 17.5192C11.8319 16.7065 12.9341 16.25 14.0833 16.25H16.25V18.4167H14.0833C13.5087 18.4167 12.9576 18.6449 12.5513 19.0513C12.1449 19.4576 11.9167 20.0087 11.9167 20.5833C11.9167 21.158 12.1449 21.7091 12.5513 22.1154C12.9576 22.5217 13.5087 22.75 14.0833 22.75H16.25V24.9167H14.0833C12.9341 24.9167 11.8319 24.4601 11.0192 23.6475C10.2065 22.8348 9.75 21.7326 9.75 20.5833Z" fill="#71B626"/>
<path d="M15.1667 19.5H19.5V21.6667H15.1667V19.5ZM9.75 5.41667C9.10721 5.41667 8.47886 5.60728 7.9444 5.9644C7.40994 6.32151 6.99338 6.82909 6.74739 7.42295C6.50141 8.01681 6.43705 8.67028 6.56245 9.30072C6.68785 9.93115 6.99738 10.5102 7.4519 10.9648C7.90642 11.4193 8.48552 11.7288 9.11596 11.8542C9.7464 11.9796 10.3999 11.9153 10.9937 11.6693C11.5876 11.4233 12.0952 11.0067 12.4523 10.4723C12.8094 9.93782 13 9.30946 13 8.66667C12.9974 7.80551 12.6542 6.98035 12.0453 6.37142C11.4363 5.76248 10.6112 5.41924 9.75 5.41667ZM9.75 9.75001C9.53574 9.75001 9.32629 9.68647 9.14813 9.56743C8.96998 9.44839 8.83113 9.2792 8.74913 9.08125C8.66714 8.88329 8.64568 8.66547 8.68748 8.45532C8.72928 8.24518 8.83246 8.05215 8.98397 7.90064C9.13548 7.74913 9.32851 7.64596 9.53865 7.60415C9.7488 7.56235 9.96662 7.58381 10.1646 7.6658C10.3625 7.7478 10.5317 7.88665 10.6508 8.0648C10.7698 8.24296 10.8333 8.45241 10.8333 8.66667C10.8325 8.95373 10.7181 9.22878 10.5151 9.43176C10.3121 9.63474 10.0371 9.74915 9.75 9.75001ZM5.7525 16.25C6.94539 15.4799 8.33028 15.0595 9.75 15.0367C10.0322 15.0403 10.3138 15.0635 10.5928 15.106C11.6344 14.438 12.8459 14.083 14.0833 14.0833H14.3585C12.939 13.3238 11.3596 12.9117 9.75 12.8808C7.55083 12.8808 3.25 14.04 3.25 16.7592V18.4167H7.96142C8.24461 17.6172 8.68186 16.8811 9.24842 16.25H5.7525Z" fill="#71B626"/>
<path d="M17.3333 2.16669H12.805C12.5832 1.53341 12.17 0.984724 11.6227 0.596524C11.0754 0.208325 10.421 -0.000198364 9.75 -0.000198364C9.079 -0.000198364 8.42458 0.208325 7.87727 0.596524C7.32997 0.984724 6.91683 1.53341 6.695 2.16669H2.16667C1.59256 2.1684 1.04245 2.39723 0.636496 2.80318C0.230538 3.20914 0.00171462 3.75925 0 4.33335L0 19.5C0.00171462 20.0741 0.230538 20.6242 0.636496 21.0302C1.04245 21.4362 1.59256 21.665 2.16667 21.6667H7.73608C7.53179 20.9589 7.53179 20.2078 7.73608 19.5H2.16667V4.33335H17.3333V14.0834H19.5V4.33335C19.4983 3.75925 19.2695 3.20914 18.8635 2.80318C18.4575 2.39723 17.9074 2.1684 17.3333 2.16669ZM9.75 3.52085C9.53495 3.51943 9.32911 3.43338 9.17704 3.28131C9.02498 3.12924 8.93892 2.9234 8.9375 2.70835C8.9375 2.49287 9.0231 2.2862 9.17548 2.13383C9.32785 1.98146 9.53451 1.89585 9.75 1.89585C9.96549 1.89585 10.1722 1.98146 10.3245 2.13383C10.4769 2.2862 10.5625 2.49287 10.5625 2.70835C10.5611 2.9234 10.475 3.12924 10.323 3.28131C10.1709 3.43338 9.96505 3.51943 9.75 3.52085Z" fill="#71B626"/>
</g>
<defs>
<clipPath id="clip0_833_4669">
<rect width="26" height="26" fill="white"/>
</clipPath>
</defs>
</svg>
