<svg width="72" height="72" viewBox="0 0 72 72" fill="none" xmlns="http://www.w3.org/2000/svg">
<rect width="72" height="72" rx="5" fill="#AFFFCF" fill-opacity="0.2"/>
<path d="M35.9994 16C36.5437 16.0001 37.0691 16.1999 37.4758 16.5616C37.8825 16.9233 38.1424 17.4216 38.2061 17.9622L38.2216 18.2222V53.7767C38.221 54.3431 38.0041 54.8879 37.6153 55.2997C37.2265 55.7116 36.6951 55.9594 36.1297 55.9926C35.5643 56.0258 35.0075 55.8418 34.5732 55.4783C34.1389 55.1148 33.8597 54.5991 33.7928 54.0367L33.7773 53.7767V18.2222C33.7773 17.6328 34.0114 17.0676 34.4281 16.6509C34.8449 16.2341 35.4101 16 35.9994 16ZM27.1108 22.6665C27.6551 22.6666 28.1804 22.8664 28.5871 23.2281C28.9939 23.5897 29.2537 24.0881 29.3174 24.6286L29.333 24.8886V47.1102C29.3323 47.6766 29.1155 48.2214 28.7267 48.6332C28.3378 49.0451 27.8064 49.2929 27.241 49.3261C26.6756 49.3593 26.1189 49.1754 25.6845 48.8118C25.2502 48.4483 24.9711 47.9327 24.9042 47.3702L24.8886 47.1102V24.8886C24.8886 24.2993 25.1228 23.7341 25.5395 23.3173C25.9562 22.9006 26.5214 22.6665 27.1108 22.6665ZM44.8881 22.6665C45.4324 22.6666 45.9577 22.8664 46.3644 23.2281C46.7712 23.5897 47.031 24.0881 47.0947 24.6286L47.1102 24.8886V47.1102C47.1096 47.6766 46.8927 48.2214 46.5039 48.6332C46.1151 49.0451 45.5837 49.2929 45.0183 49.3261C44.4529 49.3593 43.8962 49.1754 43.4618 48.8118C43.0275 48.4483 42.7484 47.9327 42.6815 47.3702L42.6659 47.1102V24.8886C42.6659 24.2993 42.9 23.7341 43.3168 23.3173C43.7335 22.9006 44.2987 22.6665 44.8881 22.6665ZM18.2222 29.333C18.7664 29.333 19.2918 29.5329 19.6985 29.8945C20.1052 30.2562 20.3651 30.7546 20.4288 31.2951L20.4443 31.5551V40.4438C20.4437 41.0101 20.2268 41.5549 19.838 41.9668C19.4492 42.3786 18.9178 42.6264 18.3524 42.6596C17.787 42.6928 17.2302 42.5089 16.7959 42.1453C16.3616 41.7818 16.0825 41.2662 16.0156 40.7038L16 40.4438V31.5551C16 30.9658 16.2341 30.4006 16.6509 29.9838C17.0676 29.5671 17.6328 29.333 18.2222 29.333ZM53.7767 29.333C54.321 29.333 54.8463 29.5329 55.2531 29.8945C55.6598 30.2562 55.9197 30.7546 55.9833 31.2951L55.9989 31.5551V40.4438C55.9983 41.0101 55.7814 41.5549 55.3926 41.9668C55.0038 42.3786 54.4724 42.6264 53.907 42.6596C53.3415 42.6928 52.7848 42.5089 52.3505 42.1453C51.9161 41.7818 51.637 41.2662 51.5701 40.7038L51.5546 40.4438V31.5551C51.5546 30.9658 51.7887 30.4006 52.2054 29.9838C52.6222 29.5671 53.1874 29.333 53.7767 29.333Z" fill="#71B626"/>
</svg>
