<svg width="173" height="278" viewBox="0 0 173 278" fill="none" xmlns="http://www.w3.org/2000/svg">
<g clip-path="url(#clip0_2421_8574)">
<g filter="url(#filter0_d_2421_8574)">
<path fill-rule="evenodd" clip-rule="evenodd" d="M79.9023 116.476C51.7898 116.476 29 94.0967 29 66.4903C29 38.8838 51.7898 16.5044 79.9023 16.5044C108.015 16.5044 130.805 38.8838 130.805 66.4903C130.805 78.5112 126.484 89.5411 119.283 98.1637C118.048 106.395 118.177 117.523 125.422 126.466C115.979 127.522 99.9908 116.296 96.5101 113.755C91.305 115.519 85.7176 116.476 79.9023 116.476Z" fill="url(#paint0_linear_2421_8574)" fill-opacity="0.9" shape-rendering="crispEdges"/>
</g>
<path d="M46.7084 82.4666C47.7975 82.1433 47.4768 82.1505 48.1095 81.6234L47.5058 54.7425C47.5028 54.6104 47.4858 54.4826 47.4612 54.3578C52.3256 41.4101 63.9805 31.4758 78.7239 31.1446C93.4673 30.8135 105.805 40.5278 111.108 53.6535L111.721 80.9652C108.613 86.3347 107.235 90.5426 104.414 92.9757C103.686 93.8048 103.687 94.323 104.462 95.1074C104.49 95.136 104.662 95.2109 104.85 95.2067C105.346 95.1955 105.277 95.0438 105.644 94.6264C108.796 91.0384 111.216 85.5337 113.431 80.9268L114.626 80.9C122.548 80.7221 123.799 74.9858 123.608 66.4775C123.417 57.9692 121.893 51.5851 113.971 51.763L112.538 51.7952C106.443 37.6002 93.2968 28.6913 78.6762 29.0197C64.0479 29.3482 51.3133 38.837 45.8645 53.2926L44.7543 53.3175C36.8324 53.4954 36.2363 59.9897 36.4274 68.498C36.6185 77.0063 37.9843 80.2114 43.8244 82.2326L45.4096 82.4958L46.7084 82.4666ZM121.425 66.5265C121.882 75.3665 120.372 78.3611 114.572 78.4914L113.761 78.5096L113.221 54.4563L114.031 54.4382C120.625 54.2901 120.89 56.2064 121.425 66.5265ZM38.4953 68.4516C38.3554 62.2208 38.1985 55.2377 44.8021 55.4474L45.6124 55.4292L46.1648 80.0277L45.3545 80.0459C39.5532 80.1762 38.0828 74.8784 38.4953 68.4516Z" fill="white"/>
<path d="M85.7343 62.0584H94.7871C93.8898 58.9052 92.0455 56.1177 89.5132 54.0874C86.9809 52.0572 83.8879 50.8862 80.6688 50.7391C77.4498 50.592 74.2663 51.4761 71.5658 53.2672C68.8652 55.0582 66.7833 57.6663 65.6125 60.7249C64.4417 63.7836 64.2408 67.1391 65.0381 70.32C65.8354 73.5009 67.5909 76.3475 70.0577 78.4596C72.5246 80.5718 75.579 81.8435 78.7918 82.096C82.0046 82.3486 85.2143 81.5693 87.9699 79.8676C88.6147 79.4813 89.2298 79.0457 89.8099 78.5647L90.4079 78.0398L90.5183 77.9367C91.0634 77.4129 91.716 77.0191 92.4289 76.7841C93.1417 76.549 93.897 76.4785 94.6399 76.5776C95.2871 76.6508 95.9107 76.8675 96.467 77.2124C97.0233 77.5573 97.4987 78.0221 97.8599 78.5741C98.2976 79.2337 98.4999 80.0264 98.4329 80.8197C98.3659 81.613 98.0337 82.3589 97.4919 82.9326C96.4204 84.1245 95.2406 85.2104 93.9683 86.1758L93.3059 86.6538C90.2222 88.7862 86.692 90.155 82.997 90.6509C79.3019 91.1468 75.5443 90.7561 72.0237 89.5101C68.5032 88.264 65.3171 86.1971 62.7196 83.4741C60.1221 80.7511 58.1851 77.4473 57.063 73.8264C55.9409 70.2054 55.6648 66.3674 56.2567 62.6185C56.8487 58.8695 58.2922 55.3133 60.4723 52.2336C62.6523 49.1538 65.5086 46.6357 68.8132 44.88C72.1179 43.1243 75.7795 42.1797 79.506 42.1214C82.6718 42.0731 85.8157 42.6638 88.7563 43.8597C91.6969 45.0555 94.3761 46.8327 96.6392 49.0887C98.9022 51.3448 100.705 54.035 101.942 57.0043C103.179 59.9735 103.828 63.163 103.849 66.3888C103.857 67.9808 103.71 69.5697 103.408 71.1317H85.486C84.5321 72.298 83.2452 73.1324 81.8043 73.5189C80.3634 73.9053 78.84 73.8246 77.4462 73.2879C76.0524 72.7512 74.8575 71.7852 74.0276 70.5244C73.1977 69.2635 72.7742 67.7705 72.8159 66.253C72.8577 64.7355 73.3627 63.269 74.2606 62.0575C75.1585 60.846 76.4047 59.9498 77.8258 59.4935C79.247 59.0372 80.7723 59.0435 82.1898 59.5116C83.6072 59.9797 84.8462 60.8863 85.7343 62.1052V62.0584Z" fill="#FEFFFE"/>
<g filter="url(#filter1_d_2421_8574)">
<path fill-rule="evenodd" clip-rule="evenodd" d="M79.9023 242.507C51.7898 242.507 29 220.128 29 192.522C29 164.915 51.7898 142.536 79.9023 142.536C108.015 142.536 130.805 164.915 130.805 192.522C130.805 204.542 126.484 215.572 119.283 224.195C118.048 232.426 118.177 243.554 125.422 252.497C115.979 253.553 99.9908 242.328 96.5101 239.786C91.305 241.55 85.7176 242.507 79.9023 242.507Z" fill="#66B127" fill-opacity="0.9" shape-rendering="crispEdges"/>
</g>
<g filter="url(#filter2_d_2421_8574)">
<path fill-rule="evenodd" clip-rule="evenodd" d="M80.8599 253.732C45.7285 254.331 16.7719 226.85 16.1835 192.351C15.5951 157.852 43.5976 129.4 78.729 128.8C113.86 128.201 142.817 155.682 143.405 190.181C143.661 205.201 138.498 219.075 129.687 230.003C128.318 240.316 128.714 254.222 137.96 265.245C126.181 266.766 105.959 253.076 101.558 249.977C95.0902 252.292 88.1276 253.608 80.8599 253.732Z" fill="#66B127" fill-opacity="0.3" shape-rendering="crispEdges"/>
</g>
<path d="M46.7084 208.498C47.7975 208.175 47.4768 208.182 48.1095 207.655L47.5058 180.774C47.5028 180.642 47.4858 180.514 47.4612 180.389C52.3256 167.441 63.9805 157.507 78.7239 157.176C93.4673 156.845 105.805 166.559 111.108 179.685L111.721 206.996C108.613 212.366 107.235 216.574 104.414 219.007C103.686 219.836 103.687 220.354 104.462 221.139C104.49 221.167 104.662 221.242 104.85 221.238C105.346 221.227 105.277 221.075 105.644 220.658C108.796 217.07 111.216 211.565 113.431 206.958L114.626 206.931C122.548 206.753 123.799 201.017 123.608 192.509C123.417 184 121.893 177.616 113.971 177.794L112.538 177.826C106.443 163.631 93.2968 154.723 78.6762 155.051C64.0479 155.379 51.3133 164.868 45.8645 179.324L44.7543 179.349C36.8324 179.527 36.2363 186.021 36.4274 194.529C36.6185 203.038 37.9843 206.243 43.8244 208.264L45.4096 208.527L46.7084 208.498ZM121.425 192.558C121.882 201.398 120.372 204.392 114.572 204.523L113.761 204.541L113.221 180.488L114.031 180.469C120.625 180.321 120.89 182.238 121.425 192.558ZM38.4953 194.483C38.3554 188.252 38.1985 181.269 44.8021 181.479L45.6124 181.46L46.1648 206.059L45.3545 206.077C39.5532 206.207 38.0828 200.91 38.4953 194.483Z" fill="white"/>
<path d="M85.7343 188.09H94.7871C93.8898 184.936 92.0455 182.149 89.5132 180.119C86.9809 178.088 83.8879 176.917 80.6688 176.77C77.4498 176.623 74.2663 177.507 71.5658 179.298C68.8652 181.089 66.7833 183.698 65.6125 186.756C64.4417 189.815 64.2408 193.17 65.0381 196.351C65.8354 199.532 67.5909 202.379 70.0577 204.491C72.5246 206.603 75.579 207.875 78.7918 208.127C82.0046 208.38 85.2143 207.601 87.9699 205.899C88.6147 205.513 89.2298 205.077 89.8099 204.596L90.4079 204.071L90.5183 203.968C91.0634 203.444 91.716 203.05 92.4289 202.815C93.1417 202.58 93.897 202.51 94.6399 202.609C95.2871 202.682 95.9107 202.899 96.467 203.244C97.0233 203.589 97.4987 204.053 97.8599 204.605C98.2976 205.265 98.4999 206.058 98.4329 206.851C98.3659 207.644 98.0337 208.39 97.4919 208.964C96.4204 210.156 95.2406 211.242 93.9683 212.207L93.3059 212.685C90.2222 214.817 86.692 216.186 82.997 216.682C79.3019 217.178 75.5443 216.787 72.0237 215.541C68.5032 214.295 65.3171 212.228 62.7196 209.505C60.1221 206.782 58.1851 203.479 57.063 199.858C55.9409 196.237 55.6648 192.399 56.2567 188.65C56.8487 184.901 58.2922 181.345 60.4723 178.265C62.6523 175.185 65.5086 172.667 68.8132 170.911C72.1179 169.156 75.7795 168.211 79.506 168.153C82.6718 168.104 85.8157 168.695 88.7563 169.891C91.6969 171.087 94.3761 172.864 96.6392 175.12C98.9022 177.376 100.705 180.066 101.942 183.036C103.179 186.005 103.828 189.194 103.849 192.42C103.857 194.012 103.71 195.601 103.408 197.163H85.486C84.5321 198.329 83.2452 199.164 81.8043 199.55C80.3634 199.937 78.84 199.856 77.4462 199.319C76.0524 198.782 74.8575 197.816 74.0276 196.556C73.1977 195.295 72.7742 193.802 72.8159 192.284C72.8577 190.767 73.3627 189.3 74.2606 188.089C75.1585 186.877 76.4047 185.981 77.8258 185.525C79.247 185.068 80.7723 185.075 82.1898 185.543C83.6072 186.011 84.8462 186.918 85.7343 188.136V188.09Z" fill="#FEFFFE"/>
</g>
<rect x="0.5" y="1.00439" width="172" height="276" rx="4.5" stroke="#9747FF" stroke-dasharray="10 5"/>
<defs>

<filter id="filter2_d_2421_8574" x="7.17578" y="127.791" width="145.238" height="154.572" filterUnits="userSpaceOnUse" color-interpolation-filters="sRGB">
<feFlood flood-opacity="0" result="BackgroundImageFix"/>
<feColorMatrix in="SourceAlpha" type="matrix" values="0 0 0 0 0 0 0 0 0 0 0 0 0 0 0 0 0 0 127 0" result="hardAlpha"/>
<feOffset dy="8"/>
<feGaussianBlur stdDeviation="4.5"/>
<feComposite in2="hardAlpha" operator="out"/>
<feColorMatrix type="matrix" values="0 0 0 0 0 0 0 0 0 0 0 0 0 0 0 0 0 0 0.04 0"/>
<feBlend mode="normal" in2="BackgroundImageFix" result="effect1_dropShadow_2421_8574"/>
<feBlend mode="normal" in="SourceGraphic" in2="effect1_dropShadow_2421_8574" result="shape"/>
</filter>
<linearGradient id="paint0_linear_2421_8574" x1="62.9198" y1="18.5977" x2="113.261" y2="109.105" gradientUnits="userSpaceOnUse">
<stop stop-color="#66B127"/>
<stop offset="1" stop-color="#3D9E47"/>
</linearGradient>
<clipPath id="clip0_2421_8574">
<rect y="0.504395" width="173" height="277" rx="5" fill="white"/>
</clipPath>
</defs>
</svg>
