<svg width="50" height="49" viewBox="0 0 50 49" fill="none" xmlns="http://www.w3.org/2000/svg">
<path d="M25.235 44.3914H42.2067C42.5689 44.3914 42.9276 44.32 43.2622 44.1814C43.5968 44.0428 43.9009 43.8397 44.157 43.5835C44.6743 43.0663 44.9648 42.3647 44.9648 41.6332V24.6615C44.9648 20.7593 43.8077 16.9447 41.6398 13.7002C39.4718 10.4556 36.3904 7.9268 32.7853 6.4335C29.1801 4.94019 25.2131 4.54947 21.3859 5.31075C17.5587 6.07203 14.0431 7.95112 11.2839 10.7104C8.52458 13.4697 6.64549 16.9852 5.88421 20.8124C5.12293 24.6396 5.51365 28.6066 7.00696 32.2118C8.50026 35.817 11.0291 38.8984 14.2736 41.0663C17.5182 43.2342 21.3328 44.3914 25.235 44.3914Z" fill="url(#paint0_linear_2407_8324)"/>
<path d="M27.7089 22.8094H31.5638C31.1817 21.4916 30.3964 20.3265 29.3181 19.478C28.2397 18.6294 26.9227 18.14 25.5519 18.0785C24.1812 18.017 22.8256 18.3865 21.6756 19.1351C20.5256 19.8837 19.6391 20.9738 19.1406 22.2521C18.642 23.5305 18.5565 24.9329 18.896 26.2624C19.2355 27.5919 19.983 28.7816 21.0334 29.6644C22.0839 30.5472 23.3845 31.0787 24.7526 31.1842C26.1207 31.2898 27.4875 30.964 28.6609 30.2528C28.9355 30.0914 29.1974 29.9093 29.4444 29.7083L29.6991 29.4889L29.7461 29.4458C29.9782 29.2269 30.2561 29.0623 30.5596 28.9641C30.8632 28.8658 31.1848 28.8363 31.5012 28.8778C31.7767 28.9084 32.0423 28.9989 32.2792 29.1431C32.516 29.2872 32.7185 29.4815 32.8723 29.7122C33.0587 29.9879 33.1448 30.3192 33.1163 30.6508C33.0878 30.9823 32.9463 31.2941 32.7156 31.5339C32.2593 32.032 31.7569 32.4859 31.2152 32.8894L30.9331 33.0892C29.62 33.9804 28.1167 34.5525 26.5433 34.7597C24.9699 34.967 23.3698 34.8037 21.8706 34.2829C20.3715 33.7621 19.0148 32.8983 17.9087 31.7602C16.8026 30.6221 15.9778 29.2413 15.5 27.7279C15.0221 26.2145 14.9046 24.6104 15.1566 23.0435C15.4087 21.4766 16.0234 19.9903 16.9517 18.7031C17.88 17.4159 19.0963 16.3635 20.5035 15.6297C21.9107 14.8959 23.4699 14.5011 25.0567 14.4767C26.4048 14.4565 27.7436 14.7035 28.9958 15.2032C30.248 15.703 31.3888 16.4458 32.3525 17.3887C33.3162 18.3317 34.0836 19.4561 34.6105 20.6971C35.1375 21.9381 35.4135 23.2711 35.4226 24.6193C35.4262 25.2847 35.3632 25.9488 35.2346 26.6016H27.6032C27.197 27.0891 26.649 27.4379 26.0354 27.5994C25.4218 27.7609 24.7732 27.7271 24.1796 27.5028C23.5861 27.2785 23.0773 26.8748 22.7239 26.3478C22.3705 25.8208 22.1902 25.1968 22.208 24.5626C22.2257 23.9283 22.4408 23.3154 22.8231 22.8091C23.2055 22.3027 23.7361 21.9281 24.3413 21.7374C24.9464 21.5467 25.596 21.5494 26.1996 21.745C26.8031 21.9407 27.3307 22.3196 27.7089 22.829V22.8094Z" fill="#EAFFDD"/>
<path d="M25.2303 49.0003H46.1677C46.6145 49.0003 47.057 48.9123 47.4698 48.7413C47.8826 48.5703 48.2577 48.3197 48.5737 48.0037C49.2118 47.3656 49.5703 46.5001 49.5703 45.5977V24.6603C49.5703 19.8463 48.1428 15.1404 45.4683 11.1377C42.7938 7.13505 38.9924 4.01533 34.5448 2.17309C30.0973 0.330858 25.2033 -0.151154 20.4818 0.78801C15.7603 1.72717 11.4233 4.04533 8.01934 7.44934C4.61533 10.8534 2.29716 15.1903 1.358 19.9118C0.418839 24.6333 0.900856 29.5273 2.74309 33.9748C4.58533 38.4224 7.70505 42.2238 11.7077 44.8983C15.7104 47.5728 20.4163 49.0003 25.2303 49.0003ZM25.3418 1.89375C31.0046 1.90032 37.4984 4.71587 41.5026 8.72015C45.5069 12.7244 47.9808 18.3802 47.9874 24.0431L48.1111 46.9483C48.1111 47.0602 48.0666 47.1676 47.9874 47.2468C47.9082 47.326 47.8008 47.3705 47.6888 47.3705L24.7967 47.2468C19.1318 47.2468 13.5459 45.1432 9.54025 41.1375C5.53455 37.1318 2.45384 30.2728 2.45384 24.6079C2.45384 18.943 4.82294 12.89 8.82864 8.88432C13.1266 3.81827 19.6768 1.89375 25.3418 1.89375Z" fill="#66B127"/>
<defs>
<linearGradient id="paint0_linear_2407_8324" x1="25.235" y1="4.93164" x2="36.5958" y2="53.7259" gradientUnits="userSpaceOnUse">
<stop stop-color="#66B127"/>
<stop offset="1" stop-color="#3D9E47"/>
</linearGradient>
</defs>
</svg>
