<svg width="120" height="129" viewBox="0 0 120 129" fill="none" xmlns="http://www.w3.org/2000/svg">
<g filter="url(#filter0_d_2421_8582)">
<path fill-rule="evenodd" clip-rule="evenodd" d="M59.9023 100.972C31.7898 100.972 9 78.5923 9 50.9859C9 23.3794 31.7898 1 59.9023 1C88.0149 1 110.805 23.3794 110.805 50.9859C110.805 63.0068 106.484 74.0367 99.2834 82.6593C98.0484 90.8907 98.177 102.019 105.422 110.961C95.9791 112.017 79.9908 100.792 76.5101 98.2508C71.305 100.014 65.7176 100.972 59.9023 100.972Z" fill="url(#paint0_linear_2421_8582)" fill-opacity="0.9" shape-rendering="crispEdges"/>
</g>
<path d="M26.7084 66.9621C27.7975 66.6388 27.4768 66.646 28.1095 66.1189L27.5058 39.238C27.5028 39.1058 27.4858 38.9781 27.4612 38.8533C32.3256 25.9056 43.9805 15.9712 58.7239 15.6401C73.4673 15.309 85.8055 25.0232 91.108 38.149L91.7213 65.4607C88.6134 70.8302 87.2354 75.0381 84.4137 77.4712C83.6857 78.3003 83.6871 78.8185 84.4615 79.6029C84.4898 79.6315 84.6618 79.7064 84.8503 79.7021C85.3464 79.691 85.2772 79.5393 85.6437 79.1219C88.7955 75.5339 91.2155 70.0291 93.4313 65.4223L94.6257 65.3955C102.548 65.2175 103.799 59.4812 103.608 50.9729C103.417 42.4646 101.893 36.0806 93.9714 36.2585L92.538 36.2907C86.4432 22.0957 73.2968 13.1868 58.6762 13.5151C44.0479 13.8437 31.3133 23.3325 25.8645 37.7881L24.7543 37.813C16.8324 37.9909 16.2363 44.4852 16.4274 52.9935C16.6185 61.5018 17.9843 64.7069 23.8244 66.728L25.4096 66.9912L26.7084 66.9621ZM101.425 51.022C101.882 59.8619 100.372 62.8566 94.5716 62.9868L93.7614 63.005L93.2212 38.9518L94.0314 38.9336C100.625 38.7856 100.89 40.7019 101.425 51.022ZM18.4953 52.947C18.3554 46.7163 18.1985 39.7332 24.8021 39.9428L25.6124 39.9246L26.1648 64.5232L25.3545 64.5414C19.5532 64.6716 18.0828 59.3739 18.4953 52.947Z" fill="white"/>
<path d="M65.7343 46.554H74.7871C73.8898 43.4008 72.0455 40.6133 69.5132 38.583C66.9809 36.5528 63.8879 35.3819 60.6688 35.2347C57.4498 35.0876 54.2663 35.9717 51.5658 37.7628C48.8652 39.5538 46.7833 42.1619 45.6125 45.2205C44.4417 48.2792 44.2408 51.6347 45.0381 54.8156C45.8354 57.9966 47.5909 60.8431 50.0577 62.9552C52.5246 65.0674 55.579 66.3391 58.7918 66.5916C62.0046 66.8442 65.2143 66.0649 67.9699 64.3632C68.6147 63.9769 69.2298 63.5413 69.8099 63.0603L70.4079 62.5354L70.5183 62.4323C71.0634 61.9085 71.716 61.5147 72.4289 61.2797C73.1417 61.0446 73.897 60.9741 74.6399 61.0732C75.2871 61.1464 75.9107 61.3631 76.467 61.708C77.0233 62.0529 77.4987 62.5177 77.8599 63.0697C78.2976 63.7293 78.4999 64.522 78.4329 65.3153C78.3659 66.1086 78.0337 66.8545 77.4919 67.4283C76.4204 68.6201 75.2406 69.706 73.9683 70.6714L73.3059 71.1494C70.2222 73.2818 66.692 74.6506 62.997 75.1465C59.3019 75.6424 55.5443 75.2517 52.0237 74.0057C48.5032 72.7596 45.3171 70.6927 42.7196 67.9697C40.1221 65.2467 38.1851 61.9429 37.063 58.322C35.9409 54.701 35.6648 50.863 36.2567 47.1141C36.8487 43.3651 38.2922 39.8089 40.4723 36.7292C42.6523 33.6494 45.5086 31.1313 48.8132 29.3756C52.1179 27.6199 55.7795 26.6753 59.506 26.617C62.6718 26.5687 65.8157 27.1595 68.7563 28.3553C71.6969 29.5511 74.3761 31.3283 76.6392 33.5843C78.9022 35.8404 80.7045 38.5306 81.942 41.4999C83.1794 44.4691 83.8276 47.6587 83.8491 50.8844C83.8575 52.4764 83.7096 54.0653 83.4075 55.6273H65.486C64.5321 56.7936 63.2452 57.628 61.8043 58.0145C60.3634 58.4009 58.84 58.3202 57.4462 57.7835C56.0524 57.2468 54.8575 56.2808 54.0276 55.02C53.1977 53.7591 52.7742 52.2661 52.8159 50.7486C52.8577 49.2311 53.3627 47.7646 54.2606 46.5531C55.1585 45.3416 56.4047 44.4454 57.8258 43.9891C59.247 43.5328 60.7723 43.5391 62.1898 44.0072C63.6072 44.4753 64.8462 45.3819 65.7343 46.6008V46.554Z" fill="#FEFFFE"/>
<defs>
<filter id="filter0_d_2421_8582" x="0" y="0" width="119.805" height="128.031" filterUnits="userSpaceOnUse" color-interpolation-filters="sRGB">
<feFlood flood-opacity="0" result="BackgroundImageFix"/>
<feColorMatrix in="SourceAlpha" type="matrix" values="0 0 0 0 0 0 0 0 0 0 0 0 0 0 0 0 0 0 127 0" result="hardAlpha"/>
<feOffset dy="8"/>
<feGaussianBlur stdDeviation="4.5"/>
<feComposite in2="hardAlpha" operator="out"/>
<feColorMatrix type="matrix" values="0 0 0 0 0 0 0 0 0 0 0 0 0 0 0 0 0 0 0.04 0"/>
<feBlend mode="normal" in2="BackgroundImageFix" result="effect1_dropShadow_2421_8582"/>
<feBlend mode="normal" in="SourceGraphic" in2="effect1_dropShadow_2421_8582" result="shape"/>
</filter>
<linearGradient id="paint0_linear_2421_8582" x1="42.9198" y1="3.09333" x2="93.2607" y2="93.6001" gradientUnits="userSpaceOnUse">
<stop stop-color="#66B127"/>
<stop offset="1" stop-color="#3D9E47"/>
</linearGradient>
</defs>
</svg>
