<svg width="47" height="46" viewBox="0 0 47 46" fill="none" xmlns="http://www.w3.org/2000/svg">
<path fill-rule="evenodd" clip-rule="evenodd" d="M20.363 24.5633L9.86576 21.0642L9.86575 21.0642C7.51254 20.2798 6.33594 19.8876 6.33594 19.1668C6.33594 18.4461 7.51254 18.0539 9.86576 17.2695L34.8789 8.93175C36.5347 8.37982 37.3626 8.10386 37.7996 8.54088C38.2366 8.97789 37.9607 9.80578 37.4088 11.4616L37.4087 11.4616L29.071 36.4747C28.2866 38.828 27.8944 40.0046 27.1737 40.0046C26.4529 40.0046 26.0607 38.828 25.2763 36.4747L21.7772 25.9775L29.7974 17.9573C30.188 17.5668 30.188 16.9336 29.7974 16.5431C29.4069 16.1525 28.7737 16.1525 28.3832 16.5431L20.363 24.5633Z" fill="#66B127"/>
</svg>
