<svg width="50" height="50" viewBox="0 0 50 50" fill="none" xmlns="http://www.w3.org/2000/svg">
<path d="M25.0556 49.0447H4.25199C3.808 49.0447 3.36836 48.9573 2.95817 48.7874C2.54799 48.6175 2.17528 48.3685 1.86133 48.0545C1.22729 47.4205 0.871094 46.5605 0.871094 45.6639V24.8603C0.871094 20.077 2.28949 15.4012 4.94691 11.4241C7.60434 7.44698 11.3814 4.34719 15.8006 2.51673C20.2197 0.68626 25.0824 0.207327 29.7737 1.14049C34.4651 2.07365 38.7743 4.377 42.1566 7.75926C45.5388 11.1415 47.8422 15.4508 48.7753 20.1421C49.7085 24.8334 49.2296 29.6961 47.3991 34.1153C45.5686 38.5344 42.4689 42.3115 38.4917 44.9689C34.5146 47.6264 29.8388 49.0447 25.0556 49.0447Z" fill="white"/>
<path d="M25.0556 49.0438H4.25199C3.808 49.0438 3.36836 48.9563 2.95817 48.7864C2.54799 48.6165 2.17528 48.3675 1.86133 48.0535C1.22729 47.4195 0.871094 46.5595 0.871094 45.6629V24.8593C0.871094 20.0761 2.28949 15.4002 4.94691 11.4231C7.60434 7.446 11.3814 4.34621 15.8006 2.51575C20.2197 0.685283 25.0824 0.20635 29.7737 1.13951C34.4651 2.07268 38.7743 4.37603 42.1566 7.75829C45.5388 11.1405 47.8422 15.4498 48.7753 20.1411C49.7085 24.8325 49.2296 29.6952 47.3991 34.1143C45.5686 38.5334 42.4689 42.3105 38.4917 44.9679C34.5146 47.6254 29.8388 49.0438 25.0556 49.0438ZM24.9448 2.23819C19.3181 2.24472 12.8659 5.04228 8.88723 9.02097C4.90854 12.9997 2.45043 18.6193 2.4439 24.246L2.32102 47.0048C2.32102 47.1161 2.36522 47.2228 2.4439 47.3015C2.52257 47.3801 2.62928 47.4243 2.74055 47.4243L25.4864 47.3015C31.1151 47.3015 36.6653 45.2113 40.6454 41.2312C44.6255 37.2511 47.6865 30.436 47.6865 24.8072C47.6865 19.1785 45.3326 13.1642 41.3524 9.18409C37.0819 4.15041 30.5736 2.23819 24.9448 2.23819Z" fill="#66B127"/>
<circle cx="25.0568" cy="24.8595" r="15.8888" fill="url(#paint0_linear_2407_8332)"/>
<mask id="mask0_2407_8332" style="mask-type:alpha" maskUnits="userSpaceOnUse" x="9" y="8" width="32" height="33">
<circle cx="25.0568" cy="24.8595" r="15.8888" fill="white"/>
</mask>
<g mask="url(#mask0_2407_8332)">
<g filter="url(#filter0_d_2407_8332)">
<path fill-rule="evenodd" clip-rule="evenodd" d="M19.231 31.1925C21.173 32.6049 23.1149 33.7347 25.0569 33.7347C26.9989 33.7347 28.9408 32.6049 30.8828 31.1925C29.2821 30.7053 28.4702 29.9781 28.447 29.0108C28.4475 28.8384 28.4483 28.5935 28.4494 28.1336C28.4496 28.0606 28.4498 27.9858 28.45 27.9093C28.4532 26.6763 28.4584 25.0497 28.4657 23.3968C29.9838 21.4291 29.4261 19.1221 28.9503 19.1796C28.3666 19.2502 23.3137 14.4552 22.3444 14.2099C21.3752 13.9645 18.9132 14.7572 18.4895 16.9684C18.0658 19.1796 17.8887 24.7532 19.4958 26.9784C19.9531 27.6116 20.6733 27.8593 21.6564 27.7214C21.6577 28.1842 21.6605 28.4439 21.6673 28.9681C21.6547 29.9796 20.8426 30.7058 19.231 31.1925Z" fill="url(#paint1_linear_2407_8332)"/>
<mask id="mask1_2407_8332" style="mask-type:alpha" maskUnits="userSpaceOnUse" x="18" y="14" width="13" height="20">
<path fill-rule="evenodd" clip-rule="evenodd" d="M19.231 31.1925C21.173 32.6049 23.1149 33.7347 25.0569 33.7347C26.9989 33.7347 28.9408 32.6049 30.8828 31.1925C29.2821 30.7053 28.4702 29.9781 28.447 29.0108C28.4475 28.8384 28.4483 28.5935 28.4494 28.1336C28.4496 28.0606 28.4498 27.9858 28.45 27.9093C28.4532 26.6763 28.4584 25.0497 28.4657 23.3968C29.9838 21.4291 29.4261 19.1221 28.9503 19.1796C28.3666 19.2502 23.3137 14.4552 22.3444 14.2099C21.3752 13.9645 18.9132 14.7572 18.4895 16.9684C18.0658 19.1796 17.8887 24.7532 19.4958 26.9784C19.9531 27.6116 20.6733 27.8593 21.6564 27.7214C21.6577 28.1842 21.6605 28.4439 21.6673 28.9681C21.6547 29.9796 20.8426 30.7058 19.231 31.1925Z" fill="white"/>
</mask>
<g mask="url(#mask1_2407_8332)">
<path d="M21.6632 27.7203C23.9936 27.4555 25.4766 26.4492 25.4766 26.4492C25.4766 26.4492 23.7818 28.5677 21.6632 28.9914V27.7203Z" fill="#FC9F6A"/>
</g>
<path d="M29.2398 23.43C29.9696 21.6748 32.8942 18.1002 30.3733 15.8758C29.5259 11.7447 24.8438 12.2019 21.719 13.1552C19.6189 13.796 18.033 15.0619 17.6939 14.1086C15.5754 15.8758 16.6363 17.6041 18.033 18.1002C19.3005 18.5504 21.444 19.0006 25.0882 18.5769C25.7392 18.5012 25.6029 20.495 25.9508 20.7106C26.4726 21.0339 26.8777 19.0006 28.3085 19.6111C29.7393 20.2216 28.8903 23.0526 27.3544 23.0526C26.8248 23.0526 26.56 24.5087 27.99 25.1972C29.0279 25.7074 28.7655 24.5705 29.2398 23.43Z" fill="url(#paint2_linear_2407_8332)"/>
</g>
<path d="M36.1809 34.4265C37.1893 36.4768 37.7698 41.2057 37.7698 41.2057H12.3477C12.3477 41.2057 12.9284 36.4763 13.9365 34.4265C14.9447 32.3766 20.8322 30.4753 20.8322 30.4753C24.0855 31.7462 26.0764 31.746 29.2821 30.4746C29.2821 30.4746 35.1725 32.3761 36.1809 34.4265Z" fill="url(#paint3_linear_2407_8332)"/>
<path d="M25.7977 31.2162L26.3274 40.9613H23.7852L24.3148 31.2162C24.3148 31.2162 24.8091 30.6865 25.0563 30.6865C25.3034 30.6865 25.7977 31.2162 25.7977 31.2162Z" fill="url(#paint4_linear_2407_8332)"/>
<path d="M25.9157 33.1961L24.25 32.2337L24.312 31.2162C24.6416 30.8631 24.8887 30.6865 25.0535 30.6865C25.2183 30.6865 25.4655 30.8631 25.795 31.2162L25.9157 33.1961Z" fill="#645050"/>
<mask id="mask2_2407_8332" style="mask-type:alpha" maskUnits="userSpaceOnUse" x="24" y="30" width="2" height="4">
<path d="M25.9157 33.1961L24.25 32.2337L24.312 31.2162C24.6416 30.8631 24.8887 30.6865 25.0535 30.6865C25.2183 30.6865 25.4655 30.8631 25.795 31.2162L25.9157 33.1961Z" fill="white"/>
</mask>
<g mask="url(#mask2_2407_8332)">
</g>
<path fill-rule="evenodd" clip-rule="evenodd" d="M25.06 30.6812L26.1215 32.5927L29.4052 30.5802L28.4518 29.2031L25.06 30.4561L21.6682 29.2031L20.7148 30.5802L23.9985 32.5927L25.06 30.6812Z" fill="white"/>
</g>
<defs>
<filter id="filter0_d_2407_8332" x="4.49609" y="7.50781" width="38.8828" height="45.2266" filterUnits="userSpaceOnUse" color-interpolation-filters="sRGB">
<feFlood flood-opacity="0" result="BackgroundImageFix"/>
<feColorMatrix in="SourceAlpha" type="matrix" values="0 0 0 0 0 0 0 0 0 0 0 0 0 0 0 0 0 0 127 0" result="hardAlpha"/>
<feOffset dy="7"/>
<feGaussianBlur stdDeviation="6"/>
<feColorMatrix type="matrix" values="0 0 0 0 0 0 0 0 0 0 0 0 0 0 0.145098 0 0 0 0.04 0"/>
<feBlend mode="normal" in2="BackgroundImageFix" result="effect1_dropShadow_2407_8332"/>
<feBlend mode="normal" in="SourceGraphic" in2="effect1_dropShadow_2407_8332" result="shape"/>
</filter>
<linearGradient id="paint0_linear_2407_8332" x1="9.16797" y1="8.9707" x2="9.16797" y2="40.7484" gradientUnits="userSpaceOnUse">
<stop stop-color="#806A6A"/>
<stop offset="1" stop-color="#665654"/>
</linearGradient>
<linearGradient id="paint1_linear_2407_8332" x1="30.8828" y1="14.167" x2="30.8828" y2="33.7347" gradientUnits="userSpaceOnUse">
<stop stop-color="#F7B186"/>
<stop offset="1" stop-color="#FFC299"/>
</linearGradient>
<linearGradient id="paint2_linear_2407_8332" x1="31.3789" y1="12.5078" x2="31.3789" y2="25.3227" gradientUnits="userSpaceOnUse">
<stop stop-color="#1D0024"/>
<stop offset="1" stop-color="#100014"/>
</linearGradient>
<linearGradient id="paint3_linear_2407_8332" x1="12.3477" y1="30.4746" x2="12.3477" y2="41.2057" gradientUnits="userSpaceOnUse">
<stop stop-color="#1D0024"/>
<stop offset="1" stop-color="#100014"/>
</linearGradient>
<linearGradient id="paint4_linear_2407_8332" x1="23.7852" y1="30.6865" x2="23.7852" y2="40.9613" gradientUnits="userSpaceOnUse">
<stop stop-color="#806A6A"/>
<stop offset="1" stop-color="#665654"/>
</linearGradient>
</defs>
</svg>
