<svg width="25" height="25" viewBox="0 0 25 25" fill="none" xmlns="http://www.w3.org/2000/svg">
<path d="M12.2383 9.02046C14.0082 9.02046 15.4562 10.4685 15.4562 12.2383C15.4562 14.0082 14.0082 15.4562 12.2383 15.4562C10.4685 15.4562 9.02046 14.0082 9.02046 12.2383C9.02046 10.4685 10.4685 9.02046 12.2383 9.02046ZM12.2383 6.87521C9.27789 6.87521 6.87521 9.27789 6.87521 12.2383C6.87521 15.1988 9.27789 17.6015 12.2383 17.6015C15.1988 17.6015 17.6015 15.1988 17.6015 12.2383C17.6015 9.27789 15.1988 6.87521 12.2383 6.87521ZM1.51208 13.311H3.65733C4.24727 13.311 4.72996 12.8283 4.72996 12.2383C4.72996 11.6484 4.24727 11.1657 3.65733 11.1657H1.51208C0.922135 11.1657 0.439453 11.6484 0.439453 12.2383C0.439453 12.8283 0.922135 13.311 1.51208 13.311ZM20.8193 13.311H22.9646C23.5545 13.311 24.0372 12.8283 24.0372 12.2383C24.0372 11.6484 23.5545 11.1657 22.9646 11.1657H20.8193C20.2294 11.1657 19.7467 11.6484 19.7467 12.2383C19.7467 12.8283 20.2294 13.311 20.8193 13.311ZM11.1657 1.51208V3.65733C11.1657 4.24727 11.6484 4.72996 12.2383 4.72996C12.8283 4.72996 13.311 4.24727 13.311 3.65733V1.51208C13.311 0.922135 12.8283 0.439453 12.2383 0.439453C11.6484 0.439453 11.1657 0.922135 11.1657 1.51208ZM11.1657 20.8193V22.9646C11.1657 23.5545 11.6484 24.0372 12.2383 24.0372C12.8283 24.0372 13.311 23.5545 13.311 22.9646V20.8193C13.311 20.2294 12.8283 19.7467 12.2383 19.7467C11.6484 19.7467 11.1657 20.2294 11.1657 20.8193ZM5.79185 4.27945C5.69262 4.18002 5.57475 4.10113 5.44499 4.0473C5.31524 3.99348 5.17613 3.96577 5.03565 3.96577C4.89517 3.96577 4.75607 3.99348 4.62631 4.0473C4.49655 4.10113 4.37869 4.18002 4.27945 4.27945C4.18002 4.37869 4.10113 4.49655 4.0473 4.62631C3.99348 4.75607 3.96577 4.89517 3.96577 5.03565C3.96577 5.17613 3.99348 5.31524 4.0473 5.44499C4.10113 5.57475 4.18002 5.69262 4.27945 5.79185L5.41644 6.92884C5.83476 7.34716 6.52124 7.34716 6.92884 6.92884C7.33644 6.51051 7.34716 5.82403 6.92884 5.41644L5.79185 4.27945ZM19.0602 17.5478C18.961 17.4484 18.8431 17.3695 18.7134 17.3157C18.5836 17.2619 18.4445 17.2341 18.304 17.2341C18.1636 17.2341 18.0245 17.2619 17.8947 17.3157C17.7649 17.3695 17.6471 17.4484 17.5478 17.5478C17.4484 17.6471 17.3695 17.7649 17.3157 17.8947C17.2619 18.0245 17.2341 18.1636 17.2341 18.304C17.2341 18.4445 17.2619 18.5836 17.3157 18.7134C17.3695 18.8431 17.4484 18.961 17.5478 19.0602L18.6848 20.1972C19.1031 20.6155 19.7896 20.6155 20.1972 20.1972C20.2967 20.098 20.3755 19.9801 20.4294 19.8504C20.4832 19.7206 20.5109 19.5815 20.5109 19.441C20.5109 19.3005 20.4832 19.1614 20.4294 19.0317C20.3755 18.9019 20.2967 18.784 20.1972 18.6848L19.0602 17.5478ZM20.1972 5.79185C20.2967 5.69262 20.3755 5.57475 20.4294 5.44499C20.4832 5.31524 20.5109 5.17613 20.5109 5.03565C20.5109 4.89517 20.4832 4.75607 20.4294 4.62631C20.3755 4.49655 20.2967 4.37869 20.1972 4.27945C20.098 4.18002 19.9801 4.10113 19.8504 4.0473C19.7206 3.99348 19.5815 3.96577 19.441 3.96577C19.3005 3.96577 19.1614 3.99348 19.0317 4.0473C18.9019 4.10113 18.784 4.18002 18.6848 4.27945L17.5478 5.41644C17.1295 5.83476 17.1295 6.52124 17.5478 6.92884C17.9662 7.33644 18.6526 7.34716 19.0602 6.92884L20.1972 5.79185ZM6.92884 19.0602C7.02827 18.961 7.10716 18.8431 7.16099 18.7134C7.21482 18.5836 7.24252 18.4445 7.24252 18.304C7.24252 18.1636 7.21482 18.0245 7.16099 17.8947C7.10716 17.7649 7.02827 17.6471 6.92884 17.5478C6.82961 17.4484 6.71174 17.3695 6.58198 17.3157C6.45222 17.2619 6.31312 17.2341 6.17264 17.2341C6.03216 17.2341 5.89306 17.2619 5.7633 17.3157C5.63354 17.3695 5.51567 17.4484 5.41644 17.5478L4.27945 18.6848C3.86113 19.1031 3.86113 19.7896 4.27945 20.1972C4.69778 20.6048 5.38426 20.6155 5.79185 20.1972L6.92884 19.0602Z" fill="#547383"/>
</svg>
