<svg width="34" height="34" viewBox="0 0 34 34" fill="none" xmlns="http://www.w3.org/2000/svg">
<path d="M17.4586 31.9602C9.30616 31.9602 2.67969 25.3338 2.67969 17.1813C2.67969 9.02881 9.30616 2.40234 17.4586 2.40234C25.6111 2.40234 32.2376 9.02881 32.2376 17.1813C32.2376 25.3338 25.6111 31.9602 17.4586 31.9602ZM17.4586 4.46452C10.4472 4.46452 4.74187 10.1699 4.74187 17.1813C4.74187 24.1927 10.4472 29.8981 17.4586 29.8981C24.47 29.8981 30.1754 24.1927 30.1754 17.1813C30.1754 10.1699 24.47 4.46452 17.4586 4.46452Z" fill="#3D9E47"/>
<path d="M13.5706 22.1027C13.3094 22.1027 13.0482 22.0065 12.842 21.8003C12.4433 21.4016 12.4433 20.7417 12.842 20.343L20.6233 12.5617C21.022 12.163 21.6819 12.163 22.0805 12.5617C22.4792 12.9604 22.4792 13.6203 22.0805 14.019L14.2993 21.8003C14.1068 22.0065 13.8318 22.1027 13.5706 22.1027Z" fill="#3D9E47"/>
<path d="M21.3519 22.1027C21.0907 22.1027 20.8295 22.0065 20.6233 21.8003L12.842 14.019C12.4433 13.6203 12.4433 12.9604 12.842 12.5617C13.2407 12.163 13.9006 12.163 14.2993 12.5617L22.0805 20.343C22.4792 20.7417 22.4792 21.4016 22.0805 21.8003C21.8743 22.0065 21.6131 22.1027 21.3519 22.1027Z" fill="#3D9E47"/>
</svg>
