<svg width="120" height="29" viewBox="0 0 120 29" fill="none" xmlns="http://www.w3.org/2000/svg">
<g clip-path="url(#clip0_2778_8461)">
<path d="M24.4779 18.9808C24.4532 17.4538 24.7787 15.9415 25.4294 14.5599C26.0109 13.2986 26.9476 12.2342 28.1247 11.497C29.3018 10.7598 30.6684 10.3818 32.057 10.4093C33.0941 10.374 34.126 10.5695 35.0782 10.9819C36.0304 11.3943 36.8791 12.0132 37.5627 12.7938C38.9697 14.3834 39.672 16.4877 39.6695 19.1067V19.4992C39.6953 21.0334 39.3698 22.5532 38.718 23.9422C38.1413 25.1971 37.2093 26.2552 36.0373 26.9857C34.8516 27.7159 33.4826 28.0935 32.0903 28.0743C31.0549 28.1085 30.0247 27.9127 29.074 27.5011C28.1232 27.0894 27.2756 26.4721 26.592 25.6936C25.1826 24.1064 24.4779 22.0009 24.4779 19.377V18.9808ZM26.3662 19.4992C26.3662 21.5356 26.8932 23.2054 27.9472 24.5087C28.4487 25.1209 29.0798 25.614 29.795 25.9527C30.5102 26.2913 31.2916 26.4669 32.0829 26.4669C32.8743 26.4669 33.6557 26.2913 34.3709 25.9527C35.0861 25.614 35.7172 25.1209 36.2187 24.5087C37.2752 23.2054 37.8022 21.4776 37.7997 19.3251V18.9549C37.8086 17.7261 37.5561 16.5094 37.0592 15.3856C36.6346 14.3837 35.9382 13.5205 35.0487 12.8938C34.1659 12.2984 33.1217 11.9882 32.057 12.0052C31.264 11.9912 30.4789 12.1651 29.7659 12.5126C29.0529 12.8601 28.4322 13.3713 27.9546 14.0045C26.8956 15.3227 26.3662 17.0505 26.3662 19.1881V19.4992Z" fill="black"/>
<path d="M45.0274 10.7243L45.0904 13.6345C45.6716 12.6452 46.4947 11.8196 47.4822 11.2353C48.4433 10.6818 49.5353 10.3966 50.6442 10.4096C52.4659 10.4096 53.8235 10.923 54.7171 11.9499C55.6106 12.9767 56.0611 14.5182 56.0685 16.5744V27.7413H54.1987V16.5596C54.1987 15.0378 53.8655 13.9085 53.2286 13.1606C52.5918 12.4127 51.581 12.0498 50.1851 12.0498C49.0589 12.0363 47.9644 12.4234 47.0972 13.1421C46.1658 13.9206 45.4749 14.9479 45.1052 16.1042V27.7413H43.2539V10.7095L45.0274 10.7243Z" fill="black"/>
<path d="M86.0684 6.36523V10.7232H89.6043V12.2634H86.0832V23.6303C86.0832 24.5782 86.2535 25.2817 86.5941 25.7408C86.9348 26.2036 87.5013 26.4369 88.301 26.4369C88.8124 26.4161 89.3219 26.3629 89.8265 26.2777L89.9042 27.8068C89.2517 28.0038 88.5713 28.0926 87.89 28.0697C86.6015 28.0697 85.6685 27.6994 85.0761 26.9589C84.4837 26.2184 84.1949 25.1076 84.1949 23.6266V12.2634H81.0625V10.7232H84.1949V6.36523H86.0684Z" fill="black"/>
<path d="M70.9504 16.6626H74.5938C74.2326 15.417 73.4904 14.3159 72.4712 13.514C71.4521 12.712 70.2073 12.2495 68.9118 12.1913C67.6163 12.1332 66.3351 12.4824 65.2482 13.1899C64.1614 13.8974 63.3235 14.9277 62.8523 16.1359C62.3811 17.3441 62.3003 18.6695 62.6211 19.926C62.942 21.1826 63.6485 22.307 64.6413 23.1413C65.6341 23.9756 66.8634 24.478 68.1564 24.5777C69.4494 24.6775 70.7411 24.3696 71.8501 23.6975C72.1096 23.5449 72.3572 23.3728 72.5907 23.1828L72.8313 22.9755L72.8758 22.9347C73.0951 22.7278 73.3578 22.5723 73.6447 22.4794C73.9316 22.3866 74.2355 22.3587 74.5345 22.3979C74.795 22.4268 75.046 22.5124 75.2698 22.6486C75.4937 22.7849 75.685 22.9685 75.8304 23.1865C76.0066 23.4471 76.088 23.7602 76.061 24.0736C76.034 24.3869 75.9004 24.6816 75.6823 24.9082C75.2511 25.379 74.7763 25.8079 74.2642 26.1893L73.9976 26.3781C72.7566 27.2204 71.3358 27.7611 69.8488 27.957C68.3617 28.1529 66.8494 27.9986 65.4325 27.5064C64.0157 27.0142 62.7334 26.1977 61.688 25.1221C60.6427 24.0465 59.8631 22.7414 59.4115 21.3111C58.9599 19.8808 58.8488 18.3647 59.087 16.8838C59.3253 15.4029 59.9062 13.9982 60.7836 12.7817C61.661 11.5651 62.8105 10.5704 64.1404 9.8769C65.4704 9.18339 66.944 8.81024 68.4438 8.78722C69.7179 8.76812 70.9832 9.00149 72.1666 9.47386C73.3501 9.94622 74.4283 10.6482 75.3391 11.5394C76.2499 12.4306 76.9752 13.4933 77.4732 14.6662C77.9713 15.8391 78.2321 17.0989 78.2408 18.3732C78.2442 19.002 78.1846 19.6297 78.0631 20.2467H70.8505C70.4666 20.7074 69.9487 21.037 69.3688 21.1896C68.7888 21.3423 68.1758 21.3104 67.6148 21.0984C67.0539 20.8864 66.573 20.5048 66.239 20.0068C65.905 19.5087 65.7346 18.919 65.7514 18.3195C65.7682 17.7201 65.9714 17.1408 66.3328 16.6622C66.6941 16.1837 67.1957 15.8297 67.7676 15.6494C68.3395 15.4692 68.9534 15.4717 69.5239 15.6566C70.0943 15.8415 70.593 16.1996 70.9504 16.6811V16.6626Z" fill="url(#paint0_linear_2778_8461)"/>
<path d="M2.13638 12.8382C3.31628 12.8382 4.27277 11.8817 4.27277 10.7018C4.27277 9.52192 3.31628 8.56543 2.13638 8.56543C0.956491 8.56543 0 9.52192 0 10.7018C0 11.8817 0.956491 12.8382 2.13638 12.8382Z" fill="black"/>
<path d="M10.5153 18.3909C11.6952 18.3909 12.6517 17.4344 12.6517 16.2545C12.6517 15.0747 11.6952 14.1182 10.5153 14.1182C9.3354 14.1182 8.37891 15.0747 8.37891 16.2545C8.37891 17.4344 9.3354 18.3909 10.5153 18.3909Z" fill="black"/>
<path d="M2.41517 7.05105C3.38444 7.05105 4.17019 6.2653 4.17019 5.29603C4.17019 4.32676 3.38444 3.54102 2.41517 3.54102C1.4459 3.54102 0.660156 4.32676 0.660156 5.29603C0.660156 6.2653 1.4459 7.05105 2.41517 7.05105Z" fill="black"/>
<path d="M19.3605 7.05105C20.3298 7.05105 21.1155 6.2653 21.1155 5.29603C21.1155 4.32676 20.3298 3.54102 19.3605 3.54102C18.3912 3.54102 17.6055 4.32676 17.6055 5.29603C17.6055 6.2653 18.3912 7.05105 19.3605 7.05105Z" fill="black"/>
<path d="M18.9853 4.8291L11.1655 10.8569C10.9884 10.9953 10.77 11.0705 10.5453 11.0705C10.3205 11.0705 10.1022 10.9953 9.92509 10.8569L2.10156 4.8291" stroke="black" stroke-width="1.11077" stroke-miterlimit="10"/>
<path d="M0.515625 11.6309H3.74797V26.7373C3.74408 26.995 3.63899 27.2408 3.4554 27.4216C3.27182 27.6024 3.02447 27.7037 2.76679 27.7037H1.50051C1.24219 27.7047 0.993894 27.6038 0.809508 27.4229C0.625122 27.242 0.519522 26.9956 0.515625 26.7373V11.6309Z" fill="black"/>
<path d="M19.3629 12.8382C20.5428 12.8382 21.4993 11.8817 21.4993 10.7018C21.4993 9.52192 20.5428 8.56543 19.3629 8.56543C18.1831 8.56543 17.2266 9.52192 17.2266 10.7018C17.2266 11.8817 18.1831 12.8382 19.3629 12.8382Z" fill="black"/>
<path d="M17.7461 11.6309H20.9784V26.7373C20.9745 26.995 20.8695 27.2408 20.6859 27.4216C20.5023 27.6024 20.2549 27.7037 19.9973 27.7037H18.731C18.6021 27.7037 18.4745 27.6783 18.3555 27.629C18.2365 27.5797 18.1283 27.5074 18.0372 27.4163C17.9461 27.3252 17.8738 27.2171 17.8245 27.098C17.7752 26.979 17.7498 26.8514 17.7498 26.7225V11.6309H17.7461Z" fill="black"/>
<path d="M8.88672 17.4658H12.1191V26.7222C12.1191 26.9806 12.0172 27.2285 11.8356 27.4121C11.654 27.5958 11.4073 27.7005 11.149 27.7034H9.88271C9.75386 27.7054 9.62588 27.6819 9.50608 27.6344C9.38629 27.5869 9.27703 27.5163 9.18454 27.4266C9.09205 27.3368 9.01815 27.2297 8.96704 27.1114C8.91594 26.9931 8.88865 26.8659 8.88672 26.7371V17.4806V17.4658Z" fill="black"/>
<path d="M103.384 21.5099L106.432 26.8046H110.449L104.41 16.9854C103.81 17.9456 103.218 18.9786 102.633 20.0844C102.833 20.4991 103.103 21.01 103.384 21.5099Z" fill="black"/>
<path d="M100.89 11.9491L98.2017 7.13574H94.1289L99.1829 15.485C99.8753 14.5927 100.608 13.7078 101.375 12.8562C101.223 12.5526 101.056 12.249 100.89 11.9491Z" fill="black"/>
<path d="M119.012 0.304688C119.012 0.304688 103.017 11.3013 98.5365 27.8481H92.4531C92.4531 27.8481 103.017 6.38431 119.012 0.304688Z" fill="black"/>
</g>
<defs>
<linearGradient id="paint0_linear_2778_8461" x1="59.0133" y1="18.3843" x2="78.2445" y2="18.3843" gradientUnits="userSpaceOnUse">
<stop stop-color="#70B544"/>
<stop offset="0.24" stop-color="#6AB244"/>
<stop offset="0.56" stop-color="#59AB45"/>
<stop offset="0.92" stop-color="#3E9E47"/>
<stop offset="1" stop-color="#379B47"/>
</linearGradient>
<clipPath id="clip0_2778_8461">
<rect width="119.012" height="27.7508" fill="white" transform="translate(0 0.304688)"/>
</clipPath>
</defs>
</svg>
